M48
;Layer_Color=9474304
;FILE_FORMAT=2:4
INCH,LZ
;TYPE=PLATED
T1F00S00C0.0118
T2F00S00C0.0236
T3F00S00C0.0394
T4F00S00C0.0433
T5F00S00C0.0472
T6F00S00C0.0512
;TYPE=NON_PLATED
T7F00S00C0.0394
T8F00S00C0.1181
%
T01
X-018016Y-00666
X-018465Y-006193
X-018995Y-00561
X-016951Y-005513
X-016399Y-006645
X-016404Y-00798
X-016913Y-007601
X-017447Y-007127
X-015702Y-008447
X-014845Y-008904
X-014234Y-009206
X-013746Y-009434
X-014112Y-008407
X-014307Y-007741
X-014759Y-007757
X-015016Y-006221
X-013811Y-006803
X-012992Y-007087
X-013092Y-008063
X-012184Y-009183
X-010999Y-008695
X-01018Y-008701
X-009688Y-008175
X-010499Y-007045
X-010039Y-010433
X-009055Y-01063
X-00748
X-006496Y-010433
X-005849Y-008795
X-006149Y-007795
X-006649Y-008195
X-007349Y-008745
X-007899Y-007295
X-007799Y-006595
X-007999Y-005945
X-006549Y-005295
X-004049Y-005945
X-003849Y-006595
X-003949Y-007245
X-003352Y-008148
X-003399Y-005145
X-004049Y-004295
X-004749Y-004245
X-005399
X-006349Y-004445
X-007299Y-004245
X-007349Y-003095
X-006999Y-002445
X-005899Y-002395
Y-003495
X-006399Y-001695
X-006249Y-000895
Y-000545
X-005796Y-001292
X-004499Y-001295
X-004393Y-001749
X-004424Y-00017
X-004205Y000454
Y001417
X-003366Y001624
Y001131
X-002677Y00123
X-002699Y000455
X-003249Y000355
X-003499Y-000895
X-003899Y-000545
X-002649Y-000895
X-001299Y000541
X000275Y000639
X000669Y000442
X001752Y-00005
X001683Y002765
X00209
X001262Y002765
X000846Y002765
X000778Y003914
X001279Y003907
X001594Y004458
X00244Y005266
X002401Y006155
X002301Y007255
X002166Y008241
X002154Y008725
X002154Y009234
X002155Y009599
X003051Y009655
X005053Y00949
X004796Y010086
X00539Y00876
X005592Y008251
X005525Y007694
X005278Y007178
X005038Y006688
X003101Y006705
X001401Y006915
X000901Y006385
X000357Y005732
X000429Y005192
X-000315Y004872
Y004281
X-000906
Y004872
X-00061Y004576
X-001516Y00525
X-001268Y005806
X-001549Y006485
X-002139Y006325
X-002719Y006555
X-003451Y006301
X-00346Y007009
X-003502Y007355
X-003944Y007745
X-003896Y008157
X-00389Y008655
X-003922Y009182
X-003488Y009666
X-003549Y010155
X-002299Y009355
X-001222Y008972
X-000772
Y008522
X-001222
Y007972
X-000772
X-000222
X000228
X000178Y008522
X000213Y008936
X-000272Y008972
Y008522
X001125Y008661
X000807Y009757
X-002149Y007305
X-005211Y006983
X-005099Y006505
Y005655
X-004599Y005005
X-003399Y005105
Y004555
X-002949
X-002943Y003638
X-002943Y003227
X-002925Y002775
X-001588Y002792
X-001208Y002851
X-000893Y002252
X000044Y003213
X-001759Y003695
X-004349Y003005
X-005496Y003082
X-005549Y003655
X-005891Y003555
X-006665Y004041
X-007367Y003809
X-007299Y003005
X-006881Y00222
X-005554Y002193
X-005211Y001137
X-005099Y004105
X-006326Y006011
X-00626Y006417
X-006999Y006505
X-006946Y006002
X-007091Y005466
X-007919Y005005
X-008499
Y004424
X-00908Y005005
X-008499Y005586
Y006355
X-008549Y006855
X-008799Y007505
X-008189Y007638
X-008499Y008355
X-007899Y008905
X-007908Y009454
X-007899Y010205
X-009099Y010305
X-006949Y009105
X-007008Y007638
X-005899Y007755
X-005599Y008155
X-006099Y008255
X-005349Y008655
X-005099Y009155
X-008573Y002536
X-008966
Y002142
X-008573
X-00805Y-000892
X-00834Y-001748
X-008499Y-004245
X-003399Y-003195
X-009949Y-002995
X-009899Y-001595
X-009746Y-000446
X-011228Y-000232
X-012188Y000662
X-013082Y001579
X-013682Y002201
X-014961Y001772
X-015354
X-015945Y001378
X-016999Y001305
X-01618Y003248
X-016093Y004121
X-016159Y005157
X-013549Y005105
X-012558Y005564
X-012166Y0052
X-012099Y004305
X-01208Y00388
X-011649Y003705
Y004305
X-011599Y005705
X-011099
X-011299Y006005
X-010599Y006505
X-010049Y006105
X-009699Y006555
Y007555
X-009494Y008267
X-009498Y009464
X-009449Y010305
X-013949Y008255
Y007905
X-014799Y008355
X-016996Y008652
X-017121Y009374
X-016534Y00938
X-016372Y010039
X-017399Y007852
X-017641Y006709
X-019399Y006905
X-019959Y006207
X-020899Y006405
X-02217Y006196
X-022286Y005455
X-022405Y003654
X-022381Y00285
X-022314Y002077
X-022212Y00134
X-02204Y000507
X-021868Y-000181
X-021636Y-000939
X-021352Y-001726
X-021078Y-002369
X-020758Y-003025
X-020337Y-003742
X-019937Y-004381
X-019441Y-005062
X-018049Y-004895
X-016899Y-004245
X-016929Y-00315
X-017799Y-002845
X-017049Y-001695
X-015949Y-003395
X-014173Y-003543
X-01378Y-004331
X-014399Y-004895
X-015749Y-005145
X-018999Y-003895
X-018399Y-000145
X-020249Y000055
X-020649Y001255
X-019799Y002055
X-020919Y003308
X-0196Y005028
X-019187Y005023
X-019505Y008406
X-020512Y008984
X-021229Y009386
X-021557Y008541
X-021778Y007848
X-021983Y007121
X-020797Y0103
X-01213Y006412
X-012165Y002962
X-01124Y00212
X-010427Y001396
X-009248Y001281
X-010049Y003305
X-010499
X-012992Y-001181
X-013583Y-000787
X-015249Y-000045
X-009949Y-004745
X-009349Y-004295
X-010549Y012305
Y014405
X-010211Y015054
X-010999Y015905
Y017105
X-011399Y017655
X-010399Y017855
X-010052Y017279
X-012289Y017063
X-014179Y016498
X-013549Y015344
X-013949Y013405
X-014992Y013559
X-015904Y015414
X-016847Y011209
X-016894Y010616
X-018606Y010802
X-019241Y011432
X-019856Y011737
X-020358Y011031
X-013466Y011769
X-012246Y013041
X-012054Y013344
X-008799Y013705
X-008499Y012072
X-008535Y010866
X-005749Y011105
X-005125Y011146
X-005382Y011437
X-004849Y011455
X-004196Y010879
X-003596Y010552
X-0023Y010434
X-001902Y010408
X-002099Y012055
X-002149Y012455
X-002649Y012255
X-002852Y01263
X-002571Y012882
X-002699Y013755
X-00295Y014805
X-002849Y015405
X-001565Y01523
X-001112Y01609
X-001774Y016532
X-002549Y016865
X-003379Y017198
X-003749Y016305
X-004408Y017517
X-005482Y01777
X-006347Y017924
X-00757Y01803
X-007699Y017205
X-008999Y017975
X-005249Y015805
X-005333Y015404
X-005449Y015055
X-005299Y014705
Y014305
X-005099Y013889
X-003499Y014405
X-004199Y012655
X-003349Y011855
X-000699Y011605
X-001129Y012697
X-000242Y012703
X000451Y012355
X000659Y01081
X00139Y01136
Y013386
X002319Y013571
X002841Y013063
X003336Y012442
X003761Y011841
X001744Y014154
X001039Y014746
T02
X-012545Y-008067
X-012053
X-008745Y-008745
X-008253
X-004795
X-004303
T03
X-021691Y002797
X-021691Y004568
T04
X-015741Y011262
X-015034Y01197
T05
X-009124Y0129
X-007155
Y01536
Y016344
X-00814
X-009124
Y01536
X-00814
T06
X-020688Y002305
X-020688Y005061
T07
X-004788Y013389
X-003988
X-004388Y016389
T08
X-000325Y-00769
X-019399Y-001795
Y009622
X-000325Y015125
M30
