G04*
G04 #@! TF.GenerationSoftware,Altium Limited,Altium Designer,20.0.2 (26)*
G04*
G04 Layer_Color=8388736*
%FSLAX25Y25*%
%MOIN*%
G70*
G01*
G75*
%ADD10C,0.00787*%
%ADD12C,0.00800*%
%ADD110C,0.03543*%
G36*
X9232Y-2410D02*
X7734Y-5621D01*
X-1522Y-1305D01*
X-1693Y-835D01*
X-344Y2056D01*
X9232Y-2410D01*
D02*
G37*
G36*
X17998Y-6488D02*
X16500Y-9700D01*
X9477Y-6425D01*
X9306Y-5955D01*
X10654Y-3064D01*
X17998Y-6488D01*
D02*
G37*
G36*
X-3128Y4198D02*
X-6671D01*
Y10672D01*
X-3128D01*
Y4198D01*
D02*
G37*
G36*
Y12247D02*
X-6671D01*
Y18632D01*
X-3128D01*
Y12247D01*
D02*
G37*
G36*
Y20207D02*
X-6671D01*
Y30634D01*
X-3128D01*
Y20207D01*
D02*
G37*
D10*
X67089Y36880D02*
G03*
X67089Y36880I-147500J0D01*
G01*
D12*
X98489Y22835D02*
X112474Y36820D01*
X2055Y18418D02*
X2737D01*
X-2362Y22835D02*
X2055Y18418D01*
X2334Y27531D02*
X2990D01*
X-2362Y22835D02*
X2334Y27531D01*
X-2362Y22835D02*
X98489D01*
X112474Y36820D01*
Y82783D01*
X67255Y97684D02*
X60695D01*
Y92764D01*
X63975Y94404D01*
X65615D01*
X67255Y92764D01*
Y89484D01*
X65615Y87844D01*
X62335D01*
X60695Y89484D01*
X70535Y96044D02*
X72174Y97684D01*
X75454D01*
X77094Y96044D01*
Y89484D01*
X75454Y87844D01*
X72174D01*
X70535Y89484D01*
Y96044D01*
X95133Y97684D02*
X91853D01*
X90213Y96044D01*
Y89484D01*
X91853Y87844D01*
X95133D01*
X96773Y89484D01*
Y96044D01*
X95133Y97684D01*
X100053D02*
Y87844D01*
Y92764D01*
X106612D01*
Y97684D01*
Y87844D01*
X109892D02*
Y97684D01*
X113172Y94404D01*
X116452Y97684D01*
Y87844D01*
X129571Y97684D02*
X132850D01*
X131210D01*
Y87844D01*
X129571D01*
X132850D01*
X137770D02*
Y94404D01*
X139410D01*
X141050Y92764D01*
Y87844D01*
Y92764D01*
X142690Y94404D01*
X144330Y92764D01*
Y87844D01*
X147609Y84564D02*
Y94404D01*
X152529D01*
X154169Y92764D01*
Y89484D01*
X152529Y87844D01*
X147609D01*
X162368D02*
X159089D01*
X157449Y89484D01*
Y92764D01*
X159089Y94404D01*
X162368D01*
X164008Y92764D01*
Y91124D01*
X157449D01*
X173848Y97684D02*
Y87844D01*
X168928D01*
X167288Y89484D01*
Y92764D01*
X168928Y94404D01*
X173848D01*
X178767D02*
X182047D01*
X183687Y92764D01*
Y87844D01*
X178767D01*
X177127Y89484D01*
X178767Y91124D01*
X183687D01*
X186967Y87844D02*
Y94404D01*
X191886D01*
X193526Y92764D01*
Y87844D01*
X203366Y94404D02*
X198446D01*
X196806Y92764D01*
Y89484D01*
X198446Y87844D01*
X203366D01*
X211565D02*
X208285D01*
X206645Y89484D01*
Y92764D01*
X208285Y94404D01*
X211565D01*
X213205Y92764D01*
Y91124D01*
X206645D01*
X232884Y96044D02*
X231244Y97684D01*
X227964D01*
X226324Y96044D01*
Y89484D01*
X227964Y87844D01*
X231244D01*
X232884Y89484D01*
X237803Y87844D02*
X241083D01*
X242723Y89484D01*
Y92764D01*
X241083Y94404D01*
X237803D01*
X236163Y92764D01*
Y89484D01*
X237803Y87844D01*
X246003Y92764D02*
X252562D01*
X255842Y87844D02*
Y97684D01*
X260762D01*
X262402Y96044D01*
Y92764D01*
X260762Y91124D01*
X255842D01*
X265682Y87844D02*
X268961D01*
X267321D01*
Y97684D01*
X265682D01*
X275521Y94404D02*
X278801D01*
X280440Y92764D01*
Y87844D01*
X275521D01*
X273881Y89484D01*
X275521Y91124D01*
X280440D01*
X283720Y87844D02*
Y94404D01*
X288640D01*
X290280Y92764D01*
Y87844D01*
X293560D02*
Y94404D01*
X298479D01*
X300119Y92764D01*
Y87844D01*
X308319D02*
X305039D01*
X303399Y89484D01*
Y92764D01*
X305039Y94404D01*
X308319D01*
X309959Y92764D01*
Y91124D01*
X303399D01*
X313238Y94404D02*
Y87844D01*
Y91124D01*
X314878Y92764D01*
X316518Y94404D01*
X318158D01*
X332917Y97684D02*
Y87844D01*
X336197Y91124D01*
X339476Y87844D01*
Y97684D01*
X344396Y94404D02*
X347676D01*
X349316Y92764D01*
Y87844D01*
X344396D01*
X342756Y89484D01*
X344396Y91124D01*
X349316D01*
X352596Y94404D02*
X355875Y87844D01*
X359155Y94404D01*
X367355Y87844D02*
X364075D01*
X362435Y89484D01*
Y92764D01*
X364075Y94404D01*
X367355D01*
X368994Y92764D01*
Y91124D01*
X362435D01*
X378834Y96044D02*
X377194Y97684D01*
X373914D01*
X372274Y96044D01*
Y89484D01*
X373914Y87844D01*
X377194D01*
X378834Y89484D01*
Y92764D01*
X375554D01*
X382114Y94404D02*
Y89484D01*
X383753Y87844D01*
X388673D01*
Y94404D01*
X391953Y87844D02*
X395233D01*
X393593D01*
Y94404D01*
X391953D01*
X406712Y97684D02*
Y87844D01*
X401792D01*
X400152Y89484D01*
Y92764D01*
X401792Y94404D01*
X406712D01*
X414911Y87844D02*
X411632D01*
X409992Y89484D01*
Y92764D01*
X411632Y94404D01*
X414911D01*
X416551Y92764D01*
Y91124D01*
X409992D01*
D110*
X-4866Y5389D02*
G03*
X-1093Y450I4355J-583D01*
G01*
M02*
