G04*
G04 #@! TF.GenerationSoftware,Altium Limited,Altium Designer,20.0.2 (26)*
G04*
G04 Layer_Color=24703*
%FSLAX25Y25*%
%MOIN*%
G70*
G01*
G75*
%ADD10C,0.00787*%
%ADD14C,0.00500*%
%ADD18R,0.19000X0.09500*%
%ADD103C,0.04737*%
%ADD104C,0.09461*%
%ADD105C,0.08674*%
%ADD106C,0.07887*%
%ADD107P,0.11153X4X270.0*%
%ADD108O,0.04343X0.05918*%
%ADD109C,0.12611*%
%ADD136C,0.03950*%
D10*
X-577346Y370128D02*
X-485346D01*
X-577346Y360628D02*
X-485346D01*
Y370128D01*
X-577346Y360628D02*
Y370128D01*
X67089Y36880D02*
G03*
X67089Y36880I-147500J0D01*
G01*
D14*
X-501688Y368089D02*
X-502069Y367708D01*
X-502450Y367137D01*
X-502831Y366375D01*
X-503021Y365423D01*
Y364661D01*
X-502831Y363709D01*
X-502450Y362948D01*
X-502069Y362376D01*
X-501688Y361995D01*
X-502069Y367708D02*
X-502450Y366947D01*
X-502640Y366375D01*
X-502831Y365423D01*
Y364661D01*
X-502640Y363709D01*
X-502450Y363138D01*
X-502069Y362376D01*
X-500736Y363709D02*
X-500926Y363519D01*
X-500736Y363328D01*
X-500546Y363519D01*
X-500736Y363709D01*
X-496813Y366375D02*
X-497003Y366756D01*
X-497384Y367137D01*
X-497765Y367327D01*
X-498527D01*
X-498908Y367137D01*
X-499289Y366756D01*
X-499479Y366375D01*
X-499670Y365804D01*
Y364852D01*
X-499479Y364281D01*
X-499289Y363900D01*
X-498908Y363519D01*
X-498527Y363328D01*
X-497765D01*
X-497384Y363519D01*
X-497003Y363900D01*
X-496813Y364281D01*
Y364852D01*
X-497765D02*
X-496813D01*
X-495899Y367327D02*
Y363328D01*
Y367327D02*
X-494185D01*
X-493614Y367137D01*
X-493423Y366947D01*
X-493233Y366566D01*
Y366185D01*
X-493423Y365804D01*
X-493614Y365614D01*
X-494185Y365423D01*
X-495899D02*
X-494185D01*
X-493614Y365233D01*
X-493423Y365042D01*
X-493233Y364661D01*
Y364090D01*
X-493423Y363709D01*
X-493614Y363519D01*
X-494185Y363328D01*
X-495899D01*
X-489672Y366756D02*
X-490053Y367137D01*
X-490624Y367327D01*
X-491386D01*
X-491957Y367137D01*
X-492338Y366756D01*
Y366375D01*
X-492147Y365994D01*
X-491957Y365804D01*
X-491576Y365614D01*
X-490433Y365233D01*
X-490053Y365042D01*
X-489862Y364852D01*
X-489672Y364471D01*
Y363900D01*
X-490053Y363519D01*
X-490624Y363328D01*
X-491386D01*
X-491957Y363519D01*
X-492338Y363900D01*
X-488777Y368089D02*
X-488396Y367708D01*
X-488015Y367137D01*
X-487634Y366375D01*
X-487443Y365423D01*
Y364661D01*
X-487634Y363709D01*
X-488015Y362948D01*
X-488396Y362376D01*
X-488777Y361995D01*
X-488396Y367708D02*
X-488015Y366947D01*
X-487824Y366375D01*
X-487634Y365423D01*
Y364661D01*
X-487824Y363709D01*
X-488015Y363138D01*
X-488396Y362376D01*
X-551346Y367327D02*
Y363328D01*
Y367327D02*
X-549632D01*
X-549061Y367137D01*
X-548870Y366947D01*
X-548680Y366566D01*
Y366185D01*
X-548870Y365804D01*
X-549061Y365614D01*
X-549632Y365423D01*
X-551346D02*
X-549632D01*
X-549061Y365233D01*
X-548870Y365042D01*
X-548680Y364661D01*
Y364090D01*
X-548870Y363709D01*
X-549061Y363519D01*
X-549632Y363328D01*
X-551346D01*
X-546833Y365994D02*
X-547214Y365804D01*
X-547594Y365423D01*
X-547785Y364852D01*
Y364471D01*
X-547594Y363900D01*
X-547214Y363519D01*
X-546833Y363328D01*
X-546261D01*
X-545880Y363519D01*
X-545500Y363900D01*
X-545309Y364471D01*
Y364852D01*
X-545500Y365423D01*
X-545880Y365804D01*
X-546261Y365994D01*
X-546833D01*
X-543862Y367327D02*
Y364090D01*
X-543671Y363519D01*
X-543291Y363328D01*
X-542910D01*
X-544433Y365994D02*
X-543100D01*
X-541767Y367327D02*
Y364090D01*
X-541577Y363519D01*
X-541196Y363328D01*
X-540815D01*
X-542338Y365994D02*
X-541005D01*
X-539291D02*
X-539672Y365804D01*
X-540053Y365423D01*
X-540243Y364852D01*
Y364471D01*
X-540053Y363900D01*
X-539672Y363519D01*
X-539291Y363328D01*
X-538720D01*
X-538339Y363519D01*
X-537958Y363900D01*
X-537768Y364471D01*
Y364852D01*
X-537958Y365423D01*
X-538339Y365804D01*
X-538720Y365994D01*
X-539291D01*
X-536892D02*
Y363328D01*
Y365233D02*
X-536321Y365804D01*
X-535940Y365994D01*
X-535368D01*
X-534987Y365804D01*
X-534797Y365233D01*
Y363328D01*
Y365233D02*
X-534226Y365804D01*
X-533845Y365994D01*
X-533274D01*
X-532893Y365804D01*
X-532702Y365233D01*
Y363328D01*
X-525637Y366756D02*
X-526018Y367137D01*
X-526589Y367327D01*
X-527351D01*
X-527922Y367137D01*
X-528303Y366756D01*
Y366375D01*
X-528113Y365994D01*
X-527922Y365804D01*
X-527541Y365614D01*
X-526399Y365233D01*
X-526018Y365042D01*
X-525828Y364852D01*
X-525637Y364471D01*
Y363900D01*
X-526018Y363519D01*
X-526589Y363328D01*
X-527351D01*
X-527922Y363519D01*
X-528303Y363900D01*
X-523790Y365994D02*
X-524171Y365804D01*
X-524552Y365423D01*
X-524742Y364852D01*
Y364471D01*
X-524552Y363900D01*
X-524171Y363519D01*
X-523790Y363328D01*
X-523219D01*
X-522838Y363519D01*
X-522457Y363900D01*
X-522266Y364471D01*
Y364852D01*
X-522457Y365423D01*
X-522838Y365804D01*
X-523219Y365994D01*
X-523790D01*
X-521390Y367327D02*
Y363328D01*
X-518267Y367327D02*
Y363328D01*
Y365423D02*
X-518648Y365804D01*
X-519029Y365994D01*
X-519600D01*
X-519981Y365804D01*
X-520362Y365423D01*
X-520552Y364852D01*
Y364471D01*
X-520362Y363900D01*
X-519981Y363519D01*
X-519600Y363328D01*
X-519029D01*
X-518648Y363519D01*
X-518267Y363900D01*
X-517201Y364852D02*
X-514916D01*
Y365233D01*
X-515106Y365614D01*
X-515297Y365804D01*
X-515677Y365994D01*
X-516249D01*
X-516630Y365804D01*
X-517010Y365423D01*
X-517201Y364852D01*
Y364471D01*
X-517010Y363900D01*
X-516630Y363519D01*
X-516249Y363328D01*
X-515677D01*
X-515297Y363519D01*
X-514916Y363900D01*
X-514059Y365994D02*
Y363328D01*
Y364852D02*
X-513868Y365423D01*
X-513487Y365804D01*
X-513106Y365994D01*
X-512535D01*
D18*
X-567846Y365378D02*
D03*
D103*
X-43882Y163885D02*
D03*
X-39882Y133885D02*
D03*
X-47882D02*
D03*
D104*
X-206875Y23046D02*
D03*
X-206875Y50605D02*
D03*
D105*
X-216915Y27968D02*
D03*
X-216915Y45684D02*
D03*
X-71553Y128996D02*
D03*
X-91238D02*
D03*
X-81395Y163444D02*
D03*
X-71553D02*
D03*
X-91238D02*
D03*
X-71553Y153602D02*
D03*
X-81395D02*
D03*
X-91238D02*
D03*
D106*
X-157413Y112624D02*
D03*
D107*
X-150342Y119695D02*
D03*
D108*
X-120533Y-80667D02*
D03*
X-125454D02*
D03*
X-82533Y-87450D02*
D03*
X-87454D02*
D03*
X-47954D02*
D03*
X-43033D02*
D03*
D109*
X-3246Y-76899D02*
D03*
X-193993Y-17950D02*
D03*
Y96223D02*
D03*
X-3246Y151251D02*
D03*
D136*
X-41382Y158885D02*
D03*
Y153885D02*
D03*
Y148885D02*
D03*
Y143885D02*
D03*
Y138885D02*
D03*
X-46382D02*
D03*
Y143885D02*
D03*
Y148885D02*
D03*
Y153885D02*
D03*
Y158885D02*
D03*
M02*
