G04*
G04 #@! TF.GenerationSoftware,Altium Limited,Altium Designer,20.0.2 (26)*
G04*
G04 Layer_Physical_Order=1*
G04 Layer_Color=255*
%FSLAX25Y25*%
%MOIN*%
G70*
G01*
G75*
%ADD10C,0.00787*%
%ADD11C,0.01000*%
%ADD12C,0.00800*%
%ADD14C,0.00500*%
%ADD17C,0.03937*%
%ADD18R,0.19000X0.09500*%
G04:AMPARAMS|DCode=23|XSize=23.62mil|YSize=9.84mil|CornerRadius=1.23mil|HoleSize=0mil|Usage=FLASHONLY|Rotation=180.000|XOffset=0mil|YOffset=0mil|HoleType=Round|Shape=RoundedRectangle|*
%AMROUNDEDRECTD23*
21,1,0.02362,0.00738,0,0,180.0*
21,1,0.02116,0.00984,0,0,180.0*
1,1,0.00246,-0.01058,0.00369*
1,1,0.00246,0.01058,0.00369*
1,1,0.00246,0.01058,-0.00369*
1,1,0.00246,-0.01058,-0.00369*
%
%ADD23ROUNDEDRECTD23*%
G04:AMPARAMS|DCode=24|XSize=23.62mil|YSize=9.84mil|CornerRadius=1.23mil|HoleSize=0mil|Usage=FLASHONLY|Rotation=270.000|XOffset=0mil|YOffset=0mil|HoleType=Round|Shape=RoundedRectangle|*
%AMROUNDEDRECTD24*
21,1,0.02362,0.00738,0,0,270.0*
21,1,0.02116,0.00984,0,0,270.0*
1,1,0.00246,-0.00369,-0.01058*
1,1,0.00246,-0.00369,0.01058*
1,1,0.00246,0.00369,0.01058*
1,1,0.00246,0.00369,-0.01058*
%
%ADD24ROUNDEDRECTD24*%
G04:AMPARAMS|DCode=25|XSize=11.02mil|YSize=33.47mil|CornerRadius=1.38mil|HoleSize=0mil|Usage=FLASHONLY|Rotation=270.000|XOffset=0mil|YOffset=0mil|HoleType=Round|Shape=RoundedRectangle|*
%AMROUNDEDRECTD25*
21,1,0.01102,0.03071,0,0,270.0*
21,1,0.00827,0.03347,0,0,270.0*
1,1,0.00276,-0.01535,-0.00413*
1,1,0.00276,-0.01535,0.00413*
1,1,0.00276,0.01535,0.00413*
1,1,0.00276,0.01535,-0.00413*
%
%ADD25ROUNDEDRECTD25*%
G04:AMPARAMS|DCode=26|XSize=11.02mil|YSize=33.47mil|CornerRadius=1.38mil|HoleSize=0mil|Usage=FLASHONLY|Rotation=180.000|XOffset=0mil|YOffset=0mil|HoleType=Round|Shape=RoundedRectangle|*
%AMROUNDEDRECTD26*
21,1,0.01102,0.03071,0,0,180.0*
21,1,0.00827,0.03347,0,0,180.0*
1,1,0.00276,-0.00413,0.01535*
1,1,0.00276,0.00413,0.01535*
1,1,0.00276,0.00413,-0.01535*
1,1,0.00276,-0.00413,-0.01535*
%
%ADD26ROUNDEDRECTD26*%
G04:AMPARAMS|DCode=27|XSize=15.75mil|YSize=68.9mil|CornerRadius=0mil|HoleSize=0mil|Usage=FLASHONLY|Rotation=45.000|XOffset=0mil|YOffset=0mil|HoleType=Round|Shape=Rectangle|*
%AMROTATEDRECTD27*
4,1,4,0.01879,-0.02993,-0.02993,0.01879,-0.01879,0.02993,0.02993,-0.01879,0.01879,-0.02993,0.0*
%
%ADD27ROTATEDRECTD27*%

%ADD28P,0.08908X4X90.0*%
G04:AMPARAMS|DCode=29|XSize=62.99mil|YSize=74.8mil|CornerRadius=0mil|HoleSize=0mil|Usage=FLASHONLY|Rotation=45.000|XOffset=0mil|YOffset=0mil|HoleType=Round|Shape=Rectangle|*
%AMROTATEDRECTD29*
4,1,4,0.00418,-0.04872,-0.04872,0.00418,-0.00418,0.04872,0.04872,-0.00418,0.00418,-0.04872,0.0*
%
%ADD29ROTATEDRECTD29*%

G04:AMPARAMS|DCode=30|XSize=82.68mil|YSize=78.74mil|CornerRadius=0mil|HoleSize=0mil|Usage=FLASHONLY|Rotation=45.000|XOffset=0mil|YOffset=0mil|HoleType=Round|Shape=Rectangle|*
%AMROTATEDRECTD30*
4,1,4,-0.00139,-0.05707,-0.05707,-0.00139,0.00139,0.05707,0.05707,0.00139,-0.00139,-0.05707,0.0*
%
%ADD30ROTATEDRECTD30*%

G04:AMPARAMS|DCode=31|XSize=23.62mil|YSize=23.62mil|CornerRadius=2.95mil|HoleSize=0mil|Usage=FLASHONLY|Rotation=270.000|XOffset=0mil|YOffset=0mil|HoleType=Round|Shape=RoundedRectangle|*
%AMROUNDEDRECTD31*
21,1,0.02362,0.01772,0,0,270.0*
21,1,0.01772,0.02362,0,0,270.0*
1,1,0.00591,-0.00886,-0.00886*
1,1,0.00591,-0.00886,0.00886*
1,1,0.00591,0.00886,0.00886*
1,1,0.00591,0.00886,-0.00886*
%
%ADD31ROUNDEDRECTD31*%
%ADD32R,0.03937X0.02362*%
%ADD33R,0.03937X0.01772*%
%ADD34O,0.03937X0.01968*%
%ADD35O,0.03937X0.01968*%
%ADD36R,0.03937X0.01968*%
G04:AMPARAMS|DCode=37|XSize=59.06mil|YSize=23.62mil|CornerRadius=5.91mil|HoleSize=0mil|Usage=FLASHONLY|Rotation=270.000|XOffset=0mil|YOffset=0mil|HoleType=Round|Shape=RoundedRectangle|*
%AMROUNDEDRECTD37*
21,1,0.05906,0.01181,0,0,270.0*
21,1,0.04724,0.02362,0,0,270.0*
1,1,0.01181,-0.00591,-0.02362*
1,1,0.01181,-0.00591,0.02362*
1,1,0.01181,0.00591,0.02362*
1,1,0.01181,0.00591,-0.02362*
%
%ADD37ROUNDEDRECTD37*%
%ADD38R,0.01260X0.01417*%
%ADD39R,0.02480X0.03268*%
G04:AMPARAMS|DCode=40|XSize=43.31mil|YSize=35.43mil|CornerRadius=4.43mil|HoleSize=0mil|Usage=FLASHONLY|Rotation=90.000|XOffset=0mil|YOffset=0mil|HoleType=Round|Shape=RoundedRectangle|*
%AMROUNDEDRECTD40*
21,1,0.04331,0.02657,0,0,90.0*
21,1,0.03445,0.03543,0,0,90.0*
1,1,0.00886,0.01329,0.01722*
1,1,0.00886,0.01329,-0.01722*
1,1,0.00886,-0.01329,-0.01722*
1,1,0.00886,-0.01329,0.01722*
%
%ADD40ROUNDEDRECTD40*%
G04:AMPARAMS|DCode=41|XSize=59.06mil|YSize=35.43mil|CornerRadius=4.43mil|HoleSize=0mil|Usage=FLASHONLY|Rotation=90.000|XOffset=0mil|YOffset=0mil|HoleType=Round|Shape=RoundedRectangle|*
%AMROUNDEDRECTD41*
21,1,0.05906,0.02657,0,0,90.0*
21,1,0.05020,0.03543,0,0,90.0*
1,1,0.00886,0.01329,0.02510*
1,1,0.00886,0.01329,-0.02510*
1,1,0.00886,-0.01329,-0.02510*
1,1,0.00886,-0.01329,0.02510*
%
%ADD41ROUNDEDRECTD41*%
G04:AMPARAMS|DCode=42|XSize=70.87mil|YSize=137.8mil|CornerRadius=8.86mil|HoleSize=0mil|Usage=FLASHONLY|Rotation=180.000|XOffset=0mil|YOffset=0mil|HoleType=Round|Shape=RoundedRectangle|*
%AMROUNDEDRECTD42*
21,1,0.07087,0.12008,0,0,180.0*
21,1,0.05315,0.13780,0,0,180.0*
1,1,0.01772,-0.02657,0.06004*
1,1,0.01772,0.02657,0.06004*
1,1,0.01772,0.02657,-0.06004*
1,1,0.01772,-0.02657,-0.06004*
%
%ADD42ROUNDEDRECTD42*%
G04:AMPARAMS|DCode=43|XSize=23.62mil|YSize=23.62mil|CornerRadius=2.95mil|HoleSize=0mil|Usage=FLASHONLY|Rotation=0.000|XOffset=0mil|YOffset=0mil|HoleType=Round|Shape=RoundedRectangle|*
%AMROUNDEDRECTD43*
21,1,0.02362,0.01772,0,0,0.0*
21,1,0.01772,0.02362,0,0,0.0*
1,1,0.00591,0.00886,-0.00886*
1,1,0.00591,-0.00886,-0.00886*
1,1,0.00591,-0.00886,0.00886*
1,1,0.00591,0.00886,0.00886*
%
%ADD43ROUNDEDRECTD43*%
%ADD44R,0.01378X0.04134*%
%ADD45R,0.04134X0.01378*%
%ADD46R,0.03150X0.03150*%
G04:AMPARAMS|DCode=47|XSize=31.5mil|YSize=39.37mil|CornerRadius=3.94mil|HoleSize=0mil|Usage=FLASHONLY|Rotation=180.000|XOffset=0mil|YOffset=0mil|HoleType=Round|Shape=RoundedRectangle|*
%AMROUNDEDRECTD47*
21,1,0.03150,0.03150,0,0,180.0*
21,1,0.02362,0.03937,0,0,180.0*
1,1,0.00787,-0.01181,0.01575*
1,1,0.00787,0.01181,0.01575*
1,1,0.00787,0.01181,-0.01575*
1,1,0.00787,-0.01181,-0.01575*
%
%ADD47ROUNDEDRECTD47*%
G04:AMPARAMS|DCode=48|XSize=47.24mil|YSize=39.37mil|CornerRadius=4.92mil|HoleSize=0mil|Usage=FLASHONLY|Rotation=270.000|XOffset=0mil|YOffset=0mil|HoleType=Round|Shape=RoundedRectangle|*
%AMROUNDEDRECTD48*
21,1,0.04724,0.02953,0,0,270.0*
21,1,0.03740,0.03937,0,0,270.0*
1,1,0.00984,-0.01476,-0.01870*
1,1,0.00984,-0.01476,0.01870*
1,1,0.00984,0.01476,0.01870*
1,1,0.00984,0.01476,-0.01870*
%
%ADD48ROUNDEDRECTD48*%
%ADD49R,0.08268X0.07087*%
%ADD50R,0.08268X0.07087*%
G04:AMPARAMS|DCode=51|XSize=86.61mil|YSize=74.8mil|CornerRadius=0mil|HoleSize=0mil|Usage=FLASHONLY|Rotation=225.000|XOffset=0mil|YOffset=0mil|HoleType=Round|Shape=Rectangle|*
%AMROTATEDRECTD51*
4,1,4,0.00418,0.05707,0.05707,0.00418,-0.00418,-0.05707,-0.05707,-0.00418,0.00418,0.05707,0.0*
%
%ADD51ROTATEDRECTD51*%

G04:AMPARAMS|DCode=52|XSize=59.06mil|YSize=127.95mil|CornerRadius=7.38mil|HoleSize=0mil|Usage=FLASHONLY|Rotation=180.000|XOffset=0mil|YOffset=0mil|HoleType=Round|Shape=RoundedRectangle|*
%AMROUNDEDRECTD52*
21,1,0.05906,0.11319,0,0,180.0*
21,1,0.04429,0.12795,0,0,180.0*
1,1,0.01476,-0.02215,0.05659*
1,1,0.01476,0.02215,0.05659*
1,1,0.01476,0.02215,-0.05659*
1,1,0.01476,-0.02215,-0.05659*
%
%ADD52ROUNDEDRECTD52*%
G04:AMPARAMS|DCode=53|XSize=41.34mil|YSize=70.87mil|CornerRadius=5.17mil|HoleSize=0mil|Usage=FLASHONLY|Rotation=180.000|XOffset=0mil|YOffset=0mil|HoleType=Round|Shape=RoundedRectangle|*
%AMROUNDEDRECTD53*
21,1,0.04134,0.06053,0,0,180.0*
21,1,0.03100,0.07087,0,0,180.0*
1,1,0.01034,-0.01550,0.03027*
1,1,0.01034,0.01550,0.03027*
1,1,0.01034,0.01550,-0.03027*
1,1,0.01034,-0.01550,-0.03027*
%
%ADD53ROUNDEDRECTD53*%
G04:AMPARAMS|DCode=54|XSize=37.4mil|YSize=57.09mil|CornerRadius=4.68mil|HoleSize=0mil|Usage=FLASHONLY|Rotation=90.000|XOffset=0mil|YOffset=0mil|HoleType=Round|Shape=RoundedRectangle|*
%AMROUNDEDRECTD54*
21,1,0.03740,0.04774,0,0,90.0*
21,1,0.02805,0.05709,0,0,90.0*
1,1,0.00935,0.02387,0.01403*
1,1,0.00935,0.02387,-0.01403*
1,1,0.00935,-0.02387,-0.01403*
1,1,0.00935,-0.02387,0.01403*
%
%ADD54ROUNDEDRECTD54*%
G04:AMPARAMS|DCode=55|XSize=31.5mil|YSize=39.37mil|CornerRadius=3.94mil|HoleSize=0mil|Usage=FLASHONLY|Rotation=270.000|XOffset=0mil|YOffset=0mil|HoleType=Round|Shape=RoundedRectangle|*
%AMROUNDEDRECTD55*
21,1,0.03150,0.03150,0,0,270.0*
21,1,0.02362,0.03937,0,0,270.0*
1,1,0.00787,-0.01575,-0.01181*
1,1,0.00787,-0.01575,0.01181*
1,1,0.00787,0.01575,0.01181*
1,1,0.00787,0.01575,-0.01181*
%
%ADD55ROUNDEDRECTD55*%
G04:AMPARAMS|DCode=56|XSize=43.31mil|YSize=35.43mil|CornerRadius=4.43mil|HoleSize=0mil|Usage=FLASHONLY|Rotation=180.000|XOffset=0mil|YOffset=0mil|HoleType=Round|Shape=RoundedRectangle|*
%AMROUNDEDRECTD56*
21,1,0.04331,0.02657,0,0,180.0*
21,1,0.03445,0.03543,0,0,180.0*
1,1,0.00886,-0.01722,0.01329*
1,1,0.00886,0.01722,0.01329*
1,1,0.00886,0.01722,-0.01329*
1,1,0.00886,-0.01722,-0.01329*
%
%ADD56ROUNDEDRECTD56*%
G04:AMPARAMS|DCode=57|XSize=59.06mil|YSize=35.43mil|CornerRadius=4.43mil|HoleSize=0mil|Usage=FLASHONLY|Rotation=180.000|XOffset=0mil|YOffset=0mil|HoleType=Round|Shape=RoundedRectangle|*
%AMROUNDEDRECTD57*
21,1,0.05906,0.02657,0,0,180.0*
21,1,0.05020,0.03543,0,0,180.0*
1,1,0.00886,-0.02510,0.01329*
1,1,0.00886,0.02510,0.01329*
1,1,0.00886,0.02510,-0.01329*
1,1,0.00886,-0.02510,-0.01329*
%
%ADD57ROUNDEDRECTD57*%
G04:AMPARAMS|DCode=58|XSize=23.62mil|YSize=23.62mil|CornerRadius=2.95mil|HoleSize=0mil|Usage=FLASHONLY|Rotation=65.000|XOffset=0mil|YOffset=0mil|HoleType=Round|Shape=RoundedRectangle|*
%AMROUNDEDRECTD58*
21,1,0.02362,0.01772,0,0,65.0*
21,1,0.01772,0.02362,0,0,65.0*
1,1,0.00591,0.01177,0.00429*
1,1,0.00591,0.00429,-0.01177*
1,1,0.00591,-0.01177,-0.00429*
1,1,0.00591,-0.00429,0.01177*
%
%ADD58ROUNDEDRECTD58*%
G04:AMPARAMS|DCode=59|XSize=37.4mil|YSize=57.09mil|CornerRadius=4.68mil|HoleSize=0mil|Usage=FLASHONLY|Rotation=180.000|XOffset=0mil|YOffset=0mil|HoleType=Round|Shape=RoundedRectangle|*
%AMROUNDEDRECTD59*
21,1,0.03740,0.04774,0,0,180.0*
21,1,0.02805,0.05709,0,0,180.0*
1,1,0.00935,-0.01403,0.02387*
1,1,0.00935,0.01403,0.02387*
1,1,0.00935,0.01403,-0.02387*
1,1,0.00935,-0.01403,-0.02387*
%
%ADD59ROUNDEDRECTD59*%
G04:AMPARAMS|DCode=60|XSize=23.62mil|YSize=23.62mil|CornerRadius=2.95mil|HoleSize=0mil|Usage=FLASHONLY|Rotation=155.000|XOffset=0mil|YOffset=0mil|HoleType=Round|Shape=RoundedRectangle|*
%AMROUNDEDRECTD60*
21,1,0.02362,0.01772,0,0,155.0*
21,1,0.01772,0.02362,0,0,155.0*
1,1,0.00591,-0.00429,0.01177*
1,1,0.00591,0.01177,0.00429*
1,1,0.00591,0.00429,-0.01177*
1,1,0.00591,-0.01177,-0.00429*
%
%ADD60ROUNDEDRECTD60*%
G04:AMPARAMS|DCode=61|XSize=14.17mil|YSize=12.6mil|CornerRadius=0mil|HoleSize=0mil|Usage=FLASHONLY|Rotation=45.000|XOffset=0mil|YOffset=0mil|HoleType=Round|Shape=Rectangle|*
%AMROTATEDRECTD61*
4,1,4,-0.00056,-0.00947,-0.00947,-0.00056,0.00056,0.00947,0.00947,0.00056,-0.00056,-0.00947,0.0*
%
%ADD61ROTATEDRECTD61*%

%ADD85R,0.08898X0.08898*%
%ADD110C,0.03543*%
G04:AMPARAMS|DCode=111|XSize=177.17mil|YSize=177.17mil|CornerRadius=22.15mil|HoleSize=0mil|Usage=FLASHONLY|Rotation=180.000|XOffset=0mil|YOffset=0mil|HoleType=Round|Shape=RoundedRectangle|*
%AMROUNDEDRECTD111*
21,1,0.17717,0.13287,0,0,180.0*
21,1,0.13287,0.17717,0,0,180.0*
1,1,0.04429,-0.06644,0.06644*
1,1,0.04429,0.06644,0.06644*
1,1,0.04429,0.06644,-0.06644*
1,1,0.04429,-0.06644,-0.06644*
%
%ADD111ROUNDEDRECTD111*%
%ADD112C,0.03000*%
%ADD113C,0.00800*%
%ADD114C,0.02362*%
%ADD115C,0.01968*%
%ADD116C,0.05906*%
%ADD117C,0.00700*%
%ADD118C,0.02000*%
%ADD119C,0.00799*%
%ADD120C,0.01181*%
%ADD121C,0.00850*%
%ADD122R,0.07830X0.06631*%
%ADD123R,0.13583X0.13583*%
%ADD124R,0.06299X0.06299*%
%ADD125C,0.03937*%
%ADD126C,0.08661*%
%ADD127C,0.07874*%
%ADD128C,0.02362*%
%ADD129C,0.07087*%
%ADD130P,0.10022X4X270.0*%
%ADD131O,0.03543X0.05118*%
%ADD132C,0.11811*%
%ADD133C,0.01180*%
G36*
X-72859Y172568D02*
Y170306D01*
X-72860Y170304D01*
X-72888Y170270D01*
X-72914Y170222D01*
X-72944Y170176D01*
X-72960Y170135D01*
X-72981Y170096D01*
X-72997Y170044D01*
X-73018Y169993D01*
X-73026Y169950D01*
X-73038Y169908D01*
X-73044Y169853D01*
X-73054Y169799D01*
X-73070Y169617D01*
X-73105Y169474D01*
X-73177Y169282D01*
X-73266Y169103D01*
X-73269Y169103D01*
X-73815Y168907D01*
X-74340Y168659D01*
X-74838Y168361D01*
X-75304Y168015D01*
X-75697Y167658D01*
X-75755Y167617D01*
X-75906Y167557D01*
X-77042D01*
X-77193Y167617D01*
X-77250Y167658D01*
X-77644Y168015D01*
X-78110Y168361D01*
X-78608Y168659D01*
X-79133Y168907D01*
X-79679Y169103D01*
X-80089Y169205D01*
Y169815D01*
X-80114Y170070D01*
X-80188Y170315D01*
X-80309Y170540D01*
X-80472Y170738D01*
X-80472Y170738D01*
X-81602Y171869D01*
X-81800Y172031D01*
X-82026Y172152D01*
X-82271Y172226D01*
X-82526Y172251D01*
X-94705D01*
X-94705Y172251D01*
X-94960Y172226D01*
X-95205Y172152D01*
X-95431Y172031D01*
X-95629Y171869D01*
X-99142Y168356D01*
X-104122D01*
X-104122Y168357D01*
X-104224Y168547D01*
X-104361Y168714D01*
X-104528Y168851D01*
X-104718Y168952D01*
X-104924Y169015D01*
X-105139Y169036D01*
X-106911D01*
X-107125Y169015D01*
X-107332Y168952D01*
X-107522Y168851D01*
X-107689Y168714D01*
X-107826Y168547D01*
X-107928Y168357D01*
X-107990Y168150D01*
X-108011Y167936D01*
Y166164D01*
X-107990Y165949D01*
X-107928Y165743D01*
X-107928Y165743D01*
X-107826Y165552D01*
X-107826Y165552D01*
X-107689Y165236D01*
Y164863D01*
X-107826Y164547D01*
X-107826Y164547D01*
X-107928Y164357D01*
X-107990Y164150D01*
X-108011Y163936D01*
Y162164D01*
X-107990Y161949D01*
X-107928Y161743D01*
X-107826Y161553D01*
X-107689Y161386D01*
X-107522Y161249D01*
X-107332Y161147D01*
X-107300Y161137D01*
Y158091D01*
X-111096Y154295D01*
X-112187Y154747D01*
Y171009D01*
X-108452Y174743D01*
X-75035D01*
X-72859Y172568D01*
D02*
G37*
G36*
X-71030Y169453D02*
X-70963Y169175D01*
X-70850Y168878D01*
X-70692Y168562D01*
X-70489Y168226D01*
X-70241Y167870D01*
X-69947Y167496D01*
X-69225Y166689D01*
X-68797Y166256D01*
X-74309D01*
X-73880Y166689D01*
X-72865Y167870D01*
X-72617Y168226D01*
X-72414Y168562D01*
X-72256Y168878D01*
X-72143Y169175D01*
X-72075Y169453D01*
X-72053Y169712D01*
X-71053D01*
X-71030Y169453D01*
D02*
G37*
G36*
X-33864Y159812D02*
X-33864Y156142D01*
X-34047Y156098D01*
X-34306Y155991D01*
X-34446Y155905D01*
X-34923D01*
Y155469D01*
X-34942Y155448D01*
X-35088Y155209D01*
X-35196Y154949D01*
X-35261Y154676D01*
X-35283Y154396D01*
X-35261Y154116D01*
X-35196Y153843D01*
X-35088Y153584D01*
X-34942Y153344D01*
X-34923Y153323D01*
Y152981D01*
X-35813Y152183D01*
X-35827Y152195D01*
X-36053Y152316D01*
X-36298Y152390D01*
X-36553Y152415D01*
X-37485D01*
Y152795D01*
X-43022D01*
Y150841D01*
X-43494Y149856D01*
X-43748Y149831D01*
X-43784Y149820D01*
X-44653Y150225D01*
X-44765Y150305D01*
X-44965Y150550D01*
Y152795D01*
X-46528D01*
Y153290D01*
X-46551Y153525D01*
X-46620Y153751D01*
X-46731Y153960D01*
X-46881Y154143D01*
X-50355Y157616D01*
X-50333Y157708D01*
X-50306Y158050D01*
X-50333Y158392D01*
X-50413Y158726D01*
X-50544Y159043D01*
X-50723Y159336D01*
X-50946Y159597D01*
X-51208Y159820D01*
X-51500Y159999D01*
X-51627Y160052D01*
X-51912Y160717D01*
X-52004Y161286D01*
X-51994Y161355D01*
X-48981Y164369D01*
X-47888Y163912D01*
X-47823Y163856D01*
X-47800Y163444D01*
X-47726Y163008D01*
X-47604Y162583D01*
X-47434Y162174D01*
X-47220Y161787D01*
X-46965Y161427D01*
X-46670Y161097D01*
X-46340Y160802D01*
X-45980Y160547D01*
X-45592Y160333D01*
X-45184Y160163D01*
X-44759Y160041D01*
X-44323Y159967D01*
X-43882Y159942D01*
X-43440Y159967D01*
X-43004Y160041D01*
X-42579Y160163D01*
X-42171Y160333D01*
X-41784Y160547D01*
X-41423Y160802D01*
X-41093Y161097D01*
X-40799Y161427D01*
X-40543Y161787D01*
X-40329Y162174D01*
X-40160Y162583D01*
X-40037Y163008D01*
X-39963Y163444D01*
X-39938Y163885D01*
X-39958Y164235D01*
X-39781Y164403D01*
X-38844Y164792D01*
X-33864Y159812D01*
D02*
G37*
G36*
X-53780Y156280D02*
X-53487Y156100D01*
X-53170Y155969D01*
X-52836Y155889D01*
X-52494Y155862D01*
X-52151Y155889D01*
X-52060Y155911D01*
X-50035Y153886D01*
X-50487Y152795D01*
X-50502D01*
Y149423D01*
X-46618D01*
X-45886Y148299D01*
X-46225Y147677D01*
X-50502D01*
X-51349Y148483D01*
X-51446Y148597D01*
X-51708Y148820D01*
X-52000Y148999D01*
X-52317Y149130D01*
X-52651Y149211D01*
X-52994Y149238D01*
X-53336Y149211D01*
X-53670Y149130D01*
X-53987Y148999D01*
X-54280Y148820D01*
X-54540Y148597D01*
X-54743Y148360D01*
X-54826Y148355D01*
X-55924Y148703D01*
Y155414D01*
X-55225Y156113D01*
X-55189Y156138D01*
X-54040Y156503D01*
X-53780Y156280D01*
D02*
G37*
G36*
X-69225Y150358D02*
X-70241Y149176D01*
X-70489Y148821D01*
X-70692Y148485D01*
X-70850Y148168D01*
X-70963Y147871D01*
X-71030Y147593D01*
X-71053Y147335D01*
X-72053D01*
X-72075Y147593D01*
X-72143Y147871D01*
X-72256Y148168D01*
X-72414Y148485D01*
X-72617Y148821D01*
X-72865Y149176D01*
X-73158Y149551D01*
X-73880Y150358D01*
X-74309Y150790D01*
X-68797D01*
X-69225Y150358D01*
D02*
G37*
G36*
X-77413Y181889D02*
X-74417Y181796D01*
X-71423Y181641D01*
X-68434Y181424D01*
X-65449Y181146D01*
X-62471Y180806D01*
X-59500Y180404D01*
X-56538Y179942D01*
X-53587Y179418D01*
X-50647Y178833D01*
X-47719Y178187D01*
X-44806Y177481D01*
X-41908Y176716D01*
X-39026Y175890D01*
X-36162Y175005D01*
X-33317Y174061D01*
X-30492Y173058D01*
X-27688Y171998D01*
X-24907Y170879D01*
X-22149Y169703D01*
X-19417Y168471D01*
X-16710Y167182D01*
X-14031Y165838D01*
X-11380Y164439D01*
X-8758Y162985D01*
X-6625Y161743D01*
X-6598Y161651D01*
X-6736Y160474D01*
X-6750Y160449D01*
X-7015Y160351D01*
X-7717Y160027D01*
X-8392Y159649D01*
X-9035Y159220D01*
X-9643Y158741D01*
X-10211Y158216D01*
X-10736Y157648D01*
X-11214Y157040D01*
X-11644Y156397D01*
X-12022Y155722D01*
X-12346Y155020D01*
X-12614Y154294D01*
X-12823Y153550D01*
X-12974Y152791D01*
X-13065Y152023D01*
X-13096Y151251D01*
X-13065Y150478D01*
X-12974Y149710D01*
X-12823Y148951D01*
X-12614Y148207D01*
X-12346Y147481D01*
X-12022Y146779D01*
X-11644Y146104D01*
X-11214Y145461D01*
X-10736Y144853D01*
X-10404Y144494D01*
X-10599Y143737D01*
X-10899Y143313D01*
X-18080D01*
X-18892Y144125D01*
Y154724D01*
X-18916Y155033D01*
X-18988Y155335D01*
X-19107Y155621D01*
X-19269Y155885D01*
X-19470Y156121D01*
X-19470Y156121D01*
X-36005Y172656D01*
X-36241Y172857D01*
X-36505Y173019D01*
X-36791Y173138D01*
X-37093Y173210D01*
X-37402Y173234D01*
X-37402Y173234D01*
X-52756D01*
X-52756Y173234D01*
X-53065Y173210D01*
X-53366Y173138D01*
X-53652Y173019D01*
X-53917Y172857D01*
X-54152Y172656D01*
X-54152Y172656D01*
X-64567Y162241D01*
X-65678Y162801D01*
X-65669Y162865D01*
X-65640Y163444D01*
X-65669Y164024D01*
X-65754Y164598D01*
X-65895Y165161D01*
X-66090Y165707D01*
X-66338Y166232D01*
X-66637Y166729D01*
X-66982Y167195D01*
X-67372Y167625D01*
X-67802Y168015D01*
X-68268Y168361D01*
X-68765Y168659D01*
X-69290Y168907D01*
X-69836Y169103D01*
X-69839Y169103D01*
X-69928Y169282D01*
X-70001Y169474D01*
X-70036Y169617D01*
X-70052Y169799D01*
X-70062Y169853D01*
X-70067Y169908D01*
X-70080Y169950D01*
X-70088Y169993D01*
X-70108Y170044D01*
X-70124Y170096D01*
X-70145Y170135D01*
X-70161Y170176D01*
X-70191Y170222D01*
X-70217Y170270D01*
X-70245Y170304D01*
X-70246Y170306D01*
Y173109D01*
X-70246Y173109D01*
X-70271Y173364D01*
X-70346Y173609D01*
X-70467Y173835D01*
X-70629Y174033D01*
X-70629Y174033D01*
X-73570Y176973D01*
X-73768Y177136D01*
X-73994Y177257D01*
X-74239Y177331D01*
X-74493Y177356D01*
X-108993D01*
X-109248Y177331D01*
X-109493Y177257D01*
X-109719Y177136D01*
X-109917Y176973D01*
X-114417Y172473D01*
X-114580Y172275D01*
X-114700Y172050D01*
X-114775Y171805D01*
X-114800Y171550D01*
Y152995D01*
X-116617Y151178D01*
X-116780Y150980D01*
X-116900Y150754D01*
X-116975Y150509D01*
X-117000Y150254D01*
Y76629D01*
X-134617Y59012D01*
X-134780Y58814D01*
X-134900Y58588D01*
X-134975Y58343D01*
X-135000Y58088D01*
Y54358D01*
X-135494Y53238D01*
X-135836Y53211D01*
X-136170Y53131D01*
X-136487Y52999D01*
X-136779Y52820D01*
X-137041Y52597D01*
X-137264Y52336D01*
X-137443Y52043D01*
X-137574Y51726D01*
X-137654Y51392D01*
X-137681Y51050D01*
X-137654Y50708D01*
X-137574Y50374D01*
X-137443Y50056D01*
X-137264Y49764D01*
X-137041Y49503D01*
X-136779Y49280D01*
X-136487Y49100D01*
X-136170Y48969D01*
X-135836Y48889D01*
X-135494Y48862D01*
X-135000Y47741D01*
Y27535D01*
X-134975Y27280D01*
X-134900Y27035D01*
X-134780Y26809D01*
X-134617Y26611D01*
X-107936Y-70D01*
X-108006Y-152D01*
X-108104Y-266D01*
X-108105Y-268D01*
X-108106Y-269D01*
X-108186Y-399D01*
X-108267Y-530D01*
X-108268Y-532D01*
X-108269Y-533D01*
X-108327Y-674D01*
X-108386Y-816D01*
X-108710Y-1802D01*
X-108711Y-1805D01*
X-108712Y-1808D01*
X-108748Y-1956D01*
X-108783Y-2103D01*
X-108784Y-2106D01*
X-108784Y-2109D01*
X-108797Y-2262D01*
X-108809Y-2411D01*
X-108809Y-2415D01*
X-108809Y-2418D01*
X-108797Y-2572D01*
X-108785Y-2720D01*
X-108785Y-2723D01*
X-108784Y-2727D01*
X-108749Y-2875D01*
X-108714Y-3022D01*
X-108713Y-3025D01*
X-108712Y-3028D01*
X-108654Y-3168D01*
X-108596Y-3309D01*
X-108595Y-3311D01*
X-108593Y-3314D01*
X-108514Y-3444D01*
X-108435Y-3573D01*
X-108433Y-3576D01*
X-108432Y-3579D01*
X-108333Y-3694D01*
X-108235Y-3810D01*
X-108232Y-3812D01*
X-108230Y-3814D01*
X-97816Y-14228D01*
X-97757Y-14279D01*
X-97702Y-14333D01*
X-97640Y-14379D01*
X-97581Y-14430D01*
X-97514Y-14470D01*
X-97452Y-14516D01*
X-97382Y-14551D01*
X-97316Y-14591D01*
X-97245Y-14621D01*
X-97176Y-14656D01*
X-97102Y-14680D01*
X-97030Y-14710D01*
X-96955Y-14728D01*
X-96881Y-14752D01*
X-96804Y-14764D01*
X-96729Y-14782D01*
X-96651Y-14788D01*
X-96575Y-14800D01*
X-96497D01*
X-96420Y-14807D01*
X-96343Y-14800D01*
X-96265D01*
X-96256Y-14799D01*
X-95773Y-15220D01*
X-95708Y-15288D01*
X-95686Y-15314D01*
X-95682Y-15319D01*
X-95481Y-15729D01*
X-95458Y-15787D01*
X-95454Y-15801D01*
X-95459Y-15818D01*
X-95480Y-16033D01*
Y-17805D01*
X-95459Y-18019D01*
X-95396Y-18226D01*
X-95294Y-18416D01*
X-95158Y-18761D01*
Y-19140D01*
X-95294Y-19484D01*
X-95396Y-19675D01*
X-95459Y-19881D01*
X-95480Y-20096D01*
Y-21868D01*
X-95459Y-22082D01*
X-95396Y-22289D01*
X-95396Y-22289D01*
X-95294Y-22479D01*
Y-23422D01*
X-95396Y-23612D01*
X-95396Y-23612D01*
X-95459Y-23818D01*
X-95480Y-24033D01*
Y-25805D01*
X-95459Y-26019D01*
X-95396Y-26226D01*
X-95294Y-26416D01*
X-95158Y-26583D01*
X-94991Y-26720D01*
X-94893Y-26772D01*
X-94874Y-27730D01*
X-94890Y-27927D01*
X-95072Y-28076D01*
X-95246Y-28288D01*
X-95375Y-28530D01*
X-95455Y-28792D01*
X-95481Y-29064D01*
Y-33789D01*
X-95455Y-34061D01*
X-95454Y-34063D01*
X-95670Y-34226D01*
X-95687Y-34240D01*
X-95705Y-34253D01*
X-95803Y-34343D01*
X-95903Y-34431D01*
X-95917Y-34448D01*
X-95933Y-34463D01*
X-96016Y-34567D01*
X-96101Y-34669D01*
X-96112Y-34688D01*
X-96126Y-34706D01*
X-96327Y-35006D01*
X-96385Y-35109D01*
X-96447Y-35210D01*
X-96461Y-35244D01*
X-96479Y-35276D01*
X-96520Y-35387D01*
X-96565Y-35496D01*
X-96574Y-35532D01*
X-96587Y-35567D01*
X-96610Y-35683D01*
X-96638Y-35797D01*
X-96640Y-35834D01*
X-96648Y-35871D01*
X-96653Y-35989D01*
X-96662Y-36106D01*
Y-48794D01*
X-96653Y-48912D01*
X-96648Y-49030D01*
X-96640Y-49066D01*
X-96638Y-49103D01*
X-96610Y-49218D01*
X-96587Y-49333D01*
X-96574Y-49368D01*
X-96565Y-49404D01*
X-96520Y-49513D01*
X-96479Y-49624D01*
X-96461Y-49656D01*
X-96447Y-49691D01*
X-96385Y-49791D01*
X-96327Y-49894D01*
X-95724Y-50794D01*
X-95701Y-50823D01*
X-95682Y-50854D01*
X-95605Y-50944D01*
X-95532Y-51037D01*
X-95504Y-51062D01*
X-95480Y-51090D01*
X-95479Y-51091D01*
X-95481Y-51112D01*
Y-54907D01*
X-97259Y-56685D01*
X-97442Y-56898D01*
X-97588Y-57138D01*
X-97696Y-57397D01*
X-97761Y-57670D01*
X-97783Y-57950D01*
Y-61971D01*
X-97794Y-61984D01*
X-97896Y-62175D01*
X-97959Y-62381D01*
X-97980Y-62596D01*
Y-64368D01*
X-97959Y-64582D01*
X-97896Y-64789D01*
X-97896Y-64789D01*
X-97794Y-64979D01*
Y-65921D01*
X-97896Y-66112D01*
X-97896Y-66112D01*
X-97959Y-66318D01*
X-97980Y-66533D01*
Y-68305D01*
X-97959Y-68519D01*
X-97896Y-68726D01*
X-97794Y-68916D01*
X-97783Y-68930D01*
Y-74450D01*
X-97761Y-74730D01*
X-97696Y-75003D01*
X-97619Y-75188D01*
X-97732Y-75285D01*
X-97732Y-75285D01*
X-98418Y-75971D01*
X-98563Y-75985D01*
X-98769Y-76048D01*
X-98959Y-76149D01*
X-99126Y-76286D01*
X-99263Y-76453D01*
X-99365Y-76643D01*
X-99427Y-76850D01*
X-99441Y-76995D01*
X-100379Y-77932D01*
X-100580Y-78167D01*
X-100742Y-78431D01*
X-100860Y-78718D01*
X-100933Y-79019D01*
X-100957Y-79328D01*
X-100957Y-79328D01*
Y-90795D01*
X-100957Y-90795D01*
X-100933Y-91104D01*
X-100860Y-91405D01*
X-100742Y-91692D01*
X-100580Y-91956D01*
X-100488Y-92063D01*
X-100495Y-92154D01*
X-100621Y-92777D01*
X-100815Y-93244D01*
X-122599D01*
X-132618Y-83226D01*
Y-75261D01*
X-132641Y-75026D01*
X-132710Y-74800D01*
X-132821Y-74591D01*
X-132971Y-74409D01*
X-132971Y-74409D01*
X-137725Y-69654D01*
X-137908Y-69504D01*
X-138117Y-69393D01*
X-138343Y-69324D01*
X-138578Y-69301D01*
X-138578Y-69301D01*
X-155920D01*
X-155920Y-69301D01*
X-156155Y-69324D01*
X-156381Y-69393D01*
X-156589Y-69504D01*
X-156772Y-69654D01*
X-158144Y-71026D01*
X-158294Y-71209D01*
X-158406Y-71417D01*
X-158474Y-71644D01*
X-158492Y-71823D01*
X-159667D01*
Y-76573D01*
X-154917D01*
Y-76573D01*
X-153763Y-76573D01*
Y-76573D01*
X-149013D01*
Y-75982D01*
X-146316D01*
X-146309Y-75988D01*
X-146118Y-76090D01*
X-145912Y-76152D01*
X-145697Y-76174D01*
X-143925D01*
X-143711Y-76152D01*
X-143504Y-76090D01*
X-143504Y-76090D01*
X-143314Y-75988D01*
X-142371D01*
X-142181Y-76090D01*
X-142181Y-76090D01*
X-141975Y-76152D01*
X-141760Y-76174D01*
X-139988D01*
X-139774Y-76152D01*
X-139567Y-76090D01*
X-139377Y-75988D01*
X-139363Y-75977D01*
X-138930D01*
X-137698Y-77209D01*
Y-84588D01*
X-137675Y-84868D01*
X-137610Y-85141D01*
X-137503Y-85401D01*
X-137356Y-85640D01*
X-137173Y-85854D01*
X-125227Y-97800D01*
X-125014Y-97982D01*
X-124774Y-98129D01*
X-124515Y-98237D01*
X-124242Y-98302D01*
X-123962Y-98324D01*
X-37027D01*
X-36747Y-98302D01*
X-36474Y-98237D01*
X-36215Y-98129D01*
X-35975Y-97982D01*
X-35762Y-97800D01*
X-35251Y-97289D01*
X-35238Y-97278D01*
X-25228Y-87268D01*
X-25046Y-87055D01*
X-24899Y-86815D01*
X-24791Y-86556D01*
X-24726Y-86283D01*
X-24704Y-86003D01*
Y-10204D01*
X-24544Y-9944D01*
X-24413Y-9626D01*
X-24333Y-9292D01*
X-24306Y-8950D01*
X-24333Y-8608D01*
X-24413Y-8274D01*
X-24544Y-7957D01*
X-24724Y-7664D01*
X-24947Y-7403D01*
X-25207Y-7180D01*
X-25500Y-7001D01*
X-25817Y-6870D01*
X-26151Y-6789D01*
X-26493Y-6762D01*
X-26836Y-6789D01*
X-27107Y-6854D01*
X-27185Y-6861D01*
X-28021Y-6404D01*
X-28288Y-6106D01*
Y17971D01*
X-28311Y18206D01*
X-28379Y18432D01*
X-28491Y18641D01*
X-28641Y18824D01*
X-28641Y18824D01*
X-37288Y27471D01*
Y70710D01*
X-37288Y70710D01*
X-37311Y70945D01*
X-37380Y71172D01*
X-37393Y71196D01*
X-36567Y72000D01*
X-36305Y71777D01*
X-36013Y71597D01*
X-35696Y71466D01*
X-35362Y71386D01*
X-35019Y71359D01*
X-34677Y71386D01*
X-34343Y71466D01*
X-34026Y71597D01*
X-33734Y71777D01*
X-33472Y72000D01*
X-33250Y72261D01*
X-33070Y72553D01*
X-32939Y72871D01*
X-32859Y73204D01*
X-32832Y73547D01*
X-32557Y73844D01*
X-30124D01*
X-29011Y73436D01*
Y71664D01*
X-28990Y71449D01*
X-28928Y71243D01*
X-28928Y71243D01*
X-28826Y71052D01*
X-28689Y70736D01*
Y70363D01*
X-28826Y70047D01*
X-28928Y69857D01*
X-28928Y69857D01*
X-28949Y69787D01*
X-28990Y69650D01*
X-29011Y69436D01*
Y67664D01*
X-28990Y67449D01*
X-28928Y67243D01*
X-28826Y67053D01*
X-28815Y67039D01*
Y67010D01*
X-28964Y66836D01*
X-29143Y66543D01*
X-29274Y66226D01*
X-29354Y65892D01*
X-29381Y65550D01*
X-29354Y65207D01*
X-29274Y64874D01*
X-29143Y64556D01*
X-28964Y64264D01*
X-28741Y64003D01*
X-28479Y63780D01*
X-28187Y63600D01*
X-27870Y63469D01*
X-27781Y63242D01*
X-28589Y62061D01*
X-28738D01*
X-28991Y62036D01*
X-29234Y61962D01*
X-29459Y61842D01*
X-29656Y61680D01*
X-29817Y61484D01*
X-29937Y61259D01*
X-30011Y61016D01*
X-30036Y60762D01*
Y60224D01*
X-32060D01*
X-32091Y60325D01*
X-32193Y60515D01*
X-32329Y60682D01*
X-32496Y60819D01*
X-32686Y60921D01*
X-32893Y60984D01*
X-33108Y61005D01*
X-34879D01*
X-35094Y60984D01*
X-35300Y60921D01*
X-35491Y60819D01*
X-35658Y60682D01*
X-35794Y60515D01*
X-35896Y60325D01*
X-35959Y60119D01*
X-35980Y59904D01*
Y58132D01*
X-35959Y57918D01*
X-35896Y57711D01*
X-35794Y57521D01*
X-35658Y57354D01*
X-35491Y57217D01*
X-35300Y57116D01*
X-35094Y57053D01*
X-34879Y57032D01*
X-33108D01*
X-32893Y57053D01*
X-32686Y57116D01*
X-32496Y57217D01*
X-32329Y57354D01*
X-32193Y57521D01*
X-32091Y57711D01*
X-32060Y57812D01*
X-30036D01*
Y57022D01*
X-30011Y56769D01*
X-29937Y56525D01*
X-29817Y56301D01*
X-29656Y56104D01*
X-29459Y55943D01*
X-29234Y55823D01*
X-28991Y55749D01*
X-28738Y55724D01*
X-25785D01*
X-25532Y55749D01*
X-25288Y55823D01*
X-24688Y54804D01*
X-24699Y54791D01*
X-24819Y54566D01*
X-24893Y54323D01*
X-24918Y54069D01*
Y50329D01*
X-24893Y50076D01*
X-24819Y49832D01*
X-24699Y49608D01*
X-24538Y49411D01*
X-24341Y49250D01*
X-24116Y49130D01*
X-23873Y49056D01*
X-23855Y49054D01*
Y47593D01*
X-23956Y47563D01*
X-24146Y47461D01*
X-24313Y47324D01*
X-24450Y47157D01*
X-24552Y46967D01*
X-24614Y46760D01*
X-24636Y46546D01*
Y44774D01*
X-24614Y44559D01*
X-24552Y44353D01*
X-24450Y44163D01*
X-24313Y43996D01*
X-24146Y43859D01*
X-23956Y43757D01*
X-23750Y43695D01*
X-23535Y43674D01*
X-21763D01*
X-21342Y42568D01*
Y38988D01*
X-22029Y38302D01*
X-23054D01*
X-23269Y38280D01*
X-23475Y38218D01*
X-23665Y38116D01*
X-23832Y37979D01*
X-23969Y37813D01*
X-24071Y37622D01*
X-24133Y37416D01*
X-24155Y37201D01*
Y35429D01*
X-24133Y35215D01*
X-24112Y35144D01*
X-24483Y34614D01*
X-24962Y34221D01*
X-25005Y34234D01*
X-25219Y34255D01*
X-26991D01*
X-27206Y34234D01*
X-27412Y34172D01*
X-27602Y34070D01*
X-27614Y34060D01*
X-28173D01*
X-28436Y34222D01*
X-28753Y34353D01*
X-29087Y34433D01*
X-29429Y34460D01*
X-29772Y34433D01*
X-30105Y34353D01*
X-30423Y34222D01*
X-30715Y34042D01*
X-30976Y33819D01*
X-31199Y33558D01*
X-31379Y33266D01*
X-31510Y32948D01*
X-31590Y32615D01*
X-31617Y32272D01*
X-31590Y31930D01*
X-31510Y31596D01*
X-31379Y31279D01*
X-31199Y30986D01*
X-30976Y30725D01*
X-30715Y30502D01*
X-30423Y30323D01*
X-30105Y30192D01*
X-29772Y30111D01*
X-29429Y30084D01*
X-29087Y30111D01*
X-28753Y30192D01*
X-28436Y30323D01*
X-28178Y30481D01*
X-27618D01*
X-27602Y30468D01*
X-27412Y30366D01*
X-27206Y30304D01*
X-26991Y30283D01*
X-25219D01*
X-25005Y30304D01*
X-24456Y29869D01*
X-24125Y29387D01*
X-24133Y29358D01*
X-24155Y29143D01*
Y27371D01*
X-24133Y27157D01*
X-24071Y26950D01*
X-23969Y26760D01*
X-23832Y26593D01*
X-23665Y26456D01*
X-23475Y26355D01*
X-23269Y26292D01*
X-23054Y26271D01*
X-21282D01*
X-21068Y26292D01*
X-20861Y26355D01*
X-20671Y26456D01*
X-20504Y26593D01*
X-20367Y26760D01*
X-20266Y26950D01*
X-20203Y27157D01*
X-20182Y27371D01*
Y29143D01*
X-20203Y29358D01*
X-20266Y29564D01*
X-20367Y29754D01*
X-20367Y29754D01*
X-20504Y30076D01*
X-20504Y30450D01*
X-20367Y30772D01*
X-20367Y30772D01*
X-20266Y30962D01*
X-20266Y30962D01*
X-20236Y31059D01*
X-20203Y31168D01*
X-20182Y31383D01*
Y32408D01*
X-19698Y32892D01*
X-16837D01*
X-16582Y32917D01*
X-16337Y32991D01*
X-16111Y33112D01*
X-15913Y33274D01*
X-14189Y34998D01*
X-14189Y34998D01*
X-14026Y35196D01*
X-13906Y35422D01*
X-13831Y35667D01*
X-13806Y35922D01*
Y39274D01*
X-13831Y39528D01*
X-13906Y39773D01*
X-14026Y39999D01*
X-14189Y40197D01*
X-14189Y40197D01*
X-14970Y40978D01*
X-15168Y41141D01*
X-15201Y41158D01*
X-15330Y41288D01*
Y43114D01*
X-12498D01*
X-12214Y42810D01*
X-12187Y42399D01*
X-12106Y41994D01*
X-11974Y41603D01*
X-11791Y41232D01*
X-11562Y40889D01*
X-11289Y40579D01*
X-10979Y40306D01*
X-10636Y40077D01*
X-10265Y39895D01*
X-9874Y39762D01*
X-9469Y39681D01*
X-9461Y39681D01*
X-8868Y38614D01*
X-8861Y38484D01*
X-8879Y38291D01*
Y35356D01*
X-10600Y33636D01*
X-10601Y33637D01*
X-10791Y33738D01*
X-10998Y33801D01*
X-11213Y33822D01*
X-12984D01*
X-13199Y33801D01*
X-13405Y33738D01*
X-13596Y33637D01*
X-13762Y33500D01*
X-13899Y33333D01*
X-14001Y33143D01*
X-14064Y32936D01*
X-14085Y32721D01*
Y30950D01*
X-14064Y30735D01*
X-14001Y30529D01*
X-13904Y30347D01*
Y29705D01*
X-14028Y29502D01*
X-14159Y29185D01*
X-14240Y28852D01*
X-14266Y28509D01*
X-14240Y28167D01*
X-14159Y27833D01*
X-14028Y27516D01*
X-13849Y27223D01*
X-13626Y26962D01*
X-13365Y26739D01*
X-13072Y26560D01*
X-12755Y26428D01*
X-12421Y26348D01*
X-12079Y26321D01*
X-11736Y26348D01*
X-11402Y26428D01*
X-11085Y26560D01*
X-10793Y26739D01*
X-10532Y26962D01*
X-10309Y27223D01*
X-10129Y27516D01*
X-9998Y27833D01*
X-9918Y28167D01*
X-9891Y28509D01*
X-9918Y28852D01*
X-9998Y29185D01*
X-10124Y29489D01*
X-10126Y29548D01*
X-10123Y29599D01*
X-9827Y30750D01*
X-9629Y30912D01*
X-8533Y32007D01*
X-8426Y32047D01*
X-7095Y31776D01*
X-6980Y31547D01*
X-6966Y31520D01*
X-7239Y30961D01*
X-7304Y30804D01*
X-7304Y30803D01*
X-7326Y30634D01*
X-7326Y30634D01*
X-7326Y30526D01*
Y20393D01*
X-7326Y20342D01*
X-7326Y20342D01*
X-7326Y20207D01*
X-7303Y19447D01*
X-7303Y18930D01*
X-7326Y18632D01*
X-7326Y18497D01*
X-7326Y18497D01*
X-7326Y17628D01*
Y12383D01*
X-7326Y12247D01*
X-7326Y12247D01*
X-7306Y12091D01*
X-7303Y12043D01*
X-7303Y12043D01*
X-7303Y12042D01*
X-7283Y11460D01*
X-7303Y10877D01*
X-7306Y10829D01*
X-7326Y10672D01*
X-7326Y10672D01*
X-7326Y10537D01*
Y4945D01*
X-7333Y4806D01*
X-7326Y4666D01*
Y4198D01*
X-7304Y4028D01*
X-7272Y3952D01*
X-7229Y3621D01*
X-7100Y3040D01*
X-6921Y2472D01*
X-6693Y1922D01*
X-6419Y1395D01*
X-6099Y893D01*
X-5736Y421D01*
X-5334Y-18D01*
X-4896Y-420D01*
X-4423Y-783D01*
X-3921Y-1103D01*
X-3393Y-1377D01*
X-2844Y-1605D01*
X-2276Y-1784D01*
X-1820Y-1885D01*
X-1798Y-1899D01*
X7457Y-6215D01*
X7621Y-6266D01*
X7621D01*
X7791Y-6274D01*
X7792Y-6274D01*
X8386Y-6482D01*
X8840Y-6743D01*
X9003Y-6873D01*
X9037Y-6907D01*
X9056Y-6927D01*
X9200Y-7018D01*
X16174Y-10271D01*
X16174Y-10271D01*
X-24178Y-96808D01*
X-24907Y-97118D01*
X-27688Y-98237D01*
X-30492Y-99298D01*
X-33317Y-100300D01*
X-36162Y-101244D01*
X-39026Y-102129D01*
X-41908Y-102955D01*
X-44806Y-103721D01*
X-47719Y-104426D01*
X-50647Y-105072D01*
X-53587Y-105657D01*
X-56538Y-106181D01*
X-59500Y-106643D01*
X-62471Y-107045D01*
X-65449Y-107385D01*
X-68434Y-107663D01*
X-71423Y-107880D01*
X-74417Y-108035D01*
X-77413Y-108128D01*
X-80411Y-108159D01*
X-83408Y-108128D01*
X-86405Y-108035D01*
X-89398Y-107880D01*
X-92388Y-107663D01*
X-95373Y-107385D01*
X-98351Y-107045D01*
X-101322Y-106643D01*
X-104283Y-106181D01*
X-107235Y-105657D01*
X-110175Y-105072D01*
X-113102Y-104426D01*
X-116016Y-103721D01*
X-118914Y-102955D01*
X-121796Y-102129D01*
X-124660Y-101244D01*
X-127505Y-100300D01*
X-130330Y-99298D01*
X-133134Y-98237D01*
X-135915Y-97118D01*
X-138672Y-95943D01*
X-141405Y-94710D01*
X-144112Y-93422D01*
X-146791Y-92077D01*
X-149442Y-90678D01*
X-152063Y-89224D01*
X-154654Y-87716D01*
X-157213Y-86155D01*
X-159740Y-84541D01*
X-162232Y-82876D01*
X-164690Y-81160D01*
X-167111Y-79393D01*
X-169496Y-77576D01*
X-171842Y-75710D01*
X-174150Y-73797D01*
X-176417Y-71836D01*
X-178643Y-69828D01*
X-180828Y-67775D01*
X-182969Y-65678D01*
X-185067Y-63536D01*
X-187120Y-61352D01*
X-189127Y-59126D01*
X-191088Y-56858D01*
X-193002Y-54551D01*
X-194867Y-52205D01*
X-196684Y-49820D01*
X-198451Y-47398D01*
X-200167Y-44941D01*
X-201833Y-42448D01*
X-203446Y-39922D01*
X-205007Y-37363D01*
X-206515Y-34772D01*
X-207969Y-32151D01*
X-209368Y-29500D01*
X-210713Y-26820D01*
X-212001Y-24114D01*
X-213234Y-21381D01*
X-214410Y-18624D01*
X-215528Y-15843D01*
X-216589Y-13039D01*
X-217591Y-10214D01*
X-218535Y-7369D01*
X-219420Y-4504D01*
X-220246Y-1623D01*
X-221012Y1275D01*
X-221718Y4189D01*
X-222363Y7116D01*
X-222948Y10056D01*
X-223472Y13008D01*
X-223935Y15969D01*
X-224336Y18940D01*
X-224676Y21918D01*
X-224955Y24903D01*
X-225171Y27893D01*
X-225326Y30887D01*
X-225419Y33883D01*
X-225450Y36880D01*
X-225419Y39878D01*
X-225326Y42874D01*
X-225171Y45868D01*
X-224955Y48858D01*
X-224676Y51842D01*
X-224336Y54821D01*
X-223935Y57791D01*
X-223472Y60753D01*
X-222948Y63705D01*
X-222363Y66645D01*
X-221718Y69572D01*
X-221012Y72486D01*
X-220246Y75384D01*
X-219420Y78265D01*
X-218535Y81129D01*
X-217591Y83975D01*
X-216589Y86800D01*
X-215528Y89603D01*
X-214410Y92385D01*
X-213234Y95142D01*
X-212001Y97875D01*
X-210713Y100581D01*
X-209368Y103261D01*
X-207969Y105912D01*
X-206515Y108533D01*
X-205007Y111124D01*
X-203446Y113683D01*
X-201833Y116209D01*
X-200167Y118702D01*
X-198451Y121159D01*
X-197679Y122216D01*
X-196498Y121831D01*
Y121550D01*
X-196479Y121354D01*
X-196422Y121165D01*
X-196329Y120992D01*
X-196204Y120839D01*
X-182498Y107133D01*
Y95550D01*
X-182479Y95354D01*
X-182422Y95165D01*
X-182329Y94991D01*
X-182204Y94839D01*
X-181204Y93839D01*
X-181052Y93714D01*
X-180878Y93621D01*
X-180690Y93564D01*
X-180493Y93545D01*
X-177494D01*
X-177297Y93564D01*
X-177109Y93621D01*
X-176935Y93714D01*
X-176783Y93839D01*
X-174283Y96339D01*
X-174158Y96491D01*
X-174065Y96665D01*
X-174008Y96854D01*
X-173989Y97050D01*
Y120550D01*
X-174008Y120746D01*
X-174065Y120934D01*
X-174158Y121108D01*
X-174283Y121260D01*
X-178129Y125107D01*
Y126749D01*
X-176920Y127958D01*
X-171046Y122084D01*
X-170847Y122283D01*
X-169065Y120501D01*
X-169402Y120163D01*
X-167380Y118141D01*
X-167043Y118479D01*
X-166215Y117651D01*
X-166272Y117411D01*
X-166301Y117050D01*
X-166272Y116689D01*
X-166188Y116337D01*
X-166049Y116002D01*
X-165860Y115694D01*
X-165625Y115418D01*
X-165350Y115183D01*
X-165041Y114994D01*
X-164706Y114856D01*
X-164354Y114771D01*
X-163994Y114743D01*
X-163757Y114761D01*
X-163504Y114634D01*
X-162905Y113997D01*
X-162807Y113773D01*
X-162825Y113701D01*
X-162905Y113165D01*
X-162932Y112624D01*
X-162905Y112083D01*
X-162825Y111548D01*
X-162694Y111022D01*
X-162511Y110512D01*
X-162280Y110023D01*
X-162001Y109558D01*
X-161946Y109484D01*
X-158109Y113320D01*
X-157413Y112624D01*
X-156717Y113320D01*
X-152880Y109484D01*
X-152825Y109558D01*
X-152546Y110023D01*
X-152315Y110512D01*
X-152132Y111022D01*
X-152001Y111548D01*
X-151956Y111845D01*
X-151361Y112179D01*
X-150729Y112287D01*
X-150342Y111901D01*
X-149804Y112439D01*
X-143217Y105852D01*
X-143216Y105851D01*
X-143214Y105849D01*
X-140082Y102747D01*
X-140008Y102686D01*
X-139933Y102625D01*
X-139931Y102624D01*
X-139929Y102622D01*
X-139845Y102578D01*
X-139760Y102532D01*
X-139757Y102532D01*
X-139755Y102530D01*
X-139663Y102503D01*
X-139571Y102475D01*
X-139569Y102475D01*
X-139566Y102474D01*
X-139471Y102465D01*
X-139375Y102456D01*
X-135074D01*
X-134869Y102283D01*
X-134373Y101321D01*
X-134534Y100931D01*
X-134651Y100526D01*
X-134721Y100111D01*
X-134745Y99690D01*
Y94864D01*
X-135926Y94653D01*
X-136007Y94872D01*
X-136025Y94934D01*
X-136124Y95277D01*
X-136285Y95667D01*
X-136489Y96036D01*
X-136733Y96380D01*
X-137014Y96694D01*
X-137328Y96975D01*
X-137672Y97219D01*
X-138041Y97422D01*
X-138430Y97584D01*
X-138835Y97700D01*
X-139251Y97771D01*
X-139672Y97795D01*
X-146007D01*
X-146428Y97771D01*
X-146844Y97700D01*
X-147249Y97584D01*
X-147638Y97422D01*
X-148007Y97219D01*
X-148351Y96975D01*
X-148665Y96694D01*
X-152127Y93232D01*
X-155479D01*
X-155954Y93708D01*
X-156268Y93988D01*
X-156612Y94232D01*
X-156981Y94436D01*
X-157370Y94598D01*
X-157775Y94714D01*
X-158191Y94785D01*
X-158612Y94808D01*
X-159032Y94785D01*
X-159448Y94714D01*
X-159853Y94598D01*
X-160242Y94436D01*
X-160611Y94232D01*
X-160955Y93988D01*
X-161269Y93708D01*
X-161550Y93393D01*
X-161794Y93050D01*
X-161998Y92681D01*
X-162133Y92356D01*
X-172025D01*
X-172280Y92331D01*
X-172525Y92257D01*
X-172751Y92136D01*
X-172949Y91973D01*
X-173886Y91036D01*
X-174911D01*
X-175126Y91015D01*
X-175332Y90952D01*
X-175332Y90952D01*
X-175522Y90851D01*
X-176465Y90851D01*
X-176655Y90952D01*
X-176655Y90952D01*
X-176862Y91015D01*
X-177076Y91036D01*
X-178848D01*
X-179062Y91015D01*
X-179269Y90952D01*
X-179459Y90851D01*
X-179626Y90714D01*
X-179763Y90547D01*
X-179865Y90357D01*
X-179927Y90150D01*
X-179948Y89936D01*
Y88911D01*
X-180641Y88218D01*
X-180642Y88218D01*
X-180804Y88020D01*
X-180925Y87794D01*
X-180999Y87549D01*
X-181024Y87294D01*
Y84074D01*
X-182486D01*
Y80506D01*
X-176949D01*
Y84074D01*
X-178412D01*
Y86753D01*
X-178101Y87063D01*
X-177076D01*
X-176862Y87085D01*
X-176655Y87147D01*
X-176655Y87147D01*
X-176465Y87249D01*
X-175522Y87249D01*
X-175332Y87147D01*
X-175332Y87147D01*
X-175126Y87085D01*
X-174911Y87063D01*
X-173139D01*
X-172924Y87085D01*
X-172718Y87147D01*
X-172528Y87249D01*
X-172361Y87386D01*
X-172224Y87552D01*
X-172122Y87743D01*
X-172060Y87949D01*
X-172039Y88164D01*
Y89189D01*
X-171484Y89744D01*
X-162133D01*
X-161998Y89419D01*
X-161794Y89050D01*
X-161550Y88706D01*
X-161269Y88392D01*
X-159693Y86816D01*
X-159693Y86816D01*
X-158252Y85375D01*
Y82795D01*
X-164239Y76808D01*
X-169993D01*
X-170414Y76785D01*
X-170830Y76714D01*
X-171228Y76599D01*
X-171253D01*
X-171533Y76577D01*
X-171806Y76512D01*
X-172066Y76404D01*
X-172305Y76258D01*
X-172519Y76075D01*
X-172701Y75862D01*
X-172848Y75622D01*
X-172956Y75363D01*
X-172956Y75359D01*
X-173176Y75050D01*
X-173380Y74681D01*
X-173541Y74291D01*
X-173658Y73886D01*
X-173729Y73471D01*
X-173752Y73050D01*
X-173729Y72629D01*
X-173658Y72213D01*
X-173541Y71808D01*
X-173380Y71419D01*
X-173176Y71050D01*
X-172932Y70706D01*
X-172651Y70392D01*
X-172337Y70111D01*
X-171993Y69867D01*
X-171624Y69663D01*
X-171235Y69502D01*
X-170830Y69385D01*
X-170414Y69315D01*
X-169993Y69291D01*
X-162682D01*
X-162261Y69315D01*
X-161845Y69385D01*
X-161440Y69502D01*
X-161051Y69663D01*
X-160682Y69867D01*
X-160338Y70111D01*
X-160024Y70392D01*
X-151836Y78580D01*
X-151555Y78895D01*
X-151311Y79238D01*
X-151107Y79607D01*
X-150946Y79997D01*
X-150829Y80402D01*
X-150759Y80817D01*
X-150735Y81238D01*
Y85715D01*
X-150570D01*
X-150149Y85738D01*
X-149733Y85809D01*
X-149328Y85926D01*
X-148939Y86087D01*
X-148570Y86291D01*
X-148226Y86535D01*
X-147912Y86816D01*
X-144611Y90117D01*
X-143835Y89932D01*
X-143816Y89909D01*
X-143276Y88763D01*
X-143314Y88672D01*
X-143430Y88267D01*
X-143501Y87851D01*
X-143525Y87431D01*
Y82628D01*
X-161844Y64308D01*
X-174104D01*
X-174525Y64285D01*
X-174940Y64214D01*
X-175345Y64097D01*
X-175735Y63936D01*
X-176103Y63732D01*
X-176447Y63488D01*
X-176761Y63208D01*
X-177042Y62893D01*
X-177286Y62550D01*
X-177490Y62181D01*
X-177652Y61791D01*
X-177768Y61386D01*
X-177839Y60971D01*
X-177862Y60550D01*
Y54411D01*
X-178051Y54249D01*
X-178224Y54048D01*
X-178362Y53821D01*
X-178464Y53576D01*
X-178526Y53318D01*
X-178547Y53054D01*
Y41046D01*
X-178526Y40781D01*
X-178464Y40523D01*
X-178362Y40278D01*
X-178224Y40052D01*
X-178051Y39850D01*
X-177957Y39769D01*
Y36330D01*
X-178051Y36249D01*
X-178224Y36048D01*
X-178362Y35821D01*
X-178464Y35576D01*
X-178526Y35318D01*
X-178547Y35054D01*
Y23046D01*
X-178526Y22781D01*
X-178464Y22523D01*
X-178362Y22278D01*
X-178224Y22052D01*
X-178051Y21850D01*
X-177850Y21678D01*
X-177623Y21539D01*
X-177378Y21438D01*
X-177120Y21376D01*
X-176856Y21355D01*
X-171541D01*
X-171276Y21376D01*
X-171018Y21438D01*
X-170773Y21539D01*
X-170547Y21678D01*
X-170345Y21850D01*
X-170173Y22052D01*
X-170034Y22278D01*
X-169932Y22523D01*
X-169870Y22781D01*
X-169850Y23046D01*
Y35054D01*
X-169870Y35318D01*
X-169932Y35576D01*
X-170034Y35821D01*
X-170173Y36048D01*
X-170345Y36249D01*
X-170440Y36330D01*
Y39769D01*
X-170345Y39850D01*
X-170173Y40052D01*
X-170034Y40278D01*
X-169932Y40523D01*
X-169870Y40781D01*
X-169850Y41046D01*
Y53054D01*
X-169870Y53318D01*
X-169932Y53576D01*
X-170034Y53821D01*
X-170173Y54048D01*
X-170345Y54249D01*
X-170345Y54250D01*
Y56791D01*
X-160287D01*
X-159867Y56815D01*
X-159451Y56885D01*
X-159046Y57002D01*
X-158657Y57163D01*
X-158288Y57367D01*
X-157944Y57611D01*
X-157630Y57892D01*
X-138296Y77225D01*
X-138207Y77280D01*
X-137946Y77503D01*
X-137724Y77764D01*
X-137654Y77877D01*
X-137452Y78103D01*
X-137440Y78120D01*
X-137422Y78133D01*
X-137108Y78414D01*
X-136827Y78728D01*
X-136583Y79072D01*
X-136379Y79440D01*
X-136218Y79830D01*
X-136101Y80235D01*
X-136031Y80651D01*
X-136007Y81071D01*
Y87431D01*
X-136031Y87851D01*
X-136101Y88267D01*
X-136218Y88672D01*
X-136379Y89061D01*
X-136583Y89430D01*
X-136827Y89774D01*
X-136953Y89915D01*
X-137089Y90344D01*
X-137022Y91268D01*
X-136932Y91470D01*
X-136733Y91693D01*
X-136489Y92036D01*
X-136285Y92405D01*
X-136124Y92795D01*
X-136025Y93138D01*
X-136007Y93200D01*
X-135926Y93419D01*
X-134745Y93208D01*
Y87585D01*
Y78839D01*
X-152447Y61138D01*
X-152727Y60824D01*
X-152971Y60480D01*
X-153175Y60111D01*
X-153337Y59721D01*
X-153453Y59316D01*
X-153524Y58901D01*
X-153548Y58480D01*
Y57093D01*
X-155512D01*
X-155821Y57068D01*
X-156122Y56996D01*
X-156408Y56877D01*
X-156672Y56716D01*
X-156908Y56514D01*
X-157109Y56279D01*
X-157271Y56015D01*
X-157390Y55728D01*
X-157462Y55427D01*
X-157486Y55118D01*
Y15748D01*
X-157462Y15439D01*
X-157390Y15138D01*
X-157271Y14852D01*
X-157109Y14587D01*
X-156908Y14352D01*
X-156672Y14151D01*
X-156408Y13989D01*
X-156122Y13870D01*
X-155821Y13798D01*
X-155512Y13773D01*
X-145669D01*
X-145027Y12881D01*
X-144954Y12681D01*
Y-8987D01*
X-149740Y-13773D01*
X-151355D01*
X-181235Y16107D01*
Y58116D01*
X-180843D01*
Y62984D01*
X-181235D01*
Y69291D01*
X-179993D01*
X-179573Y69315D01*
X-179157Y69385D01*
X-178752Y69502D01*
X-178363Y69663D01*
X-177994Y69867D01*
X-177650Y70111D01*
X-177336Y70392D01*
X-177055Y70706D01*
X-176811Y71050D01*
X-176607Y71419D01*
X-176446Y71808D01*
X-176329Y72213D01*
X-176259Y72629D01*
X-176235Y73050D01*
X-176259Y73471D01*
X-176329Y73886D01*
X-176446Y74291D01*
X-176607Y74681D01*
X-176811Y75050D01*
X-177031Y75359D01*
X-177032Y75363D01*
X-177139Y75622D01*
X-177286Y75862D01*
X-177468Y76075D01*
X-177682Y76257D01*
X-177921Y76404D01*
X-178181Y76512D01*
X-178454Y76577D01*
X-178734Y76599D01*
X-178759D01*
X-179157Y76714D01*
X-179573Y76785D01*
X-179993Y76808D01*
X-183993D01*
X-184414Y76785D01*
X-184830Y76714D01*
X-185235Y76597D01*
X-185307Y76568D01*
X-186379D01*
X-186594Y76547D01*
X-186801Y76484D01*
X-186991Y76382D01*
X-187158Y76245D01*
X-187294Y76078D01*
X-187396Y75888D01*
X-187459Y75682D01*
X-187480Y75467D01*
Y74879D01*
X-187651Y74708D01*
X-187932Y74393D01*
X-188176Y74050D01*
X-188380Y73681D01*
X-188541Y73291D01*
X-188658Y72886D01*
X-188728Y72471D01*
X-188752Y72050D01*
Y62050D01*
Y51493D01*
X-189920Y51226D01*
X-190099Y51518D01*
X-190322Y51779D01*
X-190583Y52002D01*
X-190876Y52182D01*
X-191193Y52313D01*
X-191527Y52393D01*
X-191869Y52420D01*
X-192211Y52393D01*
X-192545Y52313D01*
X-192862Y52182D01*
X-193155Y52002D01*
X-193673Y51790D01*
X-194245Y51815D01*
X-194705Y52040D01*
X-194713Y52047D01*
X-195005Y52226D01*
X-195323Y52358D01*
X-195657Y52438D01*
X-195999Y52465D01*
X-196341Y52438D01*
X-196675Y52358D01*
X-196992Y52226D01*
X-197285Y52047D01*
X-197546Y51824D01*
X-197769Y51563D01*
X-197948Y51270D01*
X-198080Y50953D01*
X-198160Y50619D01*
X-198187Y50277D01*
X-198160Y49935D01*
X-198111Y49732D01*
X-198176Y49517D01*
X-198199Y49282D01*
X-198199Y49282D01*
Y43281D01*
X-205330D01*
X-205476Y44462D01*
X-205045Y44570D01*
X-204462Y44778D01*
X-203902Y45043D01*
X-203372Y45361D01*
X-202874Y45730D01*
X-202416Y46146D01*
X-202000Y46604D01*
X-201631Y47101D01*
X-201313Y47632D01*
X-201049Y48192D01*
X-200840Y48774D01*
X-200690Y49375D01*
X-200653Y49621D01*
X-206875D01*
Y50605D01*
X-207860D01*
Y56827D01*
X-208106Y56791D01*
X-208706Y56640D01*
X-209289Y56432D01*
X-209848Y56167D01*
X-210379Y55849D01*
X-210876Y55480D01*
X-211335Y55065D01*
X-211751Y54606D01*
X-212119Y54109D01*
X-212438Y53578D01*
X-212702Y53019D01*
X-212911Y52436D01*
X-213061Y51836D01*
X-213088Y51652D01*
X-213862Y51091D01*
X-214345Y51001D01*
X-214652Y51147D01*
X-215198Y51342D01*
X-215761Y51483D01*
X-216335Y51568D01*
X-216915Y51597D01*
X-217494Y51568D01*
X-218068Y51483D01*
X-218631Y51342D01*
X-219177Y51147D01*
X-219702Y50898D01*
X-220200Y50600D01*
X-220666Y50254D01*
X-221096Y49865D01*
X-221485Y49435D01*
X-221831Y48969D01*
X-222129Y48471D01*
X-222377Y47947D01*
X-222573Y47400D01*
X-222714Y46837D01*
X-222799Y46264D01*
X-222827Y45684D01*
X-222799Y45105D01*
X-222714Y44530D01*
X-222573Y43968D01*
X-222377Y43421D01*
X-222129Y42897D01*
X-221831Y42399D01*
X-221485Y41933D01*
X-221096Y41503D01*
X-220666Y41113D01*
X-220200Y40768D01*
X-219702Y40470D01*
X-219177Y40221D01*
X-218631Y40026D01*
X-218068Y39885D01*
X-217494Y39800D01*
X-216915Y39771D01*
X-216335Y39800D01*
X-215761Y39885D01*
X-215198Y40026D01*
X-214652Y40221D01*
X-214128Y40470D01*
X-213630Y40768D01*
X-213164Y41113D01*
X-212734Y41503D01*
X-212344Y41933D01*
X-211999Y42399D01*
X-211766Y42788D01*
X-211561Y42915D01*
X-210377Y43069D01*
X-208616Y41308D01*
X-208441Y41164D01*
X-208241Y41058D01*
X-208024Y40992D01*
X-207799Y40970D01*
X-198199D01*
Y38952D01*
X-198301Y38921D01*
X-198491Y38819D01*
X-198658Y38682D01*
X-198794Y38515D01*
X-198896Y38325D01*
X-198959Y38119D01*
X-198980Y37904D01*
Y36132D01*
X-198959Y35918D01*
X-198896Y35711D01*
X-198794Y35521D01*
X-198658Y35354D01*
X-198491Y35217D01*
X-198301Y35116D01*
X-198094Y35053D01*
X-197879Y35032D01*
X-196108D01*
X-195893Y35053D01*
X-195686Y35116D01*
X-195496Y35217D01*
X-195329Y35354D01*
X-195193Y35521D01*
X-195091Y35711D01*
X-195069Y35782D01*
X-193223D01*
Y35449D01*
X-190363D01*
Y38466D01*
X-190663D01*
Y39965D01*
X-189933Y40606D01*
X-188752Y40318D01*
Y14550D01*
X-188728Y14129D01*
X-188658Y13713D01*
X-188541Y13308D01*
X-188380Y12919D01*
X-188176Y12550D01*
X-187932Y12206D01*
X-187651Y11892D01*
X-155518Y-20241D01*
Y-21654D01*
X-155494Y-21962D01*
X-155421Y-22264D01*
X-155303Y-22550D01*
X-155141Y-22814D01*
X-154940Y-23050D01*
X-154939Y-23050D01*
X-152971Y-25018D01*
X-152735Y-25220D01*
X-152471Y-25381D01*
X-152185Y-25500D01*
X-151884Y-25572D01*
X-151575Y-25597D01*
X-151575Y-25597D01*
X-132708D01*
X-124022Y-34282D01*
X-124022Y-75171D01*
X-124176Y-75443D01*
X-124470Y-75687D01*
Y-80667D01*
Y-85063D01*
X-124217Y-84990D01*
X-123829Y-84829D01*
X-123461Y-84626D01*
X-123118Y-84383D01*
X-122994Y-84271D01*
X-122869Y-84383D01*
X-122526Y-84626D01*
X-122158Y-84829D01*
X-121770Y-84990D01*
X-121367Y-85106D01*
X-120952Y-85177D01*
X-120533Y-85200D01*
X-120114Y-85177D01*
X-119699Y-85106D01*
X-119296Y-84990D01*
X-118907Y-84829D01*
X-118540Y-84626D01*
X-118197Y-84383D01*
X-117884Y-84103D01*
X-117604Y-83790D01*
X-117361Y-83447D01*
X-117174Y-83255D01*
X-117047Y-83308D01*
X-116921Y-83363D01*
X-116904Y-83367D01*
X-116888Y-83374D01*
X-116754Y-83406D01*
X-116621Y-83441D01*
X-116604Y-83442D01*
X-116587Y-83446D01*
X-116450Y-83457D01*
X-116313Y-83470D01*
X-116295Y-83469D01*
X-116278Y-83471D01*
X-114961Y-83471D01*
X-114961Y-83471D01*
X-114652Y-83446D01*
X-114350Y-83374D01*
X-114064Y-83255D01*
X-113800Y-83094D01*
X-113564Y-82892D01*
X-113564Y-82892D01*
X-111793Y-81121D01*
X-111592Y-80885D01*
X-111430Y-80621D01*
X-111311Y-80335D01*
X-111239Y-80033D01*
X-111214Y-79725D01*
X-111214Y-79724D01*
X-111214Y-74803D01*
Y-48869D01*
X-111033Y-48593D01*
X-110370Y-48077D01*
X-110033Y-47961D01*
X-109843Y-47976D01*
X-109482Y-47948D01*
X-109130Y-47864D01*
X-108795Y-47725D01*
X-108486Y-47536D01*
X-108211Y-47301D01*
X-107976Y-47025D01*
X-107787Y-46717D01*
X-107648Y-46382D01*
X-107564Y-46030D01*
X-107535Y-45669D01*
X-107564Y-45308D01*
X-107648Y-44956D01*
X-107787Y-44622D01*
X-107976Y-44313D01*
X-108211Y-44038D01*
X-108486Y-43803D01*
X-108795Y-43614D01*
X-109130Y-43475D01*
X-109482Y-43391D01*
X-109843Y-43362D01*
X-110033Y-43377D01*
X-110370Y-43262D01*
X-111033Y-42746D01*
X-111214Y-42470D01*
Y-26575D01*
X-111239Y-26266D01*
X-111311Y-25965D01*
X-111430Y-25678D01*
X-111591Y-25414D01*
X-111793Y-25179D01*
X-111793Y-25179D01*
X-122619Y-14352D01*
X-122855Y-14151D01*
X-123119Y-13989D01*
X-123406Y-13870D01*
X-123707Y-13798D01*
X-124016Y-13773D01*
X-124016Y-13773D01*
X-140350D01*
X-140802Y-12682D01*
X-140218Y-12099D01*
X-140218Y-12099D01*
X-139979Y-11826D01*
X-139777Y-11524D01*
X-139617Y-11198D01*
X-139500Y-10855D01*
X-139429Y-10499D01*
X-139406Y-10137D01*
X-139406Y-10137D01*
Y56246D01*
X-120342Y75310D01*
X-120342Y75310D01*
X-120102Y75582D01*
X-119901Y75884D01*
X-119740Y76210D01*
X-119624Y76553D01*
X-119553Y76909D01*
X-119529Y77271D01*
X-119529Y77272D01*
Y131033D01*
X-119080Y131482D01*
X-118841Y131755D01*
X-118639Y132057D01*
X-118478Y132382D01*
X-118362Y132726D01*
X-118291Y133082D01*
X-118267Y133444D01*
X-118291Y133806D01*
X-118362Y134162D01*
X-118478Y134506D01*
X-118639Y134831D01*
X-118841Y135133D01*
X-119080Y135406D01*
X-119353Y135645D01*
X-119655Y135847D01*
X-119980Y136007D01*
X-120324Y136124D01*
X-120679Y136195D01*
X-121042Y136218D01*
X-121404Y136195D01*
X-121760Y136124D01*
X-122103Y136007D01*
X-122429Y135847D01*
X-122731Y135645D01*
X-123003Y135406D01*
X-124418Y133992D01*
X-124657Y133719D01*
X-124858Y133417D01*
X-125019Y133092D01*
X-125136Y132748D01*
X-125206Y132392D01*
X-125230Y132030D01*
X-125230Y132030D01*
Y130413D01*
X-125206Y130051D01*
X-125136Y129695D01*
X-125078Y129525D01*
Y78421D01*
X-126047Y77452D01*
X-127228Y77941D01*
Y87585D01*
Y99319D01*
X-127206Y99712D01*
X-127229Y100133D01*
X-127300Y100548D01*
X-127417Y100953D01*
X-127578Y101343D01*
X-127663Y101497D01*
X-127971Y102374D01*
X-127907Y102750D01*
X-127526Y103130D01*
X-127401Y103282D01*
X-127308Y103456D01*
X-127251Y103645D01*
X-127232Y103841D01*
Y107453D01*
X-127251Y107649D01*
X-127308Y107837D01*
X-127401Y108011D01*
X-127526Y108163D01*
X-128239Y108876D01*
X-128392Y109001D01*
X-128565Y109094D01*
X-128754Y109151D01*
X-128950Y109171D01*
X-132715D01*
X-133909Y110364D01*
X-133909Y112919D01*
X-133896Y112932D01*
X-133909Y112944D01*
X-133909Y114970D01*
X-133928Y115166D01*
X-133985Y115355D01*
X-134078Y115528D01*
X-134203Y115681D01*
X-148783Y130260D01*
X-148935Y130385D01*
X-149109Y130478D01*
X-149297Y130535D01*
X-149494Y130555D01*
X-161397D01*
X-161887Y131736D01*
X-155783Y137839D01*
X-155658Y137991D01*
X-155565Y138165D01*
X-155508Y138354D01*
X-155489Y138550D01*
Y140550D01*
X-155508Y140746D01*
X-155565Y140934D01*
X-155658Y141108D01*
X-155783Y141260D01*
X-166662Y152139D01*
X-166472Y153620D01*
X-164690Y154920D01*
X-162232Y156637D01*
X-159740Y158302D01*
X-157213Y159916D01*
X-154654Y161477D01*
X-152063Y162985D01*
X-149442Y164439D01*
X-146791Y165838D01*
X-144112Y167182D01*
X-141405Y168471D01*
X-138672Y169703D01*
X-135915Y170879D01*
X-133134Y171998D01*
X-130330Y173058D01*
X-127505Y174061D01*
X-124660Y175005D01*
X-121796Y175890D01*
X-118914Y176716D01*
X-116016Y177481D01*
X-113102Y178187D01*
X-110175Y178833D01*
X-107235Y179418D01*
X-104283Y179942D01*
X-101322Y180404D01*
X-98351Y180806D01*
X-95373Y181146D01*
X-92388Y181424D01*
X-89398Y181641D01*
X-86405Y181796D01*
X-83408Y181889D01*
X-80411Y181920D01*
X-77413Y181889D01*
D02*
G37*
G36*
X-97342Y152193D02*
X-96941Y152067D01*
X-96896Y151886D01*
X-96700Y151339D01*
X-96452Y150815D01*
X-96154Y150317D01*
X-95808Y149851D01*
X-95419Y149421D01*
X-94989Y149031D01*
X-94523Y148686D01*
X-94025Y148388D01*
X-93500Y148139D01*
X-92954Y147944D01*
X-92391Y147803D01*
X-91817Y147718D01*
X-91238Y147689D01*
X-90804Y147711D01*
X-90550Y147407D01*
X-90262Y146583D01*
X-99489Y137356D01*
X-103557D01*
X-103609Y137528D01*
X-103711Y137718D01*
X-103848Y137884D01*
X-104015Y138021D01*
X-104205Y138123D01*
X-104411Y138186D01*
X-104626Y138207D01*
X-106398D01*
X-106612Y138186D01*
X-106819Y138123D01*
X-107009Y138021D01*
X-107176Y137884D01*
X-107313Y137718D01*
X-107414Y137528D01*
X-107477Y137321D01*
X-107498Y137106D01*
Y135335D01*
X-107477Y135120D01*
X-107414Y134914D01*
X-107313Y134723D01*
X-107176Y134556D01*
X-107009Y134420D01*
X-106819Y134318D01*
X-106800Y134312D01*
Y132617D01*
X-106819Y132611D01*
X-107009Y132510D01*
X-107176Y132373D01*
X-107313Y132206D01*
X-107385Y132071D01*
X-107580Y131910D01*
X-107580Y131910D01*
X-107896Y131595D01*
X-108987Y132047D01*
Y147545D01*
X-104236Y152296D01*
X-97804D01*
X-97342Y152193D01*
D02*
G37*
G36*
X-156493Y140550D02*
Y138550D01*
X-163494Y131550D01*
X-163994D01*
X-168271Y135827D01*
X-170473Y135827D01*
X-179921Y126378D01*
X-179921Y125478D01*
X-174994Y120550D01*
Y97050D01*
X-177494Y94550D01*
X-180493D01*
X-181493Y95550D01*
Y107550D01*
X-195493Y121550D01*
Y125050D01*
X-168244Y152300D01*
X-156493Y140550D01*
D02*
G37*
G36*
X8436Y122847D02*
X7984Y121756D01*
X-19174D01*
X-19223Y121836D01*
X-19446Y122097D01*
X-19712Y122578D01*
X-19722Y123145D01*
X-19544Y123556D01*
X-19413Y123874D01*
X-19333Y124207D01*
X-19306Y124550D01*
X-19333Y124892D01*
X-19355Y124983D01*
X-16130Y128208D01*
X3076D01*
X8436Y122847D01*
D02*
G37*
G36*
X8674Y151337D02*
X11021Y149471D01*
X13328Y147558D01*
X15595Y145597D01*
X17822Y143589D01*
X20006Y141536D01*
X22147Y139439D01*
X24245Y137297D01*
X26298Y135113D01*
X28305Y132887D01*
X30266Y130619D01*
X32180Y128312D01*
X34045Y125965D01*
X35862Y123581D01*
X37629Y121159D01*
X39346Y118702D01*
X41011Y116209D01*
X42625Y113683D01*
X43663Y111981D01*
X42728Y111246D01*
X11239Y142735D01*
X11003Y142936D01*
X10739Y143098D01*
X10453Y143217D01*
X10151Y143289D01*
X9843Y143313D01*
X9842Y143313D01*
X4408D01*
X4108Y143737D01*
X3913Y144494D01*
X4245Y144853D01*
X4723Y145461D01*
X5153Y146104D01*
X5531Y146779D01*
X5855Y147481D01*
X6123Y148207D01*
X6333Y148951D01*
X6483Y149710D01*
X6574Y150478D01*
X6605Y151251D01*
X6597Y151434D01*
X7756Y152036D01*
X8674Y151337D01*
D02*
G37*
G36*
X-39751Y111981D02*
X-39897Y110519D01*
X-40336Y110258D01*
X-40342Y110258D01*
X-40413Y110342D01*
X-40674Y110564D01*
X-40967Y110744D01*
X-41284Y110875D01*
X-41618Y110955D01*
X-41960Y110982D01*
X-42302Y110955D01*
X-42636Y110875D01*
X-42953Y110744D01*
X-43246Y110564D01*
X-43507Y110342D01*
X-43730Y110081D01*
X-43909Y109788D01*
X-44041Y109471D01*
X-44121Y109137D01*
X-44148Y108794D01*
X-44121Y108452D01*
X-44065Y108220D01*
X-45846Y106439D01*
X-45996Y106256D01*
X-46108Y106048D01*
X-47288Y106226D01*
Y112731D01*
X-47207Y112780D01*
X-46946Y113003D01*
X-46723Y113264D01*
X-46544Y113557D01*
X-46413Y113874D01*
X-46333Y114207D01*
X-46306Y114550D01*
X-46333Y114892D01*
X-46413Y115226D01*
X-46544Y115543D01*
X-46723Y115836D01*
X-46946Y116097D01*
X-47207Y116320D01*
X-47500Y116499D01*
X-47817Y116630D01*
X-48151Y116711D01*
X-48493Y116738D01*
X-48836Y116711D01*
X-49170Y116630D01*
X-49487Y116499D01*
X-49779Y116320D01*
X-50041Y116097D01*
X-50264Y115836D01*
X-50443Y115543D01*
X-50574Y115226D01*
X-50654Y114892D01*
X-50664Y114767D01*
X-50725Y114481D01*
X-51054Y113958D01*
X-51589Y113625D01*
X-51666Y113606D01*
X-51924Y113544D01*
X-52241Y113413D01*
X-52534Y113233D01*
X-52543Y113226D01*
X-52671Y113189D01*
X-52921Y113168D01*
X-53572Y113257D01*
X-53854Y113346D01*
X-53909Y113382D01*
X-53957Y113416D01*
X-54116Y113601D01*
X-54116Y113601D01*
X-56293Y115779D01*
Y126980D01*
X-55202Y127432D01*
X-39751Y111981D01*
D02*
G37*
G36*
X-18433Y107387D02*
X-18516Y107007D01*
X-18983Y106266D01*
X-19025Y106269D01*
X-19367Y106242D01*
X-19701Y106162D01*
X-20018Y106031D01*
X-20311Y105851D01*
X-20572Y105628D01*
X-20795Y105367D01*
X-20974Y105075D01*
X-21106Y104757D01*
X-21186Y104423D01*
X-21213Y104081D01*
X-21186Y103739D01*
X-21106Y103405D01*
X-20974Y103088D01*
X-20815Y102828D01*
Y102061D01*
X-20826Y102047D01*
X-20928Y101857D01*
X-20990Y101650D01*
X-21011Y101436D01*
Y99664D01*
X-20990Y99449D01*
X-20928Y99243D01*
X-20826Y99053D01*
X-20879Y98811D01*
X-22058Y98410D01*
X-22222Y98469D01*
X-22324Y98552D01*
X-22532Y98664D01*
X-22758Y98732D01*
X-22994Y98756D01*
X-22994Y98756D01*
X-24415D01*
X-25305Y99767D01*
X-25305Y99770D01*
X-25161Y100084D01*
X-25059Y100274D01*
X-24997Y100481D01*
X-24976Y100695D01*
Y102467D01*
X-24997Y102682D01*
X-25059Y102888D01*
X-25161Y103078D01*
X-25298Y103245D01*
X-25465Y103382D01*
X-25655Y103484D01*
X-25861Y103547D01*
X-26076Y103568D01*
X-27848D01*
X-28062Y103547D01*
X-28078Y103542D01*
X-28582Y103886D01*
X-28997Y104418D01*
X-28976Y104632D01*
Y106404D01*
X-28997Y106619D01*
X-29059Y106825D01*
X-29161Y107016D01*
X-29282Y107163D01*
X-29255Y107414D01*
X-29178Y107835D01*
X-28894Y108344D01*
X-19390D01*
X-18433Y107387D01*
D02*
G37*
G36*
X-34306Y152802D02*
X-34047Y152694D01*
X-33773Y152629D01*
X-33494Y152606D01*
X-31777D01*
X-30136Y150966D01*
X-30136Y150966D01*
X-30011Y150859D01*
X-29901Y150765D01*
X-29637Y150603D01*
X-29350Y150484D01*
X-29049Y150412D01*
X-28740Y150388D01*
X-28740Y150388D01*
X-27229Y150388D01*
X-26384Y149543D01*
Y140158D01*
X-26384Y140157D01*
X-26360Y139849D01*
X-26287Y139547D01*
X-26169Y139261D01*
X-26007Y138997D01*
X-25806Y138761D01*
X-25806Y138761D01*
X-22852Y135807D01*
X-30455Y128203D01*
X-30695Y127930D01*
X-30896Y127629D01*
X-31057Y127303D01*
X-31173Y126960D01*
X-31244Y126604D01*
X-31268Y126242D01*
X-31244Y125879D01*
X-31173Y125523D01*
X-31057Y125180D01*
X-30896Y124854D01*
X-30695Y124553D01*
X-30455Y124280D01*
X-30182Y124040D01*
X-29881Y123839D01*
X-29555Y123678D01*
X-29155Y123494D01*
X-28771Y123032D01*
X-28681Y122550D01*
X-28654Y122207D01*
X-28574Y121874D01*
X-28443Y121556D01*
X-28264Y121264D01*
X-28041Y121003D01*
X-27779Y120780D01*
X-27487Y120600D01*
X-27170Y120469D01*
X-26836Y120389D01*
X-26493Y120362D01*
X-26151Y120389D01*
X-25817Y120469D01*
X-25500Y120600D01*
X-25207Y120780D01*
X-24947Y121003D01*
X-24724Y121264D01*
X-24544Y121556D01*
X-24413Y121874D01*
X-24333Y122207D01*
X-24328Y122269D01*
X-24148Y122411D01*
X-22800Y122017D01*
X-22800Y122017D01*
X-22770Y121943D01*
X-22943Y121543D01*
X-23074Y121226D01*
X-23154Y120892D01*
X-23181Y120550D01*
X-23154Y120208D01*
X-23074Y119874D01*
X-22943Y119556D01*
X-22763Y119264D01*
X-22540Y119003D01*
X-22279Y118780D01*
X-21987Y118600D01*
X-21670Y118469D01*
X-21336Y118389D01*
X-20993Y118362D01*
X-20651Y118389D01*
X-20317Y118469D01*
X-20000Y118600D01*
X-19707Y118780D01*
X-19446Y119003D01*
X-19223Y119264D01*
X-19174Y119344D01*
X9818D01*
X12505Y116657D01*
X12570Y116478D01*
X12580Y116233D01*
X12355Y115144D01*
X12133Y114883D01*
X11953Y114590D01*
X11822Y114273D01*
X11742Y113939D01*
X11715Y113597D01*
X11742Y113255D01*
X11822Y112921D01*
X11953Y112604D01*
X12133Y112311D01*
X12355Y112050D01*
X12617Y111827D01*
X12886Y111662D01*
Y109427D01*
X12875Y109414D01*
X12773Y109223D01*
X12711Y109017D01*
X12690Y108802D01*
Y107031D01*
X12697Y106950D01*
X12642Y106728D01*
X12296Y106284D01*
X11792Y105940D01*
X11777Y105945D01*
X11562Y105966D01*
X9790D01*
X9576Y105945D01*
X9369Y105882D01*
X9179Y105780D01*
X9012Y105643D01*
X8948Y105566D01*
X8749Y105550D01*
X8476Y105485D01*
X8217Y105377D01*
X7977Y105231D01*
X7764Y105048D01*
X6808Y104092D01*
X6625Y103878D01*
X6478Y103639D01*
X6371Y103379D01*
X6305Y103106D01*
X6283Y102826D01*
Y98824D01*
X6124Y98563D01*
X5992Y98246D01*
X5912Y97912D01*
X5885Y97570D01*
X5912Y97228D01*
X5940Y97113D01*
X5404Y96653D01*
X4944Y96464D01*
X4802Y96581D01*
X4639Y96668D01*
X4462Y96722D01*
X4278Y96740D01*
X3451D01*
X3268Y96722D01*
X3091Y96668D01*
X2928Y96581D01*
X2881Y96543D01*
X2833Y96581D01*
X2670Y96668D01*
X2493Y96722D01*
X2310Y96740D01*
X1483D01*
X1134Y97871D01*
Y105222D01*
X1110Y105457D01*
X1042Y105683D01*
X930Y105892D01*
X780Y106074D01*
X-9548Y116402D01*
X-9730Y116552D01*
X-9939Y116664D01*
X-10165Y116732D01*
X-10400Y116756D01*
X-10400Y116756D01*
X-33494D01*
X-40422Y123684D01*
X-40453Y123802D01*
X-40446Y125003D01*
X-40354Y125111D01*
X-39439D01*
X-39184Y125136D01*
X-38939Y125211D01*
X-38713Y125331D01*
X-38515Y125494D01*
X-31070Y132939D01*
X-31070Y132939D01*
X-30907Y133137D01*
X-30787Y133363D01*
X-30712Y133608D01*
X-30687Y133863D01*
Y135178D01*
X-30687Y135179D01*
X-30496Y135280D01*
X-30329Y135417D01*
X-30193Y135584D01*
X-30091Y135774D01*
X-30028Y135981D01*
X-30007Y136195D01*
Y137967D01*
X-30028Y138182D01*
X-30091Y138388D01*
X-30091Y138388D01*
X-30193Y138578D01*
Y139521D01*
X-30091Y139711D01*
X-30091Y139711D01*
X-30028Y139918D01*
X-30007Y140132D01*
Y141904D01*
X-30028Y142119D01*
X-30091Y142325D01*
X-30193Y142516D01*
X-30329Y142682D01*
X-30496Y142819D01*
X-30687Y142921D01*
X-30893Y142983D01*
X-31108Y143005D01*
X-31977D01*
X-32818Y143889D01*
X-32806Y144050D01*
X-32833Y144392D01*
X-32913Y144726D01*
X-33044Y145043D01*
X-33224Y145336D01*
X-33446Y145597D01*
X-33687Y145802D01*
Y149550D01*
X-33687Y149550D01*
X-33712Y149805D01*
X-33787Y150050D01*
X-33907Y150276D01*
X-34070Y150473D01*
X-35571Y151975D01*
X-34842Y152887D01*
X-34446D01*
X-34306Y152802D01*
D02*
G37*
G36*
X22860Y106302D02*
Y95434D01*
X22688Y95162D01*
X22155Y94724D01*
X21679Y94517D01*
X21542Y94528D01*
X21200Y94501D01*
X20866Y94421D01*
X20549Y94290D01*
X20256Y94110D01*
X19995Y93887D01*
X19772Y93626D01*
X19646Y93420D01*
X18877D01*
X18874Y93419D01*
X17794D01*
X17579Y93398D01*
X17471Y93366D01*
X17169Y93594D01*
X16758Y94114D01*
X16656Y94292D01*
X16708Y94463D01*
X16729Y94678D01*
Y96450D01*
X16708Y96664D01*
X16646Y96871D01*
X16646Y96871D01*
X16544Y97061D01*
X16407Y97378D01*
Y97750D01*
X16544Y98067D01*
X16646Y98257D01*
X16646Y98257D01*
X16667Y98326D01*
X16708Y98463D01*
X16729Y98678D01*
Y100450D01*
X16708Y100664D01*
X16646Y100871D01*
X16544Y101061D01*
X16499Y101116D01*
Y102524D01*
X16579Y102673D01*
X16641Y102879D01*
X16662Y103094D01*
Y104865D01*
X16655Y104946D01*
X16710Y105168D01*
X17056Y105612D01*
X17560Y105956D01*
X17575Y105951D01*
X17790Y105930D01*
X19562D01*
X19776Y105951D01*
X19983Y106014D01*
X20173Y106116D01*
X20340Y106252D01*
X20477Y106419D01*
X20579Y106609D01*
X20641Y106816D01*
X20644Y106847D01*
X21408Y107339D01*
X21701Y107461D01*
X22860Y106302D01*
D02*
G37*
G36*
X-163494Y129550D02*
X-149494D01*
X-134914Y114970D01*
X-134914Y109948D01*
X-133132Y108166D01*
X-128950D01*
X-128237Y107453D01*
Y103841D01*
X-128617Y103461D01*
X-139375D01*
X-142507Y106563D01*
X-162994Y127050D01*
X-163994D01*
X-170493Y133550D01*
X-169493Y134550D01*
X-168493D01*
X-163494Y129550D01*
D02*
G37*
G36*
X-76469Y132281D02*
X-76767Y131783D01*
X-77015Y131258D01*
X-77211Y130712D01*
X-77352Y130149D01*
X-77437Y129575D01*
X-77465Y128996D01*
X-77437Y128416D01*
X-77352Y127842D01*
X-77211Y127279D01*
X-77015Y126733D01*
X-76767Y126208D01*
X-76469Y125711D01*
X-76123Y125245D01*
X-75734Y124815D01*
X-75304Y124425D01*
X-74838Y124080D01*
X-74340Y123781D01*
X-73815Y123533D01*
X-73269Y123338D01*
X-72706Y123197D01*
X-72132Y123111D01*
X-71553Y123083D01*
X-70973Y123111D01*
X-70399Y123197D01*
X-69836Y123338D01*
X-69290Y123533D01*
X-68765Y123781D01*
X-68268Y124080D01*
X-67802Y124425D01*
X-67372Y124815D01*
X-67329Y124862D01*
X-66148Y124407D01*
X-66148Y113023D01*
X-76987Y102184D01*
X-76987Y102184D01*
X-78168Y101003D01*
X-78369Y100767D01*
X-78531Y100503D01*
X-78650Y100216D01*
X-78722Y99915D01*
X-78746Y99606D01*
X-78746Y99606D01*
Y97244D01*
X-78722Y96935D01*
X-78650Y96634D01*
X-78531Y96348D01*
X-78369Y96083D01*
X-78168Y95848D01*
X-78168Y95848D01*
X-77381Y95060D01*
X-77145Y94859D01*
X-76881Y94697D01*
X-76594Y94579D01*
X-76293Y94506D01*
X-75984Y94482D01*
X-75984Y94482D01*
X-68904D01*
Y90582D01*
X-70503Y88982D01*
X-71786D01*
Y92880D01*
X-77323D01*
Y88982D01*
X-78123D01*
X-78240Y88973D01*
X-78356Y88969D01*
X-78394Y88961D01*
X-78432Y88958D01*
X-78545Y88931D01*
X-78660Y88908D01*
X-78675Y88902D01*
X-78798Y88878D01*
X-78910Y88846D01*
X-79023Y88819D01*
X-79059Y88805D01*
X-79096Y88794D01*
X-79202Y88745D01*
X-79309Y88701D01*
X-79343Y88680D01*
X-79378Y88664D01*
X-79474Y88600D01*
X-79574Y88539D01*
X-79603Y88514D01*
X-79635Y88492D01*
X-79721Y88413D01*
X-79809Y88338D01*
X-85255Y82892D01*
X-85456Y82657D01*
X-85618Y82393D01*
X-85736Y82106D01*
X-85809Y81805D01*
X-85833Y81496D01*
X-85833Y81496D01*
Y77626D01*
X-86130Y77352D01*
X-87000Y76999D01*
X-87317Y77131D01*
X-87651Y77211D01*
X-87994Y77238D01*
X-88336Y77211D01*
X-88670Y77131D01*
X-88987Y76999D01*
X-89280Y76820D01*
X-89540Y76597D01*
X-89763Y76336D01*
X-89943Y76043D01*
X-90074Y75726D01*
X-90154Y75392D01*
X-90181Y75050D01*
X-90157Y74734D01*
X-90838Y74052D01*
X-91001Y73854D01*
X-91122Y73628D01*
X-91196Y73383D01*
X-91221Y73128D01*
Y66628D01*
X-92402Y65454D01*
X-96220Y65454D01*
X-96258Y65451D01*
X-96297Y65453D01*
X-96413Y65439D01*
X-96529Y65430D01*
X-96566Y65421D01*
X-96605Y65417D01*
X-96993Y65339D01*
X-97382Y65417D01*
X-97421Y65421D01*
X-97458Y65430D01*
X-97574Y65439D01*
X-97690Y65453D01*
X-97729Y65451D01*
X-97767Y65454D01*
X-102198Y65454D01*
X-102650Y66546D01*
X-101070Y68126D01*
X-101070Y68126D01*
X-100907Y68324D01*
X-100787Y68550D01*
X-100712Y68795D01*
X-100687Y69050D01*
Y90709D01*
X-100167Y90993D01*
X-99506Y91092D01*
X-99481Y91062D01*
X-98071Y89651D01*
X-97859Y89477D01*
X-97618Y89348D01*
X-97356Y89269D01*
X-97083Y89242D01*
X-96799D01*
X-96745Y89142D01*
X-96608Y88975D01*
X-96442Y88838D01*
X-96251Y88737D01*
X-96045Y88674D01*
X-95830Y88653D01*
X-94058D01*
X-93978Y88661D01*
X-93755Y88605D01*
X-93312Y88259D01*
X-92968Y87755D01*
X-92972Y87740D01*
X-92994Y87525D01*
Y85753D01*
X-92972Y85539D01*
X-92910Y85332D01*
X-92808Y85142D01*
X-92671Y84975D01*
X-92505Y84838D01*
X-92314Y84737D01*
X-92108Y84674D01*
X-91893Y84653D01*
X-90121D01*
X-89907Y84674D01*
X-89700Y84737D01*
X-89510Y84838D01*
X-89343Y84975D01*
X-89206Y85142D01*
X-89105Y85332D01*
X-89042Y85539D01*
X-89021Y85753D01*
Y87525D01*
X-89035Y87668D01*
X-89027Y87767D01*
X-88588Y88569D01*
X-88485Y88693D01*
X-88282Y88850D01*
X-84657D01*
X-84377Y88872D01*
X-84183Y88918D01*
X-81629D01*
Y92880D01*
X-87165D01*
Y92429D01*
X-89496D01*
X-89510Y92440D01*
X-89700Y92542D01*
X-89907Y92605D01*
X-90121Y92626D01*
X-91893D01*
X-92108Y92605D01*
X-92314Y92542D01*
X-92314Y92542D01*
X-92505Y92440D01*
X-93447D01*
X-93637Y92542D01*
X-93637Y92542D01*
X-93844Y92605D01*
X-94058Y92626D01*
X-95830D01*
X-95920Y92617D01*
X-96154Y92673D01*
X-96802Y93076D01*
X-97055Y93322D01*
X-97096Y93382D01*
Y98471D01*
X-95200Y100367D01*
X-94856Y100299D01*
X-94494Y100275D01*
X-93768D01*
Y99125D01*
X-93744Y98763D01*
X-93673Y98407D01*
X-93557Y98064D01*
X-93396Y97738D01*
X-93195Y97436D01*
X-92955Y97164D01*
X-92682Y96924D01*
X-92381Y96723D01*
X-92055Y96562D01*
X-91712Y96446D01*
X-91356Y96375D01*
X-90993Y96351D01*
X-84553D01*
X-84190Y96375D01*
X-84072Y96398D01*
X-81629D01*
Y100361D01*
X-82075D01*
X-82150Y100513D01*
X-82351Y100814D01*
X-82591Y101087D01*
X-82864Y101327D01*
X-83165Y101528D01*
X-83491Y101689D01*
X-83834Y101805D01*
X-84190Y101876D01*
X-84553Y101900D01*
X-88219D01*
Y106050D01*
X-88243Y106412D01*
X-88314Y106768D01*
X-88430Y107112D01*
X-88591Y107437D01*
X-88792Y107739D01*
X-89007Y107984D01*
Y108467D01*
X-89028Y108682D01*
X-89091Y108888D01*
X-89173Y109116D01*
X-88693Y110038D01*
X-88590Y110166D01*
X-88342Y110387D01*
X-88061Y110700D01*
X-87816Y111043D01*
X-87612Y111412D01*
X-87449Y111801D01*
X-87332Y112206D01*
X-87260Y112621D01*
X-87236Y113042D01*
X-87231Y115545D01*
X-87212Y124674D01*
X-87057Y124815D01*
X-86667Y125245D01*
X-86322Y125711D01*
X-86023Y126208D01*
X-85775Y126733D01*
X-85580Y127279D01*
X-85439Y127842D01*
X-85354Y128416D01*
X-85325Y128996D01*
X-85354Y129575D01*
X-85439Y130149D01*
X-85580Y130712D01*
X-85775Y131258D01*
X-86023Y131783D01*
X-86322Y132281D01*
X-85732Y133458D01*
X-77058D01*
X-76469Y132281D01*
D02*
G37*
G36*
X-38451Y105983D02*
X-38135Y105709D01*
X-38150Y105518D01*
X-38123Y105176D01*
X-38043Y104842D01*
X-37911Y104525D01*
X-37732Y104232D01*
X-37509Y103971D01*
X-37252Y103492D01*
X-37262Y102924D01*
X-37443Y102543D01*
X-37574Y102226D01*
X-37654Y101892D01*
X-37681Y101550D01*
X-37654Y101207D01*
X-37574Y100874D01*
X-37443Y100557D01*
X-37264Y100264D01*
X-37041Y100003D01*
X-36779Y99780D01*
X-36487Y99600D01*
X-36170Y99469D01*
X-35836Y99389D01*
X-35493Y99362D01*
X-35151Y99389D01*
X-34817Y99469D01*
X-34500Y99600D01*
X-34207Y99780D01*
X-33655Y99634D01*
X-33034Y99389D01*
X-32833Y98857D01*
X-32896Y98650D01*
X-32917Y98436D01*
Y96664D01*
X-32896Y96449D01*
X-32833Y96243D01*
X-32731Y96052D01*
X-32595Y95886D01*
X-32428Y95749D01*
X-32237Y95647D01*
X-32031Y95584D01*
X-31816Y95563D01*
X-30045D01*
X-29880Y95579D01*
X-29302Y95140D01*
X-28990Y94650D01*
X-29011Y94436D01*
Y92664D01*
X-28990Y92449D01*
X-28986Y92434D01*
X-29329Y91930D01*
X-29862Y91515D01*
X-30076Y91536D01*
X-31243D01*
X-32325Y92618D01*
X-32508Y92768D01*
X-32717Y92880D01*
X-32943Y92948D01*
X-33178Y92972D01*
X-33178Y92972D01*
X-33269D01*
X-33279Y93014D01*
X-33417Y93349D01*
X-33606Y93657D01*
X-33842Y93933D01*
X-34117Y94168D01*
X-34426Y94357D01*
X-34760Y94495D01*
X-35112Y94580D01*
X-35473Y94608D01*
X-35834Y94580D01*
X-36186Y94495D01*
X-36520Y94357D01*
X-36829Y94168D01*
X-37104Y93933D01*
X-37378Y93662D01*
X-38227Y93772D01*
X-38544Y93903D01*
X-38878Y93984D01*
X-39220Y94011D01*
X-39562Y93984D01*
X-39896Y93903D01*
X-40214Y93772D01*
X-40506Y93593D01*
X-40767Y93370D01*
X-40990Y93109D01*
X-42123Y93480D01*
X-42288Y93588D01*
Y103226D01*
X-39238Y106276D01*
X-38451Y105983D01*
D02*
G37*
G36*
X-54279Y92265D02*
X-53154Y91892D01*
X-53181Y91550D01*
X-53154Y91207D01*
X-53074Y90874D01*
X-52943Y90557D01*
X-52763Y90264D01*
X-52643Y90122D01*
X-52793Y89456D01*
X-53055Y88889D01*
X-53380Y88729D01*
X-53493Y88738D01*
X-53836Y88711D01*
X-54170Y88630D01*
X-54487Y88499D01*
X-54779Y88320D01*
X-55041Y88097D01*
X-55264Y87836D01*
X-55443Y87543D01*
X-55574Y87226D01*
X-55654Y86892D01*
X-55681Y86550D01*
X-55654Y86207D01*
X-55574Y85874D01*
X-55443Y85557D01*
X-55264Y85264D01*
X-55142Y85122D01*
X-55293Y84456D01*
X-55555Y83889D01*
X-55880Y83729D01*
X-55993Y83738D01*
X-56336Y83711D01*
X-56670Y83631D01*
X-56987Y83499D01*
X-57279Y83320D01*
X-57541Y83097D01*
X-57763Y82836D01*
X-57943Y82543D01*
X-58074Y82226D01*
X-58154Y81892D01*
X-58181Y81550D01*
X-58154Y81208D01*
X-58074Y80874D01*
X-58032Y80772D01*
X-58403Y80118D01*
X-58818Y79724D01*
X-58994Y79738D01*
X-59336Y79711D01*
X-59670Y79631D01*
X-59987Y79499D01*
X-60280Y79320D01*
X-60540Y79097D01*
X-60764Y78836D01*
X-60943Y78543D01*
X-61074Y78226D01*
X-61154Y77892D01*
X-61181Y77550D01*
X-61154Y77207D01*
X-61074Y76874D01*
X-60943Y76556D01*
X-60764Y76264D01*
X-60699Y76189D01*
Y50752D01*
X-61180Y50271D01*
X-64101D01*
X-64292Y50334D01*
X-65203Y50852D01*
Y52624D01*
X-65224Y52839D01*
X-65287Y53045D01*
X-65386Y53231D01*
Y54155D01*
X-65362Y54185D01*
X-65260Y54375D01*
X-65197Y54581D01*
X-65176Y54796D01*
Y56568D01*
X-65197Y56783D01*
X-65260Y56989D01*
X-65362Y57179D01*
X-65373Y57193D01*
Y58549D01*
X-65395Y58829D01*
X-65460Y59103D01*
X-65568Y59362D01*
X-65715Y59601D01*
X-65897Y59815D01*
X-67366Y61284D01*
X-67579Y61466D01*
X-67819Y61613D01*
X-68078Y61720D01*
X-68104Y61727D01*
X-68176Y61788D01*
X-68469Y61968D01*
X-68786Y62099D01*
X-69120Y62179D01*
X-69462Y62206D01*
X-69804Y62179D01*
X-70138Y62099D01*
X-70455Y61968D01*
X-70748Y61788D01*
X-71009Y61565D01*
X-71232Y61304D01*
X-71411Y61011D01*
X-71543Y60694D01*
X-71623Y60360D01*
X-71650Y60018D01*
X-71623Y59676D01*
X-71612Y59629D01*
X-71860Y58991D01*
X-71923Y58896D01*
X-72275Y58483D01*
X-72412Y58397D01*
X-72571Y58349D01*
X-72748Y58254D01*
X-72797Y58228D01*
X-72797Y58228D01*
X-73160Y58068D01*
X-73921Y58079D01*
X-74339Y58391D01*
Y66468D01*
X-74243Y66563D01*
X-73076D01*
X-72861Y66584D01*
X-72655Y66647D01*
X-72465Y66749D01*
X-72298Y66886D01*
X-72161Y67053D01*
X-72059Y67243D01*
X-71997Y67449D01*
X-71976Y67664D01*
Y69436D01*
X-71997Y69650D01*
X-72001Y69666D01*
X-71658Y70170D01*
X-71126Y70584D01*
X-70911Y70563D01*
X-69139D01*
X-68924Y70584D01*
X-68718Y70647D01*
X-68528Y70749D01*
X-68361Y70886D01*
X-68224Y71052D01*
X-68122Y71243D01*
X-68060Y71449D01*
X-68039Y71664D01*
Y73436D01*
X-68060Y73650D01*
X-68122Y73857D01*
X-68224Y74047D01*
X-68289Y74126D01*
Y75124D01*
X-68129Y75385D01*
X-67998Y75702D01*
X-67918Y76036D01*
X-67891Y76378D01*
X-67918Y76720D01*
X-67998Y77054D01*
X-68126Y77363D01*
X-68134Y77386D01*
X-68157Y77455D01*
X-68230Y78078D01*
X-68140Y78553D01*
X-67900Y78938D01*
X-54543Y92295D01*
X-54279Y92265D01*
D02*
G37*
G36*
X16535Y88583D02*
Y85827D01*
X16142Y85433D01*
X12598D01*
X11831Y84666D01*
X8868D01*
X8620Y84831D01*
X8254Y84904D01*
X5184D01*
X5118Y84957D01*
Y86048D01*
X5184Y86101D01*
X8254D01*
X8620Y86174D01*
X8690Y86221D01*
X9055D01*
X11811Y88583D01*
X12205Y88976D01*
X16142D01*
X16535Y88583D01*
D02*
G37*
G36*
X34232Y102852D02*
Y66199D01*
X28357Y60324D01*
X20475D01*
X20113Y60300D01*
X19757Y60230D01*
X19626Y60185D01*
X19511Y60212D01*
X19126Y60388D01*
X18524Y60965D01*
Y62436D01*
X18503Y62650D01*
X18441Y62857D01*
X18339Y63047D01*
X18202Y63214D01*
X18035Y63351D01*
X17845Y63452D01*
X17757Y63479D01*
X17745Y63518D01*
X17624Y63744D01*
X17462Y63942D01*
X17462Y63942D01*
X15340Y66063D01*
X15269Y66300D01*
X15274Y66527D01*
X15509Y67565D01*
X15553Y67603D01*
X15777Y67864D01*
X15956Y68156D01*
X16087Y68474D01*
X16167Y68808D01*
X16194Y69150D01*
X16167Y69492D01*
X16087Y69826D01*
X15956Y70143D01*
X15828Y70352D01*
Y71039D01*
X15839Y71052D01*
X15941Y71243D01*
X16003Y71449D01*
X16024Y71664D01*
Y73436D01*
X16678Y74282D01*
X16697Y74300D01*
X16961Y74454D01*
X22667D01*
X22667Y74454D01*
X22902Y74477D01*
X23128Y74546D01*
X23337Y74657D01*
X23519Y74807D01*
X27918Y79206D01*
X27918Y79206D01*
X28068Y79389D01*
X28180Y79598D01*
X28249Y79824D01*
X28272Y80059D01*
X28272Y80059D01*
Y107142D01*
X29453Y107632D01*
X34232Y102852D01*
D02*
G37*
G36*
X-104386Y128729D02*
X-103580Y128290D01*
X-103459Y128190D01*
X-103300Y127984D01*
Y69591D01*
X-105678Y67213D01*
X-105993Y67238D01*
X-106336Y67211D01*
X-106670Y67131D01*
X-106987Y66999D01*
X-107280Y66820D01*
X-107541Y66597D01*
X-107764Y66336D01*
X-107943Y66043D01*
X-108074Y65726D01*
X-108154Y65392D01*
X-108181Y65050D01*
X-108154Y64707D01*
X-108074Y64374D01*
X-107996Y64186D01*
X-108209Y63529D01*
X-108496Y63075D01*
X-108594Y62984D01*
X-108800Y62921D01*
X-108991Y62819D01*
X-109158Y62682D01*
X-109294Y62515D01*
X-109396Y62325D01*
X-109459Y62119D01*
X-109480Y61904D01*
Y61484D01*
X-109873Y61178D01*
X-110131Y61148D01*
X-111223Y61336D01*
X-111446Y61597D01*
X-111687Y61802D01*
Y64141D01*
X-107570Y68259D01*
X-107407Y68457D01*
X-107287Y68682D01*
X-107212Y68927D01*
X-107187Y69182D01*
Y127697D01*
X-107013Y128014D01*
X-106398Y128722D01*
X-104626D01*
X-104481Y128737D01*
X-104386Y128729D01*
D02*
G37*
G36*
X507Y67550D02*
X1961Y66095D01*
X8961D01*
X10111Y64945D01*
X10111Y63158D01*
X9939Y62985D01*
X-429D01*
X-4493Y67050D01*
Y72550D01*
X507D01*
Y67550D01*
D02*
G37*
G36*
X-86130Y72748D02*
X-85833Y72474D01*
Y71260D01*
X-85833Y71260D01*
X-85809Y70951D01*
X-85736Y70650D01*
X-85618Y70363D01*
X-85456Y70099D01*
X-85255Y69864D01*
X-85254Y69863D01*
X-84861Y69470D01*
X-84625Y69269D01*
X-84361Y69107D01*
X-84075Y68988D01*
X-83773Y68916D01*
X-83465Y68892D01*
X-83464Y68892D01*
X-80709D01*
X-80709Y68892D01*
X-80077Y67983D01*
X-80011Y67794D01*
Y67664D01*
X-79990Y67449D01*
X-79928Y67243D01*
X-79826Y67053D01*
X-79689Y66886D01*
X-79522Y66749D01*
X-79332Y66647D01*
X-79310Y66640D01*
Y62590D01*
X-79703Y61484D01*
X-80441D01*
X-80622Y61466D01*
X-80796Y61414D01*
X-80957Y61328D01*
X-81056Y61246D01*
X-81156Y61328D01*
X-81317Y61414D01*
X-81491Y61466D01*
X-81672Y61484D01*
X-82410D01*
X-82591Y61466D01*
X-82765Y61414D01*
X-82925Y61328D01*
X-83025Y61246D01*
X-83125Y61328D01*
X-83285Y61414D01*
X-83459Y61466D01*
X-83640Y61484D01*
X-84378D01*
X-84559Y61466D01*
X-84733Y61414D01*
X-84894Y61328D01*
X-84993Y61246D01*
X-85093Y61328D01*
X-85254Y61414D01*
X-85428Y61466D01*
X-85609Y61484D01*
X-86347D01*
X-86528Y61466D01*
X-86702Y61414D01*
X-86862Y61328D01*
X-86962Y61246D01*
X-87062Y61328D01*
X-87222Y61414D01*
X-87396Y61466D01*
X-87577Y61484D01*
X-88315D01*
X-88608Y62642D01*
Y71815D01*
X-87994Y72862D01*
X-87651Y72889D01*
X-87317Y72969D01*
X-87000Y73100D01*
X-86130Y72748D01*
D02*
G37*
G36*
X-97767Y63480D02*
X-96993Y63326D01*
X-96220Y63480D01*
X-91240Y63480D01*
Y61723D01*
X-91514Y61498D01*
X-92252D01*
X-92612Y61426D01*
X-92918Y61222D01*
X-93122Y60917D01*
X-93193Y60557D01*
Y58441D01*
X-93122Y58080D01*
X-92918Y57775D01*
X-93031Y56712D01*
X-93462Y56281D01*
X-94366D01*
X-94442Y56296D01*
X-97866D01*
X-99588Y58018D01*
X-100018Y58306D01*
X-100525Y58407D01*
X-101584D01*
X-101818Y58757D01*
X-102180Y58999D01*
X-102608Y59084D01*
X-104379D01*
X-104807Y58999D01*
X-104954Y58900D01*
X-106033D01*
X-106180Y58999D01*
X-106608Y59084D01*
X-107512D01*
X-107926Y60084D01*
X-104757Y63253D01*
X-104421Y63477D01*
X-104419Y63480D01*
X-97767Y63480D01*
D02*
G37*
G36*
X-1139Y62274D02*
X-987Y62150D01*
X-813Y62057D01*
X-625Y61999D01*
X-429Y61980D01*
X7019D01*
Y55985D01*
X6600Y55651D01*
X5838Y55383D01*
X5815Y55397D01*
X5529Y55515D01*
X5228Y55588D01*
X4919Y55612D01*
X4919Y55612D01*
X2542D01*
X2234Y55588D01*
X1932Y55515D01*
X1646Y55397D01*
X1382Y55235D01*
X1146Y55034D01*
X945Y54798D01*
X783Y54534D01*
X729Y54403D01*
X-896D01*
Y55795D01*
X-3677D01*
Y58636D01*
X-3621Y58682D01*
X-3503Y58826D01*
X-3415Y58990D01*
X-3361Y59168D01*
X-3342Y59354D01*
Y61125D01*
X-3361Y61310D01*
X-3415Y61489D01*
X-3503Y61653D01*
X-3621Y61797D01*
X-3764Y61915D01*
X-3929Y62002D01*
X-4107Y62056D01*
X-4292Y62075D01*
X-4732D01*
Y64324D01*
X-3640Y64776D01*
X-1139Y62274D01*
D02*
G37*
G36*
X-20199Y65534D02*
Y56549D01*
X-21381Y55368D01*
X-23619D01*
X-23873Y55343D01*
X-24116Y55269D01*
X-24716Y56287D01*
X-24705Y56301D01*
X-24585Y56525D01*
X-24511Y56769D01*
X-24487Y57022D01*
Y60762D01*
X-24511Y61016D01*
X-24585Y61259D01*
X-24705Y61484D01*
X-24788Y61584D01*
Y62616D01*
X-21380Y66023D01*
X-20199Y65534D01*
D02*
G37*
G36*
X-113300Y72687D02*
Y71069D01*
X-119398Y64971D01*
X-119561Y64773D01*
X-119682Y64547D01*
X-119756Y64302D01*
X-119781Y64047D01*
Y55531D01*
X-119756Y55276D01*
X-120192Y54234D01*
X-120217Y54195D01*
X-120428Y54000D01*
X-120617Y53956D01*
X-120759Y53983D01*
X-120983Y54076D01*
X-121317Y54156D01*
X-121659Y54183D01*
X-122001Y54156D01*
X-122335Y54076D01*
X-122652Y53944D01*
X-122658Y53941D01*
X-123551Y54588D01*
X-123607Y54697D01*
X-123498Y54960D01*
X-123418Y55294D01*
X-123391Y55636D01*
X-123418Y55978D01*
X-123498Y56312D01*
X-123629Y56629D01*
X-123809Y56922D01*
X-124031Y57183D01*
X-124293Y57406D01*
X-124585Y57586D01*
X-124902Y57717D01*
X-125236Y57797D01*
X-125578Y57824D01*
X-125921Y57797D01*
X-126255Y57717D01*
X-126572Y57586D01*
X-126865Y57406D01*
X-127126Y57183D01*
X-127349Y56922D01*
X-127528Y56629D01*
X-127659Y56312D01*
X-127740Y55978D01*
X-127766Y55636D01*
X-127749Y55416D01*
X-129417Y53748D01*
X-129506Y53639D01*
X-129821Y53644D01*
X-130687Y53983D01*
Y56843D01*
X-114391Y73139D01*
X-113300Y72687D01*
D02*
G37*
G36*
X-9192Y63530D02*
Y62075D01*
X-10001D01*
X-10186Y62056D01*
X-10364Y62002D01*
X-10528Y61915D01*
X-10672Y61797D01*
X-10790Y61653D01*
X-10878Y61489D01*
X-10932Y61310D01*
X-10950Y61125D01*
Y59354D01*
X-10932Y59168D01*
X-10878Y58990D01*
X-10870Y58975D01*
Y57793D01*
X-10979Y57659D01*
X-11095Y57444D01*
X-11165Y57210D01*
X-11189Y56967D01*
Y55795D01*
X-11313D01*
Y51670D01*
X-12168Y51374D01*
X-12985Y52284D01*
X-12969Y52495D01*
X-12996Y52837D01*
X-13076Y53171D01*
X-13207Y53488D01*
X-13386Y53781D01*
X-13610Y54042D01*
X-13871Y54265D01*
X-14163Y54444D01*
X-14480Y54576D01*
X-14814Y54656D01*
X-15157Y54683D01*
X-15499Y54656D01*
X-15833Y54576D01*
X-16150Y54444D01*
X-16443Y54265D01*
X-16704Y54042D01*
X-16927Y53781D01*
X-17106Y53488D01*
X-17237Y53171D01*
X-17317Y52837D01*
X-17344Y52495D01*
X-17317Y52153D01*
X-17243Y51844D01*
X-17234Y51778D01*
X-17288Y51092D01*
X-17512Y50586D01*
X-17740Y50343D01*
X-17748Y50337D01*
X-18271Y49814D01*
X-18537Y49876D01*
X-19208Y50242D01*
X-19368Y50387D01*
Y53970D01*
X-18141Y55197D01*
X-18141Y55197D01*
X-17991Y55380D01*
X-17879Y55588D01*
X-17811Y55814D01*
X-17788Y56050D01*
X-17788Y56050D01*
Y59015D01*
X-17603Y59303D01*
X-16934Y59988D01*
X-15162D01*
X-14947Y60009D01*
X-14741Y60072D01*
X-14551Y60173D01*
X-14384Y60310D01*
X-14247Y60477D01*
X-14145Y60667D01*
X-14083Y60874D01*
X-14068Y61022D01*
X-13785D01*
X-13530Y61047D01*
X-13285Y61122D01*
X-13059Y61242D01*
X-12861Y61405D01*
X-10284Y63982D01*
X-9192Y63530D01*
D02*
G37*
G36*
X-20866Y154724D02*
Y143307D01*
X-18898Y141339D01*
X9843D01*
X44488Y106693D01*
Y62598D01*
X28740Y46850D01*
X23572D01*
X23334Y47089D01*
X23334D01*
Y47089D01*
X23010Y47305D01*
X22683Y47524D01*
X22683D01*
X22683Y47524D01*
X22220Y47616D01*
X21914Y47676D01*
X21914D01*
X21914D01*
X19232D01*
X18464Y47524D01*
X18085Y47270D01*
X15748Y49606D01*
Y50394D01*
X15354Y50787D01*
X12205D01*
X11811Y51181D01*
Y53543D01*
X12598Y54331D01*
X18110D01*
X18504Y53937D01*
Y50787D01*
X19291Y50000D01*
X27165D01*
X40551Y63386D01*
Y105118D01*
X8661Y137008D01*
X-21260D01*
X-24409Y140157D01*
Y150394D01*
X-26378Y152362D01*
X-28740Y152362D01*
X-31890Y155512D01*
X-31890Y160630D01*
X-38976Y167717D01*
X-42843D01*
X-42854Y167721D01*
X-43882Y167856D01*
X-44909Y167721D01*
X-44920Y167717D01*
X-48425D01*
X-58268Y157874D01*
Y156344D01*
X-58353Y155913D01*
Y131065D01*
X-58268Y130634D01*
Y114961D01*
X-55512Y112205D01*
Y96883D01*
X-69324Y83071D01*
X-75984D01*
X-78826Y80229D01*
X-78891Y80216D01*
X-79652Y79708D01*
X-80160Y78947D01*
X-80173Y78882D01*
X-80315Y78740D01*
Y78168D01*
X-80339Y78050D01*
X-80315Y77931D01*
Y71260D01*
X-80709Y70866D01*
X-83465D01*
X-83858Y71260D01*
Y81496D01*
X-78413Y86941D01*
X-78142Y86995D01*
X-78123Y87008D01*
X-69685D01*
X-66929Y89764D01*
Y96063D01*
X-67323Y96457D01*
X-75984D01*
X-76772Y97244D01*
Y99606D01*
X-75590Y100787D01*
X-64173Y112205D01*
X-64173Y133858D01*
X-65748Y135433D01*
X-89370D01*
X-89764Y135827D01*
Y138189D01*
X-88976Y138976D01*
X-70472Y138976D01*
X-66142Y143307D01*
X-66142Y151198D01*
X-66070Y151331D01*
X-65733Y152444D01*
X-65619Y153602D01*
X-65733Y154760D01*
X-66070Y155873D01*
X-66142Y156007D01*
Y157874D01*
X-52756Y171260D01*
X-37402D01*
X-20866Y154724D01*
D02*
G37*
G36*
X-101331Y50097D02*
X-100901Y49809D01*
X-100394Y49709D01*
X-94442D01*
X-94366Y49724D01*
X-93384D01*
X-93194Y49567D01*
Y48564D01*
X-93384Y48407D01*
X-94366D01*
X-94442Y48423D01*
X-118281D01*
X-118663Y49346D01*
X-117340Y50670D01*
X-101904D01*
X-101331Y50097D01*
D02*
G37*
G36*
X7071Y51485D02*
X7120Y51237D01*
X7362Y50874D01*
X7725Y50632D01*
X7974Y50583D01*
X8462Y50094D01*
X10037D01*
X10431Y49700D01*
Y47732D01*
X9643Y46944D01*
X6636D01*
X5600Y47980D01*
X5172Y48267D01*
X4525Y48913D01*
X-975D01*
Y50187D01*
X1848D01*
X2114Y50240D01*
X2339Y50390D01*
X2490Y50616D01*
X2542Y50881D01*
Y53637D01*
X4919D01*
X7071Y51485D01*
D02*
G37*
G36*
X48547Y103261D02*
X49891Y100581D01*
X51180Y97875D01*
X52412Y95142D01*
X53588Y92385D01*
X54706Y89603D01*
X55767Y86800D01*
X56770Y83975D01*
X57714Y81129D01*
X58145Y79735D01*
X24286Y7126D01*
X24338Y7108D01*
X18320Y-5796D01*
X16903Y-5040D01*
X16651Y-5138D01*
X11059Y-2530D01*
X10931Y-2470D01*
X10931Y-2470D01*
X10790Y-2426D01*
X10727Y-2402D01*
X10197Y-2179D01*
X9706Y-1934D01*
X9633Y-1895D01*
X9509Y-1816D01*
X9509Y-1816D01*
X9374Y-1753D01*
X261Y2496D01*
X12Y2613D01*
X9Y2614D01*
X9Y2614D01*
X2Y2617D01*
X2Y2617D01*
X-68Y2650D01*
X-68Y2650D01*
X-104Y2661D01*
X-343Y2760D01*
X-343Y2760D01*
X-713Y2849D01*
X-771Y2855D01*
X-1770Y3297D01*
X-1904Y3412D01*
X-2105Y3647D01*
X-2267Y3911D01*
X-2385Y4197D01*
X-2457Y4497D01*
X-2473Y4691D01*
Y4921D01*
X-2461Y5067D01*
X-2462Y5067D01*
X-2437Y5389D01*
X-2467Y5768D01*
X-2473Y5792D01*
Y9668D01*
X-2473Y10537D01*
X-2473Y10537D01*
X-2473Y10672D01*
X-2496Y10970D01*
X-2496Y11487D01*
X-2473Y12247D01*
X-2473Y12382D01*
X-2473Y12383D01*
X-2473Y12433D01*
Y17628D01*
X-2473Y18497D01*
X-2473Y18497D01*
X-2473Y18632D01*
X-2496Y18930D01*
X-2496Y19447D01*
X-2473Y20207D01*
X-2473Y20342D01*
X-2473Y20342D01*
X-2473Y20393D01*
Y30634D01*
X-2495Y30803D01*
X-2560Y30961D01*
X-2637Y31062D01*
X-2674Y31117D01*
X-2939Y31681D01*
X-3058Y32091D01*
X-3074Y32179D01*
X-3093Y32320D01*
X-3088Y32454D01*
X-3083Y32504D01*
Y34275D01*
X-3101Y34461D01*
X-3155Y34639D01*
X-3171Y34668D01*
X-3455Y35732D01*
X-3455Y35732D01*
X-3455D01*
X-3455Y35732D01*
Y39370D01*
X-3196Y39613D01*
X-2286Y39703D01*
X-2057Y39507D01*
X-1792Y39345D01*
X-1506Y39227D01*
X-1205Y39155D01*
X-896Y39130D01*
X3835D01*
Y35199D01*
X3835Y35199D01*
X3859Y34890D01*
X3932Y34589D01*
X4050Y34303D01*
X4212Y34039D01*
X4413Y33803D01*
X5398Y32819D01*
X5633Y32618D01*
X5897Y32456D01*
X6184Y32337D01*
X6485Y32265D01*
X6794Y32241D01*
X6794Y32241D01*
X21557Y32241D01*
X21558Y32241D01*
X21867Y32265D01*
X22168Y32337D01*
X22454Y32456D01*
X22718Y32618D01*
X22954Y32819D01*
X23938Y33803D01*
X24139Y34039D01*
X24301Y34303D01*
X24420Y34589D01*
X24492Y34890D01*
X24517Y35199D01*
X24517Y35199D01*
X24517Y44876D01*
X28740D01*
X28740Y44876D01*
X29049Y44900D01*
X29350Y44972D01*
X29637Y45091D01*
X29901Y45253D01*
X30136Y45454D01*
X30136Y45454D01*
X45884Y61202D01*
X46086Y61438D01*
X46248Y61702D01*
X46366Y61988D01*
X46439Y62290D01*
X46463Y62598D01*
X46463Y62599D01*
Y104678D01*
X47644Y104971D01*
X48547Y103261D01*
D02*
G37*
G36*
X-211357Y46034D02*
Y45334D01*
X-213461Y43794D01*
Y47574D01*
X-211357Y46034D01*
D02*
G37*
G36*
X22542Y45042D02*
X22542Y35199D01*
X21558Y34215D01*
X6794Y34215D01*
X5810Y35199D01*
Y40121D01*
X4825Y41105D01*
X-896D01*
Y41228D01*
X-975D01*
Y43073D01*
X5810D01*
X7778Y41105D01*
X17621D01*
X18605Y42089D01*
Y45042D01*
X19232Y45669D01*
X21914D01*
X22542Y45042D01*
D02*
G37*
G36*
X-118066Y41477D02*
X-117344Y40995D01*
X-116906Y40908D01*
X-116522Y39878D01*
X-117283Y39116D01*
X-117344Y39104D01*
X-118066Y38622D01*
X-118548Y37901D01*
X-118560Y37840D01*
X-119422Y36978D01*
X-119860Y36323D01*
X-120013Y35550D01*
Y28550D01*
X-119860Y27777D01*
X-119422Y27121D01*
X-117276Y24976D01*
X-116621Y24538D01*
X-115848Y24384D01*
X-106944D01*
X-106929Y24362D01*
X-106534Y24099D01*
X-106338Y24059D01*
Y23040D01*
X-106534Y23001D01*
X-106929Y22737D01*
X-107193Y22342D01*
X-107285Y21877D01*
Y19514D01*
X-107193Y19049D01*
X-106929Y18654D01*
X-106534Y18390D01*
X-106068Y18297D01*
X-104668D01*
X-103134Y16763D01*
X-103134Y16763D01*
X-102544Y16369D01*
X-101848Y16230D01*
X-88280D01*
X-87798Y15748D01*
X-62992D01*
X-60729Y13508D01*
Y12966D01*
X-60729Y12966D01*
X-60590Y12269D01*
X-60196Y11679D01*
X-46381Y-2136D01*
X-46298Y-2551D01*
X-45816Y-3273D01*
X-45094Y-3755D01*
X-44243Y-3924D01*
X-43393Y-3755D01*
X-43328Y-3712D01*
X-41131Y-5886D01*
X-41048Y-6301D01*
X-40566Y-7023D01*
X-40217Y-7256D01*
Y-11046D01*
X-40307Y-11064D01*
X-40669Y-11306D01*
X-40911Y-11669D01*
X-40996Y-12096D01*
Y-13868D01*
X-40911Y-14295D01*
X-40669Y-14657D01*
Y-15243D01*
X-40911Y-15606D01*
X-40996Y-16033D01*
Y-17805D01*
X-40911Y-18232D01*
X-40900Y-18248D01*
X-40637Y-19275D01*
X-40880Y-19637D01*
X-40965Y-20064D01*
Y-21836D01*
X-40880Y-22263D01*
X-40715Y-22950D01*
X-40880Y-23637D01*
X-40965Y-24064D01*
Y-25836D01*
X-40880Y-26263D01*
X-40637Y-26626D01*
X-40319Y-26838D01*
Y-27883D01*
X-40587Y-28062D01*
X-40894Y-28522D01*
X-41002Y-29064D01*
X-41985Y-29064D01*
X-42093Y-28522D01*
X-42400Y-28062D01*
X-42668Y-27883D01*
Y-26828D01*
X-42318Y-26594D01*
X-42076Y-26232D01*
X-41991Y-25805D01*
Y-24033D01*
X-42076Y-23606D01*
X-42318Y-23243D01*
X-42680Y-23001D01*
X-43108Y-22916D01*
X-44879D01*
X-45307Y-23001D01*
X-45669Y-23243D01*
X-45911Y-23606D01*
X-45996Y-24033D01*
X-46991D01*
X-47076Y-23606D01*
X-47318Y-23243D01*
Y-22657D01*
X-47076Y-22295D01*
X-46991Y-21868D01*
Y-20096D01*
X-47076Y-19669D01*
X-47318Y-19306D01*
Y-18594D01*
X-47076Y-18232D01*
X-46991Y-17805D01*
Y-16033D01*
X-47076Y-15606D01*
X-47318Y-15243D01*
Y-14657D01*
X-47076Y-14295D01*
X-46991Y-13868D01*
Y-12096D01*
X-47076Y-11669D01*
X-47318Y-11306D01*
X-47286Y-10626D01*
X-47045Y-10263D01*
X-46959Y-9836D01*
Y-8064D01*
X-47045Y-7637D01*
X-47286Y-7275D01*
X-47649Y-7033D01*
X-47668Y-7029D01*
Y-5450D01*
X-47769Y-4943D01*
X-48056Y-4513D01*
X-61056Y8487D01*
X-61486Y8774D01*
X-61993Y8875D01*
X-103543D01*
X-124215Y29547D01*
Y37954D01*
X-121285Y40884D01*
X-120993Y40826D01*
X-120142Y40995D01*
X-119421Y41477D01*
X-119345Y41591D01*
X-118142D01*
X-118066Y41477D01*
D02*
G37*
G36*
X-82740Y38026D02*
X-88782Y31984D01*
Y27254D01*
X-91944D01*
X-92210Y27201D01*
X-92435Y27051D01*
X-92586Y26825D01*
X-92639Y26560D01*
Y19929D01*
X-92688Y19869D01*
X-101094D01*
X-101702Y20476D01*
Y21877D01*
X-101794Y22342D01*
X-102058Y22737D01*
X-102453Y23001D01*
X-102554Y23021D01*
X-102606Y23990D01*
X-102478Y24094D01*
X-102453Y24099D01*
X-102058Y24362D01*
X-101959Y24510D01*
X-101866Y24585D01*
X-98608D01*
X-98608Y24585D01*
X-97912Y24723D01*
X-97321Y25118D01*
X-93892Y28547D01*
X-93576D01*
X-93149Y28632D01*
X-92787Y28874D01*
X-92545Y29237D01*
X-92459Y29664D01*
Y31436D01*
X-92545Y31863D01*
X-92643Y32010D01*
X-92643Y33089D01*
X-92545Y33237D01*
X-92459Y33664D01*
Y35436D01*
X-92545Y35863D01*
X-92787Y36225D01*
X-93137Y36459D01*
Y37473D01*
X-92008Y38602D01*
X-91649D01*
X-91514Y38602D01*
X-91514Y38602D01*
X-91154Y38673D01*
X-91154Y38673D01*
X-90849Y38877D01*
X-90807Y38939D01*
X-90794Y38950D01*
X-90794Y38950D01*
X-90794Y38950D01*
X-83122D01*
X-82740Y38026D01*
D02*
G37*
G36*
X-93901Y41797D02*
X-93509Y40850D01*
X-95399Y38959D01*
X-95687Y38529D01*
X-95788Y38022D01*
Y36459D01*
X-96137Y36225D01*
X-96380Y35863D01*
X-96465Y35436D01*
Y33664D01*
X-96380Y33237D01*
X-96281Y33089D01*
X-96281Y32010D01*
X-96380Y31863D01*
X-96465Y31436D01*
Y31120D01*
X-99361Y28223D01*
X-101909D01*
X-102058Y28446D01*
X-102453Y28710D01*
X-102919Y28802D01*
X-106068D01*
X-106534Y28710D01*
X-106929Y28446D01*
X-106944Y28424D01*
X-115011D01*
X-115974Y29386D01*
Y34713D01*
X-115704Y34983D01*
X-115642Y34995D01*
X-114921Y35477D01*
X-114439Y36199D01*
X-114427Y36260D01*
X-112993Y37693D01*
X-109107D01*
X-108612Y37792D01*
X-108193Y38072D01*
X-107913Y38491D01*
X-107911Y38498D01*
X-104993D01*
X-100994Y38498D01*
X-100906Y38516D01*
X-100108D01*
X-99680Y38601D01*
X-99318Y38843D01*
X-99076Y39205D01*
X-98991Y39632D01*
Y40178D01*
X-97334Y41835D01*
X-94442D01*
X-94366Y41850D01*
X-94173D01*
X-93901Y41797D01*
D02*
G37*
G36*
X-62103Y40863D02*
X-69846Y33120D01*
X-69996Y32937D01*
X-70108Y32729D01*
X-70176Y32503D01*
X-70199Y32268D01*
X-70199Y32267D01*
Y27081D01*
X-72744Y24536D01*
X-73911D01*
X-74125Y24515D01*
X-74657Y24930D01*
X-75001Y25434D01*
X-74997Y25449D01*
X-74976Y25664D01*
Y27436D01*
X-74997Y27650D01*
X-75059Y27857D01*
X-75161Y28047D01*
X-75298Y28214D01*
X-75465Y28351D01*
X-75655Y28452D01*
X-75862Y28515D01*
X-76076Y28536D01*
X-77848D01*
X-78062Y28515D01*
X-78226Y28465D01*
X-78409Y28592D01*
X-78951Y29134D01*
X-79078Y29317D01*
X-79028Y29481D01*
X-79007Y29695D01*
Y31467D01*
X-79028Y31682D01*
X-78614Y32214D01*
X-78110Y32558D01*
X-78094Y32553D01*
X-77879Y32532D01*
X-76108D01*
X-75893Y32553D01*
X-75687Y32616D01*
X-75496Y32717D01*
X-75329Y32854D01*
X-75193Y33021D01*
X-75091Y33211D01*
X-75028Y33418D01*
X-75007Y33632D01*
Y35404D01*
X-75028Y35619D01*
X-75091Y35825D01*
X-75193Y36015D01*
X-75329Y36182D01*
X-75496Y36319D01*
X-75687Y36421D01*
X-75893Y36483D01*
X-76108Y36505D01*
X-76797D01*
Y40601D01*
X-76807Y40699D01*
X-76633Y41690D01*
X-75640Y41863D01*
X-74487D01*
X-74306Y41881D01*
X-74132Y41934D01*
X-74094Y41954D01*
X-62555D01*
X-62103Y40863D01*
D02*
G37*
G36*
X-46199Y99410D02*
Y74915D01*
X-46199Y74915D01*
X-46176Y74680D01*
X-46108Y74454D01*
X-45996Y74245D01*
X-45846Y74063D01*
X-41299Y69516D01*
Y25873D01*
X-41897Y25488D01*
X-42461Y25365D01*
X-53330Y36234D01*
X-53306Y36550D01*
X-53333Y36892D01*
X-53413Y37226D01*
X-53544Y37543D01*
X-53724Y37836D01*
X-53947Y38097D01*
X-54207Y38320D01*
X-54500Y38499D01*
X-54817Y38631D01*
X-55151Y38711D01*
X-55493Y38738D01*
X-55836Y38711D01*
X-56170Y38631D01*
X-56487Y38499D01*
X-56779Y38320D01*
X-57041Y38097D01*
X-57263Y37836D01*
X-57466Y37546D01*
X-58233Y37631D01*
X-58567Y37711D01*
X-58909Y37738D01*
X-59251Y37711D01*
X-59585Y37631D01*
X-59903Y37499D01*
X-60195Y37320D01*
X-60456Y37097D01*
X-60679Y36836D01*
X-60859Y36543D01*
X-60990Y36226D01*
X-61070Y35892D01*
X-61097Y35550D01*
X-61070Y35208D01*
X-60990Y34874D01*
X-60859Y34556D01*
X-60699Y34296D01*
Y21618D01*
X-62477Y19839D01*
X-70774D01*
X-71140Y20491D01*
X-71250Y21021D01*
X-71224Y21053D01*
X-71122Y21243D01*
X-71060Y21449D01*
X-71039Y21664D01*
Y22831D01*
X-68141Y25729D01*
X-67991Y25911D01*
X-67879Y26120D01*
X-67811Y26346D01*
X-67788Y26581D01*
Y31768D01*
X-52641Y46915D01*
X-52491Y47098D01*
X-52380Y47306D01*
X-52311Y47532D01*
X-52288Y47768D01*
Y67477D01*
X-52107Y67645D01*
X-51764Y67672D01*
X-51430Y67752D01*
X-51113Y67883D01*
X-50821Y68062D01*
X-50560Y68285D01*
X-50337Y68546D01*
X-50157Y68839D01*
X-50026Y69156D01*
X-49946Y69490D01*
X-49919Y69832D01*
X-49946Y70175D01*
X-50026Y70508D01*
X-50157Y70826D01*
X-50337Y71118D01*
X-50560Y71379D01*
X-50821Y71602D01*
X-51113Y71782D01*
X-51430Y71913D01*
X-51764Y71993D01*
X-52107Y72020D01*
X-52449Y71993D01*
X-52607Y71955D01*
X-53053Y72173D01*
X-53303Y72996D01*
X-53277Y73561D01*
X-50141Y76697D01*
X-50141Y76697D01*
X-49991Y76880D01*
X-49880Y77088D01*
X-49811Y77315D01*
X-49788Y77550D01*
Y89731D01*
X-49707Y89780D01*
X-49446Y90003D01*
X-49224Y90264D01*
X-49044Y90557D01*
X-48913Y90874D01*
X-48833Y91207D01*
X-48806Y91550D01*
X-48833Y91892D01*
X-48913Y92226D01*
X-49044Y92543D01*
X-49224Y92836D01*
X-49446Y93097D01*
X-49707Y93320D01*
X-50000Y93499D01*
X-50317Y93630D01*
X-50651Y93711D01*
X-50994Y93738D01*
X-51336Y93711D01*
X-51709Y94836D01*
X-51739Y95099D01*
X-47641Y99197D01*
X-47641Y99197D01*
X-47491Y99380D01*
X-47379Y99588D01*
X-47363Y99641D01*
X-46199Y99410D01*
D02*
G37*
G36*
X-3128Y20207D02*
X-6671D01*
Y30634D01*
X-3128D01*
Y20207D01*
D02*
G37*
G36*
X-82896Y31888D02*
X-82959Y31682D01*
X-82980Y31467D01*
Y29695D01*
X-82959Y29481D01*
X-82896Y29274D01*
X-82653Y28767D01*
X-82641Y28407D01*
X-82773Y28081D01*
X-82773Y28081D01*
X-82875Y27891D01*
X-82938Y27684D01*
X-82959Y27470D01*
Y25698D01*
X-82938Y25483D01*
X-82875Y25277D01*
X-82875Y25277D01*
X-82773Y25087D01*
Y24144D01*
X-82875Y23954D01*
X-82875Y23954D01*
X-82938Y23747D01*
X-82959Y23533D01*
Y21761D01*
X-82938Y21546D01*
X-82875Y21340D01*
X-82773Y21150D01*
X-82762Y21136D01*
Y19839D01*
X-86702D01*
X-86820Y19908D01*
X-87074Y20187D01*
X-87516Y21021D01*
X-87502Y21078D01*
X-87475Y21420D01*
X-87502Y21762D01*
X-87582Y22096D01*
X-87713Y22413D01*
X-87873Y22674D01*
Y24103D01*
X-87713Y24364D01*
X-87582Y24681D01*
X-87502Y25015D01*
X-87475Y25357D01*
X-87502Y25699D01*
X-87514Y25749D01*
X-87386Y25858D01*
X-87184Y26094D01*
X-87022Y26358D01*
X-86904Y26644D01*
X-86831Y26945D01*
X-86807Y27254D01*
Y31166D01*
X-85467Y32506D01*
X-84372D01*
X-84157Y32528D01*
X-83950Y32590D01*
X-83760Y32692D01*
X-82896Y31888D01*
D02*
G37*
G36*
X-145669Y15748D02*
X-155512D01*
Y55118D01*
X-145669D01*
Y15748D01*
D02*
G37*
G36*
X-57925Y18050D02*
X-59894Y15097D01*
X-61862Y17065D01*
Y19034D01*
X-59894Y21002D01*
X-57925Y18050D01*
D02*
G37*
G36*
X-3128Y12247D02*
X-6671D01*
Y18632D01*
X-3128D01*
Y12247D01*
D02*
G37*
G36*
Y4198D02*
X-6671D01*
Y10672D01*
X-3128D01*
Y4198D01*
D02*
G37*
G36*
X-55836Y34389D02*
X-55493Y34362D01*
X-55178Y34387D01*
X-44620Y23829D01*
X-44626Y23714D01*
X-44763Y23547D01*
X-44865Y23357D01*
X-44927Y23150D01*
X-44948Y22936D01*
Y21164D01*
X-44927Y20949D01*
X-44865Y20743D01*
X-44763Y20552D01*
X-44626Y20386D01*
X-44459Y20249D01*
X-44269Y20147D01*
X-44063Y20085D01*
X-43848Y20063D01*
X-42076D01*
X-41862Y20085D01*
X-41655Y20147D01*
X-41655Y20147D01*
X-41465Y20249D01*
X-40861Y20139D01*
X-40199Y19623D01*
Y-2368D01*
X-41225Y-2796D01*
X-41665Y-2409D01*
X-42081Y-2017D01*
X-42056Y-1700D01*
X-42083Y-1358D01*
X-42163Y-1024D01*
X-42294Y-707D01*
X-42474Y-414D01*
X-42696Y-153D01*
X-42957Y70D01*
X-43250Y249D01*
X-43567Y381D01*
X-43864Y452D01*
X-57120Y13707D01*
Y17447D01*
X-57089Y17492D01*
X-57042Y17581D01*
X-56997Y17664D01*
X-56997Y17665D01*
X-56996Y17666D01*
X-56967Y17762D01*
X-56940Y17853D01*
X-56940Y17854D01*
X-56939Y17855D01*
X-56930Y17954D01*
X-56920Y18049D01*
X-56920Y18050D01*
X-56920Y18051D01*
X-56930Y18150D01*
X-56939Y18245D01*
X-56940Y18246D01*
X-56940Y18247D01*
X-56968Y18341D01*
X-56996Y18433D01*
X-56997Y18434D01*
X-56997Y18435D01*
X-57042Y18520D01*
X-57089Y18607D01*
X-57120Y18653D01*
Y33603D01*
X-57004Y33784D01*
X-56679Y34051D01*
X-55992Y34427D01*
X-55836Y34389D01*
D02*
G37*
G36*
X9232Y-2410D02*
X7734Y-5621D01*
X-1522Y-1305D01*
X-1693Y-835D01*
X-344Y2056D01*
X9232Y-2410D01*
D02*
G37*
G36*
X59914Y19031D02*
X17353Y-72242D01*
X13036Y-70229D01*
X40323Y-11711D01*
X34114Y-8816D01*
X33800Y-8931D01*
X32236Y-12285D01*
X30185Y-11328D01*
X25423Y-13061D01*
X16806Y-9043D01*
X17572Y-7401D01*
X25564Y-11128D01*
X27919Y-10272D01*
X33243Y1147D01*
X37561Y-867D01*
X35897Y-4435D01*
X38751Y-5766D01*
X48402Y14929D01*
X38875Y19372D01*
X25564Y-9173D01*
X18320Y-5796D01*
X19984Y-2228D01*
X22625Y-3459D01*
X24621Y823D01*
X21981Y2054D01*
X23645Y5622D01*
X26285Y4391D01*
X37899Y29297D01*
X59914Y19031D01*
D02*
G37*
G36*
X17949Y-6466D02*
X16451Y-9677D01*
X9477Y-6425D01*
X9306Y-5955D01*
X10654Y-3064D01*
X17949Y-6466D01*
D02*
G37*
G36*
X-30699Y17472D02*
Y-11952D01*
X-30949Y-12302D01*
X-31320Y-12523D01*
X-31802Y-12745D01*
X-31880Y-12744D01*
X-31898Y-12742D01*
X-31973Y-12723D01*
X-32050Y-12717D01*
X-32127Y-12705D01*
X-32204D01*
X-32282Y-12699D01*
X-33000Y-12117D01*
X-33095Y-12000D01*
X-33227Y-11718D01*
X-33235Y-11696D01*
Y-10250D01*
X-33224Y-10236D01*
X-33044Y-9944D01*
X-32913Y-9626D01*
X-32833Y-9292D01*
X-32806Y-8950D01*
X-32833Y-8608D01*
X-32913Y-8274D01*
X-33044Y-7957D01*
X-33224Y-7664D01*
X-33446Y-7403D01*
X-33707Y-7180D01*
X-34000Y-7001D01*
X-34317Y-6870D01*
X-34651Y-6789D01*
X-34993Y-6762D01*
X-35336Y-6789D01*
X-35670Y-6870D01*
X-35987Y-7001D01*
X-36032Y-7029D01*
X-36544Y-6733D01*
X-36830Y-6440D01*
X-36966Y-6256D01*
X-36913Y-6126D01*
X-36833Y-5793D01*
X-36806Y-5450D01*
X-36833Y-5108D01*
X-36913Y-4774D01*
X-37044Y-4457D01*
X-37224Y-4164D01*
X-37446Y-3903D01*
X-37707Y-3680D01*
X-37788Y-3631D01*
Y20126D01*
X-37718Y20147D01*
X-37528Y20249D01*
X-37361Y20386D01*
X-37224Y20552D01*
X-37122Y20743D01*
X-37060Y20949D01*
X-37039Y21164D01*
Y22141D01*
X-35857Y22630D01*
X-30699Y17472D01*
D02*
G37*
G36*
X-106009Y-1476D02*
X-97247D01*
X-94819Y-3903D01*
Y-7029D01*
X-94838Y-7033D01*
X-95201Y-7275D01*
X-95443Y-7637D01*
X-95528Y-8064D01*
Y-9836D01*
X-95443Y-10263D01*
X-95201Y-10626D01*
X-95169Y-11306D01*
X-95411Y-11669D01*
X-95496Y-12096D01*
Y-12449D01*
X-96420Y-12832D01*
X-106834Y-2418D01*
X-106510Y-1432D01*
X-106450Y-1388D01*
X-106009Y-1476D01*
D02*
G37*
G36*
X-55319Y-3882D02*
Y-7029D01*
X-55338Y-7033D01*
X-55700Y-7275D01*
X-55943Y-7637D01*
X-56028Y-8064D01*
Y-9836D01*
X-55943Y-10263D01*
X-55700Y-10626D01*
X-55669Y-11306D01*
X-55911Y-11669D01*
X-55996Y-12096D01*
Y-13868D01*
X-55911Y-14295D01*
X-55669Y-14657D01*
Y-15243D01*
X-55911Y-15606D01*
X-55996Y-16033D01*
Y-17805D01*
X-55911Y-18232D01*
X-55669Y-18594D01*
X-55669Y-19306D01*
X-55911Y-19669D01*
X-55996Y-20096D01*
Y-21868D01*
X-55911Y-22295D01*
X-55669Y-22657D01*
Y-23243D01*
X-55911Y-23606D01*
X-55996Y-24033D01*
Y-25805D01*
X-55911Y-26232D01*
X-55669Y-26594D01*
X-55319Y-26828D01*
Y-27883D01*
X-55587Y-28062D01*
X-55894Y-28522D01*
X-56002Y-29064D01*
Y-33789D01*
X-55894Y-34331D01*
X-55587Y-34791D01*
X-55127Y-35099D01*
X-54584Y-35207D01*
X-53403D01*
X-52860Y-35099D01*
X-52400Y-34791D01*
X-52093Y-34331D01*
X-51985Y-33789D01*
X-51002Y-33789D01*
X-50894Y-34331D01*
X-50587Y-34791D01*
X-50127Y-35099D01*
X-49584Y-35207D01*
X-48403D01*
X-47860Y-35099D01*
X-47400Y-34791D01*
X-47093Y-34331D01*
X-46985Y-33789D01*
X-46002D01*
X-45894Y-34331D01*
X-45587Y-34791D01*
X-45127Y-35099D01*
X-44584Y-35207D01*
X-43403D01*
X-42860Y-35099D01*
X-42400Y-34791D01*
X-42093Y-34331D01*
X-41985Y-33789D01*
X-41002Y-33789D01*
X-40894Y-34331D01*
X-40587Y-34791D01*
X-40127Y-35099D01*
X-39584Y-35207D01*
X-38403D01*
X-37860Y-35099D01*
X-37400Y-34791D01*
X-37093Y-34331D01*
X-36985Y-33789D01*
Y-29064D01*
X-37093Y-28522D01*
X-37400Y-28062D01*
X-37668Y-27883D01*
Y-26872D01*
X-37649Y-26868D01*
X-37286Y-26626D01*
X-37045Y-26263D01*
X-36959Y-25836D01*
Y-24064D01*
X-37045Y-23637D01*
X-37091Y-23568D01*
X-36370Y-22847D01*
X-36338Y-22868D01*
X-35911Y-22953D01*
X-34139D01*
X-33712Y-22868D01*
X-33349Y-22626D01*
X-33107Y-22263D01*
X-33022Y-21836D01*
Y-20064D01*
X-33107Y-19637D01*
X-33206Y-19490D01*
Y-15056D01*
X-32282Y-14674D01*
X-30717Y-16239D01*
Y-85443D01*
X-38500Y-93227D01*
X-96551D01*
X-98982Y-90795D01*
Y-79328D01*
X-96336Y-76681D01*
X-95528Y-77489D01*
Y-78836D01*
X-95443Y-79263D01*
X-95201Y-79626D01*
X-94838Y-79868D01*
X-94411Y-79953D01*
X-92639D01*
X-92212Y-79868D01*
X-92065Y-79769D01*
X-89273D01*
Y-83368D01*
X-89340Y-83396D01*
X-90122Y-83995D01*
X-90721Y-84777D01*
X-91098Y-85686D01*
X-91227Y-86663D01*
Y-88238D01*
X-91098Y-89214D01*
X-90721Y-90124D01*
X-90122Y-90905D01*
X-89340Y-91505D01*
X-88431Y-91882D01*
X-87454Y-92010D01*
X-86478Y-91882D01*
X-85568Y-91505D01*
X-84993Y-91064D01*
X-84419Y-91505D01*
X-83509Y-91882D01*
X-82533Y-92010D01*
X-81556Y-91882D01*
X-80647Y-91505D01*
X-79865Y-90905D01*
X-79266Y-90124D01*
X-78889Y-89214D01*
X-78760Y-88238D01*
Y-86663D01*
X-78889Y-85686D01*
X-79266Y-84777D01*
X-79865Y-83995D01*
X-80647Y-83396D01*
X-80714Y-83368D01*
Y-79769D01*
X-78422D01*
X-78275Y-79868D01*
X-77848Y-79953D01*
X-76076D01*
X-75649Y-79868D01*
X-75287Y-79626D01*
X-75045Y-79263D01*
X-74959Y-78836D01*
Y-77489D01*
X-73207Y-75737D01*
X-72813Y-75146D01*
X-72674Y-74450D01*
X-72674Y-74450D01*
Y-68879D01*
X-72576Y-68732D01*
X-72491Y-68305D01*
Y-66533D01*
X-72576Y-66106D01*
X-72818Y-65743D01*
Y-65157D01*
X-72576Y-64795D01*
X-72491Y-64368D01*
Y-62596D01*
X-72576Y-62169D01*
X-72674Y-62021D01*
Y-59450D01*
X-72813Y-58754D01*
X-73207Y-58164D01*
X-73207Y-58164D01*
X-76485Y-54886D01*
Y-51112D01*
X-76593Y-50569D01*
X-76900Y-50109D01*
X-77360Y-49802D01*
X-77903Y-49694D01*
X-79084D01*
X-79627Y-49802D01*
X-80087Y-50109D01*
X-80394Y-50569D01*
X-80502Y-51112D01*
Y-55836D01*
X-80394Y-56379D01*
X-80087Y-56839D01*
X-79627Y-57146D01*
X-79307Y-57209D01*
X-76313Y-60204D01*
Y-62021D01*
X-76411Y-62169D01*
X-76496Y-62596D01*
Y-64368D01*
X-76411Y-64795D01*
X-76169Y-65157D01*
Y-65743D01*
X-76411Y-66106D01*
X-76496Y-66533D01*
Y-68305D01*
X-76411Y-68732D01*
X-76313Y-68879D01*
Y-71236D01*
X-77313Y-71540D01*
X-77421Y-71378D01*
X-78142Y-70896D01*
X-78993Y-70726D01*
X-79741Y-70875D01*
X-79887Y-70875D01*
X-80832Y-70419D01*
X-80834Y-70410D01*
X-81098Y-70015D01*
X-81492Y-69751D01*
X-81958Y-69658D01*
X-84320D01*
X-84786Y-69751D01*
X-85181Y-70015D01*
X-85445Y-70410D01*
X-85484Y-70606D01*
X-86503D01*
X-86542Y-70410D01*
X-86806Y-70015D01*
X-86999Y-69886D01*
X-87092Y-69101D01*
X-87036Y-68764D01*
X-87016Y-68751D01*
X-86736Y-68332D01*
X-86637Y-67837D01*
Y-63063D01*
X-86643Y-63035D01*
Y-60911D01*
X-86545Y-60763D01*
X-86459Y-60336D01*
Y-58564D01*
X-86545Y-58137D01*
X-86674Y-57943D01*
Y-56500D01*
X-86593Y-56379D01*
X-86485Y-55836D01*
Y-51112D01*
X-86593Y-50569D01*
X-86900Y-50109D01*
X-87360Y-49802D01*
X-87903Y-49694D01*
X-89084D01*
X-89627Y-49802D01*
X-90087Y-50109D01*
X-90394Y-50569D01*
X-90502Y-51112D01*
X-91485Y-51112D01*
X-91593Y-50569D01*
X-91900Y-50109D01*
X-92360Y-49802D01*
X-92903Y-49694D01*
X-94084D01*
X-94687Y-48794D01*
Y-36106D01*
X-94486Y-35805D01*
X-93687Y-35207D01*
X-92903D01*
X-92360Y-35099D01*
X-91900Y-34791D01*
X-91593Y-34331D01*
X-91485Y-33789D01*
X-90502Y-33789D01*
X-90394Y-34331D01*
X-90087Y-34791D01*
X-89627Y-35099D01*
X-89084Y-35207D01*
X-87903D01*
X-87360Y-35099D01*
X-86900Y-34791D01*
X-86593Y-34331D01*
X-86485Y-33789D01*
X-85502D01*
X-85394Y-34331D01*
X-85087Y-34791D01*
X-84627Y-35099D01*
X-84084Y-35207D01*
X-82903D01*
X-82360Y-35099D01*
X-81900Y-34791D01*
X-81593Y-34331D01*
X-81485Y-33789D01*
X-80502Y-33789D01*
X-80394Y-34331D01*
X-80087Y-34791D01*
X-79627Y-35099D01*
X-79084Y-35207D01*
X-77903D01*
X-77360Y-35099D01*
X-76900Y-34791D01*
X-76593Y-34331D01*
X-76485Y-33789D01*
Y-29064D01*
X-76593Y-28522D01*
X-76900Y-28062D01*
X-77168Y-27883D01*
Y-26872D01*
X-77149Y-26868D01*
X-76787Y-26626D01*
X-76544Y-26263D01*
X-76459Y-25836D01*
Y-24064D01*
X-76544Y-23637D01*
X-76591Y-23568D01*
X-75870Y-22847D01*
X-75838Y-22868D01*
X-75411Y-22953D01*
X-73639D01*
X-73212Y-22868D01*
X-73065Y-22770D01*
X-72494D01*
X-72493Y-22770D01*
X-71797Y-22631D01*
X-71207Y-22237D01*
X-61207Y-12237D01*
X-61207Y-12237D01*
X-60813Y-11646D01*
X-60674Y-10950D01*
X-60674Y-10950D01*
Y-10153D01*
X-60439Y-9801D01*
X-60270Y-8950D01*
X-60439Y-8099D01*
X-60921Y-7378D01*
Y-7023D01*
X-60439Y-6301D01*
X-60270Y-5450D01*
X-60439Y-4599D01*
X-60921Y-3878D01*
X-61642Y-3396D01*
X-62493Y-3226D01*
X-63345Y-3396D01*
X-64066Y-3878D01*
X-64548Y-4599D01*
X-64708Y-5403D01*
X-74253Y-14948D01*
X-75411D01*
X-75838Y-15033D01*
X-76200Y-15275D01*
X-76787Y-15275D01*
X-77149Y-15033D01*
X-77576Y-14948D01*
X-79348D01*
X-79775Y-15033D01*
X-80137Y-15275D01*
X-80380Y-15637D01*
X-80465Y-16064D01*
Y-17836D01*
X-80380Y-18263D01*
X-80215Y-18950D01*
X-80379Y-19637D01*
X-80465Y-20064D01*
Y-21836D01*
X-80379Y-22263D01*
X-80215Y-22950D01*
X-80380Y-23637D01*
X-80465Y-24064D01*
Y-25836D01*
X-80380Y-26263D01*
X-80137Y-26626D01*
X-79819Y-26838D01*
Y-27883D01*
X-80087Y-28062D01*
X-80394Y-28522D01*
X-80502Y-29064D01*
X-81485Y-29064D01*
X-81593Y-28522D01*
X-81900Y-28062D01*
X-82168Y-27883D01*
Y-26828D01*
X-81818Y-26594D01*
X-81576Y-26232D01*
X-81491Y-25805D01*
Y-24033D01*
X-81576Y-23606D01*
X-81818Y-23243D01*
X-82180Y-23001D01*
X-82608Y-22916D01*
X-84379D01*
X-84807Y-23001D01*
X-85169Y-23243D01*
X-85411Y-23606D01*
X-85496Y-24033D01*
X-86491Y-24033D01*
X-86576Y-23606D01*
X-86818Y-23243D01*
Y-22657D01*
X-86576Y-22295D01*
X-86491Y-21868D01*
Y-20096D01*
X-86576Y-19669D01*
X-86818Y-19306D01*
Y-18594D01*
X-86576Y-18232D01*
X-86491Y-17805D01*
Y-16033D01*
X-86576Y-15606D01*
X-86818Y-15243D01*
Y-14657D01*
X-86576Y-14295D01*
X-86491Y-13868D01*
Y-12096D01*
X-86576Y-11669D01*
X-86818Y-11306D01*
X-86787Y-10626D01*
X-86545Y-10263D01*
X-86459Y-9836D01*
Y-8064D01*
X-86545Y-7637D01*
X-86787Y-7275D01*
X-87149Y-7033D01*
X-87168Y-7029D01*
Y-5950D01*
X-87269Y-5443D01*
X-87556Y-5013D01*
X-95056Y2487D01*
X-95486Y2774D01*
X-95994Y2875D01*
X-104200D01*
X-104318Y3086D01*
X-103733Y4086D01*
X-63287D01*
X-55319Y-3882D01*
D02*
G37*
G36*
X-113189Y-26575D02*
Y-74803D01*
X-113189Y-79725D01*
X-114961Y-81496D01*
X-116278Y-81496D01*
X-116761Y-80996D01*
Y-79879D01*
X-116889Y-78903D01*
X-117266Y-77993D01*
X-117865Y-77212D01*
X-118647Y-76612D01*
X-119549Y-76239D01*
Y-80667D01*
X-121517D01*
Y-76239D01*
X-121632Y-76286D01*
X-122047Y-76008D01*
X-122047Y-33465D01*
X-131890Y-23622D01*
X-151575D01*
X-153543Y-21654D01*
Y-17717D01*
X-151575Y-15748D01*
X-124016D01*
X-113189Y-26575D01*
D02*
G37*
%LPC*%
G36*
X-157413Y111232D02*
X-160554Y108091D01*
X-160479Y108036D01*
X-160014Y107757D01*
X-159525Y107526D01*
X-159015Y107343D01*
X-158490Y107212D01*
X-157954Y107132D01*
X-157413Y107106D01*
X-156872Y107132D01*
X-156336Y107212D01*
X-155811Y107343D01*
X-155301Y107526D01*
X-154812Y107757D01*
X-154347Y108036D01*
X-154272Y108091D01*
X-157413Y111232D01*
D02*
G37*
G36*
X-193993Y106073D02*
X-194766Y106043D01*
X-195534Y105952D01*
X-196293Y105801D01*
X-197037Y105591D01*
X-197763Y105323D01*
X-198465Y104999D01*
X-199140Y104622D01*
X-199783Y104192D01*
X-200391Y103713D01*
X-200959Y103188D01*
X-201484Y102620D01*
X-201962Y102013D01*
X-202392Y101370D01*
X-202770Y100695D01*
X-203094Y99992D01*
X-203362Y99267D01*
X-203572Y98522D01*
X-203722Y97764D01*
X-203813Y96996D01*
X-203844Y96223D01*
X-203813Y95450D01*
X-203722Y94682D01*
X-203572Y93923D01*
X-203362Y93179D01*
X-203094Y92453D01*
X-202770Y91751D01*
X-202392Y91076D01*
X-201962Y90433D01*
X-201484Y89826D01*
X-200959Y89258D01*
X-200391Y88733D01*
X-199783Y88254D01*
X-199140Y87824D01*
X-198465Y87446D01*
X-197763Y87123D01*
X-197037Y86855D01*
X-196293Y86645D01*
X-195534Y86494D01*
X-194766Y86403D01*
X-193993Y86373D01*
X-193221Y86403D01*
X-192453Y86494D01*
X-191694Y86645D01*
X-190950Y86855D01*
X-190224Y87123D01*
X-189522Y87446D01*
X-188847Y87824D01*
X-188204Y88254D01*
X-187596Y88733D01*
X-187028Y89258D01*
X-186503Y89826D01*
X-186025Y90433D01*
X-185595Y91076D01*
X-185217Y91751D01*
X-184893Y92453D01*
X-184625Y93179D01*
X-184416Y93923D01*
X-184265Y94682D01*
X-184174Y95450D01*
X-184143Y96223D01*
X-184174Y96996D01*
X-184265Y97764D01*
X-184416Y98522D01*
X-184625Y99267D01*
X-184893Y99992D01*
X-185217Y100695D01*
X-185595Y101370D01*
X-186025Y102013D01*
X-186503Y102620D01*
X-187028Y103188D01*
X-187596Y103713D01*
X-188204Y104192D01*
X-188847Y104622D01*
X-189522Y104999D01*
X-190224Y105323D01*
X-190950Y105591D01*
X-191694Y105801D01*
X-192453Y105952D01*
X-193221Y106043D01*
X-193993Y106073D01*
D02*
G37*
G36*
X-164608Y84568D02*
X-166379D01*
X-166594Y84547D01*
X-166800Y84484D01*
X-166991Y84382D01*
X-167157Y84245D01*
X-167294Y84079D01*
X-167348Y83978D01*
X-168699D01*
X-168732Y83992D01*
X-169005Y84058D01*
X-169285Y84080D01*
X-171253D01*
X-171533Y84058D01*
X-171806Y83992D01*
X-172066Y83885D01*
X-172305Y83738D01*
X-172519Y83556D01*
X-172701Y83342D01*
X-172848Y83102D01*
X-172956Y82843D01*
X-173021Y82570D01*
X-173043Y82290D01*
X-173021Y82010D01*
X-172956Y81737D01*
X-172848Y81477D01*
X-172701Y81238D01*
X-172519Y81024D01*
X-172305Y80842D01*
X-172066Y80695D01*
X-171806Y80588D01*
X-171533Y80522D01*
X-171253Y80500D01*
X-169285D01*
X-169005Y80522D01*
X-168732Y80588D01*
X-168472Y80695D01*
X-168401Y80739D01*
X-168024Y80857D01*
X-167157Y80917D01*
X-166991Y80780D01*
X-166800Y80679D01*
X-166594Y80616D01*
X-166379Y80595D01*
X-164608D01*
X-164393Y80616D01*
X-164187Y80679D01*
X-163996Y80780D01*
X-163829Y80917D01*
X-163693Y81084D01*
X-163591Y81274D01*
X-163528Y81481D01*
X-163507Y81695D01*
Y83467D01*
X-163528Y83682D01*
X-163591Y83888D01*
X-163693Y84079D01*
X-163829Y84245D01*
X-163996Y84382D01*
X-164187Y84484D01*
X-164393Y84547D01*
X-164608Y84568D01*
D02*
G37*
G36*
X-205891Y56827D02*
Y51590D01*
X-200653D01*
X-200690Y51836D01*
X-200840Y52436D01*
X-201049Y53019D01*
X-201313Y53578D01*
X-201631Y54109D01*
X-202000Y54606D01*
X-202416Y55065D01*
X-202874Y55480D01*
X-203372Y55849D01*
X-203902Y56167D01*
X-204462Y56432D01*
X-205045Y56640D01*
X-205645Y56791D01*
X-205891Y56827D01*
D02*
G37*
G36*
X-217899Y33792D02*
X-218068Y33766D01*
X-218631Y33626D01*
X-219177Y33430D01*
X-219702Y33182D01*
X-220200Y32884D01*
X-220666Y32538D01*
X-221096Y32148D01*
X-221485Y31718D01*
X-221831Y31252D01*
X-222129Y30755D01*
X-222377Y30230D01*
X-222573Y29684D01*
X-222714Y29121D01*
X-222739Y28952D01*
X-217899D01*
Y33792D01*
D02*
G37*
G36*
X-205891Y29268D02*
Y24030D01*
X-200653D01*
X-200690Y24277D01*
X-200840Y24877D01*
X-201049Y25460D01*
X-201313Y26019D01*
X-201631Y26550D01*
X-202000Y27047D01*
X-202416Y27506D01*
X-202874Y27921D01*
X-203372Y28290D01*
X-203902Y28608D01*
X-204462Y28873D01*
X-205045Y29081D01*
X-205645Y29232D01*
X-205891Y29268D01*
D02*
G37*
G36*
X-217899Y26983D02*
X-222739D01*
X-222714Y26814D01*
X-222573Y26251D01*
X-222377Y25705D01*
X-222129Y25180D01*
X-221831Y24683D01*
X-221485Y24216D01*
X-221096Y23787D01*
X-220666Y23397D01*
X-220200Y23051D01*
X-219702Y22753D01*
X-219177Y22505D01*
X-218631Y22309D01*
X-218068Y22169D01*
X-217899Y22143D01*
Y26983D01*
D02*
G37*
G36*
X-200653Y22062D02*
X-205891D01*
Y16824D01*
X-205645Y16861D01*
X-205045Y17011D01*
X-204462Y17220D01*
X-203902Y17484D01*
X-203372Y17802D01*
X-202874Y18171D01*
X-202416Y18587D01*
X-202000Y19045D01*
X-201631Y19542D01*
X-201313Y20073D01*
X-201049Y20633D01*
X-200840Y21215D01*
X-200690Y21816D01*
X-200653Y22062D01*
D02*
G37*
G36*
X-215931Y33792D02*
Y27968D01*
Y22143D01*
X-215761Y22169D01*
X-215198Y22309D01*
X-214652Y22505D01*
X-214345Y22650D01*
X-213862Y22560D01*
X-213088Y21999D01*
X-213061Y21816D01*
X-212911Y21215D01*
X-212702Y20633D01*
X-212438Y20073D01*
X-212119Y19542D01*
X-211751Y19045D01*
X-211335Y18587D01*
X-210876Y18171D01*
X-210379Y17802D01*
X-209848Y17484D01*
X-209289Y17220D01*
X-208706Y17011D01*
X-208106Y16861D01*
X-207860Y16824D01*
Y23046D01*
Y29268D01*
X-208106Y29232D01*
X-208706Y29081D01*
X-209289Y28873D01*
X-209848Y28608D01*
X-209852Y28606D01*
X-209949Y28602D01*
X-211116Y29121D01*
X-211257Y29684D01*
X-211452Y30230D01*
X-211700Y30755D01*
X-211999Y31252D01*
X-212344Y31718D01*
X-212734Y32148D01*
X-213164Y32538D01*
X-213630Y32884D01*
X-214128Y33182D01*
X-214652Y33430D01*
X-215198Y33626D01*
X-215761Y33766D01*
X-215931Y33792D01*
D02*
G37*
G36*
X-193993Y-8100D02*
X-194766Y-8130D01*
X-195534Y-8221D01*
X-196293Y-8372D01*
X-197037Y-8582D01*
X-197763Y-8850D01*
X-198465Y-9174D01*
X-199140Y-9552D01*
X-199783Y-9981D01*
X-200391Y-10460D01*
X-200959Y-10985D01*
X-201484Y-11553D01*
X-201962Y-12161D01*
X-202392Y-12804D01*
X-202770Y-13478D01*
X-203094Y-14181D01*
X-203362Y-14906D01*
X-203572Y-15651D01*
X-203722Y-16409D01*
X-203813Y-17177D01*
X-203844Y-17950D01*
X-203813Y-18723D01*
X-203722Y-19491D01*
X-203572Y-20250D01*
X-203362Y-20994D01*
X-203094Y-21720D01*
X-202770Y-22422D01*
X-202392Y-23097D01*
X-201962Y-23740D01*
X-201484Y-24347D01*
X-200959Y-24915D01*
X-200391Y-25440D01*
X-199783Y-25919D01*
X-199140Y-26349D01*
X-198465Y-26727D01*
X-197763Y-27051D01*
X-197037Y-27318D01*
X-196293Y-27528D01*
X-195534Y-27679D01*
X-194766Y-27770D01*
X-193993Y-27800D01*
X-193221Y-27770D01*
X-192453Y-27679D01*
X-191694Y-27528D01*
X-190950Y-27318D01*
X-190224Y-27051D01*
X-189522Y-26727D01*
X-188847Y-26349D01*
X-188204Y-25919D01*
X-187596Y-25440D01*
X-187028Y-24915D01*
X-186503Y-24347D01*
X-186025Y-23740D01*
X-185595Y-23097D01*
X-185217Y-22422D01*
X-184893Y-21720D01*
X-184625Y-20994D01*
X-184416Y-20250D01*
X-184265Y-19491D01*
X-184174Y-18723D01*
X-184143Y-17950D01*
X-184174Y-17177D01*
X-184265Y-16409D01*
X-184416Y-15651D01*
X-184625Y-14906D01*
X-184893Y-14181D01*
X-185217Y-13478D01*
X-185595Y-12804D01*
X-186025Y-12161D01*
X-186503Y-11553D01*
X-187028Y-10985D01*
X-187596Y-10460D01*
X-188204Y-9981D01*
X-188847Y-9552D01*
X-189522Y-9174D01*
X-190224Y-8850D01*
X-190950Y-8582D01*
X-191694Y-8372D01*
X-192453Y-8221D01*
X-193221Y-8130D01*
X-193993Y-8100D01*
D02*
G37*
G36*
X-126438Y-76271D02*
X-126691Y-76344D01*
X-127079Y-76504D01*
X-127447Y-76708D01*
X-127790Y-76951D01*
X-128103Y-77231D01*
X-128383Y-77544D01*
X-128626Y-77886D01*
X-128829Y-78254D01*
X-128990Y-78642D01*
X-129106Y-79046D01*
X-129177Y-79460D01*
X-129189Y-79682D01*
X-126438D01*
Y-76271D01*
D02*
G37*
G36*
Y-81651D02*
X-129189D01*
X-129177Y-81874D01*
X-129106Y-82288D01*
X-128990Y-82691D01*
X-128829Y-83079D01*
X-128626Y-83447D01*
X-128383Y-83790D01*
X-128103Y-84103D01*
X-127790Y-84383D01*
X-127447Y-84626D01*
X-127079Y-84829D01*
X-126691Y-84990D01*
X-126438Y-85063D01*
Y-81651D01*
D02*
G37*
G36*
X-149106Y-78335D02*
X-153856D01*
Y-78445D01*
X-155767D01*
Y-82972D01*
X-153856D01*
Y-83085D01*
X-149106D01*
Y-81943D01*
X-146968D01*
X-146968Y-81944D01*
X-146867Y-82134D01*
X-146730Y-82301D01*
X-146563Y-82438D01*
X-146373Y-82539D01*
X-146166Y-82602D01*
X-145951Y-82623D01*
X-144180D01*
X-144158Y-82621D01*
X-143570Y-83095D01*
X-143357Y-83360D01*
X-143247Y-83585D01*
X-143281Y-83726D01*
X-143308Y-84069D01*
X-143281Y-84411D01*
X-143201Y-84745D01*
X-143069Y-85062D01*
X-142890Y-85355D01*
X-142667Y-85616D01*
X-142406Y-85839D01*
X-142113Y-86018D01*
X-141796Y-86149D01*
X-141462Y-86229D01*
X-141120Y-86256D01*
X-140778Y-86229D01*
X-140444Y-86149D01*
X-140127Y-86018D01*
X-139834Y-85839D01*
X-139573Y-85616D01*
X-139350Y-85355D01*
X-139171Y-85062D01*
X-139039Y-84745D01*
X-138959Y-84411D01*
X-138932Y-84069D01*
X-138959Y-83726D01*
X-139039Y-83393D01*
X-139171Y-83075D01*
X-139339Y-82801D01*
Y-82148D01*
X-139328Y-82134D01*
X-139226Y-81944D01*
X-139163Y-81737D01*
X-139142Y-81523D01*
Y-79751D01*
X-139163Y-79536D01*
X-139226Y-79330D01*
X-139328Y-79139D01*
X-139465Y-78973D01*
X-139631Y-78836D01*
X-139822Y-78734D01*
X-140028Y-78671D01*
X-140243Y-78650D01*
X-142014D01*
X-142229Y-78671D01*
X-142436Y-78734D01*
X-142436Y-78734D01*
X-142626Y-78836D01*
X-143568D01*
X-143759Y-78734D01*
X-143759Y-78734D01*
X-143965Y-78671D01*
X-144180Y-78650D01*
X-145951D01*
X-146166Y-78671D01*
X-146373Y-78734D01*
X-146563Y-78836D01*
X-146730Y-78973D01*
X-146867Y-79139D01*
X-146968Y-79330D01*
X-146968Y-79330D01*
X-149106D01*
Y-78335D01*
D02*
G37*
G36*
X-48403Y-49694D02*
X-49584D01*
X-50127Y-49802D01*
X-50587Y-50109D01*
X-50894Y-50569D01*
X-51002Y-51112D01*
X-51985Y-51112D01*
X-52093Y-50569D01*
X-52400Y-50109D01*
X-52860Y-49802D01*
X-53403Y-49694D01*
X-54584D01*
X-55127Y-49802D01*
X-55587Y-50109D01*
X-55894Y-50569D01*
X-56002Y-51112D01*
Y-54886D01*
X-57780Y-56664D01*
X-58174Y-57254D01*
X-58313Y-57950D01*
X-58313Y-57950D01*
Y-62021D01*
X-58411Y-62169D01*
X-58496Y-62596D01*
Y-64368D01*
X-58411Y-64795D01*
X-58169Y-65157D01*
X-58169Y-65743D01*
X-58411Y-66106D01*
X-58496Y-66533D01*
Y-68305D01*
X-58411Y-68732D01*
X-58313Y-68879D01*
Y-74450D01*
X-58313Y-74450D01*
X-58174Y-75146D01*
X-57780Y-75737D01*
X-56028Y-77489D01*
Y-78836D01*
X-55943Y-79263D01*
X-55700Y-79626D01*
X-55338Y-79868D01*
X-54911Y-79953D01*
X-53139D01*
X-52712Y-79868D01*
X-52565Y-79769D01*
X-49773D01*
Y-83368D01*
X-49840Y-83396D01*
X-50622Y-83995D01*
X-51221Y-84777D01*
X-51598Y-85686D01*
X-51727Y-86663D01*
Y-88238D01*
X-51598Y-89214D01*
X-51221Y-90124D01*
X-50622Y-90905D01*
X-49840Y-91505D01*
X-48930Y-91882D01*
X-47954Y-92010D01*
X-46978Y-91882D01*
X-46068Y-91505D01*
X-45494Y-91064D01*
X-44919Y-91505D01*
X-44009Y-91882D01*
X-43033Y-92010D01*
X-42057Y-91882D01*
X-41147Y-91505D01*
X-40365Y-90905D01*
X-39766Y-90124D01*
X-39389Y-89214D01*
X-39261Y-88238D01*
Y-86663D01*
X-39389Y-85686D01*
X-39766Y-84777D01*
X-40365Y-83995D01*
X-41147Y-83396D01*
X-41214Y-83368D01*
Y-79769D01*
X-38922D01*
X-38775Y-79868D01*
X-38348Y-79953D01*
X-36576D01*
X-36149Y-79868D01*
X-35787Y-79626D01*
X-35544Y-79263D01*
X-35460Y-78836D01*
Y-77989D01*
X-35085Y-77615D01*
X-35085Y-77615D01*
X-34932Y-77386D01*
X-34089Y-76543D01*
X-33861Y-76390D01*
X-33707Y-76237D01*
X-33707Y-76237D01*
X-33313Y-75646D01*
X-33174Y-74950D01*
X-33174Y-74950D01*
Y-68879D01*
X-33076Y-68732D01*
X-32991Y-68305D01*
Y-66533D01*
X-33076Y-66106D01*
X-33318Y-65743D01*
X-33318Y-65157D01*
X-33076Y-64795D01*
X-32991Y-64368D01*
Y-62596D01*
X-33076Y-62169D01*
X-33174Y-62021D01*
Y-59450D01*
X-33313Y-58754D01*
X-33707Y-58164D01*
X-33707Y-58164D01*
X-36985Y-54886D01*
Y-51112D01*
X-37093Y-50569D01*
X-37400Y-50109D01*
X-37860Y-49802D01*
X-38403Y-49694D01*
X-39584D01*
X-40127Y-49802D01*
X-40587Y-50109D01*
X-40894Y-50569D01*
X-41002Y-51112D01*
Y-55836D01*
X-40894Y-56379D01*
X-40587Y-56839D01*
X-40127Y-57146D01*
X-39807Y-57209D01*
X-36813Y-60204D01*
Y-62021D01*
X-36911Y-62169D01*
X-36996Y-62596D01*
Y-64368D01*
X-36911Y-64795D01*
X-36669Y-65157D01*
X-36669Y-65743D01*
X-36911Y-66106D01*
X-36996Y-66533D01*
Y-68305D01*
X-36911Y-68732D01*
X-36813Y-68879D01*
Y-70736D01*
X-37813Y-71040D01*
X-37921Y-70878D01*
X-38642Y-70396D01*
X-39494Y-70226D01*
X-40345Y-70396D01*
X-41334Y-70410D01*
X-41598Y-70015D01*
X-41992Y-69751D01*
X-42458Y-69658D01*
X-44820D01*
X-45286Y-69751D01*
X-45681Y-70015D01*
X-45945Y-70410D01*
X-45984Y-70606D01*
X-47003D01*
X-47042Y-70410D01*
X-47306Y-70015D01*
X-47499Y-69886D01*
X-47592Y-69101D01*
X-47536Y-68764D01*
X-47516Y-68751D01*
X-47236Y-68332D01*
X-47137Y-67837D01*
Y-63063D01*
X-47143Y-63035D01*
Y-60911D01*
X-47045Y-60763D01*
X-46959Y-60336D01*
Y-58564D01*
X-47045Y-58137D01*
X-47174Y-57943D01*
Y-56500D01*
X-47093Y-56379D01*
X-46985Y-55836D01*
Y-51112D01*
X-47093Y-50569D01*
X-47400Y-50109D01*
X-47860Y-49802D01*
X-48403Y-49694D01*
D02*
G37*
%LPD*%
G36*
X-51081Y-56417D02*
X-50813Y-56758D01*
Y-58037D01*
X-50880Y-58137D01*
X-50965Y-58564D01*
Y-60336D01*
X-50880Y-60763D01*
X-50875Y-60771D01*
X-51156Y-61771D01*
X-51235D01*
X-51729Y-61870D01*
X-52148Y-62150D01*
X-52429Y-62569D01*
X-52527Y-63063D01*
Y-67837D01*
X-52429Y-68332D01*
X-52148Y-68751D01*
X-51729Y-69031D01*
X-51651Y-69046D01*
Y-70407D01*
X-51653Y-70410D01*
X-51746Y-70876D01*
Y-74025D01*
X-51653Y-74491D01*
X-51389Y-74886D01*
X-50995Y-75150D01*
X-51186Y-76131D01*
X-52240D01*
X-54674Y-73697D01*
Y-68879D01*
X-54576Y-68732D01*
X-54491Y-68305D01*
Y-66533D01*
X-54576Y-66106D01*
X-54818Y-65743D01*
X-54818Y-65157D01*
X-54576Y-64795D01*
X-54491Y-64368D01*
Y-62596D01*
X-54576Y-62169D01*
X-54674Y-62021D01*
Y-58704D01*
X-53180Y-57209D01*
X-52860Y-57146D01*
X-52400Y-56839D01*
X-52226Y-56578D01*
X-51438Y-56403D01*
X-51081Y-56417D01*
D02*
G37*
D10*
X67089Y36880D02*
G03*
X67089Y36880I-147500J0D01*
G01*
D11*
X-99060Y153602D02*
G03*
X-93529Y155893I0J7822D01*
G01*
X-96646Y153602D02*
G03*
X-92822Y155186I0J5408D01*
G01*
X-93529Y151311D02*
G03*
X-99060Y153602I-5531J-5531D01*
G01*
X-92822Y152018D02*
G03*
X-96646Y153602I-3824J-3824D01*
G01*
X-97481Y163444D02*
G03*
X-93887Y165310I0J4395D01*
G01*
X-95554Y163444D02*
G03*
X-93069Y164734I0J3039D01*
G01*
X-93887Y161579D02*
G03*
X-97481Y163444I-3594J-2530D01*
G01*
X-93069Y162155D02*
G03*
X-95554Y163444I-2485J-1749D01*
G01*
X-81395Y169814D02*
G03*
X-79508Y166317I4184J0D01*
G01*
X-81395Y167961D02*
G03*
X-80057Y165481I2967J0D01*
G01*
X-83282Y166317D02*
G03*
X-81395Y169814I-2297J3497D01*
G01*
X-82733Y165481D02*
G03*
X-81395Y167961I-1629J2480D01*
G01*
X-67163Y57059D02*
X-67092D01*
X-69800D02*
X-67163D01*
X-151407Y-80637D02*
X-145066D01*
X-151481Y-80710D02*
X-151407Y-80637D01*
X-22962Y100550D02*
Y104955D01*
X-4825Y44484D02*
X1179D01*
X-9057Y42811D02*
X-6105Y45763D01*
X-9943Y41925D02*
X-9057Y42811D01*
X-109994Y159050D02*
Y171050D01*
X-90976Y94671D02*
X-69976D01*
X-34993Y144050D02*
X-31978Y141034D01*
X-80972Y26584D02*
X-80955Y26567D01*
X-80983Y26594D02*
X-80972Y26584D01*
X12475Y57550D02*
X16538D01*
X-78493Y-31427D02*
Y-20950D01*
Y-16919D01*
X-38993Y-31427D02*
Y-16919D01*
X-93493Y-12982D02*
Y-3354D01*
X-53993Y-12982D02*
Y-3333D01*
X-128493Y52824D02*
X-125630Y55687D01*
X-41993Y126418D02*
X-39439D01*
X-48994Y-12982D02*
Y-5450D01*
X-106657Y130987D02*
X-105493D01*
X-88494Y-12982D02*
Y-5950D01*
X-105993Y157550D02*
Y167050D01*
X-172925Y126208D02*
X-163880Y117163D01*
X-43993Y-20982D02*
Y-16450D01*
X-84009Y40601D02*
Y49066D01*
X-85978Y40601D02*
Y45129D01*
X-111494Y32711D02*
X-100832D01*
X-71553Y144983D02*
Y153602D01*
X-72986Y143550D02*
X-71553Y144983D01*
X-89043Y143550D02*
X-72986D01*
X-71553Y163444D02*
Y173109D01*
X-98948Y136050D02*
X-87263Y147735D01*
X-81395Y153602D01*
X-72071Y57142D02*
X-69883D01*
X-74234Y54979D02*
X-72071Y57142D01*
X-75537Y54979D02*
X-74234D01*
X-69883Y57142D02*
X-69800Y57059D01*
X-6105Y45763D02*
X-4825Y44484D01*
X-16048Y58037D02*
X-16034Y58051D01*
X-12692D01*
X-12678Y58065D01*
X-9943Y41925D02*
X-9943Y41925D01*
X-13388D02*
X-9943D01*
X-9943Y38480D02*
Y41925D01*
X-2266Y34783D02*
X386Y32131D01*
X439D01*
X-2266Y34783D02*
Y38480D01*
X-94442Y56940D02*
X-91883D01*
X-84993Y50050D01*
Y50050D02*
Y50050D01*
X-94442Y49066D02*
X-91285D01*
X-90801Y49550D01*
Y50050D01*
X-100394Y51034D02*
X-94442D01*
X-101355Y51995D02*
X-100394Y51034D01*
X-121659Y51995D02*
X-101355D01*
X-118475Y55531D02*
X-117234Y54290D01*
X-99958Y53003D02*
X-94442D01*
X-117234Y54290D02*
X-101246D01*
X-99958Y53003D01*
X-18336Y37692D02*
X-17594Y36950D01*
X-20036Y38447D02*
Y46202D01*
X-22168Y36315D02*
X-20036Y38447D01*
X-67092Y57059D02*
X-67086Y57064D01*
X-71102Y54469D02*
X-70911Y54661D01*
X-75545Y51034D02*
X-67894D01*
X-71102Y53890D02*
Y54469D01*
X-71990Y53003D02*
X-71102Y53890D01*
X-75545Y53003D02*
X-71990D01*
X-75545Y54971D02*
X-75537Y54979D01*
X-67894Y51034D02*
X-67190Y51738D01*
X-80993Y30581D02*
X-80983Y30571D01*
Y26594D02*
Y30571D01*
X-76979Y26567D02*
X-76962Y26550D01*
X-80955Y26567D02*
X-76979D01*
X-76962Y22550D02*
Y26550D01*
X-84009Y49066D02*
X-82041Y47097D01*
X-84993Y50050D02*
X-84009Y49066D01*
X-82041Y40601D02*
Y47097D01*
X-87946D02*
X-85978Y45129D01*
X-89915Y45129D02*
X-87946Y47097D01*
Y40601D02*
Y47097D01*
X-89915Y40601D02*
Y45129D01*
X12309Y81565D02*
X14434Y79441D01*
X6719Y81565D02*
X12309D01*
X7755Y91459D02*
Y94108D01*
X7703Y91408D02*
X7755Y91459D01*
X6719Y91408D02*
X7703D01*
X11301Y97654D02*
Y98727D01*
X14667Y99488D02*
X14743Y99564D01*
X12062Y99488D02*
X14667D01*
X11301Y98727D02*
X12062Y99488D01*
X7755Y94108D02*
X11301Y97654D01*
X-9915Y66198D02*
Y70837D01*
X-13785Y62328D02*
X-9915Y66198D01*
X-7573Y34815D02*
Y38291D01*
X-10552Y31836D02*
X-7573Y34815D01*
X-12098Y31836D02*
X-10552D01*
X-7573Y38291D02*
X-7384Y38480D01*
X5629Y51923D02*
X8966Y48586D01*
X4291Y51923D02*
X5629D01*
X8876Y48496D02*
X8966Y48586D01*
X6126Y48496D02*
X8876D01*
X1179Y49602D02*
X5020D01*
X6126Y48496D01*
X4663Y47043D02*
X6618Y45088D01*
X1179Y47043D02*
X4663D01*
X8524Y45088D02*
X8982Y44630D01*
X6618Y45088D02*
X8524D01*
X-15754Y62268D02*
X-15694Y62328D01*
X-16048Y61974D02*
X-15754Y62268D01*
X-15694Y62328D02*
X-13785D01*
X-15754Y62268D02*
Y64589D01*
X-15494Y64850D01*
X-20397Y70331D02*
X-17036Y73691D01*
X-21041Y70331D02*
X-20397D01*
X-22822Y68550D02*
X-21041Y70331D01*
X-27025Y68550D02*
X-22822D01*
X-20036Y46202D02*
X-16825Y49413D01*
X-14955D01*
X-14766Y49602D02*
X-13388D01*
X-14955Y49791D02*
X-14766Y49602D01*
X-14955Y49791D02*
Y52294D01*
X-15157Y52495D02*
X-14955Y52294D01*
X-20239Y34198D02*
X-16837D01*
X-22168Y32269D02*
X-20239Y34198D01*
X-16837D02*
X-15112Y35922D01*
X-16068Y44484D02*
X-13388D01*
X-16636Y43916D02*
X-16068Y44484D01*
X-16636Y40747D02*
Y43916D01*
Y40747D02*
X-15944Y40055D01*
X-15112Y35922D02*
Y39274D01*
X-15893Y40055D02*
X-15112Y39274D01*
X-15944Y40055D02*
X-15893D01*
X-18336Y37692D02*
Y45497D01*
X-16791Y47043D01*
X-29493Y45550D02*
X-29438Y45605D01*
X-26641D01*
X-26586Y45660D01*
X-16791Y47043D02*
X-13388D01*
X-22168Y28257D02*
X-22168Y28257D01*
X-22168Y28257D02*
Y32269D01*
X-22168Y32269D02*
X-22168Y32269D01*
X17975Y72550D02*
X23007D01*
X9707Y67445D02*
X12506Y64646D01*
X2611Y67445D02*
X9707D01*
X1896Y68160D02*
X2611Y67445D01*
X-23525Y105518D02*
X-22962Y104955D01*
X-172025Y91050D02*
X-158612D01*
X-31993Y133863D02*
Y137081D01*
X-39439Y126418D02*
X-31993Y133863D01*
X-34993Y144050D02*
Y149550D01*
X-36553Y151109D02*
X-34993Y149550D01*
X-40253Y151109D02*
X-36553D01*
X-50994Y138885D02*
X-45158D01*
X-101994Y69050D02*
Y130600D01*
X-105993Y65050D02*
X-101994Y69050D01*
X-128493Y49550D02*
Y52824D01*
X-37494Y163050D02*
X-33494Y159050D01*
X-101994Y130600D02*
X-89043Y143550D01*
X-53493Y152050D02*
X-49994Y148550D01*
X-47734D01*
X-33494Y158203D02*
Y159050D01*
X-104794Y177750D02*
X-103993Y178550D01*
X-109698Y177750D02*
X-104794D01*
X-110898Y176550D02*
X-109698Y177750D01*
X-113994Y176550D02*
X-110898D01*
X-74493Y176050D02*
X-71553Y173109D01*
X-108993Y176050D02*
X-74493D01*
X-113494Y171550D02*
X-108993Y176050D01*
X-113494Y152454D02*
Y171550D01*
X-42962Y22050D02*
Y24018D01*
X-45994Y63050D02*
Y69349D01*
Y56751D02*
Y63050D01*
Y50050D02*
Y56751D01*
X31007Y79550D02*
Y85849D01*
Y73251D02*
Y79550D01*
Y67050D02*
Y73251D01*
X-8494Y123550D02*
X-2194D01*
X-14793D02*
X-8494D01*
X-2194D02*
X4507D01*
X-34881Y96664D02*
X-31767Y93550D01*
X-30962D01*
X-26962Y105518D02*
X-23525D01*
X-33994Y55081D02*
X-30143D01*
X-27261Y52199D01*
X-33994Y45550D02*
X-29493D01*
X-33994Y51050D02*
Y55081D01*
Y45550D02*
Y51050D01*
X-21394Y59642D02*
Y63250D01*
X-22143Y58892D02*
X-21394Y59642D01*
X-26255Y73320D02*
X-24724D01*
X-20415Y77628D01*
X20475Y61550D02*
X24006D01*
X12896Y73691D02*
X14038Y72550D01*
X6719Y73691D02*
X12896D01*
X1896Y68160D02*
Y70837D01*
X-19025Y98081D02*
Y100550D01*
Y98081D02*
X-15206Y94262D01*
X-13852D01*
X-52994Y143050D02*
X-45994D01*
X-43993Y145050D01*
Y148050D01*
X-43494Y148550D01*
X-40253D01*
X-45158Y138885D02*
X-40253Y143790D01*
Y145991D01*
X-55493Y36550D02*
X-42962Y24018D01*
X-89915Y59499D02*
Y73128D01*
X-94944Y82671D02*
Y86639D01*
X-94944Y94671D02*
X-90976D01*
X-69976D02*
X-69476Y94171D01*
X-133694Y50800D02*
Y52050D01*
Y49550D02*
Y50800D01*
X-134694Y51050D02*
X-133943D01*
X-135494D02*
X-135194D01*
X-133943D02*
X-133694Y50800D01*
X-134694Y51050D02*
X-133694Y52050D01*
X-135194Y51050D02*
X-134694D01*
X-135194D02*
X-133694Y49550D01*
X-128493Y45050D02*
X-126243Y47300D01*
X-128493Y49550D02*
X-126243Y47300D01*
X-108493Y129150D02*
X-106657Y130987D01*
X-105493D02*
Y136050D01*
X-98948D01*
X-115693Y150254D02*
X-113494Y152454D01*
X-113994Y149550D02*
X-105993Y157550D01*
X-61993Y7550D02*
X-48994Y-5450D01*
X-104993Y36581D02*
X-100994D01*
X-100525Y40518D02*
X-97883Y43160D01*
X-103493Y57081D02*
X-100525D01*
X-83494Y-31427D02*
Y-24919D01*
X-88494Y-31427D02*
Y-24919D01*
X-93493Y-31427D02*
Y-24919D01*
X-179718Y82290D02*
Y87294D01*
X-177962Y89050D01*
X-174025Y89050D02*
X-172025Y91050D01*
X-170269Y74810D02*
X-170009Y74550D01*
X-160494Y120550D02*
Y122425D01*
X-163619Y125550D02*
X-160494Y122425D01*
X-165028Y125550D02*
X-163619D01*
X-169306Y129827D02*
X-165028Y125550D01*
X-171115Y128018D02*
X-165647Y122550D01*
X-98415Y54971D02*
X-94442D01*
X-100525Y57081D02*
X-98415Y54971D01*
X-110994Y57050D02*
X-110962Y57081D01*
X-97883Y43160D02*
X-94442D01*
X-104993Y33050D02*
Y36581D01*
X-94462Y38022D02*
X-91883Y40601D01*
X-104493Y26404D02*
X-104348Y26550D01*
X-105348Y26404D02*
X-104493D01*
X-72993Y26581D02*
Y30050D01*
X-114415Y45129D02*
X-94442D01*
X-126243Y47097D02*
X-94442D01*
X-116493Y43050D02*
X-114415Y45129D01*
X-20415Y77628D02*
X-16706D01*
X-22915Y89439D02*
X-16706D01*
X-27025Y93550D02*
X-22915Y89439D01*
X-53993Y-31427D02*
Y-24919D01*
X-48994Y-31427D02*
Y-24919D01*
X-43993Y-31427D02*
Y-24919D01*
X-48994Y-20982D02*
Y-16919D01*
X-53993Y-20982D02*
Y-16919D01*
X-45025Y-12919D02*
Y-8950D01*
X-57962Y-12919D02*
Y-8950D01*
X-93493Y-20982D02*
Y-16919D01*
X-88494Y-20982D02*
Y-16919D01*
X-94462Y34550D02*
X-94462Y38022D01*
X-95994Y1550D02*
X-88494Y-5950D01*
X-96698Y-150D02*
X-93493Y-3354D01*
X-112994Y60050D02*
Y64682D01*
X-108493Y69182D01*
Y129150D01*
X-115993Y57050D02*
Y64105D01*
X-110293Y69805D01*
X-85525Y115550D02*
Y120190D01*
X-84993Y120722D01*
X-85525Y108835D02*
Y115550D01*
X-118475Y55531D02*
Y64047D01*
X-111994Y70528D01*
X-62738Y5411D02*
X-53993Y-3333D01*
X-133694Y27535D02*
X-106009Y-150D01*
X-133694Y27535D02*
Y49550D01*
X-131993Y28239D02*
X-105304Y1550D01*
X-95994D01*
X-128493Y29547D02*
X-104358Y5411D01*
X-128493Y29547D02*
Y45050D01*
X-104092Y7550D02*
X-61993D01*
X-106009Y-150D02*
X-96698D01*
X-104358Y5411D02*
X-62738D01*
X-103493Y61018D02*
X-100525D01*
X-100494Y61050D01*
X-78104Y35629D02*
Y40601D01*
X-80072Y35440D02*
Y40601D01*
X-78104Y35629D02*
X-76994Y34518D01*
X-80993D02*
X-80072Y35440D01*
X-89915Y73128D02*
X-87994Y75050D01*
X-46593Y69949D02*
X-45994Y69349D01*
X-46593Y69949D02*
Y108450D01*
X-42494Y112550D01*
Y114166D01*
X-45878Y117550D02*
X-42494Y114166D01*
X-50640Y117550D02*
X-45878D01*
X-53817Y114373D02*
X-50640Y117550D01*
X3865Y70837D02*
X8719D01*
X16538Y63018D01*
Y61550D02*
Y63018D01*
X12506Y61518D02*
Y64646D01*
X-126025Y29483D02*
X-104092Y7550D01*
X-126025Y29483D02*
Y38019D01*
X-120993Y43050D01*
X-113994Y75384D02*
Y149550D01*
X-115693Y76088D02*
Y150254D01*
X-131993Y28239D02*
Y57384D01*
X-113994Y75384D01*
X-133694Y52050D02*
Y58088D01*
X-115693Y76088D01*
X-81395Y163444D02*
Y169815D01*
X-82526Y170945D02*
X-81395Y169815D01*
X-105993Y167050D02*
X-98600D01*
X-94705Y170945D01*
X-82526D01*
X-111994Y70528D02*
Y148933D01*
X-97482Y163444D01*
X-91238D01*
X-110293Y69805D02*
Y148086D01*
X-104777Y153602D01*
X-91238D01*
X-587346Y502716D02*
X-474346D01*
X-587346Y222128D02*
X-474346D01*
X-568346Y482828D02*
X-491346D01*
X-474346Y222128D02*
Y502716D01*
X-587346Y222128D02*
Y502716D01*
D12*
X-133824Y-83725D02*
Y-75261D01*
Y-83725D02*
X-123098Y-94450D01*
X-138578Y-70507D02*
X-133824Y-75261D01*
X-155920Y-70507D02*
X-138578D01*
X-157292Y-74198D02*
Y-71879D01*
X-155920Y-70507D01*
X-39777Y91766D02*
X-33178D01*
X-69994Y65050D02*
Y68550D01*
X-179718Y78518D02*
X-173994D01*
X-185494Y78518D02*
X-179718Y78518D01*
X-35466Y73047D02*
X-33463Y75050D01*
X-78025Y72550D02*
Y78268D01*
X-78104Y59499D02*
Y71971D01*
X-39444Y77550D02*
X-30962D01*
X-59493Y76550D02*
X-58494Y77550D01*
X-22143Y52699D02*
X-21844D01*
X-23025Y51817D02*
X-22143Y52699D01*
X-38993Y-5450D02*
Y24518D01*
X-29493Y-85950D02*
Y17971D01*
X-38493Y26971D02*
X-29493Y17971D01*
X-38493Y26971D02*
Y70710D01*
X-40093Y25618D02*
X-38993Y24518D01*
X-40093Y25618D02*
Y70015D01*
X-37993Y-94450D02*
X-29493Y-85950D01*
X-44993Y74915D02*
X-40093Y70015D01*
X-75545Y49066D02*
X-60681D01*
X-75545Y47097D02*
X-60528D01*
X-75545Y45129D02*
X-60375D01*
X-75545Y43160D02*
X-60222D01*
X-60681Y49066D02*
X-59493Y50253D01*
Y76550D01*
X-60222Y43160D02*
X-54993Y48389D01*
X-60375Y45129D02*
X-56494Y49010D01*
X-57994Y49632D02*
Y74792D01*
X-56494Y49010D02*
Y74171D01*
X-54993Y48389D02*
Y73550D01*
X-53493Y47768D02*
Y68445D01*
X-52107Y69832D01*
X-54993Y73550D02*
X-50994Y77550D01*
X-56494Y74171D02*
X-53493Y77171D01*
X-57994Y74792D02*
X-55993Y76792D01*
X-60528Y47097D02*
X-57994Y49632D01*
X-68994Y32268D02*
X-53493Y47768D01*
X-68994Y26581D02*
Y32268D01*
X-13312Y67231D02*
X-11883Y68660D01*
Y70837D01*
X-20378Y68731D02*
X-14812D01*
X-25993Y63116D02*
X-20378Y68731D01*
X-18338Y67231D02*
X-13312D01*
X-18993Y66576D02*
X-18338Y67231D01*
X-18993Y56050D02*
Y66576D01*
X-14812Y68731D02*
X-13852Y69691D01*
Y70837D01*
X-25493Y75050D02*
X-20946Y79597D01*
X-20993Y54050D02*
X-18993Y56050D01*
X-26744Y122801D02*
X-26610D01*
X-18497Y130913D01*
X4196D01*
X27066Y108044D01*
Y80059D02*
Y108044D01*
X22667Y75660D02*
X27066Y80059D01*
X6719Y75660D02*
X22667D01*
X-21494Y124550D02*
X-16630Y129413D01*
X3575D01*
X25566Y107422D01*
Y80680D02*
Y107422D01*
X13287Y77179D02*
X22064D01*
X12837Y77628D02*
X13287Y77179D01*
X6719Y77628D02*
X12837D01*
X-22649Y45660D02*
Y51193D01*
X-22025Y51817D01*
X24066Y81302D02*
Y106801D01*
X22205Y79441D02*
X24066Y81302D01*
X22064Y77179D02*
X25566Y80680D01*
X18680Y79441D02*
X22205D01*
X10317Y120550D02*
X24066Y106801D01*
X18371Y79441D02*
X18680D01*
X-20993Y120550D02*
X10317D01*
X-25993Y60050D02*
Y63116D01*
X-196994Y37018D02*
X-196963Y36988D01*
X-191823D01*
X-191819Y36983D01*
X-196994Y42050D02*
Y49282D01*
Y37018D02*
Y42050D01*
Y49282D02*
X-195999Y50277D01*
X-159112Y110925D02*
X-157413Y112624D01*
X-162707Y110925D02*
X-159112D01*
X-10400Y115550D02*
X-72Y105222D01*
X-33994Y115550D02*
X-10400D01*
X-41993Y123550D02*
X-33994Y115550D01*
X-57130Y131065D02*
X-37115Y111050D01*
X-55493Y131550D02*
X-36494Y112550D01*
X-11643D01*
X-37115Y111050D02*
X-12264D01*
X-37670Y109550D02*
X-18891D01*
X-43494Y103726D02*
X-37670Y109550D01*
X-18891D02*
X-9915Y100574D01*
X-12264Y111050D02*
X-5978Y104763D01*
X-11643Y112550D02*
X-4009Y104916D01*
X-11022Y114050D02*
X-2041Y105069D01*
X-35337Y114050D02*
X-11022D01*
X-52494Y131207D02*
X-35337Y114050D01*
X-54993Y158050D02*
X-52494D01*
X-57130Y155913D02*
X-54993Y158050D01*
X-57130Y131065D02*
Y155913D01*
X-55493Y144550D02*
X-52994Y147050D01*
X-55493Y131550D02*
Y144550D01*
X-52494Y137385D02*
X-50994Y138885D01*
X-52494Y131207D02*
Y137385D01*
X-41993Y123550D02*
Y125550D01*
X-123098Y-94450D02*
X-37993D01*
X-38993Y-12982D02*
Y-5450D01*
X-69994Y65018D02*
Y65050D01*
X-47734Y151109D02*
Y153290D01*
X-52494Y158050D02*
X-47734Y153290D01*
X-52994Y147050D02*
X-51934Y145991D01*
X-35462Y101581D02*
X-30962D01*
Y97581D02*
X-30931Y97550D01*
X-30962Y97581D02*
Y101581D01*
X-30962Y101581D01*
X-26962D01*
X-35489Y82408D02*
X-35130Y82050D01*
X-35489Y82408D02*
Y82408D01*
X-36325Y81572D02*
X-35489Y82408D01*
X-38959Y81572D02*
X-36325D01*
X-35130Y81550D02*
X-30962D01*
X-33178Y91766D02*
X-30962Y89550D01*
X-27025Y72550D02*
X-26255Y73320D01*
X-33463Y75050D02*
X-25493D01*
X-20946Y79597D02*
X-16706D01*
X-7946Y94262D02*
Y102330D01*
X-51934Y145991D02*
X-47734D01*
X-33994Y59018D02*
X-27635D01*
X-73993Y77550D02*
X-71959Y79584D01*
X-73993Y77550D02*
X-73962Y77518D01*
Y72550D02*
Y77518D01*
X-78025Y78268D02*
X-75009Y81284D01*
X-173994Y78518D02*
X-165494D01*
X-169962Y86518D02*
X-165494Y86518D01*
X-169663Y117880D02*
X-162707Y110925D01*
X-169663Y117880D02*
Y119327D01*
X-174734Y124399D02*
X-169663Y119327D01*
X-73962Y68550D02*
Y72550D01*
X-75545Y56940D02*
Y66967D01*
X-73962Y68550D01*
X-85493Y68550D02*
X-81962D01*
X-26978Y85502D02*
X-16706D01*
X-27025Y85550D02*
X-26978Y85502D01*
X-24946Y87471D02*
X-16706D01*
X-27025Y89550D02*
X-24946Y87471D01*
X-27025Y81550D02*
X-25041Y83534D01*
X-16706D01*
X-27025Y77550D02*
X-23009Y81565D01*
X-16706D01*
X-26994Y97550D02*
X-22994D01*
X-16852Y91408D01*
X-16706D01*
X-17036Y73691D02*
X-16706D01*
X-73025Y22550D02*
X-68994Y26581D01*
X-38903Y86550D02*
X-37833Y87619D01*
X-35507D01*
X-33031D01*
X-30962Y85550D01*
X-71959Y79584D02*
X-68959D01*
X-75009Y81284D02*
X-69380D01*
X-51248Y99417D01*
Y111463D01*
X-44993Y74915D02*
Y105587D01*
X-41917Y108663D01*
X-43494Y75710D02*
Y103726D01*
Y75710D02*
X-38493Y70710D01*
X-68959Y79584D02*
X-48493Y100050D01*
Y114550D01*
X-50994Y77550D02*
Y91550D01*
X-53493Y77171D02*
Y86550D01*
X-55993Y76792D02*
Y81550D01*
X-9915Y94262D02*
Y100574D01*
X-9702Y104085D02*
X-7946Y102330D01*
X-72Y94262D02*
Y105222D01*
X-2041Y94262D02*
Y105069D01*
X-4009Y94262D02*
Y104916D01*
X-5978Y94262D02*
Y104763D01*
X-74525Y-16950D02*
X-63025Y-5450D01*
X-62493D01*
D14*
X-501688Y440889D02*
X-502069Y440508D01*
X-502450Y439937D01*
X-502831Y439175D01*
X-503021Y438223D01*
Y437461D01*
X-502831Y436509D01*
X-502450Y435747D01*
X-502069Y435176D01*
X-501688Y434795D01*
X-502069Y440508D02*
X-502450Y439747D01*
X-502640Y439175D01*
X-502831Y438223D01*
Y437461D01*
X-502640Y436509D01*
X-502450Y435938D01*
X-502069Y435176D01*
X-500736Y436509D02*
X-500926Y436319D01*
X-500736Y436128D01*
X-500546Y436319D01*
X-500736Y436509D01*
X-496813Y439175D02*
X-497003Y439556D01*
X-497384Y439937D01*
X-497765Y440127D01*
X-498527D01*
X-498908Y439937D01*
X-499289Y439556D01*
X-499479Y439175D01*
X-499670Y438604D01*
Y437652D01*
X-499479Y437080D01*
X-499289Y436700D01*
X-498908Y436319D01*
X-498527Y436128D01*
X-497765D01*
X-497384Y436319D01*
X-497003Y436700D01*
X-496813Y437080D01*
Y437652D01*
X-497765D02*
X-496813D01*
X-494566Y440127D02*
Y436128D01*
X-495899Y440127D02*
X-493233D01*
X-492757D02*
Y436128D01*
X-490472D01*
X-490033Y440889D02*
X-489653Y440508D01*
X-489272Y439937D01*
X-488891Y439175D01*
X-488700Y438223D01*
Y437461D01*
X-488891Y436509D01*
X-489272Y435747D01*
X-489653Y435176D01*
X-490033Y434795D01*
X-489653Y440508D02*
X-489272Y439747D01*
X-489081Y439175D01*
X-488891Y438223D01*
Y437461D01*
X-489081Y436509D01*
X-489272Y435938D01*
X-489653Y435176D01*
X-550013Y440127D02*
Y436128D01*
X-551346Y440127D02*
X-548680D01*
X-547252Y438794D02*
X-547632Y438604D01*
X-548013Y438223D01*
X-548204Y437652D01*
Y437271D01*
X-548013Y436700D01*
X-547632Y436319D01*
X-547252Y436128D01*
X-546680D01*
X-546299Y436319D01*
X-545919Y436700D01*
X-545728Y437271D01*
Y437652D01*
X-545919Y438223D01*
X-546299Y438604D01*
X-546680Y438794D01*
X-547252D01*
X-544852D02*
Y434795D01*
Y438223D02*
X-544471Y438604D01*
X-544090Y438794D01*
X-543519D01*
X-543138Y438604D01*
X-542757Y438223D01*
X-542567Y437652D01*
Y437271D01*
X-542757Y436700D01*
X-543138Y436319D01*
X-543519Y436128D01*
X-544090D01*
X-544471Y436319D01*
X-544852Y436700D01*
X-538568Y440127D02*
Y436128D01*
X-536282D01*
X-533559Y438794D02*
Y436128D01*
Y438223D02*
X-533940Y438604D01*
X-534321Y438794D01*
X-534892D01*
X-535273Y438604D01*
X-535654Y438223D01*
X-535845Y437652D01*
Y437271D01*
X-535654Y436700D01*
X-535273Y436319D01*
X-534892Y436128D01*
X-534321D01*
X-533940Y436319D01*
X-533559Y436700D01*
X-532302Y438794D02*
X-531160Y436128D01*
X-530017Y438794D02*
X-531160Y436128D01*
X-531541Y435367D01*
X-531921Y434986D01*
X-532302Y434795D01*
X-532493D01*
X-529351Y437652D02*
X-527065D01*
Y438033D01*
X-527256Y438413D01*
X-527446Y438604D01*
X-527827Y438794D01*
X-528398D01*
X-528779Y438604D01*
X-529160Y438223D01*
X-529351Y437652D01*
Y437271D01*
X-529160Y436700D01*
X-528779Y436319D01*
X-528398Y436128D01*
X-527827D01*
X-527446Y436319D01*
X-527065Y436700D01*
X-526208Y438794D02*
Y436128D01*
Y437652D02*
X-526018Y438223D01*
X-525637Y438604D01*
X-525256Y438794D01*
X-524685D01*
X-551346Y297527D02*
Y293528D01*
Y297527D02*
X-549822Y293528D01*
X-548299Y297527D02*
X-549822Y293528D01*
X-548299Y297527D02*
Y293528D01*
X-547156Y297527D02*
Y294671D01*
X-546966Y294100D01*
X-546585Y293719D01*
X-546014Y293528D01*
X-545633D01*
X-545061Y293719D01*
X-544681Y294100D01*
X-544490Y294671D01*
Y297527D01*
X-543386D02*
Y293528D01*
X-541101D01*
X-539329Y297527D02*
Y293528D01*
X-540662Y297527D02*
X-537996D01*
X-537520D02*
Y293528D01*
X-536682Y297527D02*
Y293528D01*
X-534397D01*
X-530912D02*
X-532436Y297527D01*
X-533959Y293528D01*
X-533388Y294861D02*
X-531484D01*
X-529979Y297527D02*
X-528456Y295623D01*
Y293528D01*
X-526932Y297527D02*
X-528456Y295623D01*
X-523942Y297527D02*
X-526418D01*
Y293528D01*
X-523942D01*
X-526418Y295623D02*
X-524894D01*
X-523276Y297527D02*
Y293528D01*
Y297527D02*
X-521562D01*
X-520991Y297337D01*
X-520800Y297147D01*
X-520610Y296766D01*
Y296385D01*
X-520800Y296004D01*
X-520991Y295813D01*
X-521562Y295623D01*
X-523276D01*
X-521943D02*
X-520610Y293528D01*
D17*
X-90993Y99125D02*
X-84553D01*
X-28493Y126242D02*
X-20534Y134201D01*
X-122303Y77271D02*
Y131682D01*
X37007Y65050D02*
Y104001D01*
X-142180Y57395D02*
X-122303Y77271D01*
X-142180Y-10137D02*
Y57395D01*
X-94494Y103050D02*
X-90993D01*
Y106050D01*
Y99125D02*
Y103050D01*
X29506Y57550D02*
X37007Y65050D01*
X20475Y57550D02*
X29506D01*
X-122456Y132030D02*
X-121042Y133444D01*
X-122456Y130413D02*
Y132030D01*
X-20534Y134201D02*
X6807D01*
X37007Y104001D01*
X-148494Y-16450D02*
X-142180Y-10137D01*
D18*
X-567846Y438178D02*
D03*
Y295578D02*
D03*
D23*
X-75545Y43160D02*
D03*
Y45129D02*
D03*
Y47097D02*
D03*
Y49066D02*
D03*
Y51034D02*
D03*
Y53003D02*
D03*
Y54971D02*
D03*
Y56940D02*
D03*
X-94442Y43160D02*
D03*
Y56940D02*
D03*
Y54971D02*
D03*
Y53003D02*
D03*
Y51034D02*
D03*
Y49066D02*
D03*
Y47097D02*
D03*
Y45129D02*
D03*
D24*
X-80072Y40601D02*
D03*
X-82041D02*
D03*
X-84009Y40601D02*
D03*
X-85978D02*
D03*
X-87946Y40601D02*
D03*
X-89915D02*
D03*
X-91883D02*
D03*
X-78104D02*
D03*
X-91883Y59499D02*
D03*
X-89915D02*
D03*
X-87946D02*
D03*
X-85978Y59499D02*
D03*
X-84009D02*
D03*
X-82041Y59499D02*
D03*
X-80072D02*
D03*
X-78104D02*
D03*
D25*
X-16706Y91408D02*
D03*
Y89439D02*
D03*
Y87471D02*
D03*
Y85502D02*
D03*
Y83534D02*
D03*
Y81565D02*
D03*
Y79597D02*
D03*
Y77628D02*
D03*
Y75660D02*
D03*
Y73691D02*
D03*
X6719Y91408D02*
D03*
Y73691D02*
D03*
Y75660D02*
D03*
Y77628D02*
D03*
Y79597D02*
D03*
Y81565D02*
D03*
Y83534D02*
D03*
Y85502D02*
D03*
Y87471D02*
D03*
Y89439D02*
D03*
D26*
X1896Y70837D02*
D03*
X-72D02*
D03*
X-2041D02*
D03*
X-4009D02*
D03*
X-5978D02*
D03*
X-7946D02*
D03*
X-9915D02*
D03*
X-11883D02*
D03*
X-13852D02*
D03*
X3865D02*
D03*
X-13852Y94262D02*
D03*
X-11883D02*
D03*
X-9915D02*
D03*
X-7946D02*
D03*
X-5978D02*
D03*
X-4009D02*
D03*
X-2041D02*
D03*
X-72D02*
D03*
X1896D02*
D03*
X3865D02*
D03*
D27*
X-174734Y124399D02*
D03*
X-172925Y126208D02*
D03*
X-167496Y131637D02*
D03*
X-169306Y129827D02*
D03*
X-171115Y128018D02*
D03*
D28*
X-182092Y132630D02*
D03*
X-175709Y139014D02*
D03*
D29*
X-190533Y124607D02*
D03*
X-167705Y147435D02*
D03*
D30*
X-181207Y120849D02*
D03*
X-163947Y138109D02*
D03*
D31*
X-109962Y167050D02*
D03*
X-106025D02*
D03*
X-8813Y5379D02*
D03*
X-4876D02*
D03*
X-85525Y115550D02*
D03*
X-89462Y115550D02*
D03*
X17057Y52535D02*
D03*
X20994D02*
D03*
X-30931Y97550D02*
D03*
X-26994D02*
D03*
X-30962Y77550D02*
D03*
X-27025D02*
D03*
X-30962Y81550D02*
D03*
X-27025D02*
D03*
X-30962Y85550D02*
D03*
X-27025D02*
D03*
X-30962Y89550D02*
D03*
X-27025D02*
D03*
X-35025Y-20950D02*
D03*
X-38962Y-20950D02*
D03*
X-176462Y109050D02*
D03*
X-172525D02*
D03*
X-38962Y-24950D02*
D03*
X-35025D02*
D03*
X-70025Y72550D02*
D03*
X-73962D02*
D03*
X-81962D02*
D03*
X-78025D02*
D03*
X-78462Y-24950D02*
D03*
X-74525Y-24950D02*
D03*
X-78462Y-16950D02*
D03*
X-74525Y-16950D02*
D03*
X-74525Y-20950D02*
D03*
X-78462D02*
D03*
X-76962Y22550D02*
D03*
X-73025Y22550D02*
D03*
X-144811Y-74187D02*
D03*
X-140874D02*
D03*
X-141129Y-80637D02*
D03*
X-145066D02*
D03*
X20475Y57550D02*
D03*
X16538D02*
D03*
X20475Y61550D02*
D03*
X16538D02*
D03*
X-177962Y89050D02*
D03*
X-174025Y89050D02*
D03*
X-94944Y90639D02*
D03*
X-91007D02*
D03*
X14743Y83351D02*
D03*
X18680D02*
D03*
Y91433D02*
D03*
X14743D02*
D03*
X9038Y52550D02*
D03*
X12975D02*
D03*
X-120866Y-35827D02*
D03*
X-124803D02*
D03*
X-124409Y-72441D02*
D03*
X-120472D02*
D03*
X-54025Y-8950D02*
D03*
X-57962D02*
D03*
X-47462Y-77950D02*
D03*
X-43525D02*
D03*
X-54025Y-77950D02*
D03*
X-57962D02*
D03*
X-33525D02*
D03*
X-37462D02*
D03*
X-45025Y-8950D02*
D03*
X-48962D02*
D03*
X-45025Y-59450D02*
D03*
X-48962D02*
D03*
X-109962Y163050D02*
D03*
X-106025D02*
D03*
X-70025Y68550D02*
D03*
X-73962Y68550D02*
D03*
X-78025D02*
D03*
X-81962Y68550D02*
D03*
X-67163Y55682D02*
D03*
X-63226D02*
D03*
X-93525Y-8950D02*
D03*
X-97462D02*
D03*
X-93525Y-77950D02*
D03*
X-97462Y-77950D02*
D03*
X-90525Y30550D02*
D03*
X-94462Y30550D02*
D03*
X-76962Y-77950D02*
D03*
X-73025D02*
D03*
X-84525Y-8950D02*
D03*
X-88462D02*
D03*
X-73025Y26550D02*
D03*
X-76962D02*
D03*
X-84525Y-59450D02*
D03*
X-88462Y-59450D02*
D03*
X-90525Y34550D02*
D03*
X-94462D02*
D03*
X-26586Y45660D02*
D03*
X-22649D02*
D03*
X14743Y95564D02*
D03*
X18680D02*
D03*
X-16036Y31836D02*
D03*
X-12098D02*
D03*
X8966Y48586D02*
D03*
X12903D02*
D03*
X14038Y72550D02*
D03*
X17975D02*
D03*
X-30962Y68550D02*
D03*
X-27025D02*
D03*
Y72550D02*
D03*
X-30962D02*
D03*
Y93550D02*
D03*
X-27025D02*
D03*
X-19025Y100550D02*
D03*
X-22962D02*
D03*
X18680Y87362D02*
D03*
X14743D02*
D03*
Y99564D02*
D03*
X18680D02*
D03*
X-94944Y86639D02*
D03*
X-91007Y86639D02*
D03*
X-63253Y51738D02*
D03*
X-67190D02*
D03*
X-87462Y-77950D02*
D03*
X-83525D02*
D03*
X18680Y79441D02*
D03*
X14743D02*
D03*
X-42962Y22050D02*
D03*
X-39025D02*
D03*
X-4881Y25390D02*
D03*
X-8818D02*
D03*
X-9115Y60239D02*
D03*
X-5178D02*
D03*
X-26105Y36315D02*
D03*
X-22168D02*
D03*
X8982Y44630D02*
D03*
X12919D02*
D03*
X-22168Y28257D02*
D03*
X-26105D02*
D03*
X-26105Y32269D02*
D03*
X-22168D02*
D03*
D32*
X-84397Y98379D02*
D03*
Y94639D02*
D03*
Y90899D02*
D03*
X-74555Y98379D02*
D03*
X-74555Y90899D02*
D03*
D33*
X-40253Y151109D02*
D03*
X-40253Y148550D02*
D03*
X-40253Y145991D02*
D03*
X-47734Y145991D02*
D03*
Y148550D02*
D03*
Y151109D02*
D03*
D34*
X-170269Y82290D02*
D03*
X-170269Y74810D02*
D03*
D35*
X-179718Y78550D02*
D03*
X-179718Y74810D02*
D03*
D36*
X-179718Y82290D02*
D03*
D37*
X-93493Y-53474D02*
D03*
X-88494Y-53474D02*
D03*
X-83494D02*
D03*
X-78493Y-53474D02*
D03*
X-93493Y-31427D02*
D03*
X-88494Y-31427D02*
D03*
X-83494D02*
D03*
X-78493Y-31427D02*
D03*
X-38993D02*
D03*
X-43993Y-31427D02*
D03*
X-48994D02*
D03*
X-53993Y-31427D02*
D03*
X-38993Y-53474D02*
D03*
X-43993Y-53474D02*
D03*
X-48994D02*
D03*
X-53993Y-53474D02*
D03*
D38*
X-191793Y33650D02*
D03*
Y36957D02*
D03*
X-33494Y154396D02*
D03*
Y157703D02*
D03*
D39*
X-130892Y94036D02*
D03*
X-139672D02*
D03*
X-174104Y60550D02*
D03*
X-182883D02*
D03*
X-139766Y87585D02*
D03*
X-130986D02*
D03*
D40*
X-45994Y63050D02*
D03*
X31007Y79550D02*
D03*
D41*
X-45994Y69349D02*
D03*
Y56751D02*
D03*
X31007Y73251D02*
D03*
Y85849D02*
D03*
D42*
X-149789Y47050D02*
D03*
X-174198D02*
D03*
X-149789Y29050D02*
D03*
X-174198D02*
D03*
D43*
X-85257Y34493D02*
D03*
Y30556D02*
D03*
X-4856Y9491D02*
D03*
Y13428D02*
D03*
X18676Y107916D02*
D03*
Y103980D02*
D03*
X12506Y57581D02*
D03*
Y61518D02*
D03*
X-56494Y-67419D02*
D03*
X-56494Y-63482D02*
D03*
X-38993Y-16919D02*
D03*
Y-12982D02*
D03*
X-53993Y-20982D02*
D03*
Y-24919D02*
D03*
X-34993Y-67419D02*
D03*
X-34993Y-63482D02*
D03*
X-48994Y-20982D02*
D03*
Y-24919D02*
D03*
X-90993Y107581D02*
D03*
Y111518D02*
D03*
X-95994Y-67419D02*
D03*
Y-63482D02*
D03*
X-93493Y-20982D02*
D03*
Y-24919D02*
D03*
X-74493Y-67419D02*
D03*
Y-63482D02*
D03*
X-88494Y-20982D02*
D03*
Y-24919D02*
D03*
X-80972Y26584D02*
D03*
Y22647D02*
D03*
X-191845Y42078D02*
D03*
Y46015D02*
D03*
X-30962Y101581D02*
D03*
Y105518D02*
D03*
X-165494Y82581D02*
D03*
X-165494Y86518D02*
D03*
X-4843Y17451D02*
D03*
Y21388D02*
D03*
X-4918Y29453D02*
D03*
Y33390D02*
D03*
X14676Y107916D02*
D03*
Y103980D02*
D03*
X-185494Y74581D02*
D03*
Y78518D02*
D03*
X-165494Y78518D02*
D03*
Y74581D02*
D03*
X-43993Y-20982D02*
D03*
Y-24919D02*
D03*
X-48994Y-12982D02*
D03*
Y-16919D02*
D03*
X-83494Y-24919D02*
D03*
X-83494Y-20982D02*
D03*
X-104993Y36581D02*
D03*
Y40518D02*
D03*
X-76994Y34518D02*
D03*
X-76994Y30581D02*
D03*
X-107493Y61018D02*
D03*
Y57081D02*
D03*
X-93493Y-16919D02*
D03*
Y-12982D02*
D03*
X-103493Y61018D02*
D03*
Y57081D02*
D03*
X-100994Y36581D02*
D03*
Y40518D02*
D03*
X-33994Y55081D02*
D03*
X-33994Y59018D02*
D03*
X-26962Y105518D02*
D03*
Y101581D02*
D03*
X12580Y35535D02*
D03*
Y31598D02*
D03*
X20859Y35535D02*
D03*
Y31598D02*
D03*
X1507Y60985D02*
D03*
Y64922D02*
D03*
X5506Y64922D02*
D03*
Y60985D02*
D03*
X-16048Y61974D02*
D03*
Y58037D02*
D03*
X-69476Y98108D02*
D03*
X-69476Y94171D02*
D03*
X-90976Y98608D02*
D03*
Y94671D02*
D03*
X10676Y107916D02*
D03*
Y103980D02*
D03*
X8425Y31598D02*
D03*
Y35535D02*
D03*
X-105512Y136221D02*
D03*
Y140157D02*
D03*
X-80993Y34518D02*
D03*
Y30581D02*
D03*
X-88494Y-12982D02*
D03*
Y-16919D02*
D03*
X-196994Y37018D02*
D03*
Y33081D02*
D03*
X-53993Y-12982D02*
D03*
Y-16919D02*
D03*
X-31993Y137081D02*
D03*
Y141018D02*
D03*
X-105512Y130709D02*
D03*
Y126772D02*
D03*
X16790Y31598D02*
D03*
Y35535D02*
D03*
X20882Y44491D02*
D03*
Y48428D02*
D03*
D44*
X-2266Y53047D02*
D03*
X-4825D02*
D03*
X-7384D02*
D03*
X-9943D02*
D03*
Y38480D02*
D03*
X-7384D02*
D03*
X-4825D02*
D03*
X-2266D02*
D03*
D45*
X-13388Y49602D02*
D03*
Y47043D02*
D03*
Y44484D02*
D03*
Y41925D02*
D03*
X1179D02*
D03*
Y44484D02*
D03*
Y47043D02*
D03*
Y49602D02*
D03*
D46*
X-157292Y-74198D02*
D03*
X-151388Y-74198D02*
D03*
X-151481Y-80710D02*
D03*
X-157385Y-80710D02*
D03*
D47*
X-43639Y-72450D02*
D03*
X-49348D02*
D03*
X-88848D02*
D03*
X-83139D02*
D03*
D48*
X-27261Y58892D02*
D03*
X-22143D02*
D03*
X-27261Y52199D02*
D03*
X-22143D02*
D03*
D49*
X-117323Y-62205D02*
D03*
D50*
X-134646D02*
D03*
D51*
X-140735Y112514D02*
D03*
X-152984Y100265D02*
D03*
D52*
X-118898Y-45669D02*
D03*
X-128347D02*
D03*
D53*
X-168974Y100050D02*
D03*
X-179013D02*
D03*
D54*
X-111494Y32711D02*
D03*
Y40388D02*
D03*
D55*
X-104493Y26404D02*
D03*
Y20695D02*
D03*
X-130964Y99712D02*
D03*
Y105421D02*
D03*
D56*
X-8494Y123550D02*
D03*
D57*
X-14793D02*
D03*
X-2194D02*
D03*
D58*
X10958Y-5207D02*
D03*
X7390Y-3543D02*
D03*
D59*
X-49832Y-65450D02*
D03*
X-42155D02*
D03*
X-89332D02*
D03*
X-81655D02*
D03*
D60*
X14603Y-6897D02*
D03*
X16267Y-3329D02*
D03*
X5404Y1825D02*
D03*
X3740Y-1743D02*
D03*
X1664Y3568D02*
D03*
X0Y0D02*
D03*
D61*
X-169663Y117880D02*
D03*
X-167324Y120219D02*
D03*
D85*
X-6105Y45763D02*
D03*
D110*
X-4866Y5389D02*
G03*
X-1093Y450I4355J-583D01*
G01*
D111*
X-4993Y82550D02*
D03*
D112*
X-140993Y67550D02*
D03*
X-77994Y78050D02*
D03*
X-9702Y104085D02*
D03*
X-35489Y82408D02*
D03*
X-35507Y87619D02*
D03*
X-35473Y92301D02*
D03*
X-65494Y-62950D02*
D03*
X-35879Y77550D02*
D03*
X-73993Y77550D02*
D03*
X-158612Y91050D02*
D03*
X-203994Y75050D02*
D03*
X-164494Y122550D02*
D03*
X-109843Y-45669D02*
D03*
X-65993Y98379D02*
D03*
X-163994Y117050D02*
D03*
X-160494Y120550D02*
D03*
D113*
X17724Y-8472D02*
D03*
D114*
X-28493Y157050D02*
X-22994Y151550D01*
X-61993Y115487D02*
X-57525Y111018D01*
X-69476Y98379D02*
X-65993Y98379D01*
X-69747Y98379D02*
X-69476D01*
X9007Y52550D02*
Y63550D01*
X-51040Y169003D02*
X-38447D01*
X-61993Y158050D02*
X-51040Y169003D01*
X-61993Y139550D02*
Y158050D01*
X-28493Y157050D02*
Y159050D01*
Y154050D02*
Y157050D01*
X-38447Y169003D02*
X-28493Y159050D01*
X-74555Y98379D02*
X-69747Y98379D01*
X-111025Y40518D02*
X-104993Y40518D01*
X-100994Y40518D01*
X13903Y133861D02*
X42006Y105757D01*
X27666Y48550D02*
X42006Y62890D01*
Y105757D01*
X-113155Y40388D02*
X-111494D01*
X-117993Y28550D02*
Y35550D01*
Y28550D02*
X-115848Y26404D01*
X-105348D01*
X-117993Y35550D02*
X-116493Y37050D01*
X-113155Y40388D01*
X-65993Y98379D02*
X-63216D01*
X-61993Y115487D02*
Y139550D01*
X9495Y138269D02*
X13903Y133861D01*
X-22994Y141137D02*
Y151550D01*
Y141137D02*
X-20125Y138269D01*
X9495D01*
D115*
X18463Y48550D02*
X27666D01*
X-138188Y-74187D02*
X-135908Y-76468D01*
Y-84588D02*
Y-76468D01*
Y-84588D02*
X-123962Y-96535D01*
X-140874Y-74187D02*
X-138188D01*
X-141129Y-84060D02*
Y-80637D01*
Y-84060D02*
X-141120Y-84069D01*
X-151388Y-74198D02*
X-151382Y-74193D01*
X-144817D01*
X-144811Y-74187D01*
X-4866Y5389D02*
X-4866Y5389D01*
X-4876Y5379D02*
X-4866Y5389D01*
X-26963Y27747D02*
X-26279Y28431D01*
X-163716Y100390D02*
X-163610D01*
X-163823D02*
X-163716D01*
X-27025Y93650D02*
X-22994D01*
X-92493Y-77950D02*
X-86962D01*
X-95994Y-74450D02*
X-92493Y-77950D01*
X-37993D02*
X-36371Y-76328D01*
X-56494Y-74450D02*
X-52994Y-77950D01*
X-83139Y-72950D02*
X-78993D01*
X-118898Y-45669D02*
X-118898Y-45669D01*
X-109843D01*
X-63264Y60108D02*
Y63508D01*
X-62598Y64173D01*
X-70079Y73103D02*
Y76378D01*
Y73103D02*
X-69994Y73018D01*
X-75470Y85050D02*
X-68994D01*
X-81890Y78630D02*
X-75470Y85050D01*
X-81890Y76378D02*
Y78630D01*
Y72622D02*
Y76378D01*
X-81962Y72550D02*
X-81890Y72622D01*
X-105512Y126772D02*
X-105493Y123050D01*
X-105512Y140157D02*
X-105493Y144050D01*
X6880Y107916D02*
X10676D01*
X6698Y108098D02*
X6880Y107916D01*
X6591Y108098D02*
X6698D01*
X-65494Y-62950D02*
Y-52950D01*
X-74525Y-24950D02*
X-70600D01*
X-70100Y-24450D01*
X-69994D01*
X-83494Y-20982D02*
X-83448Y-20936D01*
Y-17525D01*
X-83403Y-17480D01*
X-97462Y-81168D02*
Y-77950D01*
Y-81168D02*
X-96877Y-81753D01*
X-66569Y-81875D02*
Y-79303D01*
Y-81875D02*
X-66493Y-81950D01*
X-67921Y-77950D02*
X-66569Y-79303D01*
X-73025Y-77950D02*
X-67921D01*
X-153401Y99848D02*
X-152984Y100265D01*
X-163067Y99848D02*
X-153401D01*
X-163610Y100390D02*
X-163067Y99848D01*
X-168974Y100050D02*
X-164163D01*
X-163823Y100390D01*
X-172525Y109050D02*
X-169709Y106234D01*
X-169010D01*
X-168935Y106159D01*
X-203994Y75050D02*
Y75083D01*
X-195052Y84025D01*
Y84059D01*
X-209185Y33081D02*
X-196994D01*
X-209185Y33081D02*
X-209185Y33081D01*
X-192487Y33650D02*
X-191793D01*
X-192860Y33278D02*
X-192487Y33650D01*
X-196797Y33278D02*
X-192860D01*
X-196994Y33081D02*
X-196797Y33278D01*
X-31159Y68747D02*
X-30962Y68550D01*
X-33155Y68747D02*
X-31159D01*
X-34498Y70089D02*
X-33155Y68747D01*
X-34604Y70089D02*
X-34498D01*
X-30962Y68550D02*
Y72550D01*
X-107493Y61018D02*
X-103493D01*
X-103493Y61018D01*
X16267Y-3329D02*
Y-2984D01*
X17517Y-1733D01*
Y-496D01*
X5404Y1825D02*
Y2170D01*
X6691Y3457D01*
Y4425D01*
X1664Y3568D02*
X1807Y3711D01*
Y5446D01*
X2754Y6393D01*
X-8828Y5394D02*
X-8813Y5379D01*
X-12979Y5394D02*
X-8828D01*
X-12994Y5409D02*
X-12979Y5394D01*
X-29248Y27747D02*
X-26963D01*
X-76994Y30581D02*
X-73632D01*
X-73100Y30050D01*
X-72993D01*
X20859Y27699D02*
Y31598D01*
Y27699D02*
X20896Y27662D01*
Y27653D02*
Y27662D01*
X16828Y27653D02*
Y27662D01*
X16790Y27699D02*
X16828Y27662D01*
X16790Y27699D02*
Y31598D01*
X-26279Y28431D02*
X-26105Y28257D01*
X12618Y27653D02*
Y27662D01*
X12580Y27699D02*
X12618Y27662D01*
X12580Y27699D02*
Y31598D01*
X8425Y27699D02*
Y31598D01*
Y27699D02*
X8462Y27662D01*
Y27653D02*
Y27662D01*
X12903Y48586D02*
X12911Y48578D01*
Y44638D02*
Y48578D01*
Y44638D02*
X12919Y44630D01*
X12961Y44588D01*
X15937D01*
X15943Y44582D01*
X-8920Y25287D02*
X-8818Y25390D01*
X-8920Y22528D02*
Y25287D01*
X-8926Y22522D02*
X-8920Y22528D01*
X-16036Y28088D02*
Y31836D01*
Y28088D02*
X-15878Y27930D01*
Y27921D02*
Y27930D01*
X-63245Y55701D02*
X-63226Y55682D01*
X-63245Y55701D02*
Y60089D01*
X-63264Y60108D02*
X-63245Y60089D01*
X-63253Y51738D02*
X-63239Y51752D01*
Y55668D01*
X-63226Y55682D01*
X-67163Y57059D02*
Y58549D01*
Y55682D02*
Y57059D01*
X-67176Y55668D02*
X-67163Y55682D01*
X-68631Y60018D02*
X-67163Y58549D01*
X-69462Y60018D02*
X-68631D01*
X-67190Y51738D02*
X-67176Y51752D01*
Y55668D01*
X-85726Y21420D02*
Y25357D01*
X-85257Y25932D02*
Y30556D01*
X-85726Y25463D02*
X-85257Y25932D01*
X-85726Y25357D02*
Y25463D01*
X-89663Y21420D02*
Y25357D01*
X-90525Y26326D02*
Y30550D01*
X-90525Y34550D02*
X-90497Y34521D01*
X-90525Y34550D02*
X-90525Y34550D01*
X-85286Y34521D02*
X-85257Y34493D01*
X-90497Y34521D02*
X-85286D01*
X-35025Y-30812D02*
Y-24950D01*
Y-30812D02*
X-33994Y-31844D01*
Y-31950D02*
Y-31844D01*
X-19025Y100550D02*
Y104081D01*
X-84525Y-8950D02*
X-84508Y-8933D01*
X-80518D01*
X-80501Y-8916D01*
X-97462Y-8950D02*
Y-4455D01*
X-80972Y18306D02*
Y22647D01*
Y18306D02*
X-80716Y18050D01*
X-90525Y30550D02*
X-90525Y30550D01*
X-90525Y30550D02*
Y34550D01*
X-26138Y36348D02*
X-26105Y36315D01*
X-29394Y36348D02*
X-26138D01*
X-29427Y36380D02*
X-29394Y36348D01*
X18676Y107916D02*
X18676Y107916D01*
X14676Y107916D02*
X18676D01*
X14676D02*
Y112717D01*
X7778Y39136D02*
Y39136D01*
X6794Y40121D02*
X7778Y39136D01*
X8073Y97570D02*
Y102826D01*
X10479Y103783D02*
X10676Y103980D01*
X9029Y103783D02*
X10479D01*
X8073Y102826D02*
X9029Y103783D01*
X14676Y103980D02*
X14676Y103980D01*
X10676Y103980D02*
X14676D01*
X14709Y99597D02*
X14743Y99564D01*
X14709Y99597D02*
Y103946D01*
X14676Y103980D02*
X14709Y103946D01*
X14603Y-6897D02*
X17724Y-8472D01*
X10958Y-5207D02*
X14603Y-6897D01*
X0Y0D02*
X3740Y-1743D01*
X7390Y-3543D01*
X-4866Y9482D02*
X-4856Y9491D01*
X-4866Y5389D02*
Y9482D01*
X-26107Y32271D02*
X-26105Y32269D01*
X-29428Y32271D02*
X-26107D01*
X-29429Y32272D02*
X-29428Y32271D01*
X-23045Y71498D02*
X-21494Y73050D01*
X18678Y99566D02*
X18680Y99564D01*
X18678Y99566D02*
Y103978D01*
X18676Y103980D02*
X18678Y103978D01*
X18680Y95564D02*
X18680Y95564D01*
X18680Y95564D02*
Y99564D01*
X18680Y95564D02*
X18877Y95761D01*
X21209D01*
X21439Y95990D01*
X21545D01*
X18680Y87362D02*
X18736Y87306D01*
X21488D01*
X21544Y87250D01*
X18680Y83351D02*
X18877Y83154D01*
X20815D01*
X21557Y82412D01*
X21664D01*
X18680Y91433D02*
X18877Y91630D01*
X20725D01*
X20994Y52535D02*
X24266D01*
X24392Y52661D01*
X24400D01*
X12975Y52550D02*
X12982Y52543D01*
X17050D01*
X17057Y52535D01*
X17254Y52339D01*
Y49759D02*
Y52339D01*
Y49759D02*
X18463Y48550D01*
X3572Y57426D02*
X5506Y59360D01*
Y60985D01*
X3572Y57319D02*
Y57426D01*
X1507Y59385D02*
Y60985D01*
Y59385D02*
X3572Y57319D01*
X-25973Y71498D02*
X-23045D01*
X-191845Y46015D02*
Y50199D01*
X-191869Y50224D02*
X-191845Y50199D01*
X-191869Y50224D02*
Y50232D01*
X-186494Y60550D02*
X-184994Y62050D01*
X-58909Y12966D02*
X-44243Y-1700D01*
X-80716Y18050D02*
X-58909D01*
Y35550D01*
X-57525Y104070D02*
Y111018D01*
X-87493Y137050D02*
X-64494D01*
X-61993Y139550D01*
X-26493Y-86003D02*
Y-8950D01*
X-36503Y-96013D02*
X-26493Y-86003D01*
X-36505Y-96013D02*
X-36503D01*
X-34993Y-74950D02*
Y-67419D01*
X-35147Y-75104D02*
X-34993Y-74950D01*
X-35223Y-75104D02*
X-35147D01*
X-36371Y-76252D02*
X-35223Y-75104D01*
X-36371Y-76328D02*
Y-76252D01*
X-43525Y-77950D02*
X-37993D01*
X-35025Y-20950D02*
Y-8982D01*
X-123962Y-96535D02*
X-37027D01*
X-36505Y-96013D01*
X-33494Y154396D02*
X-29340D01*
X-76994Y-76950D02*
X-74493Y-74450D01*
X-35962Y105518D02*
X-30962D01*
X-91007Y86639D02*
Y90639D01*
X-84657D01*
X-98608Y26404D02*
X-94462Y30550D01*
X-104493Y26404D02*
X-98608D01*
X-107493Y57081D02*
X-103493D01*
X-95994Y-74450D02*
Y-67419D01*
X-47954Y-87450D02*
Y-78549D01*
X-43033Y-87450D02*
Y-78393D01*
X-52994Y-77950D02*
X-47462D01*
X-48994Y-58919D02*
Y-53474D01*
X-48962Y-64580D02*
Y-59450D01*
X-49832Y-65450D02*
X-48962Y-64580D01*
X-43993Y-58419D02*
Y-53474D01*
X-45025Y-59450D02*
X-43993Y-58419D01*
X-45025Y-62580D02*
Y-59450D01*
Y-62580D02*
X-42155Y-65450D01*
X-49832Y-71966D02*
Y-65450D01*
Y-71966D02*
X-49348Y-72450D01*
X-43639D02*
X-39494D01*
X-56494Y-74450D02*
Y-67419D01*
X-61493Y-77950D02*
X-57962D01*
X-38993Y-55450D02*
Y-53474D01*
Y-55450D02*
X-34993Y-59450D01*
Y-63482D02*
Y-59450D01*
X-56494Y-63482D02*
Y-57950D01*
X-53993Y-55450D01*
Y-53474D01*
X-41655Y-65950D02*
X-38493D01*
X-45025Y-59450D02*
X-40494D01*
X-84525D02*
X-79993D01*
X-81155Y-65950D02*
X-77994D01*
X-95994Y-57950D02*
X-93493Y-55450D01*
X-78493D02*
X-74493Y-59450D01*
X-74493Y-74450D02*
Y-67419D01*
X-83025Y-77950D02*
X-77494D01*
X-84525Y-59450D02*
X-83494Y-58419D01*
Y-53474D01*
X-88494Y-58919D02*
Y-53474D01*
X-87454Y-87450D02*
Y-78549D01*
X-74493Y-63482D02*
Y-59450D01*
X-88462Y-64580D02*
Y-59450D01*
X-84525Y-62580D02*
X-81655Y-65450D01*
X-89332Y-71966D02*
Y-65450D01*
X-82533Y-87450D02*
Y-78393D01*
X-84525Y-62580D02*
Y-59450D01*
X-95994Y-63482D02*
Y-57950D01*
X-110962Y57081D02*
X-107493Y57081D01*
X-94462Y34550D02*
X-94462Y30550D01*
X-104493Y20695D02*
X-101848Y18050D01*
X-58909Y12966D02*
Y18050D01*
X-101848D02*
X-80716D01*
X-63216Y98379D02*
X-57525Y104070D01*
X-68994Y85050D02*
X-63216Y90827D01*
Y98379D01*
X14038Y69181D02*
Y72550D01*
X-27025Y65718D02*
Y68550D01*
X-27193Y65550D02*
X-27025Y65718D01*
Y72550D02*
X-25973Y71498D01*
X-74525Y-20950D02*
X-72493D01*
X-62493Y-10950D01*
Y-8950D01*
D116*
X-130986Y87585D02*
Y99690D01*
X-149789Y58480D02*
X-130986Y77283D01*
X-90989Y115553D02*
X-90962Y128720D01*
X-90995Y113050D02*
X-90989Y115553D01*
X-139766Y81071D02*
Y87431D01*
X-160287Y60550D02*
X-140391Y80447D01*
X-184994Y14550D02*
Y62050D01*
X-169993Y73050D02*
X-162682D01*
X-146007Y94036D02*
X-139672D01*
X-150570Y89473D02*
X-146007Y94036D01*
X-157035Y89473D02*
X-150570D01*
X-154493Y81238D02*
Y86932D01*
X-157035Y89473D02*
X-154493Y86932D01*
X-162682Y73050D02*
X-154493Y81238D01*
X-158612Y91050D02*
X-157035Y89473D01*
X-174104Y60550D02*
X-160287D01*
X-130986Y77283D02*
Y87585D01*
Y99690D02*
X-130964Y99712D01*
X-149789Y47050D02*
Y58480D01*
X-184994Y72050D02*
X-183993Y73050D01*
X-179993D01*
X-184994Y62050D02*
Y72050D01*
X-174104Y47144D02*
Y60550D01*
X-184994Y14550D02*
X-150494Y-19950D01*
X-149789Y29050D02*
Y47050D01*
X-174198D02*
Y47105D01*
Y29050D02*
Y47050D01*
D117*
X-207799Y42125D02*
X-197069D01*
X-211357Y45684D02*
X-207799Y42125D01*
X-216915Y45684D02*
X-211357D01*
X-197069Y42125D02*
X-196994Y42050D01*
X-191845Y42078D02*
X-191819Y42052D01*
X-191868Y42102D02*
X-191845Y42078D01*
X-191819Y36983D02*
Y42052D01*
D118*
X-12098Y28529D02*
Y31836D01*
Y28529D02*
X-12079Y28509D01*
D119*
X6719Y83534D02*
X6811Y83442D01*
X14651D01*
X14743Y83351D01*
X12430Y87362D02*
X14743D01*
X11675Y86607D02*
X12430Y87362D01*
X11252Y86607D02*
X11675D01*
X6719Y85502D02*
X9725D01*
X10830Y86607D01*
X11252D01*
X8727Y87623D02*
X12537Y91433D01*
X6871Y87623D02*
X8727D01*
X8575Y89591D02*
X10041Y91057D01*
X6871Y89591D02*
X8575D01*
X12537Y91433D02*
X14743D01*
X10041Y91057D02*
Y93522D01*
X6719Y87471D02*
X6871Y87623D01*
X10041Y93522D02*
X12084Y95564D01*
X14743D01*
X6719Y89439D02*
X6871Y89591D01*
D120*
X-5178Y60239D02*
X-4924Y59985D01*
Y53145D02*
Y59985D01*
Y53145D02*
X-4825Y53047D01*
X-9624Y59731D02*
X-9115Y60239D01*
X-9624Y57287D02*
Y59731D01*
X-9943Y56967D02*
X-9624Y57287D01*
X-9943Y53047D02*
Y56967D01*
X-5978Y61040D02*
Y70837D01*
Y61040D02*
X-5178Y60239D01*
X-7946Y61408D02*
Y70837D01*
X-9115Y60239D02*
X-7946Y61408D01*
X-4850Y17445D02*
X-4843Y17451D01*
X-4850Y13435D02*
Y17445D01*
X-4856Y13428D02*
X-4850Y13435D01*
X-4881Y25390D02*
X-4862Y25371D01*
Y21407D02*
Y25371D01*
Y21407D02*
X-4843Y21388D01*
X-4918Y29453D02*
X-4899Y29434D01*
Y25408D02*
Y29434D01*
Y25408D02*
X-4881Y25390D01*
X-4872Y38433D02*
X-4825Y38480D01*
X-4872Y33436D02*
Y38433D01*
X-4918Y33390D02*
X-4872Y33436D01*
X-98493Y99050D02*
X-94494Y103050D01*
X-98493Y92050D02*
Y99050D01*
Y92050D02*
X-97083Y90639D01*
X-94944D01*
X-169978Y82581D02*
X-165494D01*
D121*
X-577346Y442928D02*
X-485346D01*
Y433428D02*
Y442928D01*
X-577346Y433428D02*
Y442928D01*
Y433428D02*
X-485346D01*
X-577346Y300328D02*
X-485346D01*
X-577346Y290828D02*
X-485346D01*
Y300328D01*
X-577346Y290828D02*
Y300328D01*
D122*
X-88029Y23244D02*
D03*
D123*
X-84993Y50050D02*
D03*
D124*
X-118504Y-78347D02*
D03*
D125*
X-43882Y163885D02*
D03*
X-39882Y133885D02*
D03*
X-47882D02*
D03*
D126*
X-206875Y23046D02*
D03*
X-206875Y50605D02*
D03*
D127*
X-216915Y27968D02*
D03*
X-216915Y45684D02*
D03*
X-71553Y128996D02*
D03*
X-91238D02*
D03*
X-81395Y163444D02*
D03*
X-71553D02*
D03*
X-91238D02*
D03*
X-71553Y153602D02*
D03*
X-81395D02*
D03*
X-91238D02*
D03*
D128*
X-9057Y42811D02*
D03*
X-3152D02*
D03*
Y48716D02*
D03*
X-9057D02*
D03*
X-6105Y45763D02*
D03*
X-150157Y-62206D02*
D03*
X-169507Y-55131D02*
D03*
X-147588Y-77571D02*
D03*
X-143069Y-77410D02*
D03*
X-141120Y-84069D02*
D03*
X-130922Y-80628D02*
D03*
X-138110Y-68025D02*
D03*
X-84993Y44243D02*
D03*
X-79186Y50050D02*
D03*
X-90801D02*
D03*
X-84993Y55857D02*
D03*
Y50050D02*
D03*
X-149606Y17717D02*
D03*
X-153543D02*
D03*
X-100394Y-104331D02*
D03*
X-64961D02*
D03*
X-74803Y-106299D02*
D03*
X-90551D02*
D03*
X-129921Y-11811D02*
D03*
X-169291Y-31496D02*
D03*
X-121841Y-91827D02*
D03*
X-129921Y-70866D02*
D03*
X-137795Y-43307D02*
D03*
X-141732Y-35433D02*
D03*
X-62598Y64173D02*
D03*
X-70079Y76378D02*
D03*
X-81890D02*
D03*
X-83403Y-17480D02*
D03*
X-96877Y-81753D02*
D03*
X-163716Y100390D02*
D03*
X-12678Y58065D02*
D03*
X439Y32131D02*
D03*
X17517Y-496D02*
D03*
X6691Y4425D02*
D03*
X2754Y6393D02*
D03*
X-12994Y5409D02*
D03*
X-29248Y27747D02*
D03*
X-17594Y36950D02*
D03*
X20896Y27653D02*
D03*
X16828D02*
D03*
X-33664Y16236D02*
D03*
X12618Y27653D02*
D03*
X8462Y27653D02*
D03*
X15943Y44582D02*
D03*
X12793Y39070D02*
D03*
X-8926Y22522D02*
D03*
X-15878Y27921D02*
D03*
X-12079Y28509D02*
D03*
X-70911Y54661D02*
D03*
X-69462Y60018D02*
D03*
X-50994Y65050D02*
D03*
X-63264Y60108D02*
D03*
X-50994Y56550D02*
D03*
X-52107Y69832D02*
D03*
X-22999Y104339D02*
D03*
X-19025Y104081D02*
D03*
X-89663Y21420D02*
D03*
Y25357D02*
D03*
X-85726Y21420D02*
D03*
Y25357D02*
D03*
X-80501Y-8916D02*
D03*
X-29427Y36380D02*
D03*
X-26774Y12299D02*
D03*
X-33664Y11315D02*
D03*
X7778Y39136D02*
D03*
X11252Y86607D02*
D03*
X8073Y97570D02*
D03*
X-29429Y32272D02*
D03*
X4291Y51923D02*
D03*
X-15494Y64850D02*
D03*
X-21494Y73050D02*
D03*
X-15157Y52495D02*
D03*
X21545Y95990D02*
D03*
X21544Y87250D02*
D03*
X21664Y82412D02*
D03*
X23007Y72550D02*
D03*
X21542Y92340D02*
D03*
X24400Y52661D02*
D03*
X-139494Y79050D02*
D03*
Y82550D02*
D03*
X-195999Y50277D02*
D03*
X-197994Y20550D02*
D03*
X-191869Y50232D02*
D03*
X-139494Y134050D02*
D03*
X30507Y96550D02*
D03*
X-6994Y116050D02*
D03*
X-26994Y137550D02*
D03*
X-29495Y148049D02*
D03*
X-53331Y154045D02*
D03*
X-50994Y138885D02*
D03*
X-94494Y103050D02*
D03*
X-90993D02*
D03*
X-44243Y-1700D02*
D03*
X-28522Y126304D02*
D03*
X-58909Y35550D02*
D03*
X-26493Y-8950D02*
D03*
X-34993D02*
D03*
X-62493D02*
D03*
X-34507Y63010D02*
D03*
X-34604Y70089D02*
D03*
X-54493Y150550D02*
D03*
X-37494Y163050D02*
D03*
X-113994Y176550D02*
D03*
X-103993Y178550D02*
D03*
X-76994Y172050D02*
D03*
X-109994Y171050D02*
D03*
Y159050D02*
D03*
X-39444Y77453D02*
D03*
X-35019Y73547D02*
D03*
X-35493Y101550D02*
D03*
X-45994Y50050D02*
D03*
X31007Y67050D02*
D03*
X4507Y123550D02*
D03*
X6591Y108098D02*
D03*
X-51248Y111463D02*
D03*
X-48493Y114550D02*
D03*
X-21494Y124550D02*
D03*
X-26493Y122550D02*
D03*
X-41993Y126550D02*
D03*
X-33994Y45550D02*
D03*
X-29493D02*
D03*
X-33994Y51050D02*
D03*
X-21394Y63250D02*
D03*
X-41960Y108794D02*
D03*
X-20993Y120550D02*
D03*
X-34881Y96664D02*
D03*
X-27193Y65550D02*
D03*
X9007Y63850D02*
D03*
X3572Y57319D02*
D03*
X24006Y61550D02*
D03*
X14006Y69150D02*
D03*
X13903Y113597D02*
D03*
X-22994Y93550D02*
D03*
X-52994Y143050D02*
D03*
X-28493Y154050D02*
D03*
X-52994Y147050D02*
D03*
X-52494Y158050D02*
D03*
X-105493Y123050D02*
D03*
Y144050D02*
D03*
X-35962Y105518D02*
D03*
X-87994Y137050D02*
D03*
X-57494Y111050D02*
D03*
X-34993Y144050D02*
D03*
X-55493Y36550D02*
D03*
X-87994Y75050D02*
D03*
X-94944Y82671D02*
D03*
X-94976Y94639D02*
D03*
X-112994Y60050D02*
D03*
X-105993Y65050D02*
D03*
X-125578Y55636D02*
D03*
X-135494Y51050D02*
D03*
X-121659Y51995D02*
D03*
X-115993Y57050D02*
D03*
X-116493Y43050D02*
D03*
X-120993D02*
D03*
X-53493Y86550D02*
D03*
X-55993Y81550D02*
D03*
X-58994Y77550D02*
D03*
X-50994Y91550D02*
D03*
X-39220Y91823D02*
D03*
X-38959Y81572D02*
D03*
X-38903Y86550D02*
D03*
X53900Y87598D02*
D03*
X55920Y82512D02*
D03*
X55247Y76939D02*
D03*
X52779Y71778D02*
D03*
X50385Y66878D02*
D03*
X-173994Y78518D02*
D03*
X-169962Y86518D02*
D03*
X-79993Y-59450D02*
D03*
X-39494Y-72450D02*
D03*
X-61493Y-77950D02*
D03*
X-33525Y-81482D02*
D03*
X-40494Y-59450D02*
D03*
X-38493Y-65950D02*
D03*
X-77994D02*
D03*
X-78993Y-72950D02*
D03*
X-110994Y57050D02*
D03*
X-104993Y33050D02*
D03*
X-72993Y30050D02*
D03*
X-69994Y65050D02*
D03*
X-85493Y68550D02*
D03*
X-43929Y-17491D02*
D03*
X-44993Y-12950D02*
D03*
X-57962Y-12919D02*
D03*
X-38993Y-5450D02*
D03*
X-62493D02*
D03*
X13903Y133861D02*
D03*
X-120542Y133444D02*
D03*
X-122456Y130413D02*
D03*
X-25709Y128820D02*
D03*
X-84993Y120722D02*
D03*
X-79081Y94542D02*
D03*
X-85348Y108659D02*
D03*
X-121305Y64116D02*
D03*
X-97462Y-4455D02*
D03*
X-100494Y33050D02*
D03*
X-116493Y37050D02*
D03*
X-100494Y61050D02*
D03*
X-53817Y114373D02*
D03*
X-2716Y89716D02*
D03*
X1784Y85216D02*
D03*
X2129Y89359D02*
D03*
X2284Y79716D02*
D03*
X-2216D02*
D03*
X-2716Y85216D02*
D03*
X-7716Y89716D02*
D03*
Y85216D02*
D03*
Y79716D02*
D03*
X-12216D02*
D03*
Y85216D02*
D03*
Y89716D02*
D03*
X-120796Y38796D02*
D03*
X-121651Y29620D02*
D03*
X-112400Y21199D02*
D03*
X-68810Y22204D02*
D03*
X-66654Y40413D02*
D03*
X-73666Y38089D02*
D03*
X-92477Y12814D02*
D03*
X-104268Y13957D02*
D03*
X-42052Y4543D02*
D03*
Y14173D02*
D03*
X-54957Y30820D02*
D03*
X-55541Y21931D02*
D03*
X-52110Y11366D02*
D03*
X-176414Y67088D02*
D03*
X-147994Y83550D02*
D03*
X-137457Y-94339D02*
D03*
X-142338Y-92056D02*
D03*
X-148448Y-89036D02*
D03*
X-157016Y-84471D02*
D03*
X-164039Y-79801D02*
D03*
X-169131Y-76009D02*
D03*
X-174468Y-71268D02*
D03*
X-180157Y-66598D02*
D03*
X-184652Y-61927D02*
D03*
X-189954Y-56098D02*
D03*
X-194414Y-50620D02*
D03*
X-199365Y-43808D02*
D03*
X-203368Y-37417D02*
D03*
X-207582Y-30253D02*
D03*
X-210778Y-23686D02*
D03*
X-213517Y-17260D02*
D03*
X-216361Y-9394D02*
D03*
X-218679Y-1810D02*
D03*
X-220399Y5073D02*
D03*
X-222120Y13395D02*
D03*
X-223138Y20770D02*
D03*
X-223805Y28495D02*
D03*
X-224051Y36536D02*
D03*
X-222857Y54551D02*
D03*
X-221699Y61960D02*
D03*
X-219834Y71208D02*
D03*
X-217775Y78479D02*
D03*
X-215569Y85415D02*
D03*
X-212290Y93860D02*
D03*
X-207966Y103001D02*
D03*
X-203584Y110315D02*
D03*
X-198563Y117367D02*
D03*
X-192411Y114320D02*
D03*
X-186055Y108022D02*
D03*
X-205121Y89837D02*
D03*
X-195052Y84059D02*
D03*
X50528Y94898D02*
D03*
X47962Y100862D02*
D03*
X37609Y118407D02*
D03*
X33361Y124417D02*
D03*
X28409Y130628D02*
D03*
X23185Y135707D02*
D03*
X17439Y141540D02*
D03*
X10387Y147460D02*
D03*
X-11294Y126975D02*
D03*
X-2420Y127032D02*
D03*
X-33494Y118550D02*
D03*
X-15647Y152298D02*
D03*
X-11123Y160898D02*
D03*
X-17735Y165323D02*
D03*
X-25491Y168654D02*
D03*
X-33793Y171985D02*
D03*
X-44084Y175167D02*
D03*
X-54823Y177702D02*
D03*
X-63473Y179243D02*
D03*
X-75704Y180296D02*
D03*
X-89986Y179753D02*
D03*
X-100516Y172793D02*
D03*
X-102106Y150543D02*
D03*
X-122888Y170629D02*
D03*
X-141789Y164976D02*
D03*
X-135489Y153436D02*
D03*
X-159042Y154142D02*
D03*
X-149915Y135594D02*
D03*
X-134665Y117694D02*
D03*
X-165337Y93797D02*
D03*
X-171215Y93743D02*
D03*
X-168468Y112092D02*
D03*
X-168935Y106159D02*
D03*
X-161586Y51570D02*
D03*
X-160932Y41206D02*
D03*
X-161804Y32479D02*
D03*
X-159449Y13780D02*
D03*
X-169993Y13050D02*
D03*
X-130823Y15788D02*
D03*
X-136823Y22006D02*
D03*
X-121877Y6624D02*
D03*
X-112277Y-2321D02*
D03*
X-69994Y-24450D02*
D03*
X-73493Y-30950D02*
D03*
X-63994Y-16950D02*
D03*
X-58994Y-23950D02*
D03*
Y-34950D02*
D03*
X-72993Y-42450D02*
D03*
X-84993D02*
D03*
X-93493Y-42950D02*
D03*
X-53993Y-42450D02*
D03*
X-47493D02*
D03*
X-40494Y-42950D02*
D03*
X-33994Y-31950D02*
D03*
X-32493Y3550D02*
D03*
X-26994Y4550D02*
D03*
X-43494Y30050D02*
D03*
X-50994Y41050D02*
D03*
X-60993Y82550D02*
D03*
X-84993Y63550D02*
D03*
X-96993Y65550D02*
D03*
Y75550D02*
D03*
X-84993Y83550D02*
D03*
X-78993Y89050D02*
D03*
Y102050D02*
D03*
X-69494Y91050D02*
D03*
X-33994Y-51450D02*
D03*
X-63494Y-44450D02*
D03*
X-65494Y-52950D02*
D03*
X-66493Y-81950D02*
D03*
X-58494Y-87950D02*
D03*
X-73493Y-87450D02*
D03*
X-101805Y-87013D02*
D03*
X-109994Y-86950D02*
D03*
X-135827Y-7874D02*
D03*
X-98993Y-15950D02*
D03*
X-99493Y-29950D02*
D03*
Y-47450D02*
D03*
X-104993Y-70450D02*
D03*
X-143993Y-48950D02*
D03*
X-157493Y-51450D02*
D03*
X-163994Y-66450D02*
D03*
X-180493Y-48950D02*
D03*
X-168993Y-42450D02*
D03*
X-189994Y-38950D02*
D03*
X-159494Y-33950D02*
D03*
X-177994Y-28450D02*
D03*
X-170493Y-16950D02*
D03*
X-183993Y-1450D02*
D03*
X-199588Y62070D02*
D03*
X-193993Y69050D02*
D03*
X-208994Y64050D02*
D03*
X-209185Y33081D02*
D03*
X-206493Y12550D02*
D03*
X-202494Y550D02*
D03*
X-152494Y-450D02*
D03*
D129*
X-157413Y112624D02*
D03*
D130*
X-150342Y119695D02*
D03*
D131*
X-120533Y-80667D02*
D03*
X-125454D02*
D03*
X-82533Y-87450D02*
D03*
X-87454D02*
D03*
X-47954D02*
D03*
X-43033D02*
D03*
D132*
X-3246Y-76899D02*
D03*
X-193993Y-17950D02*
D03*
Y96223D02*
D03*
X-3246Y151251D02*
D03*
D133*
X-568346Y493627D02*
Y485628D01*
X-563775D01*
X-556806D02*
X-559853Y493627D01*
X-562899Y485628D01*
X-561757Y488294D02*
X-557948D01*
X-554939Y493627D02*
X-551892Y489818D01*
Y485628D01*
X-548845Y493627D02*
X-551892Y489818D01*
X-542866Y493627D02*
X-547817D01*
Y485628D01*
X-542866D01*
X-547817Y489818D02*
X-544770D01*
X-541533Y493627D02*
Y485628D01*
Y493627D02*
X-538105D01*
X-536962Y493246D01*
X-536581Y492865D01*
X-536200Y492103D01*
Y491341D01*
X-536581Y490580D01*
X-536962Y490199D01*
X-538105Y489818D01*
X-541533D01*
X-538867D02*
X-536200Y485628D01*
X-528126Y493627D02*
Y487914D01*
X-527745Y486771D01*
X-526983Y486009D01*
X-525841Y485628D01*
X-525079D01*
X-523936Y486009D01*
X-523175Y486771D01*
X-522794Y487914D01*
Y493627D01*
X-515252Y492484D02*
X-516014Y493246D01*
X-517157Y493627D01*
X-518680D01*
X-519823Y493246D01*
X-520585Y492484D01*
Y491722D01*
X-520204Y490961D01*
X-519823Y490580D01*
X-519061Y490199D01*
X-516776Y489437D01*
X-516014Y489056D01*
X-515633Y488675D01*
X-515252Y487914D01*
Y486771D01*
X-516014Y486009D01*
X-517157Y485628D01*
X-518680D01*
X-519823Y486009D01*
X-520585Y486771D01*
X-507369Y485628D02*
X-510416Y493627D01*
X-513462Y485628D01*
X-512320Y488294D02*
X-508511D01*
X-499789Y491722D02*
X-500170Y492484D01*
X-500932Y493246D01*
X-501693Y493627D01*
X-503217D01*
X-503979Y493246D01*
X-504740Y492484D01*
X-505121Y491722D01*
X-505502Y490580D01*
Y488675D01*
X-505121Y487533D01*
X-504740Y486771D01*
X-503979Y486009D01*
X-503217Y485628D01*
X-501693D01*
X-500932Y486009D01*
X-500170Y486771D01*
X-499789Y487533D01*
Y488675D01*
X-501693D02*
X-499789D01*
X-493010Y493627D02*
X-497961D01*
Y485628D01*
X-493010D01*
X-497961Y489818D02*
X-494914D01*
M02*
