G04*
G04 #@! TF.GenerationSoftware,Altium Limited,Altium Designer,20.0.2 (26)*
G04*
G04 Layer_Physical_Order=2*
G04 Layer_Color=16711680*
%FSLAX25Y25*%
%MOIN*%
G70*
G01*
G75*
%ADD10C,0.00787*%
%ADD11C,0.01000*%
%ADD12C,0.00800*%
%ADD14C,0.00500*%
%ADD17C,0.03937*%
%ADD18R,0.19000X0.09500*%
%ADD114C,0.02362*%
%ADD115C,0.01968*%
%ADD116C,0.05906*%
%ADD119C,0.00799*%
%ADD121C,0.00850*%
%ADD125C,0.03937*%
%ADD126C,0.08661*%
%ADD127C,0.07874*%
%ADD128C,0.02362*%
%ADD129C,0.07087*%
%ADD130P,0.10022X4X270.0*%
%ADD131O,0.03543X0.05118*%
%ADD132C,0.11811*%
%ADD133C,0.01180*%
%ADD134C,0.03150*%
%ADD135R,0.09055X0.12992*%
G36*
X-77413Y181889D02*
X-74417Y181796D01*
X-71423Y181641D01*
X-68434Y181424D01*
X-65449Y181146D01*
X-62471Y180806D01*
X-59500Y180404D01*
X-56538Y179942D01*
X-53587Y179418D01*
X-50647Y178833D01*
X-47719Y178187D01*
X-44806Y177481D01*
X-41908Y176716D01*
X-39026Y175890D01*
X-36162Y175005D01*
X-33317Y174061D01*
X-30492Y173058D01*
X-27688Y171998D01*
X-24907Y170879D01*
X-22149Y169703D01*
X-19417Y168471D01*
X-16710Y167182D01*
X-14031Y165838D01*
X-11380Y164439D01*
X-8758Y162985D01*
X-6167Y161477D01*
X-5826Y161269D01*
X-5900Y160728D01*
X-6289Y160619D01*
X-7015Y160351D01*
X-7717Y160027D01*
X-8392Y159649D01*
X-9035Y159220D01*
X-9643Y158741D01*
X-10211Y158216D01*
X-10736Y157648D01*
X-11214Y157040D01*
X-11644Y156397D01*
X-12022Y155722D01*
X-12346Y155020D01*
X-12614Y154294D01*
X-12823Y153550D01*
X-12974Y152791D01*
X-13065Y152023D01*
X-13096Y151251D01*
X-13065Y150478D01*
X-12974Y149710D01*
X-12823Y148951D01*
X-12614Y148207D01*
X-12346Y147481D01*
X-12022Y146779D01*
X-11644Y146104D01*
X-11214Y145461D01*
X-10736Y144853D01*
X-10211Y144286D01*
X-9643Y143761D01*
X-9035Y143282D01*
X-8392Y142852D01*
X-7717Y142474D01*
X-7015Y142150D01*
X-6289Y141883D01*
X-5545Y141673D01*
X-4786Y141522D01*
X-4018Y141431D01*
X-3246Y141400D01*
X-2473Y141431D01*
X-1705Y141522D01*
X-946Y141673D01*
X-202Y141883D01*
X524Y142150D01*
X1226Y142474D01*
X1901Y142852D01*
X2544Y143282D01*
X3152Y143761D01*
X3720Y144286D01*
X4245Y144853D01*
X4723Y145461D01*
X5153Y146104D01*
X5531Y146779D01*
X5855Y147481D01*
X6123Y148207D01*
X6333Y148951D01*
X6483Y149710D01*
X6574Y150478D01*
X6605Y151251D01*
X6574Y152023D01*
X6537Y152336D01*
X7009Y152605D01*
X8674Y151337D01*
X11021Y149471D01*
X13328Y147558D01*
X15595Y145597D01*
X17822Y143589D01*
X20006Y141536D01*
X22147Y139439D01*
X24245Y137297D01*
X26298Y135113D01*
X28305Y132887D01*
X30266Y130619D01*
X32180Y128312D01*
X34045Y125965D01*
X35862Y123581D01*
X37629Y121159D01*
X39346Y118702D01*
X41011Y116209D01*
X42625Y113683D01*
X44186Y111124D01*
X45693Y108533D01*
X47147Y105912D01*
X48547Y103261D01*
X49891Y100581D01*
X51180Y97875D01*
X52412Y95142D01*
X53588Y92385D01*
X54706Y89603D01*
X55767Y86800D01*
X56770Y83975D01*
X57714Y81129D01*
X58145Y79735D01*
X-24178Y-96808D01*
X-24907Y-97118D01*
X-27688Y-98237D01*
X-30492Y-99298D01*
X-33317Y-100300D01*
X-36162Y-101244D01*
X-39026Y-102129D01*
X-41908Y-102955D01*
X-44806Y-103721D01*
X-47719Y-104426D01*
X-50647Y-105072D01*
X-53587Y-105657D01*
X-56538Y-106181D01*
X-59500Y-106643D01*
X-62471Y-107045D01*
X-65449Y-107385D01*
X-68434Y-107663D01*
X-71423Y-107880D01*
X-74417Y-108035D01*
X-77413Y-108128D01*
X-80411Y-108159D01*
X-83408Y-108128D01*
X-86405Y-108035D01*
X-89398Y-107880D01*
X-92388Y-107663D01*
X-95373Y-107385D01*
X-98351Y-107045D01*
X-101322Y-106643D01*
X-104283Y-106181D01*
X-107235Y-105657D01*
X-110175Y-105072D01*
X-113102Y-104426D01*
X-116016Y-103721D01*
X-118914Y-102955D01*
X-121796Y-102129D01*
X-124660Y-101244D01*
X-127505Y-100300D01*
X-130330Y-99298D01*
X-133134Y-98237D01*
X-135915Y-97118D01*
X-138672Y-95943D01*
X-141405Y-94710D01*
X-144112Y-93422D01*
X-146791Y-92077D01*
X-149442Y-90678D01*
X-152063Y-89224D01*
X-154654Y-87716D01*
X-157213Y-86155D01*
X-159740Y-84541D01*
X-162232Y-82876D01*
X-164690Y-81160D01*
X-167111Y-79393D01*
X-169496Y-77576D01*
X-171842Y-75710D01*
X-174150Y-73797D01*
X-176417Y-71836D01*
X-178643Y-69828D01*
X-180828Y-67775D01*
X-182969Y-65678D01*
X-185067Y-63536D01*
X-187120Y-61352D01*
X-189127Y-59126D01*
X-191088Y-56858D01*
X-193002Y-54551D01*
X-194867Y-52205D01*
X-196684Y-49820D01*
X-198451Y-47398D01*
X-200167Y-44941D01*
X-201833Y-42448D01*
X-203446Y-39922D01*
X-205007Y-37363D01*
X-206515Y-34772D01*
X-207969Y-32151D01*
X-209368Y-29500D01*
X-210713Y-26820D01*
X-212001Y-24114D01*
X-213234Y-21381D01*
X-214410Y-18624D01*
X-215528Y-15843D01*
X-216589Y-13039D01*
X-217591Y-10214D01*
X-218535Y-7369D01*
X-219420Y-4504D01*
X-220246Y-1623D01*
X-221012Y1275D01*
X-221718Y4189D01*
X-222363Y7116D01*
X-222948Y10056D01*
X-223472Y13008D01*
X-223935Y15969D01*
X-224336Y18940D01*
X-224676Y21918D01*
X-224955Y24903D01*
X-225171Y27893D01*
X-225326Y30887D01*
X-225419Y33883D01*
X-225450Y36880D01*
X-225419Y39878D01*
X-225326Y42874D01*
X-225171Y45868D01*
X-224955Y48858D01*
X-224676Y51842D01*
X-224336Y54821D01*
X-223935Y57791D01*
X-223472Y60753D01*
X-222948Y63705D01*
X-222363Y66645D01*
X-221718Y69572D01*
X-221012Y72486D01*
X-220246Y75384D01*
X-219420Y78265D01*
X-218535Y81129D01*
X-217591Y83975D01*
X-216589Y86800D01*
X-215528Y89603D01*
X-214410Y92385D01*
X-213234Y95142D01*
X-212001Y97875D01*
X-210713Y100581D01*
X-209368Y103261D01*
X-207969Y105912D01*
X-206515Y108533D01*
X-205007Y111124D01*
X-203446Y113683D01*
X-201833Y116209D01*
X-200167Y118702D01*
X-198451Y121159D01*
X-196684Y123581D01*
X-194867Y125965D01*
X-193002Y128312D01*
X-191088Y130619D01*
X-189127Y132887D01*
X-187120Y135113D01*
X-185067Y137297D01*
X-182969Y139439D01*
X-180828Y141536D01*
X-178643Y143589D01*
X-176417Y145597D01*
X-174150Y147558D01*
X-171842Y149471D01*
X-169496Y151337D01*
X-167111Y153154D01*
X-164690Y154920D01*
X-162232Y156637D01*
X-159740Y158302D01*
X-157213Y159916D01*
X-154654Y161477D01*
X-152063Y162985D01*
X-149442Y164439D01*
X-146791Y165838D01*
X-144112Y167182D01*
X-141405Y168471D01*
X-138672Y169703D01*
X-135915Y170879D01*
X-133134Y171998D01*
X-130330Y173058D01*
X-127505Y174061D01*
X-124660Y175005D01*
X-121796Y175890D01*
X-118914Y176716D01*
X-116016Y177481D01*
X-113102Y178187D01*
X-110175Y178833D01*
X-107235Y179418D01*
X-104283Y179942D01*
X-101322Y180404D01*
X-98351Y180806D01*
X-95373Y181146D01*
X-92388Y181424D01*
X-89398Y181641D01*
X-86405Y181796D01*
X-83408Y181889D01*
X-80411Y181920D01*
X-77413Y181889D01*
D02*
G37*
%LPC*%
G36*
X-71553Y169357D02*
X-72132Y169329D01*
X-72706Y169244D01*
X-73269Y169103D01*
X-73815Y168907D01*
X-74340Y168659D01*
X-74838Y168361D01*
X-75304Y168015D01*
X-75734Y167625D01*
X-76123Y167195D01*
X-76163Y167142D01*
X-76785D01*
X-76825Y167195D01*
X-77214Y167625D01*
X-77644Y168015D01*
X-78110Y168361D01*
X-78608Y168659D01*
X-79133Y168907D01*
X-79679Y169103D01*
X-80242Y169244D01*
X-80816Y169329D01*
X-81395Y169357D01*
X-81975Y169329D01*
X-82549Y169244D01*
X-83112Y169103D01*
X-83658Y168907D01*
X-84182Y168659D01*
X-84680Y168361D01*
X-85146Y168015D01*
X-85576Y167625D01*
X-85966Y167195D01*
X-86005Y167142D01*
X-86628D01*
X-86667Y167195D01*
X-87057Y167625D01*
X-87487Y168015D01*
X-87953Y168361D01*
X-88451Y168659D01*
X-88975Y168907D01*
X-89521Y169103D01*
X-90084Y169244D01*
X-90658Y169329D01*
X-91238Y169357D01*
X-91817Y169329D01*
X-92391Y169244D01*
X-92954Y169103D01*
X-93500Y168907D01*
X-94025Y168659D01*
X-94523Y168361D01*
X-94989Y168015D01*
X-95419Y167625D01*
X-95808Y167195D01*
X-96154Y166729D01*
X-96452Y166232D01*
X-96700Y165707D01*
X-96896Y165161D01*
X-97037Y164598D01*
X-97122Y164024D01*
X-97150Y163444D01*
X-97122Y162865D01*
X-97037Y162291D01*
X-96896Y161728D01*
X-96700Y161182D01*
X-96452Y160657D01*
X-96154Y160160D01*
X-95808Y159694D01*
X-95419Y159264D01*
X-94989Y158874D01*
X-94936Y158835D01*
Y158212D01*
X-94989Y158173D01*
X-95419Y157783D01*
X-95808Y157353D01*
X-96154Y156887D01*
X-96452Y156389D01*
X-96700Y155865D01*
X-96896Y155318D01*
X-97037Y154755D01*
X-97122Y154182D01*
X-97150Y153602D01*
X-97122Y153023D01*
X-97037Y152448D01*
X-96896Y151886D01*
X-96700Y151339D01*
X-96452Y150815D01*
X-96154Y150317D01*
X-95808Y149851D01*
X-95419Y149421D01*
X-94989Y149031D01*
X-94523Y148686D01*
X-94025Y148388D01*
X-93500Y148139D01*
X-92954Y147944D01*
X-92391Y147803D01*
X-91817Y147718D01*
X-91238Y147689D01*
X-90658Y147718D01*
X-90084Y147803D01*
X-89521Y147944D01*
X-88975Y148139D01*
X-88451Y148388D01*
X-87953Y148686D01*
X-87487Y149031D01*
X-87057Y149421D01*
X-86667Y149851D01*
X-86628Y149904D01*
X-86005D01*
X-85966Y149851D01*
X-85576Y149421D01*
X-85146Y149031D01*
X-84680Y148686D01*
X-84182Y148388D01*
X-83658Y148139D01*
X-83112Y147944D01*
X-82549Y147803D01*
X-81975Y147718D01*
X-81395Y147689D01*
X-80816Y147718D01*
X-80242Y147803D01*
X-79679Y147944D01*
X-79133Y148139D01*
X-78608Y148388D01*
X-78110Y148686D01*
X-77644Y149031D01*
X-77214Y149421D01*
X-76825Y149851D01*
X-76785Y149904D01*
X-76163D01*
X-76123Y149851D01*
X-75734Y149421D01*
X-75304Y149031D01*
X-74838Y148686D01*
X-74340Y148388D01*
X-73815Y148139D01*
X-73269Y147944D01*
X-72706Y147803D01*
X-72132Y147718D01*
X-71553Y147689D01*
X-70973Y147718D01*
X-70399Y147803D01*
X-69836Y147944D01*
X-69290Y148139D01*
X-68765Y148388D01*
X-68268Y148686D01*
X-67802Y149031D01*
X-67372Y149421D01*
X-66982Y149851D01*
X-66637Y150317D01*
X-66338Y150815D01*
X-66090Y151339D01*
X-65895Y151886D01*
X-65754Y152448D01*
X-65669Y153023D01*
X-65640Y153602D01*
X-65669Y154182D01*
X-65754Y154755D01*
X-65895Y155318D01*
X-66090Y155865D01*
X-66338Y156389D01*
X-66637Y156887D01*
X-66982Y157353D01*
X-67372Y157783D01*
X-67802Y158173D01*
X-67855Y158212D01*
Y158835D01*
X-67802Y158874D01*
X-67372Y159264D01*
X-66982Y159694D01*
X-66637Y160160D01*
X-66338Y160657D01*
X-66090Y161182D01*
X-65895Y161728D01*
X-65754Y162291D01*
X-65669Y162865D01*
X-65640Y163444D01*
X-65669Y164024D01*
X-65754Y164598D01*
X-65895Y165161D01*
X-66090Y165707D01*
X-66338Y166232D01*
X-66637Y166729D01*
X-66982Y167195D01*
X-67372Y167625D01*
X-67802Y168015D01*
X-68268Y168361D01*
X-68765Y168659D01*
X-69290Y168907D01*
X-69836Y169103D01*
X-70399Y169244D01*
X-70973Y169329D01*
X-71553Y169357D01*
D02*
G37*
G36*
X-43882Y167829D02*
X-44323Y167804D01*
X-44759Y167730D01*
X-45184Y167607D01*
X-45592Y167438D01*
X-45980Y167224D01*
X-46340Y166968D01*
X-46670Y166674D01*
X-46965Y166344D01*
X-47220Y165983D01*
X-47434Y165596D01*
X-47604Y165188D01*
X-47726Y164763D01*
X-47800Y164327D01*
X-47825Y163885D01*
X-47800Y163444D01*
X-47726Y163008D01*
X-47604Y162583D01*
X-47434Y162174D01*
X-47220Y161787D01*
X-47131Y161662D01*
X-47128Y161525D01*
X-47274Y161112D01*
X-47315Y161069D01*
X-47463Y161008D01*
X-47782Y160812D01*
X-48066Y160570D01*
X-48309Y160285D01*
X-48428Y160091D01*
X-51658D01*
X-51658Y160091D01*
X-51710Y160086D01*
X-51817Y160131D01*
X-52151Y160211D01*
X-52494Y160238D01*
X-52836Y160211D01*
X-53170Y160131D01*
X-53487Y159999D01*
X-53780Y159820D01*
X-54040Y159597D01*
X-54264Y159336D01*
X-54443Y159043D01*
X-54574Y158726D01*
X-54654Y158392D01*
X-54681Y158050D01*
X-54654Y157708D01*
X-54574Y157374D01*
X-54443Y157056D01*
X-54264Y156764D01*
X-54040Y156503D01*
X-53780Y156280D01*
X-53487Y156100D01*
X-53170Y155969D01*
X-52836Y155889D01*
X-52494Y155862D01*
X-52151Y155889D01*
X-51817Y155969D01*
X-51500Y156100D01*
X-51208Y156280D01*
X-50946Y156503D01*
X-50723Y156764D01*
X-50544Y157056D01*
X-50413Y157374D01*
X-50339Y157679D01*
X-48428D01*
X-48309Y157485D01*
X-48066Y157201D01*
X-47782Y156958D01*
X-47463Y156763D01*
X-47187Y156649D01*
X-47134Y156385D01*
X-47187Y156122D01*
X-47463Y156008D01*
X-47782Y155813D01*
X-48066Y155570D01*
X-48309Y155286D01*
X-48504Y154967D01*
X-48647Y154622D01*
X-48734Y154258D01*
X-48764Y153885D01*
X-48734Y153513D01*
X-48647Y153149D01*
X-48504Y152804D01*
X-48309Y152485D01*
X-48066Y152201D01*
X-47782Y151958D01*
X-47463Y151763D01*
X-47187Y151648D01*
X-47134Y151385D01*
X-47187Y151122D01*
X-47463Y151008D01*
X-47782Y150812D01*
X-48066Y150570D01*
X-48309Y150285D01*
X-48428Y150091D01*
X-51158D01*
X-51393Y150068D01*
X-51619Y149999D01*
X-51828Y149888D01*
X-52011Y149738D01*
X-52560Y149189D01*
X-52651Y149211D01*
X-52994Y149238D01*
X-53336Y149211D01*
X-53670Y149130D01*
X-53987Y148999D01*
X-54280Y148820D01*
X-54540Y148597D01*
X-54764Y148336D01*
X-54943Y148043D01*
X-55074Y147726D01*
X-55154Y147392D01*
X-55181Y147050D01*
X-55154Y146707D01*
X-55074Y146374D01*
X-54943Y146056D01*
X-54764Y145764D01*
X-54540Y145503D01*
X-54366Y145353D01*
X-54317Y145050D01*
X-54366Y144746D01*
X-54540Y144597D01*
X-54764Y144336D01*
X-54943Y144043D01*
X-55074Y143726D01*
X-55154Y143392D01*
X-55181Y143050D01*
X-55154Y142708D01*
X-55133Y142616D01*
X-55346Y142402D01*
X-55496Y142220D01*
X-55607Y142011D01*
X-55676Y141785D01*
X-55699Y141550D01*
X-55699Y141550D01*
Y135614D01*
X-56161Y135423D01*
X-66641Y145902D01*
X-66824Y146052D01*
X-67032Y146164D01*
X-67258Y146232D01*
X-67493Y146256D01*
X-67494Y146256D01*
X-100493D01*
X-100494Y146256D01*
X-100729Y146232D01*
X-100955Y146164D01*
X-101163Y146052D01*
X-101346Y145902D01*
X-107493Y139756D01*
X-123072D01*
X-123072Y139756D01*
X-123307Y139732D01*
X-123533Y139664D01*
X-123741Y139552D01*
X-123924Y139402D01*
X-128846Y134481D01*
X-128996Y134298D01*
X-129107Y134089D01*
X-129176Y133863D01*
X-129199Y133628D01*
X-129199Y133628D01*
Y118122D01*
X-165721Y81601D01*
X-165870Y81419D01*
X-165982Y81210D01*
X-166051Y80984D01*
X-166074Y80749D01*
X-166074Y80748D01*
Y66562D01*
X-177395Y55240D01*
X-194272D01*
X-194507Y55217D01*
X-194733Y55148D01*
X-194942Y55037D01*
X-195124Y54887D01*
X-196851Y53160D01*
X-197001Y52977D01*
X-197113Y52769D01*
X-197181Y52543D01*
X-197204Y52307D01*
X-197204Y52307D01*
Y52096D01*
X-197285Y52047D01*
X-197546Y51824D01*
X-197769Y51563D01*
X-197948Y51270D01*
X-198080Y50953D01*
X-198160Y50619D01*
X-198187Y50277D01*
X-198160Y49935D01*
X-198080Y49601D01*
X-197948Y49284D01*
X-197769Y48991D01*
X-197546Y48730D01*
X-197285Y48507D01*
X-196992Y48328D01*
X-196675Y48196D01*
X-196341Y48116D01*
X-195999Y48089D01*
X-195657Y48116D01*
X-195323Y48196D01*
X-195005Y48328D01*
X-194713Y48507D01*
X-194452Y48730D01*
X-194229Y48991D01*
X-193654Y48971D01*
X-193639Y48946D01*
X-193416Y48685D01*
X-193155Y48462D01*
X-192862Y48283D01*
X-192545Y48152D01*
X-192211Y48071D01*
X-191869Y48044D01*
X-191527Y48071D01*
X-191193Y48152D01*
X-190876Y48283D01*
X-190615Y48443D01*
X-174245D01*
X-173966Y48465D01*
X-173692Y48530D01*
X-173433Y48638D01*
X-173193Y48784D01*
X-172980Y48967D01*
X-160407Y61540D01*
X-160224Y61753D01*
X-160078Y61993D01*
X-159970Y62252D01*
X-159905Y62525D01*
X-159883Y62805D01*
Y79363D01*
X-114486Y124760D01*
X-107493D01*
X-107213Y124782D01*
X-106940Y124848D01*
X-106681Y124955D01*
X-106441Y125102D01*
X-106228Y125284D01*
X-96252Y135260D01*
X-92592D01*
X-92530Y134760D01*
X-92954Y134654D01*
X-93500Y134458D01*
X-94025Y134210D01*
X-94523Y133912D01*
X-94989Y133566D01*
X-95419Y133177D01*
X-95808Y132747D01*
X-96154Y132281D01*
X-96452Y131783D01*
X-96700Y131258D01*
X-96896Y130712D01*
X-97037Y130149D01*
X-97122Y129575D01*
X-97150Y128996D01*
X-97122Y128416D01*
X-97037Y127842D01*
X-96896Y127279D01*
X-96700Y126733D01*
X-96452Y126208D01*
X-96154Y125711D01*
X-95808Y125245D01*
X-95419Y124815D01*
X-94989Y124425D01*
X-94523Y124080D01*
X-94025Y123781D01*
X-93500Y123533D01*
X-92954Y123338D01*
X-92391Y123197D01*
X-91817Y123111D01*
X-91238Y123083D01*
X-90658Y123111D01*
X-90084Y123197D01*
X-89521Y123338D01*
X-88975Y123533D01*
X-88451Y123781D01*
X-87953Y124080D01*
X-87487Y124425D01*
X-87057Y124815D01*
X-86667Y125245D01*
X-86322Y125711D01*
X-86023Y126208D01*
X-85775Y126733D01*
X-85580Y127279D01*
X-85439Y127842D01*
X-85354Y128416D01*
X-85325Y128996D01*
X-85354Y129575D01*
X-85439Y130149D01*
X-85580Y130712D01*
X-85775Y131258D01*
X-86023Y131783D01*
X-86322Y132281D01*
X-86667Y132747D01*
X-87057Y133177D01*
X-87487Y133566D01*
X-87953Y133912D01*
X-88451Y134210D01*
X-88975Y134458D01*
X-89521Y134654D01*
X-89946Y134760D01*
X-89884Y135260D01*
X-89247D01*
X-88987Y135100D01*
X-88670Y134969D01*
X-88336Y134889D01*
X-87994Y134862D01*
X-87651Y134889D01*
X-87317Y134969D01*
X-87000Y135100D01*
X-86708Y135280D01*
X-86446Y135503D01*
X-86224Y135764D01*
X-86044Y136056D01*
X-85913Y136374D01*
X-85833Y136707D01*
X-85806Y137050D01*
X-85833Y137392D01*
X-85913Y137726D01*
X-86044Y138043D01*
X-86186Y138275D01*
X-86125Y138489D01*
X-85941Y138775D01*
X-69643D01*
X-51506Y120638D01*
X-51506Y120638D01*
X-51233Y120399D01*
X-50931Y120197D01*
X-50606Y120037D01*
X-50262Y119920D01*
X-49906Y119849D01*
X-49544Y119826D01*
X-49544Y119826D01*
X-32227D01*
X-32226Y119826D01*
X-31864Y119849D01*
X-31508Y119920D01*
X-31165Y120037D01*
X-30839Y120197D01*
X-30601Y120356D01*
X-30283Y119968D01*
X-34516Y115734D01*
X-46661D01*
X-46723Y115836D01*
X-46946Y116097D01*
X-47207Y116320D01*
X-47500Y116499D01*
X-47817Y116630D01*
X-48151Y116711D01*
X-48493Y116738D01*
X-48836Y116711D01*
X-49170Y116630D01*
X-49487Y116499D01*
X-49779Y116320D01*
X-50041Y116097D01*
X-50264Y115836D01*
X-50443Y115543D01*
X-50574Y115226D01*
X-50654Y114892D01*
X-50681Y114550D01*
X-50654Y114207D01*
X-50621Y114070D01*
X-50793Y113800D01*
X-50899Y113697D01*
X-51016Y113633D01*
X-51248Y113651D01*
X-51590Y113624D01*
X-51924Y113544D01*
X-52241Y113413D01*
X-52534Y113233D01*
X-52794Y113011D01*
X-53017Y112750D01*
X-53197Y112457D01*
X-53328Y112140D01*
X-53408Y111806D01*
X-53435Y111463D01*
X-53408Y111121D01*
X-53328Y110787D01*
X-53197Y110470D01*
X-53017Y110178D01*
X-52794Y109916D01*
X-52534Y109694D01*
X-52241Y109514D01*
X-51924Y109383D01*
X-51590Y109303D01*
X-51248Y109276D01*
X-50905Y109303D01*
X-50571Y109383D01*
X-50254Y109514D01*
X-49962Y109694D01*
X-49700Y109916D01*
X-49477Y110178D01*
X-49298Y110470D01*
X-49247Y110593D01*
X-43949D01*
X-43719Y110093D01*
X-43730Y110081D01*
X-43909Y109788D01*
X-44041Y109471D01*
X-44121Y109137D01*
X-44148Y108794D01*
X-44121Y108452D01*
X-44041Y108118D01*
X-43909Y107801D01*
X-44193Y107308D01*
X-54752D01*
X-55735Y108291D01*
Y109750D01*
X-55724Y109764D01*
X-55544Y110056D01*
X-55413Y110374D01*
X-55333Y110707D01*
X-55306Y111050D01*
X-55333Y111392D01*
X-55413Y111726D01*
X-55544Y112043D01*
X-55724Y112336D01*
X-55946Y112597D01*
X-56208Y112820D01*
X-56500Y112999D01*
X-56817Y113130D01*
X-57151Y113211D01*
X-57494Y113238D01*
X-57836Y113211D01*
X-58170Y113130D01*
X-58487Y112999D01*
X-58780Y112820D01*
X-59040Y112597D01*
X-59263Y112336D01*
X-59443Y112043D01*
X-59574Y111726D01*
X-59654Y111392D01*
X-59681Y111050D01*
X-59654Y110707D01*
X-59574Y110374D01*
X-59443Y110056D01*
X-59315Y109847D01*
Y107550D01*
X-59293Y107270D01*
X-59227Y106997D01*
X-59120Y106737D01*
X-58973Y106498D01*
X-58791Y106284D01*
X-56759Y104253D01*
X-56546Y104070D01*
X-56306Y103924D01*
X-56047Y103816D01*
X-55774Y103751D01*
X-55493Y103728D01*
X-37216D01*
X-37131Y103677D01*
X-37031Y103152D01*
X-37038Y103111D01*
X-37062Y103072D01*
X-37264Y102836D01*
X-37443Y102543D01*
X-37574Y102226D01*
X-37654Y101892D01*
X-37681Y101550D01*
X-37654Y101207D01*
X-37574Y100874D01*
X-37443Y100557D01*
X-37264Y100264D01*
X-37041Y100003D01*
X-36779Y99780D01*
X-36487Y99600D01*
X-36170Y99469D01*
X-35836Y99389D01*
X-35493Y99362D01*
X-35151Y99389D01*
X-34817Y99469D01*
X-34500Y99600D01*
X-34207Y99780D01*
X-33946Y100003D01*
X-33832Y100136D01*
X-33332Y99973D01*
Y75632D01*
X-33518Y75486D01*
X-33832Y75377D01*
X-34026Y75496D01*
X-34343Y75627D01*
X-34677Y75708D01*
X-35019Y75735D01*
X-35362Y75708D01*
X-35696Y75627D01*
X-36013Y75496D01*
X-36305Y75317D01*
X-36567Y75094D01*
X-36790Y74833D01*
X-36839Y74752D01*
X-48392D01*
X-48392Y74752D01*
X-48627Y74729D01*
X-48854Y74661D01*
X-49062Y74549D01*
X-49245Y74399D01*
X-49245Y74399D01*
X-51673Y71971D01*
X-51764Y71993D01*
X-52107Y72020D01*
X-52449Y71993D01*
X-52783Y71913D01*
X-53100Y71782D01*
X-53393Y71602D01*
X-53654Y71379D01*
X-53877Y71118D01*
X-54056Y70826D01*
X-54187Y70508D01*
X-54268Y70175D01*
X-54294Y69832D01*
X-54268Y69490D01*
X-54187Y69156D01*
X-54056Y68839D01*
X-53877Y68546D01*
X-53654Y68285D01*
X-53393Y68062D01*
X-53100Y67883D01*
X-52783Y67752D01*
X-52449Y67672D01*
X-52107Y67645D01*
X-51764Y67672D01*
X-51430Y67752D01*
X-51113Y67883D01*
X-50821Y68062D01*
X-50560Y68285D01*
X-50337Y68546D01*
X-50157Y68839D01*
X-50026Y69156D01*
X-49946Y69490D01*
X-49919Y69832D01*
X-49946Y70175D01*
X-49968Y70266D01*
X-47893Y72341D01*
X-36839D01*
X-36790Y72261D01*
X-36567Y72000D01*
X-36305Y71777D01*
X-36013Y71597D01*
X-35696Y71466D01*
X-35362Y71386D01*
X-35019Y71359D01*
X-34677Y71386D01*
X-34343Y71466D01*
X-34026Y71597D01*
X-33832Y71716D01*
X-33518Y71607D01*
X-33332Y71462D01*
Y60858D01*
X-33307Y60603D01*
X-33233Y60358D01*
X-33112Y60132D01*
X-32950Y59934D01*
X-18900Y45884D01*
Y45187D01*
X-18875Y44932D01*
X-18800Y44688D01*
X-18799Y44685D01*
Y38769D01*
X-18880Y38720D01*
X-19140Y38497D01*
X-19364Y38236D01*
X-19543Y37943D01*
X-19674Y37626D01*
X-19754Y37292D01*
X-19781Y36950D01*
X-19754Y36608D01*
X-19674Y36274D01*
X-19543Y35956D01*
X-19364Y35664D01*
X-19140Y35403D01*
X-18880Y35180D01*
X-18587Y35000D01*
X-18270Y34869D01*
X-17936Y34789D01*
X-17594Y34762D01*
X-17251Y34789D01*
X-16917Y34869D01*
X-16600Y35000D01*
X-16308Y35180D01*
X-16047Y35403D01*
X-15823Y35664D01*
X-15644Y35956D01*
X-15513Y36274D01*
X-15481Y36406D01*
X-14981Y36347D01*
Y34062D01*
X-28176D01*
X-28436Y34222D01*
X-28753Y34353D01*
X-29087Y34433D01*
X-29429Y34460D01*
X-29772Y34433D01*
X-30105Y34353D01*
X-30423Y34222D01*
X-30715Y34042D01*
X-30976Y33819D01*
X-31199Y33558D01*
X-31379Y33266D01*
X-31510Y32948D01*
X-31590Y32615D01*
X-31617Y32272D01*
X-31590Y31930D01*
X-31510Y31596D01*
X-31379Y31279D01*
X-31199Y30986D01*
X-30976Y30725D01*
X-30715Y30502D01*
X-30423Y30323D01*
X-30105Y30192D01*
X-29772Y30111D01*
X-29429Y30084D01*
X-29087Y30111D01*
X-28753Y30192D01*
X-28436Y30323D01*
X-28176Y30483D01*
X-14981D01*
Y29622D01*
X-14959Y29342D01*
X-14893Y29069D01*
X-14786Y28809D01*
X-14639Y28570D01*
X-14457Y28356D01*
X-14231Y28130D01*
X-14159Y27833D01*
X-14028Y27516D01*
X-13849Y27223D01*
X-13626Y26962D01*
X-13365Y26739D01*
X-13072Y26560D01*
X-12755Y26428D01*
X-12421Y26348D01*
X-12079Y26321D01*
X-11736Y26348D01*
X-11402Y26428D01*
X-11085Y26560D01*
X-10793Y26739D01*
X-10532Y26962D01*
X-10309Y27223D01*
X-10129Y27516D01*
X-9998Y27833D01*
X-9918Y28167D01*
X-9891Y28509D01*
X-9918Y28852D01*
X-9998Y29185D01*
X-10129Y29502D01*
X-10309Y29795D01*
X-10532Y30056D01*
X-10793Y30279D01*
X-11085Y30459D01*
X-11401Y30590D01*
Y32272D01*
Y40012D01*
X-11164Y40177D01*
X-10902Y40255D01*
X-10636Y40077D01*
X-10265Y39895D01*
X-10042Y39819D01*
Y42810D01*
X-8073D01*
Y39819D01*
X-7850Y39895D01*
X-7479Y40077D01*
X-7136Y40306D01*
X-6825Y40579D01*
X-6553Y40889D01*
X-6392Y41130D01*
X-6105Y41188D01*
X-5817Y41130D01*
X-5656Y40889D01*
X-5384Y40579D01*
X-5073Y40306D01*
X-4730Y40077D01*
X-4360Y39895D01*
X-4136Y39819D01*
Y42811D01*
X-2168D01*
Y39819D01*
X-1944Y39895D01*
X-1689Y40020D01*
X-1358Y39884D01*
X-1190Y39732D01*
Y38874D01*
X-1165Y38565D01*
X-1093Y38263D01*
X-974Y37977D01*
X-812Y37713D01*
X-611Y37477D01*
X-611Y37477D01*
X2342Y34525D01*
X2577Y34323D01*
X2841Y34161D01*
X3128Y34043D01*
X3429Y33970D01*
X3738Y33946D01*
X3738Y33946D01*
X15549D01*
X15549Y33946D01*
X15858Y33970D01*
X16159Y34043D01*
X16445Y34161D01*
X16710Y34323D01*
X16945Y34525D01*
X17929Y35509D01*
X17929Y35509D01*
X18131Y35744D01*
X18293Y36009D01*
X18411Y36295D01*
X18483Y36596D01*
X18508Y36905D01*
Y40842D01*
X18508Y40842D01*
X18483Y41151D01*
X18411Y41452D01*
X18293Y41739D01*
X18131Y42003D01*
X17929Y42238D01*
X15961Y44207D01*
X15725Y44408D01*
X15461Y44570D01*
X15175Y44688D01*
X14874Y44761D01*
X14565Y44785D01*
X14564Y44785D01*
X9650D01*
Y52653D01*
X9625Y52962D01*
X9553Y53263D01*
X9434Y53549D01*
X9272Y53814D01*
X9071Y54049D01*
X9071Y54049D01*
X7103Y56018D01*
X6867Y56219D01*
X6603Y56381D01*
X6317Y56499D01*
X6015Y56572D01*
X5706Y56596D01*
X5706Y56596D01*
X1770D01*
X1769Y56596D01*
X1460Y56572D01*
X1159Y56499D01*
X873Y56381D01*
X609Y56219D01*
X373Y56018D01*
X-611Y55034D01*
X-812Y54798D01*
X-909Y54640D01*
X-10435D01*
X-10715Y54618D01*
X-10988Y54552D01*
X-11248Y54445D01*
X-11487Y54298D01*
X-11701Y54115D01*
X-12578Y53239D01*
X-12685Y53224D01*
X-13157Y53367D01*
X-13207Y53488D01*
X-13386Y53781D01*
X-13610Y54042D01*
X-13871Y54265D01*
X-14163Y54444D01*
X-14480Y54576D01*
X-14814Y54656D01*
X-15157Y54683D01*
X-15499Y54656D01*
X-15833Y54576D01*
X-16150Y54444D01*
X-16443Y54265D01*
X-16704Y54042D01*
X-16909Y53801D01*
X-20379D01*
X-28296Y61719D01*
Y63104D01*
X-28012Y63347D01*
X-27796Y63451D01*
X-27536Y63389D01*
X-27193Y63362D01*
X-26851Y63389D01*
X-26517Y63469D01*
X-26200Y63600D01*
X-25907Y63780D01*
X-25646Y64003D01*
X-25423Y64264D01*
X-25244Y64556D01*
X-25113Y64874D01*
X-25041Y65171D01*
X-23833Y66380D01*
X-17595D01*
X-17421Y65880D01*
X-17443Y65843D01*
X-17574Y65526D01*
X-17654Y65192D01*
X-17681Y64850D01*
X-17654Y64508D01*
X-17574Y64174D01*
X-17443Y63857D01*
X-17264Y63564D01*
X-17041Y63303D01*
X-16780Y63080D01*
X-16487Y62900D01*
X-16170Y62769D01*
X-15836Y62689D01*
X-15494Y62662D01*
X-15151Y62689D01*
X-14817Y62769D01*
X-14500Y62900D01*
X-14208Y63080D01*
X-13947Y63303D01*
X-13724Y63564D01*
X-13544Y63857D01*
X-13413Y64174D01*
X-13333Y64508D01*
X-13306Y64850D01*
X-13333Y65192D01*
X-13413Y65526D01*
X-13544Y65843D01*
X-13724Y66136D01*
X-13779Y66201D01*
Y69374D01*
Y73275D01*
X-13801Y73555D01*
X-13867Y73828D01*
X-13974Y74088D01*
X-14121Y74327D01*
X-14303Y74541D01*
X-16060Y76297D01*
Y91528D01*
X-14885Y92702D01*
X4236D01*
X5965Y90972D01*
Y75401D01*
X5988Y75121D01*
X6053Y74848D01*
X6161Y74588D01*
X6307Y74349D01*
X6490Y74135D01*
X11475Y69150D01*
X8204Y65878D01*
X8013Y65799D01*
X7721Y65620D01*
X7459Y65397D01*
X7237Y65136D01*
X7057Y64843D01*
X6926Y64526D01*
X6846Y64192D01*
X6819Y63850D01*
X6846Y63507D01*
X6926Y63174D01*
X7057Y62857D01*
X7237Y62564D01*
X7459Y62303D01*
X7721Y62080D01*
X8013Y61900D01*
X8330Y61769D01*
X8664Y61689D01*
X9007Y61662D01*
X9349Y61689D01*
X9683Y61769D01*
X10000Y61900D01*
X10293Y62080D01*
X10554Y62303D01*
X10776Y62564D01*
X10956Y62857D01*
X11087Y63174D01*
X11167Y63507D01*
X11191Y63803D01*
X14386Y66998D01*
X14683Y67069D01*
X15000Y67200D01*
X15292Y67380D01*
X15553Y67603D01*
X15777Y67864D01*
X15956Y68156D01*
X16087Y68474D01*
X16167Y68808D01*
X16194Y69150D01*
X16167Y69492D01*
X16087Y69826D01*
X15956Y70143D01*
X15777Y70436D01*
X15553Y70697D01*
X15292Y70920D01*
X15000Y71099D01*
X14683Y71231D01*
X14386Y71302D01*
X9545Y76142D01*
Y84539D01*
X9780Y84705D01*
X10045Y84788D01*
X10259Y84657D01*
X10576Y84526D01*
X10910Y84446D01*
X11252Y84419D01*
X11595Y84446D01*
X11929Y84526D01*
X12246Y84657D01*
X12538Y84837D01*
X12799Y85059D01*
X13022Y85321D01*
X13202Y85613D01*
X13333Y85931D01*
X13413Y86264D01*
X13440Y86607D01*
X13413Y86949D01*
X13333Y87283D01*
X13202Y87600D01*
X13042Y87860D01*
Y94391D01*
X13020Y94671D01*
X12955Y94944D01*
X12847Y95203D01*
X12700Y95443D01*
X12518Y95656D01*
X10225Y97949D01*
X10154Y98246D01*
X10023Y98563D01*
X9843Y98856D01*
X9620Y99117D01*
X9359Y99340D01*
X9066Y99519D01*
X8749Y99651D01*
X8415Y99731D01*
X8073Y99758D01*
X7731Y99731D01*
X7397Y99651D01*
X7080Y99519D01*
X6787Y99340D01*
X6750Y99308D01*
X-17235D01*
Y102828D01*
X-17076Y103088D01*
X-16944Y103405D01*
X-16864Y103739D01*
X-16837Y104081D01*
X-16864Y104423D01*
X-16944Y104757D01*
X-17076Y105075D01*
X-17255Y105367D01*
X-17478Y105628D01*
X-17739Y105851D01*
X-18032Y106031D01*
X-18349Y106162D01*
X-18683Y106242D01*
X-19025Y106269D01*
X-19367Y106242D01*
X-19701Y106162D01*
X-20018Y106031D01*
X-20311Y105851D01*
X-20572Y105628D01*
X-20795Y105367D01*
X-20974Y105075D01*
X-21106Y104757D01*
X-21186Y104423D01*
X-21213Y104081D01*
X-21186Y103739D01*
X-21106Y103405D01*
X-20974Y103088D01*
X-20815Y102828D01*
Y99308D01*
X-21773D01*
X-22053Y99286D01*
X-22326Y99220D01*
X-22586Y99113D01*
X-22825Y98966D01*
X-23039Y98784D01*
X-24259Y97563D01*
X-24442Y97350D01*
X-24588Y97110D01*
X-24696Y96851D01*
X-24761Y96578D01*
X-24783Y96298D01*
Y94804D01*
X-24943Y94543D01*
X-25074Y94226D01*
X-25154Y93892D01*
X-25181Y93550D01*
X-25154Y93208D01*
X-25074Y92874D01*
X-24943Y92557D01*
X-24783Y92296D01*
Y74550D01*
X-24761Y74270D01*
X-24696Y73997D01*
X-24588Y73737D01*
X-24442Y73498D01*
X-24259Y73284D01*
X-23646Y72671D01*
X-23574Y72374D01*
X-23443Y72057D01*
X-23264Y71764D01*
X-23041Y71503D01*
X-22780Y71280D01*
X-22487Y71100D01*
X-22170Y70969D01*
X-21836Y70889D01*
X-21494Y70862D01*
X-21151Y70889D01*
X-20817Y70969D01*
X-20500Y71100D01*
X-20208Y71280D01*
X-19947Y71503D01*
X-19724Y71764D01*
X-19544Y72057D01*
X-19413Y72374D01*
X-19333Y72707D01*
X-19306Y73050D01*
X-19333Y73392D01*
X-19413Y73726D01*
X-19544Y74043D01*
X-19116Y74291D01*
X-19115Y74290D01*
X-17359Y72534D01*
Y70116D01*
X-17515Y69959D01*
X-24574D01*
X-24854Y69937D01*
X-25127Y69871D01*
X-25386Y69764D01*
X-25626Y69617D01*
X-25839Y69435D01*
X-27573Y67702D01*
X-27870Y67630D01*
X-28368Y67965D01*
Y101524D01*
X-19760Y110133D01*
X-5170D01*
X1969Y102993D01*
X1969Y102993D01*
X2167Y102831D01*
X2393Y102710D01*
X2638Y102636D01*
X2893Y102611D01*
X11211D01*
X15446Y98376D01*
Y87323D01*
X15472Y87068D01*
X15546Y86823D01*
X15666Y86597D01*
X15829Y86399D01*
X19501Y82728D01*
X19476Y82412D01*
X19503Y82070D01*
X19583Y81736D01*
X19714Y81419D01*
X19894Y81126D01*
X20117Y80865D01*
X20378Y80642D01*
X20670Y80463D01*
X20988Y80331D01*
X21321Y80251D01*
X21664Y80224D01*
X22006Y80251D01*
X22340Y80331D01*
X22657Y80463D01*
X22950Y80642D01*
X23211Y80865D01*
X23434Y81126D01*
X23613Y81419D01*
X23744Y81736D01*
X23824Y82070D01*
X23851Y82412D01*
X23824Y82754D01*
X23744Y83088D01*
X23613Y83405D01*
X23434Y83698D01*
X23211Y83959D01*
X22950Y84182D01*
X22657Y84361D01*
X22340Y84493D01*
X22006Y84573D01*
X21664Y84600D01*
X21348Y84575D01*
X18059Y87864D01*
Y92903D01*
X18325Y93013D01*
X18559Y93055D01*
X18713Y92929D01*
X18766Y92901D01*
X19357Y92310D01*
X19381Y91998D01*
X19461Y91664D01*
X19593Y91347D01*
X19772Y91054D01*
X19995Y90793D01*
X20256Y90570D01*
X20549Y90391D01*
X20866Y90259D01*
X21200Y90179D01*
X21542Y90152D01*
X21884Y90179D01*
X22218Y90259D01*
X22535Y90391D01*
X22828Y90570D01*
X23089Y90793D01*
X23312Y91054D01*
X23492Y91347D01*
X23623Y91664D01*
X23703Y91998D01*
X23730Y92340D01*
X23703Y92682D01*
X23623Y93016D01*
X23492Y93334D01*
X23312Y93626D01*
X23089Y93887D01*
X22828Y94110D01*
X22535Y94290D01*
X22218Y94421D01*
X21884Y94501D01*
X21542Y94528D01*
X21200Y94501D01*
X20926Y94435D01*
X20422Y94939D01*
X20224Y95101D01*
X20172Y95130D01*
X19859Y95442D01*
Y101963D01*
X19859Y101963D01*
X19834Y102218D01*
X19760Y102463D01*
X19639Y102689D01*
X19477Y102887D01*
X19476Y102887D01*
X15823Y106541D01*
X15625Y106703D01*
X15399Y106824D01*
X15154Y106898D01*
X14899Y106923D01*
X4465D01*
X-2675Y114062D01*
X-2873Y114225D01*
X-3098Y114346D01*
X-3343Y114420D01*
X-3598Y114445D01*
X-20240D01*
X-20431Y114907D01*
X-17760Y117578D01*
X-17610Y117761D01*
X-17498Y117969D01*
X-17430Y118196D01*
X-17407Y118431D01*
Y126669D01*
X-17407Y126669D01*
X-17430Y126904D01*
X-17498Y127130D01*
X-17610Y127339D01*
X-17760Y127521D01*
X-24141Y133902D01*
X-24324Y134052D01*
X-24532Y134164D01*
X-24758Y134232D01*
X-24994Y134256D01*
X-24994Y134256D01*
X-32807D01*
X-32807Y134256D01*
X-33042Y134232D01*
X-33268Y134164D01*
X-33477Y134052D01*
X-33659Y133902D01*
X-33659Y133902D01*
X-36309Y131253D01*
X-36693Y131576D01*
X-36543Y131787D01*
X-36329Y132175D01*
X-36160Y132583D01*
X-36037Y133008D01*
X-35963Y133444D01*
X-35938Y133885D01*
X-35963Y134327D01*
X-36037Y134763D01*
X-36160Y135188D01*
X-36329Y135596D01*
X-36543Y135983D01*
X-36799Y136344D01*
X-37093Y136674D01*
X-37423Y136968D01*
X-37784Y137224D01*
X-38171Y137438D01*
X-38579Y137607D01*
X-38776Y137664D01*
X-38830Y137715D01*
X-38974Y138120D01*
X-38966Y138230D01*
X-35309Y141887D01*
X-34993Y141862D01*
X-34651Y141889D01*
X-34317Y141969D01*
X-34000Y142100D01*
X-33707Y142280D01*
X-33446Y142503D01*
X-33224Y142764D01*
X-33044Y143056D01*
X-32913Y143374D01*
X-32833Y143708D01*
X-32806Y144050D01*
X-32833Y144392D01*
X-32913Y144726D01*
X-33044Y145043D01*
X-33224Y145336D01*
X-33446Y145597D01*
X-33707Y145820D01*
X-34000Y145999D01*
X-34317Y146131D01*
X-34651Y146211D01*
X-34993Y146238D01*
X-35336Y146211D01*
X-35670Y146131D01*
X-35987Y145999D01*
X-36279Y145820D01*
X-36541Y145597D01*
X-36764Y145336D01*
X-36943Y145043D01*
X-37074Y144726D01*
X-37154Y144392D01*
X-37181Y144050D01*
X-37157Y143734D01*
X-40041Y140849D01*
X-40300Y141008D01*
X-40576Y141122D01*
X-40629Y141385D01*
X-40576Y141648D01*
X-40300Y141763D01*
X-39981Y141958D01*
X-39697Y142201D01*
X-39454Y142485D01*
X-39259Y142804D01*
X-39116Y143149D01*
X-39029Y143513D01*
X-39000Y143885D01*
X-39029Y144258D01*
X-39116Y144622D01*
X-39259Y144967D01*
X-39454Y145285D01*
X-39697Y145570D01*
X-39981Y145812D01*
X-40300Y146008D01*
X-40576Y146122D01*
X-40629Y146385D01*
X-40576Y146649D01*
X-40300Y146763D01*
X-39981Y146958D01*
X-39697Y147201D01*
X-39454Y147485D01*
X-39259Y147804D01*
X-39116Y148149D01*
X-39029Y148513D01*
X-39000Y148885D01*
X-39029Y149258D01*
X-39116Y149621D01*
X-39259Y149967D01*
X-39454Y150285D01*
X-39697Y150570D01*
X-39981Y150812D01*
X-40300Y151008D01*
X-40576Y151122D01*
X-40629Y151385D01*
X-40576Y151648D01*
X-40300Y151763D01*
X-39981Y151958D01*
X-39821Y152096D01*
X-29475D01*
X-29170Y151969D01*
X-28836Y151889D01*
X-28493Y151862D01*
X-28151Y151889D01*
X-27817Y151969D01*
X-27500Y152100D01*
X-27207Y152280D01*
X-26946Y152503D01*
X-26724Y152764D01*
X-26544Y153057D01*
X-26413Y153374D01*
X-26333Y153708D01*
X-26306Y154050D01*
X-26333Y154392D01*
X-26413Y154726D01*
X-26544Y155043D01*
X-26724Y155336D01*
X-26946Y155597D01*
X-27207Y155820D01*
X-27500Y155999D01*
X-27817Y156131D01*
X-28151Y156211D01*
X-28493Y156238D01*
X-28836Y156211D01*
X-29170Y156131D01*
X-29487Y155999D01*
X-29779Y155820D01*
X-29949Y155675D01*
X-39821D01*
X-39981Y155813D01*
X-40300Y156008D01*
X-40646Y156151D01*
X-41009Y156238D01*
X-41382Y156267D01*
X-41754Y156238D01*
X-42118Y156151D01*
X-42463Y156008D01*
X-42782Y155813D01*
X-43066Y155570D01*
X-43309Y155286D01*
X-43504Y154967D01*
X-43619Y154691D01*
X-43882Y154638D01*
X-44145Y154691D01*
X-44259Y154967D01*
X-44455Y155286D01*
X-44697Y155570D01*
X-44982Y155813D01*
X-45300Y156008D01*
X-45576Y156122D01*
X-45629Y156385D01*
X-45576Y156649D01*
X-45300Y156763D01*
X-44982Y156958D01*
X-44697Y157201D01*
X-44455Y157485D01*
X-44259Y157804D01*
X-44116Y158149D01*
X-44029Y158513D01*
X-43999Y158885D01*
X-44029Y159258D01*
X-44076Y159452D01*
X-43991Y159665D01*
X-43882Y159812D01*
X-43712Y159952D01*
X-43440Y159967D01*
X-43004Y160041D01*
X-42579Y160163D01*
X-42171Y160333D01*
X-41784Y160547D01*
X-41423Y160802D01*
X-41093Y161097D01*
X-40799Y161427D01*
X-40543Y161787D01*
X-40329Y162174D01*
X-40160Y162583D01*
X-40037Y163008D01*
X-39963Y163444D01*
X-39938Y163885D01*
X-39963Y164327D01*
X-40037Y164763D01*
X-40160Y165188D01*
X-40329Y165596D01*
X-40543Y165983D01*
X-40799Y166344D01*
X-41093Y166674D01*
X-41423Y166968D01*
X-41784Y167224D01*
X-42171Y167438D01*
X-42579Y167607D01*
X-43004Y167730D01*
X-43440Y167804D01*
X-43882Y167829D01*
D02*
G37*
G36*
X-150342Y127490D02*
X-158137Y119695D01*
X-157068Y118626D01*
X-157285Y118137D01*
X-157413Y118143D01*
X-157954Y118116D01*
X-158490Y118037D01*
X-159015Y117905D01*
X-159525Y117723D01*
X-160014Y117491D01*
X-160479Y117213D01*
X-160554Y117157D01*
X-156717Y113320D01*
X-152880Y109484D01*
X-152825Y109558D01*
X-152546Y110023D01*
X-152315Y110512D01*
X-152132Y111022D01*
X-152001Y111548D01*
X-151921Y112083D01*
X-151895Y112624D01*
X-151901Y112752D01*
X-151411Y112970D01*
X-150342Y111901D01*
X-142547Y119695D01*
X-150342Y127490D01*
D02*
G37*
G36*
X13903Y136049D02*
X13560Y136022D01*
X13226Y135942D01*
X12909Y135811D01*
X12617Y135631D01*
X12355Y135408D01*
X12133Y135147D01*
X11953Y134854D01*
X11822Y134537D01*
X11742Y134204D01*
X11715Y133861D01*
X11742Y133519D01*
X11822Y133185D01*
X11915Y132959D01*
Y114499D01*
X11822Y114273D01*
X11742Y113939D01*
X11715Y113597D01*
X11742Y113255D01*
X11822Y112921D01*
X11953Y112604D01*
X12133Y112311D01*
X12355Y112050D01*
X12617Y111827D01*
X12909Y111648D01*
X13226Y111516D01*
X13560Y111436D01*
X13903Y111409D01*
X14245Y111436D01*
X14579Y111516D01*
X14896Y111648D01*
X15189Y111827D01*
X15450Y112050D01*
X15673Y112311D01*
X15852Y112604D01*
X15983Y112921D01*
X16063Y113255D01*
X16090Y113597D01*
X16063Y113939D01*
X15983Y114273D01*
X15890Y114499D01*
Y132959D01*
X15983Y133185D01*
X16063Y133519D01*
X16090Y133861D01*
X16063Y134204D01*
X15983Y134537D01*
X15852Y134854D01*
X15673Y135147D01*
X15450Y135408D01*
X15189Y135631D01*
X14896Y135811D01*
X14579Y135942D01*
X14245Y136022D01*
X13903Y136049D01*
D02*
G37*
G36*
X-161946Y115765D02*
X-162001Y115690D01*
X-162280Y115226D01*
X-162511Y114736D01*
X-162694Y114226D01*
X-162825Y113701D01*
X-162905Y113165D01*
X-162932Y112624D01*
X-162905Y112083D01*
X-162825Y111548D01*
X-162694Y111022D01*
X-162511Y110512D01*
X-162280Y110023D01*
X-162001Y109558D01*
X-161946Y109484D01*
X-158805Y112624D01*
X-161946Y115765D01*
D02*
G37*
G36*
X-157413Y111232D02*
X-160554Y108091D01*
X-160479Y108036D01*
X-160014Y107757D01*
X-159525Y107526D01*
X-159015Y107343D01*
X-158490Y107212D01*
X-157954Y107132D01*
X-157413Y107106D01*
X-156872Y107132D01*
X-156336Y107212D01*
X-155811Y107343D01*
X-155301Y107526D01*
X-154812Y107757D01*
X-154347Y108036D01*
X-154272Y108091D01*
X-157413Y111232D01*
D02*
G37*
G36*
X-39220Y94011D02*
X-39562Y93984D01*
X-39896Y93903D01*
X-40214Y93772D01*
X-40506Y93593D01*
X-40767Y93370D01*
X-40990Y93109D01*
X-41039Y93028D01*
X-49388D01*
X-49446Y93097D01*
X-49707Y93320D01*
X-50000Y93499D01*
X-50317Y93630D01*
X-50651Y93711D01*
X-50994Y93738D01*
X-51336Y93711D01*
X-51670Y93630D01*
X-51987Y93499D01*
X-52280Y93320D01*
X-52540Y93097D01*
X-52763Y92836D01*
X-52943Y92543D01*
X-53074Y92226D01*
X-53154Y91892D01*
X-53181Y91550D01*
X-53154Y91207D01*
X-53074Y90874D01*
X-52943Y90557D01*
X-52763Y90264D01*
X-52540Y90003D01*
X-52280Y89780D01*
X-51987Y89600D01*
X-51670Y89469D01*
X-51336Y89389D01*
X-50994Y89362D01*
X-50651Y89389D01*
X-50317Y89469D01*
X-50000Y89600D01*
X-49707Y89780D01*
X-49446Y90003D01*
X-49224Y90264D01*
X-49044Y90557D01*
X-49019Y90617D01*
X-41039D01*
X-40990Y90537D01*
X-40767Y90276D01*
X-40506Y90053D01*
X-40214Y89873D01*
X-39896Y89742D01*
X-39562Y89662D01*
X-39220Y89635D01*
X-38878Y89662D01*
X-38544Y89742D01*
X-38227Y89873D01*
X-37934Y90053D01*
X-37673Y90276D01*
X-37450Y90537D01*
X-37271Y90829D01*
X-37139Y91147D01*
X-37059Y91480D01*
X-37032Y91823D01*
X-37059Y92165D01*
X-37139Y92499D01*
X-37271Y92816D01*
X-37450Y93109D01*
X-37673Y93370D01*
X-37934Y93593D01*
X-38227Y93772D01*
X-38544Y93903D01*
X-38878Y93984D01*
X-39220Y94011D01*
D02*
G37*
G36*
X-38903Y88738D02*
X-39245Y88711D01*
X-39579Y88630D01*
X-39896Y88499D01*
X-40189Y88320D01*
X-40450Y88097D01*
X-40672Y87836D01*
X-40722Y87756D01*
X-51674D01*
X-51723Y87836D01*
X-51947Y88097D01*
X-52207Y88320D01*
X-52500Y88499D01*
X-52817Y88630D01*
X-53151Y88711D01*
X-53493Y88738D01*
X-53836Y88711D01*
X-54170Y88630D01*
X-54487Y88499D01*
X-54779Y88320D01*
X-55041Y88097D01*
X-55264Y87836D01*
X-55443Y87543D01*
X-55574Y87226D01*
X-55654Y86892D01*
X-55681Y86550D01*
X-55654Y86207D01*
X-55574Y85874D01*
X-55443Y85557D01*
X-55264Y85264D01*
X-55041Y85003D01*
X-54779Y84780D01*
X-54487Y84600D01*
X-54170Y84469D01*
X-53836Y84389D01*
X-53493Y84362D01*
X-53151Y84389D01*
X-52817Y84469D01*
X-52500Y84600D01*
X-52207Y84780D01*
X-51947Y85003D01*
X-51723Y85264D01*
X-51674Y85344D01*
X-40722D01*
X-40672Y85264D01*
X-40450Y85003D01*
X-40189Y84780D01*
X-39896Y84600D01*
X-39579Y84469D01*
X-39245Y84389D01*
X-38903Y84362D01*
X-38560Y84389D01*
X-38226Y84469D01*
X-37909Y84600D01*
X-37617Y84780D01*
X-37356Y85003D01*
X-37132Y85264D01*
X-36953Y85557D01*
X-36822Y85874D01*
X-36742Y86207D01*
X-36715Y86550D01*
X-36742Y86892D01*
X-36822Y87226D01*
X-36953Y87543D01*
X-37132Y87836D01*
X-37356Y88097D01*
X-37617Y88320D01*
X-37909Y88499D01*
X-38226Y88630D01*
X-38560Y88711D01*
X-38903Y88738D01*
D02*
G37*
G36*
X-193993Y106073D02*
X-194766Y106043D01*
X-195534Y105952D01*
X-196293Y105801D01*
X-197037Y105591D01*
X-197763Y105323D01*
X-198465Y104999D01*
X-199140Y104622D01*
X-199783Y104192D01*
X-200391Y103713D01*
X-200959Y103188D01*
X-201484Y102620D01*
X-201962Y102013D01*
X-202392Y101370D01*
X-202770Y100695D01*
X-203094Y99992D01*
X-203362Y99267D01*
X-203572Y98522D01*
X-203722Y97764D01*
X-203813Y96996D01*
X-203844Y96223D01*
X-203813Y95450D01*
X-203722Y94682D01*
X-203572Y93923D01*
X-203362Y93179D01*
X-203094Y92453D01*
X-202770Y91751D01*
X-202392Y91076D01*
X-201962Y90433D01*
X-201484Y89826D01*
X-200959Y89258D01*
X-200391Y88733D01*
X-199783Y88254D01*
X-199140Y87824D01*
X-198465Y87446D01*
X-197763Y87123D01*
X-197037Y86855D01*
X-196293Y86645D01*
X-195534Y86494D01*
X-194766Y86403D01*
X-193993Y86373D01*
X-193221Y86403D01*
X-192453Y86494D01*
X-191694Y86645D01*
X-190950Y86855D01*
X-190224Y87123D01*
X-189522Y87446D01*
X-188847Y87824D01*
X-188204Y88254D01*
X-187596Y88733D01*
X-187028Y89258D01*
X-186503Y89826D01*
X-186025Y90433D01*
X-185595Y91076D01*
X-185217Y91751D01*
X-184893Y92453D01*
X-184625Y93179D01*
X-184416Y93923D01*
X-184265Y94682D01*
X-184174Y95450D01*
X-184143Y96223D01*
X-184174Y96996D01*
X-184265Y97764D01*
X-184416Y98522D01*
X-184625Y99267D01*
X-184893Y99992D01*
X-185217Y100695D01*
X-185595Y101370D01*
X-186025Y102013D01*
X-186503Y102620D01*
X-187028Y103188D01*
X-187596Y103713D01*
X-188204Y104192D01*
X-188847Y104622D01*
X-189522Y104999D01*
X-190224Y105323D01*
X-190950Y105591D01*
X-191694Y105801D01*
X-192453Y105952D01*
X-193221Y106043D01*
X-193993Y106073D01*
D02*
G37*
G36*
X-38959Y83760D02*
X-39301Y83733D01*
X-39635Y83653D01*
X-39952Y83521D01*
X-40245Y83342D01*
X-40506Y83119D01*
X-40729Y82858D01*
X-40778Y82778D01*
X-54188D01*
X-54224Y82836D01*
X-54447Y83097D01*
X-54707Y83320D01*
X-55000Y83499D01*
X-55317Y83631D01*
X-55651Y83711D01*
X-55993Y83738D01*
X-56336Y83711D01*
X-56670Y83631D01*
X-56987Y83499D01*
X-57279Y83320D01*
X-57541Y83097D01*
X-57763Y82836D01*
X-57943Y82543D01*
X-58074Y82226D01*
X-58154Y81892D01*
X-58181Y81550D01*
X-58154Y81208D01*
X-58074Y80874D01*
X-57943Y80556D01*
X-57763Y80264D01*
X-57541Y80003D01*
X-57279Y79780D01*
X-56987Y79600D01*
X-56670Y79469D01*
X-56336Y79389D01*
X-55993Y79362D01*
X-55651Y79389D01*
X-55317Y79469D01*
X-55000Y79600D01*
X-54707Y79780D01*
X-54447Y80003D01*
X-54224Y80264D01*
X-54161Y80366D01*
X-40778D01*
X-40729Y80286D01*
X-40506Y80025D01*
X-40420Y79951D01*
X-40434Y79507D01*
X-40448Y79447D01*
X-40494Y79368D01*
X-40730Y79223D01*
X-40991Y79000D01*
X-41214Y78739D01*
X-41263Y78659D01*
X-57115D01*
X-57223Y78836D01*
X-57446Y79097D01*
X-57708Y79320D01*
X-58000Y79499D01*
X-58317Y79631D01*
X-58651Y79711D01*
X-58994Y79738D01*
X-59336Y79711D01*
X-59670Y79631D01*
X-59987Y79499D01*
X-60280Y79320D01*
X-60540Y79097D01*
X-60764Y78836D01*
X-60943Y78543D01*
X-61074Y78226D01*
X-61154Y77892D01*
X-61181Y77550D01*
X-61154Y77207D01*
X-61074Y76874D01*
X-60943Y76556D01*
X-60764Y76264D01*
X-60540Y76003D01*
X-60280Y75780D01*
X-59987Y75600D01*
X-59670Y75469D01*
X-59336Y75389D01*
X-58994Y75362D01*
X-58651Y75389D01*
X-58317Y75469D01*
X-58000Y75600D01*
X-57708Y75780D01*
X-57446Y76003D01*
X-57237Y76248D01*
X-41263D01*
X-41214Y76167D01*
X-40991Y75906D01*
X-40730Y75683D01*
X-40437Y75504D01*
X-40120Y75373D01*
X-39786Y75292D01*
X-39444Y75266D01*
X-39102Y75292D01*
X-38768Y75373D01*
X-38451Y75504D01*
X-38158Y75683D01*
X-37897Y75906D01*
X-37674Y76167D01*
X-37495Y76460D01*
X-37363Y76777D01*
X-37283Y77111D01*
X-37256Y77453D01*
X-37283Y77796D01*
X-37363Y78129D01*
X-37495Y78447D01*
X-37674Y78739D01*
X-37897Y79000D01*
X-37983Y79074D01*
X-37969Y79518D01*
X-37954Y79578D01*
X-37909Y79657D01*
X-37673Y79802D01*
X-37412Y80025D01*
X-37189Y80286D01*
X-37009Y80579D01*
X-36878Y80896D01*
X-36798Y81230D01*
X-36771Y81572D01*
X-36798Y81914D01*
X-36878Y82248D01*
X-37009Y82565D01*
X-37189Y82858D01*
X-37412Y83119D01*
X-37673Y83342D01*
X-37966Y83521D01*
X-38283Y83653D01*
X-38616Y83733D01*
X-38959Y83760D01*
D02*
G37*
G36*
X-83122Y81228D02*
X-83377Y81203D01*
X-83622Y81128D01*
X-83848Y81007D01*
X-84046Y80845D01*
X-84046Y80845D01*
X-87678Y77213D01*
X-87994Y77238D01*
X-88336Y77211D01*
X-88670Y77131D01*
X-88987Y76999D01*
X-89280Y76820D01*
X-89540Y76597D01*
X-89763Y76336D01*
X-89943Y76043D01*
X-90074Y75726D01*
X-90154Y75392D01*
X-90181Y75050D01*
X-90154Y74708D01*
X-90074Y74374D01*
X-89943Y74057D01*
X-89763Y73764D01*
X-89540Y73503D01*
X-89280Y73280D01*
X-88987Y73100D01*
X-88670Y72969D01*
X-88336Y72889D01*
X-87994Y72862D01*
X-87651Y72889D01*
X-87317Y72969D01*
X-87000Y73100D01*
X-86708Y73280D01*
X-86446Y73503D01*
X-86224Y73764D01*
X-86044Y74057D01*
X-85913Y74374D01*
X-85833Y74708D01*
X-85806Y75050D01*
X-85830Y75365D01*
X-84559Y76637D01*
X-84075Y76414D01*
X-84078Y76378D01*
X-84051Y76036D01*
X-83970Y75702D01*
X-83839Y75385D01*
X-83660Y75092D01*
X-83437Y74831D01*
X-83176Y74608D01*
X-82883Y74429D01*
X-82566Y74297D01*
X-82232Y74217D01*
X-81890Y74190D01*
X-81547Y74217D01*
X-81214Y74297D01*
X-80897Y74429D01*
X-80636Y74588D01*
X-71333D01*
X-71072Y74429D01*
X-70755Y74297D01*
X-70458Y74226D01*
X-67783Y71551D01*
Y68866D01*
Y64228D01*
X-69841Y62170D01*
X-70138Y62099D01*
X-70455Y61968D01*
X-70748Y61788D01*
X-71009Y61565D01*
X-71232Y61304D01*
X-71411Y61011D01*
X-71543Y60694D01*
X-71623Y60360D01*
X-71650Y60018D01*
X-71623Y59676D01*
X-71543Y59342D01*
X-71411Y59025D01*
X-71232Y58732D01*
X-71009Y58471D01*
X-70748Y58248D01*
X-70455Y58069D01*
X-70138Y57938D01*
X-69804Y57857D01*
X-69462Y57830D01*
X-69120Y57857D01*
X-68786Y57938D01*
X-68469Y58069D01*
X-68176Y58248D01*
X-67915Y58471D01*
X-67692Y58732D01*
X-67513Y59025D01*
X-67381Y59342D01*
X-67310Y59639D01*
X-64728Y62221D01*
X-64546Y62435D01*
X-64399Y62674D01*
X-64291Y62934D01*
X-64226Y63207D01*
X-64204Y63487D01*
Y67076D01*
X-63320D01*
X-60783Y64539D01*
Y36666D01*
X-60859Y36543D01*
X-60990Y36226D01*
X-61070Y35892D01*
X-61097Y35550D01*
X-61070Y35208D01*
X-60990Y34874D01*
X-60859Y34556D01*
X-60783Y34433D01*
Y31550D01*
X-60761Y31270D01*
X-60696Y30997D01*
X-60588Y30737D01*
X-60441Y30498D01*
X-60259Y30284D01*
X-60045Y30102D01*
X-59806Y29955D01*
X-59547Y29848D01*
X-59273Y29782D01*
X-58994Y29760D01*
X-58714Y29782D01*
X-58440Y29848D01*
X-58181Y29955D01*
X-57942Y30102D01*
X-57728Y30284D01*
X-57546Y30498D01*
X-57399Y30737D01*
X-57291Y30997D01*
X-57226Y31270D01*
X-57204Y31550D01*
Y34188D01*
X-57139Y34264D01*
X-57064Y34387D01*
X-56940Y34558D01*
X-56729Y34578D01*
X-56413Y34570D01*
X-56170Y34469D01*
X-55836Y34389D01*
X-55493Y34362D01*
X-55151Y34389D01*
X-54817Y34469D01*
X-54500Y34600D01*
X-54207Y34780D01*
X-53947Y35003D01*
X-53724Y35264D01*
X-53544Y35557D01*
X-53413Y35874D01*
X-53333Y36208D01*
X-53306Y36550D01*
X-53333Y36892D01*
X-53413Y37226D01*
X-53544Y37543D01*
X-53724Y37836D01*
X-53947Y38097D01*
X-54187Y38302D01*
Y66550D01*
X-54212Y66805D01*
X-54287Y67050D01*
X-54407Y67276D01*
X-54570Y67473D01*
X-67941Y80845D01*
X-68139Y81007D01*
X-68365Y81128D01*
X-68610Y81202D01*
X-68865Y81227D01*
X-83122D01*
X-83122Y81228D01*
D02*
G37*
G36*
X-71553Y134908D02*
X-72132Y134880D01*
X-72706Y134795D01*
X-73269Y134654D01*
X-73815Y134458D01*
X-74340Y134210D01*
X-74838Y133912D01*
X-75304Y133566D01*
X-75734Y133177D01*
X-76123Y132747D01*
X-76469Y132281D01*
X-76767Y131783D01*
X-77015Y131258D01*
X-77211Y130712D01*
X-77352Y130149D01*
X-77437Y129575D01*
X-77465Y128996D01*
X-77437Y128416D01*
X-77352Y127842D01*
X-77211Y127279D01*
X-77015Y126733D01*
X-76767Y126208D01*
X-76469Y125711D01*
X-76123Y125245D01*
X-75734Y124815D01*
X-75311Y124432D01*
Y122547D01*
X-80050Y117808D01*
X-117493D01*
X-117914Y117785D01*
X-118330Y117714D01*
X-118735Y117597D01*
X-119124Y117436D01*
X-119493Y117232D01*
X-119837Y116988D01*
X-120151Y116708D01*
X-142151Y94708D01*
X-142432Y94393D01*
X-142676Y94050D01*
X-142880Y93681D01*
X-143041Y93291D01*
X-143158Y92886D01*
X-143228Y92471D01*
X-143252Y92050D01*
Y82550D01*
Y79050D01*
X-143228Y78629D01*
X-143158Y78213D01*
X-143041Y77808D01*
X-142880Y77419D01*
X-142676Y77050D01*
X-142432Y76706D01*
X-142151Y76392D01*
X-141837Y76111D01*
X-141493Y75867D01*
X-141124Y75663D01*
X-140735Y75502D01*
X-140330Y75385D01*
X-139914Y75315D01*
X-139494Y75291D01*
X-139073Y75315D01*
X-138657Y75385D01*
X-138252Y75502D01*
X-137863Y75663D01*
X-137494Y75867D01*
X-137150Y76111D01*
X-136836Y76392D01*
X-136555Y76706D01*
X-136311Y77050D01*
X-136107Y77419D01*
X-135946Y77808D01*
X-135829Y78213D01*
X-135758Y78629D01*
X-135735Y79050D01*
Y82550D01*
Y90493D01*
X-115937Y110291D01*
X-78493D01*
X-78073Y110315D01*
X-77657Y110385D01*
X-77252Y110502D01*
X-76863Y110663D01*
X-76494Y110867D01*
X-76150Y111111D01*
X-75836Y111392D01*
X-68895Y118333D01*
X-68614Y118647D01*
X-68370Y118991D01*
X-68166Y119360D01*
X-68005Y119749D01*
X-67888Y120154D01*
X-67818Y120570D01*
X-67794Y120991D01*
Y124432D01*
X-67372Y124815D01*
X-66982Y125245D01*
X-66637Y125711D01*
X-66338Y126208D01*
X-66090Y126733D01*
X-65895Y127279D01*
X-65754Y127842D01*
X-65669Y128416D01*
X-65640Y128996D01*
X-65669Y129575D01*
X-65754Y130149D01*
X-65895Y130712D01*
X-66090Y131258D01*
X-66338Y131783D01*
X-66637Y132281D01*
X-66982Y132747D01*
X-67372Y133177D01*
X-67802Y133566D01*
X-68268Y133912D01*
X-68765Y134210D01*
X-69290Y134458D01*
X-69836Y134654D01*
X-70399Y134795D01*
X-70973Y134880D01*
X-71553Y134908D01*
D02*
G37*
G36*
X-205891Y56827D02*
Y51590D01*
X-200653D01*
X-200690Y51836D01*
X-200840Y52436D01*
X-201049Y53019D01*
X-201313Y53578D01*
X-201631Y54109D01*
X-202000Y54606D01*
X-202416Y55065D01*
X-202874Y55480D01*
X-203372Y55849D01*
X-203902Y56167D01*
X-204462Y56432D01*
X-205045Y56640D01*
X-205645Y56791D01*
X-205891Y56827D01*
D02*
G37*
G36*
X-207860Y56827D02*
X-208106Y56791D01*
X-208706Y56640D01*
X-209289Y56432D01*
X-209848Y56167D01*
X-210379Y55849D01*
X-210876Y55480D01*
X-211335Y55065D01*
X-211751Y54606D01*
X-212119Y54109D01*
X-212438Y53578D01*
X-212702Y53019D01*
X-212911Y52436D01*
X-213061Y51836D01*
X-213152Y51223D01*
X-213169Y50881D01*
X-213504Y50677D01*
X-213682Y50631D01*
X-214128Y50898D01*
X-214652Y51147D01*
X-215198Y51342D01*
X-215761Y51483D01*
X-216335Y51568D01*
X-216915Y51597D01*
X-217494Y51568D01*
X-218068Y51483D01*
X-218631Y51342D01*
X-219177Y51147D01*
X-219702Y50898D01*
X-220200Y50600D01*
X-220666Y50254D01*
X-221096Y49865D01*
X-221485Y49435D01*
X-221831Y48969D01*
X-222129Y48471D01*
X-222377Y47947D01*
X-222573Y47400D01*
X-222714Y46837D01*
X-222799Y46264D01*
X-222827Y45684D01*
X-222799Y45105D01*
X-222714Y44530D01*
X-222573Y43968D01*
X-222377Y43421D01*
X-222129Y42897D01*
X-221831Y42399D01*
X-221485Y41933D01*
X-221096Y41503D01*
X-220666Y41113D01*
X-220200Y40768D01*
X-219702Y40470D01*
X-219177Y40221D01*
X-218631Y40026D01*
X-218068Y39885D01*
X-217494Y39800D01*
X-216915Y39771D01*
X-216335Y39800D01*
X-215761Y39885D01*
X-215198Y40026D01*
X-214652Y40221D01*
X-214128Y40470D01*
X-213630Y40768D01*
X-213164Y41113D01*
X-212734Y41503D01*
X-212344Y41933D01*
X-211999Y42399D01*
X-211700Y42897D01*
X-211452Y43421D01*
X-211257Y43968D01*
X-211116Y44530D01*
X-211031Y45105D01*
X-211025Y45218D01*
X-210512Y45460D01*
X-210379Y45361D01*
X-209848Y45043D01*
X-209289Y44778D01*
X-208706Y44570D01*
X-208106Y44420D01*
X-207860Y44383D01*
Y50605D01*
Y56827D01*
D02*
G37*
G36*
X-200653Y49621D02*
X-205891D01*
Y44383D01*
X-205645Y44420D01*
X-205045Y44570D01*
X-204462Y44778D01*
X-203902Y45043D01*
X-203372Y45361D01*
X-202874Y45730D01*
X-202416Y46146D01*
X-202000Y46604D01*
X-201631Y47101D01*
X-201313Y47632D01*
X-201049Y48192D01*
X-200840Y48774D01*
X-200690Y49375D01*
X-200653Y49621D01*
D02*
G37*
G36*
X-217899Y33792D02*
X-218068Y33766D01*
X-218631Y33626D01*
X-219177Y33430D01*
X-219702Y33182D01*
X-220200Y32884D01*
X-220666Y32538D01*
X-221096Y32148D01*
X-221485Y31718D01*
X-221831Y31252D01*
X-222129Y30755D01*
X-222377Y30230D01*
X-222573Y29684D01*
X-222714Y29121D01*
X-222739Y28952D01*
X-217899D01*
Y33792D01*
D02*
G37*
G36*
X-205891Y29268D02*
Y24030D01*
X-200653D01*
X-200690Y24277D01*
X-200840Y24877D01*
X-201049Y25460D01*
X-201313Y26019D01*
X-201631Y26550D01*
X-202000Y27047D01*
X-202416Y27506D01*
X-202874Y27921D01*
X-203372Y28290D01*
X-203902Y28608D01*
X-204462Y28873D01*
X-205045Y29081D01*
X-205645Y29232D01*
X-205891Y29268D01*
D02*
G37*
G36*
X-217899Y26983D02*
X-222739D01*
X-222714Y26814D01*
X-222573Y26251D01*
X-222377Y25705D01*
X-222129Y25180D01*
X-221831Y24683D01*
X-221485Y24216D01*
X-221096Y23787D01*
X-220666Y23397D01*
X-220200Y23051D01*
X-219702Y22753D01*
X-219177Y22505D01*
X-218631Y22309D01*
X-218068Y22169D01*
X-217899Y22143D01*
Y26983D01*
D02*
G37*
G36*
X-91993Y106808D02*
X-102994D01*
X-103414Y106785D01*
X-103830Y106714D01*
X-104235Y106597D01*
X-104624Y106436D01*
X-104993Y106232D01*
X-105337Y105988D01*
X-105651Y105708D01*
X-149435Y61923D01*
X-149716Y61609D01*
X-149960Y61265D01*
X-150164Y60896D01*
X-150325Y60507D01*
X-150442Y60102D01*
X-150513Y59686D01*
X-150536Y59266D01*
Y22334D01*
X-150513Y21913D01*
X-150442Y21497D01*
X-150325Y21092D01*
X-150164Y20703D01*
X-149984Y20376D01*
X-149978Y20297D01*
X-150206Y19816D01*
X-150282Y19797D01*
X-150600Y19666D01*
X-150892Y19487D01*
X-151153Y19264D01*
X-151266Y19132D01*
X-151478Y19078D01*
X-151672D01*
X-151884Y19132D01*
X-151996Y19264D01*
X-152257Y19487D01*
X-152550Y19666D01*
X-152867Y19797D01*
X-153201Y19877D01*
X-153543Y19904D01*
X-153886Y19877D01*
X-154219Y19797D01*
X-154537Y19666D01*
X-154829Y19487D01*
X-155090Y19264D01*
X-155313Y19003D01*
X-155493Y18710D01*
X-155624Y18393D01*
X-155704Y18059D01*
X-155731Y17717D01*
X-155704Y17374D01*
X-155624Y17041D01*
X-155493Y16723D01*
X-155313Y16431D01*
X-155090Y16170D01*
X-154829Y15947D01*
X-154537Y15767D01*
X-154219Y15636D01*
X-153886Y15556D01*
X-153543Y15529D01*
X-153201Y15556D01*
X-152867Y15636D01*
X-152550Y15767D01*
X-152257Y15947D01*
X-151996Y16170D01*
X-151884Y16301D01*
X-151672Y16355D01*
X-151478D01*
X-151266Y16301D01*
X-151153Y16170D01*
X-150892Y15947D01*
X-150600Y15767D01*
X-150282Y15636D01*
X-149985Y15564D01*
X-112999Y-21422D01*
Y-81397D01*
X-118476Y-86874D01*
X-135784D01*
X-138968Y-83689D01*
X-139039Y-83393D01*
X-139171Y-83075D01*
X-139350Y-82783D01*
X-139573Y-82521D01*
X-139834Y-82299D01*
X-140127Y-82119D01*
X-140444Y-81988D01*
X-140778Y-81908D01*
X-141120Y-81881D01*
X-141462Y-81908D01*
X-141796Y-81988D01*
X-142113Y-82119D01*
X-142406Y-82299D01*
X-142667Y-82521D01*
X-142890Y-82783D01*
X-143069Y-83075D01*
X-143201Y-83393D01*
X-143281Y-83726D01*
X-143308Y-84069D01*
X-143281Y-84411D01*
X-143201Y-84745D01*
X-143069Y-85062D01*
X-142890Y-85355D01*
X-142667Y-85616D01*
X-142406Y-85839D01*
X-142113Y-86018D01*
X-141796Y-86149D01*
X-141499Y-86221D01*
X-137790Y-89929D01*
X-137577Y-90112D01*
X-137337Y-90258D01*
X-137078Y-90366D01*
X-136805Y-90431D01*
X-136525Y-90453D01*
X-117735D01*
X-117455Y-90431D01*
X-117182Y-90366D01*
X-116922Y-90258D01*
X-116683Y-90112D01*
X-116469Y-89929D01*
X-109944Y-83404D01*
X-109761Y-83190D01*
X-109615Y-82951D01*
X-109507Y-82691D01*
X-109442Y-82418D01*
X-109420Y-82138D01*
Y-62047D01*
X-108920Y-61840D01*
X-96621Y-74139D01*
X-96622Y-74175D01*
X-100379Y-77932D01*
X-100379Y-77932D01*
X-100580Y-78167D01*
X-100742Y-78431D01*
X-100860Y-78718D01*
X-100933Y-79019D01*
X-100957Y-79328D01*
X-100957Y-79328D01*
Y-90795D01*
X-100957Y-90795D01*
X-100933Y-91104D01*
X-100860Y-91405D01*
X-100742Y-91692D01*
X-100580Y-91956D01*
X-100379Y-92191D01*
X-100379Y-92191D01*
X-97173Y-95397D01*
X-96938Y-95598D01*
X-96674Y-95760D01*
X-96387Y-95878D01*
X-96086Y-95951D01*
X-95777Y-95975D01*
X-95777Y-95975D01*
X-35632D01*
X-35323Y-95951D01*
X-35022Y-95878D01*
X-34736Y-95760D01*
X-34472Y-95598D01*
X-34236Y-95397D01*
X-34236Y-95397D01*
X-28330Y-89491D01*
X-28129Y-89256D01*
X-27967Y-88991D01*
X-27849Y-88705D01*
X-27776Y-88404D01*
X-27752Y-88095D01*
X-27752Y-88095D01*
Y-17229D01*
X-27752Y-17229D01*
X-27776Y-16920D01*
X-27849Y-16619D01*
X-27967Y-16332D01*
X-28129Y-16068D01*
X-28330Y-15833D01*
X-28330Y-15833D01*
X-32961Y-11202D01*
X-32770Y-10740D01*
X-27747D01*
X-27487Y-10900D01*
X-27170Y-11031D01*
X-26836Y-11111D01*
X-26493Y-11138D01*
X-26151Y-11111D01*
X-25817Y-11031D01*
X-25500Y-10900D01*
X-25207Y-10720D01*
X-24947Y-10497D01*
X-24724Y-10236D01*
X-24544Y-9944D01*
X-24413Y-9626D01*
X-24333Y-9292D01*
X-24306Y-8950D01*
X-24333Y-8608D01*
X-24413Y-8274D01*
X-24544Y-7957D01*
X-24724Y-7664D01*
X-24947Y-7403D01*
X-25207Y-7180D01*
X-25500Y-7001D01*
X-25817Y-6870D01*
X-26151Y-6789D01*
X-26493Y-6762D01*
X-26836Y-6789D01*
X-27170Y-6870D01*
X-27487Y-7001D01*
X-27747Y-7160D01*
X-33204D01*
Y-3450D01*
X-33226Y-3170D01*
X-33291Y-2897D01*
X-33399Y-2638D01*
X-33546Y-2398D01*
X-33728Y-2185D01*
X-35478Y-435D01*
X-35691Y-252D01*
X-35931Y-106D01*
X-36190Y2D01*
X-36463Y68D01*
X-36744Y90D01*
X-42990D01*
X-43250Y249D01*
X-43567Y381D01*
X-43901Y461D01*
X-44243Y488D01*
X-44586Y461D01*
X-44601Y457D01*
X-44626Y486D01*
X-44649Y521D01*
X-44726Y604D01*
X-44800Y691D01*
X-54900Y10842D01*
X-54901Y10843D01*
X-54903Y10845D01*
X-55018Y10943D01*
X-55135Y11043D01*
X-55137Y11045D01*
X-55139Y11046D01*
X-55267Y11125D01*
X-55398Y11206D01*
X-55401Y11207D01*
X-55403Y11208D01*
X-55543Y11266D01*
X-55684Y11325D01*
X-55687Y11326D01*
X-55689Y11327D01*
X-55838Y11362D01*
X-55985Y11398D01*
X-55988Y11399D01*
X-55990Y11399D01*
X-56142Y11411D01*
X-56294Y11423D01*
X-56297Y11423D01*
X-56299Y11423D01*
X-80285D01*
X-86807Y17946D01*
X-86807Y31166D01*
X-75574Y42399D01*
X-75373Y42634D01*
X-75211Y42898D01*
X-75093Y43185D01*
X-75020Y43486D01*
X-74996Y43795D01*
X-74996Y43795D01*
X-74996Y51669D01*
X-74996Y51669D01*
X-75020Y51978D01*
X-75093Y52279D01*
X-75211Y52565D01*
X-75373Y52829D01*
X-75574Y53065D01*
X-87385Y64876D01*
X-87386Y64876D01*
X-87621Y65077D01*
X-87885Y65239D01*
X-88172Y65358D01*
X-88473Y65430D01*
X-88782Y65454D01*
X-88782Y65454D01*
X-96220Y65454D01*
X-96258Y65451D01*
X-96297Y65453D01*
X-96413Y65439D01*
X-96529Y65430D01*
X-96566Y65421D01*
X-96605Y65417D01*
X-96993Y65339D01*
X-97382Y65417D01*
X-97421Y65421D01*
X-97458Y65430D01*
X-97574Y65439D01*
X-97690Y65453D01*
X-97729Y65451D01*
X-97767Y65454D01*
X-103848Y65454D01*
X-103913Y65726D01*
X-104044Y66043D01*
X-104224Y66336D01*
X-104446Y66597D01*
X-104708Y66820D01*
X-105000Y66999D01*
X-105317Y67131D01*
X-105651Y67211D01*
X-105993Y67238D01*
X-106336Y67211D01*
X-106670Y67131D01*
X-106987Y66999D01*
X-107280Y66820D01*
X-107541Y66597D01*
X-107746Y66356D01*
X-116268D01*
X-116523Y66331D01*
X-116768Y66257D01*
X-116993Y66136D01*
X-117191Y65973D01*
X-125358Y57807D01*
X-125578Y57824D01*
X-125921Y57797D01*
X-126255Y57717D01*
X-126572Y57586D01*
X-126865Y57406D01*
X-127126Y57183D01*
X-127349Y56922D01*
X-127528Y56629D01*
X-127659Y56312D01*
X-127740Y55978D01*
X-127766Y55636D01*
X-127740Y55294D01*
X-127659Y54960D01*
X-127528Y54643D01*
X-127349Y54350D01*
X-127126Y54089D01*
X-126865Y53866D01*
X-126572Y53687D01*
X-126255Y53555D01*
X-125921Y53475D01*
X-125578Y53448D01*
X-125236Y53475D01*
X-124902Y53555D01*
X-124585Y53687D01*
X-124293Y53866D01*
X-124031Y54089D01*
X-123809Y54350D01*
X-123629Y54643D01*
X-123498Y54960D01*
X-123418Y55294D01*
X-123391Y55636D01*
X-123418Y55978D01*
X-123432Y56038D01*
X-120176Y59294D01*
X-119770Y58993D01*
X-119784Y58965D01*
X-119859Y58720D01*
X-119884Y58466D01*
Y54005D01*
X-120373Y53765D01*
X-120666Y53944D01*
X-120983Y54076D01*
X-121317Y54156D01*
X-121659Y54183D01*
X-122001Y54156D01*
X-122335Y54076D01*
X-122652Y53944D01*
X-122945Y53765D01*
X-123206Y53542D01*
X-123429Y53281D01*
X-123608Y52988D01*
X-123740Y52671D01*
X-123819Y52340D01*
X-133727D01*
X-133947Y52597D01*
X-134207Y52820D01*
X-134500Y52999D01*
X-134817Y53131D01*
X-135151Y53211D01*
X-135494Y53238D01*
X-135836Y53211D01*
X-136170Y53131D01*
X-136487Y52999D01*
X-136779Y52820D01*
X-137041Y52597D01*
X-137264Y52336D01*
X-137443Y52043D01*
X-137574Y51726D01*
X-137654Y51392D01*
X-137681Y51050D01*
X-137654Y50708D01*
X-137574Y50374D01*
X-137443Y50056D01*
X-137264Y49764D01*
X-137041Y49503D01*
X-136779Y49280D01*
X-136487Y49100D01*
X-136170Y48969D01*
X-135836Y48889D01*
X-135494Y48862D01*
X-135151Y48889D01*
X-134817Y48969D01*
X-134500Y49100D01*
X-134207Y49280D01*
X-133947Y49503D01*
X-133754Y49728D01*
X-122620D01*
X-122365Y49753D01*
X-122120Y49827D01*
X-122074Y49852D01*
X-122001Y49834D01*
X-121659Y49807D01*
X-121546Y49816D01*
X-121328Y49363D01*
X-121397Y49328D01*
X-121460Y49283D01*
X-121526Y49242D01*
X-121585Y49192D01*
X-121647Y49146D01*
X-121702Y49091D01*
X-121761Y49041D01*
X-125611Y45191D01*
X-125812Y44955D01*
X-125974Y44691D01*
X-126093Y44405D01*
X-126165Y44104D01*
X-126189Y43795D01*
X-126189Y43795D01*
Y18204D01*
X-126189Y18204D01*
X-126165Y17895D01*
X-126093Y17594D01*
X-125974Y17308D01*
X-125812Y17044D01*
X-125611Y16808D01*
X-125611Y16808D01*
X-96662Y-12141D01*
Y-52662D01*
X-96638Y-52971D01*
X-96565Y-53272D01*
X-96447Y-53558D01*
X-96285Y-53822D01*
X-96084Y-54058D01*
X-96083Y-54058D01*
X-92725Y-57417D01*
Y-66750D01*
X-93187Y-66941D01*
X-102735Y-57393D01*
Y-17950D01*
X-102759Y-17529D01*
X-102829Y-17114D01*
X-102946Y-16709D01*
X-103107Y-16319D01*
X-103311Y-15950D01*
X-103555Y-15607D01*
X-103836Y-15292D01*
X-143019Y23891D01*
Y57709D01*
X-101437Y99291D01*
X-91993D01*
X-91573Y99315D01*
X-91157Y99385D01*
X-90752Y99502D01*
X-90363Y99663D01*
X-89994Y99867D01*
X-89650Y100111D01*
X-89336Y100392D01*
X-89055Y100706D01*
X-88811Y101050D01*
X-88607Y101419D01*
X-88446Y101808D01*
X-88329Y102213D01*
X-88258Y102629D01*
X-88235Y103050D01*
X-88258Y103471D01*
X-88329Y103886D01*
X-88446Y104291D01*
X-88607Y104681D01*
X-88811Y105050D01*
X-89055Y105393D01*
X-89336Y105708D01*
X-89650Y105988D01*
X-89994Y106232D01*
X-90363Y106436D01*
X-90752Y106597D01*
X-91157Y106714D01*
X-91573Y106785D01*
X-91993Y106808D01*
D02*
G37*
G36*
X-200653Y22062D02*
X-205891D01*
Y16824D01*
X-205645Y16861D01*
X-205045Y17011D01*
X-204462Y17220D01*
X-203902Y17484D01*
X-203372Y17802D01*
X-202874Y18171D01*
X-202416Y18587D01*
X-202000Y19045D01*
X-201631Y19542D01*
X-201313Y20073D01*
X-201049Y20633D01*
X-200840Y21215D01*
X-200690Y21816D01*
X-200653Y22062D01*
D02*
G37*
G36*
X-215931Y33792D02*
Y27968D01*
X-216915D01*
D01*
X-215931D01*
Y22143D01*
X-215761Y22169D01*
X-215198Y22309D01*
X-214652Y22505D01*
X-214128Y22753D01*
X-213682Y23020D01*
X-213504Y22975D01*
X-213169Y22771D01*
X-213152Y22428D01*
X-213061Y21816D01*
X-212911Y21215D01*
X-212702Y20633D01*
X-212438Y20073D01*
X-212119Y19542D01*
X-211751Y19045D01*
X-211335Y18587D01*
X-210876Y18171D01*
X-210379Y17802D01*
X-209848Y17484D01*
X-209289Y17220D01*
X-208706Y17011D01*
X-208106Y16861D01*
X-207860Y16824D01*
Y23046D01*
X-206875D01*
D01*
X-207860D01*
Y29268D01*
X-208106Y29232D01*
X-208706Y29081D01*
X-209289Y28873D01*
X-209848Y28608D01*
X-210379Y28290D01*
X-210512Y28191D01*
X-211025Y28434D01*
X-211031Y28547D01*
X-211116Y29121D01*
X-211257Y29684D01*
X-211452Y30230D01*
X-211700Y30755D01*
X-211999Y31252D01*
X-212344Y31718D01*
X-212734Y32148D01*
X-213164Y32538D01*
X-213630Y32884D01*
X-214128Y33182D01*
X-214652Y33430D01*
X-215198Y33626D01*
X-215761Y33766D01*
X-215931Y33792D01*
D02*
G37*
G36*
X-193993Y-8100D02*
X-194766Y-8130D01*
X-195534Y-8221D01*
X-196293Y-8372D01*
X-197037Y-8582D01*
X-197763Y-8850D01*
X-198465Y-9174D01*
X-199140Y-9552D01*
X-199783Y-9981D01*
X-200391Y-10460D01*
X-200959Y-10985D01*
X-201484Y-11553D01*
X-201962Y-12161D01*
X-202392Y-12804D01*
X-202770Y-13478D01*
X-203094Y-14181D01*
X-203362Y-14906D01*
X-203572Y-15651D01*
X-203722Y-16409D01*
X-203813Y-17177D01*
X-203844Y-17950D01*
X-203813Y-18723D01*
X-203722Y-19491D01*
X-203572Y-20250D01*
X-203362Y-20994D01*
X-203094Y-21720D01*
X-202770Y-22422D01*
X-202392Y-23097D01*
X-201962Y-23740D01*
X-201484Y-24347D01*
X-200959Y-24915D01*
X-200391Y-25440D01*
X-199783Y-25919D01*
X-199140Y-26349D01*
X-198465Y-26727D01*
X-197763Y-27051D01*
X-197037Y-27318D01*
X-196293Y-27528D01*
X-195534Y-27679D01*
X-194766Y-27770D01*
X-193993Y-27800D01*
X-193221Y-27770D01*
X-192453Y-27679D01*
X-191694Y-27528D01*
X-190950Y-27318D01*
X-190224Y-27051D01*
X-189522Y-26727D01*
X-188847Y-26349D01*
X-188204Y-25919D01*
X-187596Y-25440D01*
X-187028Y-24915D01*
X-186503Y-24347D01*
X-186025Y-23740D01*
X-185595Y-23097D01*
X-185217Y-22422D01*
X-184893Y-21720D01*
X-184625Y-20994D01*
X-184416Y-20250D01*
X-184265Y-19491D01*
X-184174Y-18723D01*
X-184143Y-17950D01*
X-184174Y-17177D01*
X-184265Y-16409D01*
X-184416Y-15651D01*
X-184625Y-14906D01*
X-184893Y-14181D01*
X-185217Y-13478D01*
X-185595Y-12804D01*
X-186025Y-12161D01*
X-186503Y-11553D01*
X-187028Y-10985D01*
X-187596Y-10460D01*
X-188204Y-9981D01*
X-188847Y-9552D01*
X-189522Y-9174D01*
X-190224Y-8850D01*
X-190950Y-8582D01*
X-191694Y-8372D01*
X-192453Y-8221D01*
X-193221Y-8130D01*
X-193993Y-8100D01*
D02*
G37*
G36*
X-120533Y-76133D02*
X-120952Y-76157D01*
X-121367Y-76227D01*
X-121770Y-76344D01*
X-122158Y-76504D01*
X-122526Y-76708D01*
X-122869Y-76951D01*
X-122994Y-77062D01*
X-123118Y-76951D01*
X-123461Y-76708D01*
X-123829Y-76504D01*
X-124217Y-76344D01*
X-124470Y-76271D01*
Y-80667D01*
Y-85063D01*
X-124217Y-84990D01*
X-123829Y-84829D01*
X-123461Y-84626D01*
X-123118Y-84383D01*
X-122994Y-84271D01*
X-122869Y-84383D01*
X-122526Y-84626D01*
X-122158Y-84829D01*
X-121770Y-84990D01*
X-121367Y-85106D01*
X-120952Y-85177D01*
X-120533Y-85200D01*
X-120114Y-85177D01*
X-119699Y-85106D01*
X-119296Y-84990D01*
X-118907Y-84829D01*
X-118540Y-84626D01*
X-118197Y-84383D01*
X-117884Y-84103D01*
X-117604Y-83790D01*
X-117361Y-83447D01*
X-117158Y-83079D01*
X-116997Y-82691D01*
X-116881Y-82288D01*
X-116810Y-81874D01*
X-116787Y-81454D01*
Y-79879D01*
X-116810Y-79460D01*
X-116881Y-79046D01*
X-116997Y-78642D01*
X-117158Y-78254D01*
X-117361Y-77886D01*
X-117604Y-77544D01*
X-117884Y-77231D01*
X-118197Y-76951D01*
X-118540Y-76708D01*
X-118907Y-76504D01*
X-119296Y-76344D01*
X-119699Y-76227D01*
X-120114Y-76157D01*
X-120533Y-76133D01*
D02*
G37*
G36*
X-126438Y-76271D02*
X-126691Y-76344D01*
X-127079Y-76504D01*
X-127447Y-76708D01*
X-127790Y-76951D01*
X-128103Y-77231D01*
X-128383Y-77544D01*
X-128626Y-77886D01*
X-128829Y-78254D01*
X-128990Y-78642D01*
X-129106Y-79046D01*
X-129177Y-79460D01*
X-129189Y-79682D01*
X-126438D01*
Y-76271D01*
D02*
G37*
G36*
Y-81651D02*
X-129189D01*
X-129177Y-81874D01*
X-129106Y-82288D01*
X-128990Y-82691D01*
X-128829Y-83079D01*
X-128626Y-83447D01*
X-128383Y-83790D01*
X-128103Y-84103D01*
X-127790Y-84383D01*
X-127447Y-84626D01*
X-127079Y-84829D01*
X-126691Y-84990D01*
X-126438Y-85063D01*
Y-81651D01*
D02*
G37*
%LPD*%
G36*
X7675Y52653D02*
Y43795D01*
X8659Y42811D01*
X14565D01*
X16533Y40842D01*
Y36905D01*
X16533D01*
X15549Y35921D01*
X3738D01*
X785Y38874D01*
Y53637D01*
X1769Y54622D01*
X5706D01*
X7675Y52653D01*
D02*
G37*
G36*
X-97767Y63480D02*
X-96993Y63326D01*
X-96220Y63480D01*
X-88782Y63480D01*
X-76971Y51669D01*
X-76971Y43795D01*
X-88782Y31984D01*
X-88782Y17128D01*
X-81102Y9449D01*
X-56299D01*
X-46200Y-702D01*
X-46298Y-849D01*
X-46467Y-1700D01*
X-46298Y-2551D01*
X-45816Y-3273D01*
X-45526Y-3466D01*
X-45399Y-4146D01*
X-45455Y-4227D01*
X-60688D01*
X-60921Y-3878D01*
X-61642Y-3396D01*
X-62493Y-3226D01*
X-63345Y-3396D01*
X-64066Y-3878D01*
X-64548Y-4599D01*
X-64717Y-5450D01*
X-64548Y-6301D01*
X-64066Y-7023D01*
Y-7378D01*
X-64548Y-8099D01*
X-64717Y-8950D01*
X-64548Y-9801D01*
X-64066Y-10523D01*
X-63345Y-11005D01*
X-62493Y-11174D01*
X-61642Y-11005D01*
X-61290Y-10769D01*
X-36197D01*
X-36154Y-10798D01*
X-35486Y-11470D01*
X-29727Y-17229D01*
Y-88095D01*
X-35632Y-94001D01*
X-95777D01*
X-98982Y-90795D01*
Y-79328D01*
X-95226Y-75571D01*
X-95170Y-75627D01*
X-94386Y-76228D01*
X-93473Y-76606D01*
X-92493Y-76735D01*
X-39994D01*
X-39014Y-76606D01*
X-38101Y-76228D01*
X-37317Y-75627D01*
X-36715Y-74843D01*
X-36337Y-73930D01*
X-36208Y-72950D01*
X-36337Y-71971D01*
X-36715Y-71058D01*
X-37317Y-70274D01*
X-38101Y-69672D01*
X-39014Y-69294D01*
X-39994Y-69165D01*
X-90750D01*
Y-56599D01*
X-94687Y-52662D01*
Y-11323D01*
X-124215Y18204D01*
Y43795D01*
X-120365Y47645D01*
X-119903Y47453D01*
Y46015D01*
X-120702Y45216D01*
X-120993Y45274D01*
X-121844Y45104D01*
X-122566Y44622D01*
X-123048Y43901D01*
X-123217Y43050D01*
X-123048Y42199D01*
X-122566Y41477D01*
X-121844Y40995D01*
X-120993Y40826D01*
X-120142Y40995D01*
X-119421Y41477D01*
X-119021Y42075D01*
X-118903Y42106D01*
X-118584D01*
X-118466Y42075D01*
X-118066Y41477D01*
X-117344Y40995D01*
X-116493Y40826D01*
X-115874Y40949D01*
X-115628Y40488D01*
X-116929Y39187D01*
X-117344Y39104D01*
X-118066Y38622D01*
X-118548Y37901D01*
X-118717Y37050D01*
X-118548Y36199D01*
X-118066Y35477D01*
X-117344Y34995D01*
X-116493Y34826D01*
X-115642Y34995D01*
X-114921Y35477D01*
X-114439Y36199D01*
X-114356Y36614D01*
X-109707Y41263D01*
X-109707Y41263D01*
X-109313Y41854D01*
X-109174Y42550D01*
Y55847D01*
X-108939Y56199D01*
X-108770Y57050D01*
X-108939Y57901D01*
X-109408Y58602D01*
X-104757Y63253D01*
X-104421Y63477D01*
X-104419Y63480D01*
X-97767Y63480D01*
D02*
G37*
%LPC*%
G36*
X-43033Y-82890D02*
X-44009Y-83019D01*
X-44919Y-83396D01*
X-45494Y-83837D01*
X-46068Y-83396D01*
X-46978Y-83019D01*
X-47954Y-82890D01*
X-48930Y-83019D01*
X-49840Y-83396D01*
X-50622Y-83995D01*
X-51221Y-84777D01*
X-51598Y-85686D01*
X-51727Y-86663D01*
Y-88238D01*
X-51598Y-89214D01*
X-51221Y-90124D01*
X-50622Y-90905D01*
X-49840Y-91505D01*
X-48930Y-91882D01*
X-47954Y-92010D01*
X-46978Y-91882D01*
X-46068Y-91505D01*
X-45494Y-91064D01*
X-44919Y-91505D01*
X-44009Y-91882D01*
X-43033Y-92010D01*
X-42057Y-91882D01*
X-41147Y-91505D01*
X-40365Y-90905D01*
X-39766Y-90124D01*
X-39389Y-89214D01*
X-39261Y-88238D01*
Y-86663D01*
X-39389Y-85686D01*
X-39766Y-84777D01*
X-40365Y-83995D01*
X-41147Y-83396D01*
X-42057Y-83019D01*
X-43033Y-82890D01*
D02*
G37*
G36*
X-82533D02*
X-83509Y-83019D01*
X-84419Y-83396D01*
X-84993Y-83837D01*
X-85568Y-83396D01*
X-86478Y-83019D01*
X-87454Y-82890D01*
X-88431Y-83019D01*
X-89340Y-83396D01*
X-90122Y-83995D01*
X-90721Y-84777D01*
X-91098Y-85686D01*
X-91227Y-86663D01*
Y-88238D01*
X-91098Y-89214D01*
X-90721Y-90124D01*
X-90122Y-90905D01*
X-89340Y-91505D01*
X-88431Y-91882D01*
X-87454Y-92010D01*
X-86478Y-91882D01*
X-85568Y-91505D01*
X-84993Y-91064D01*
X-84419Y-91505D01*
X-83509Y-91882D01*
X-82533Y-92010D01*
X-81556Y-91882D01*
X-80647Y-91505D01*
X-79865Y-90905D01*
X-79266Y-90124D01*
X-78889Y-89214D01*
X-78760Y-88238D01*
Y-86663D01*
X-78889Y-85686D01*
X-79266Y-84777D01*
X-79865Y-83995D01*
X-80647Y-83396D01*
X-81556Y-83019D01*
X-82533Y-82890D01*
D02*
G37*
%LPD*%
D10*
X67089Y36880D02*
G03*
X67089Y36880I-147500J0D01*
G01*
D11*
X-41382Y158885D02*
X-37217Y163050D01*
X-125630Y55687D02*
X-116268Y65050D01*
X-68865Y79921D02*
X-55493Y66550D01*
X-83122Y79921D02*
X-68865D01*
X-55493Y36550D02*
Y66550D01*
X-87994Y75050D02*
X-83122Y79921D01*
X3924Y105617D02*
X14899D01*
X-3598Y113139D02*
X3924Y105617D01*
X2893Y103917D02*
X11752D01*
X-4629Y111439D02*
X2893Y103917D01*
X11752D02*
X16753Y98917D01*
X14899Y105617D02*
X18553Y101963D01*
X-21406Y113139D02*
X-3598D01*
X-32026Y102519D02*
X-21406Y113139D01*
X-20301Y111439D02*
X-4629D01*
X-29675Y102066D02*
X-20301Y111439D01*
X16753Y87323D02*
X21664Y82412D01*
X16753Y87323D02*
Y98917D01*
X21173Y92340D02*
X21542D01*
X19499Y94015D02*
X21173Y92340D01*
X19439Y94015D02*
X19499D01*
X18553Y94901D02*
X19439Y94015D01*
X18553Y94901D02*
Y101963D01*
X-29675Y64148D02*
X-29603Y64076D01*
X-29675Y64148D02*
Y102066D01*
X-29603Y61178D02*
Y64076D01*
Y61178D02*
X-20920Y52495D01*
X-32026Y60858D02*
Y102519D01*
Y60858D02*
X-17594Y46425D01*
X-20920Y52495D02*
X-15157D01*
X-17594Y45187D02*
Y46425D01*
X-40158Y138885D02*
X-34993Y144050D01*
X-41382Y138885D02*
X-40158D01*
X-50994D02*
X-46382D01*
X-116993Y60050D02*
X-112994D01*
X-115993Y43550D02*
Y57050D01*
X-116268Y65050D02*
X-106993D01*
X-52994Y143050D02*
X-47217D01*
X-46382Y143885D01*
X-135494Y51050D02*
X-135478Y51034D01*
X-120993Y43050D02*
X-118578Y45466D01*
Y58466D01*
X-116993Y60050D01*
X-135478Y51034D02*
X-122620D01*
X-121659Y51995D01*
X-587346Y502716D02*
X-474346D01*
X-587346Y222128D02*
X-474346D01*
X-568346Y482828D02*
X-491346D01*
X-474346Y222128D02*
Y502716D01*
X-587346Y222128D02*
Y502716D01*
D12*
X-50994Y91823D02*
X-39220D01*
X-34017Y114528D02*
X-26245Y122301D01*
X-48493Y114528D02*
X-34017D01*
X-33746Y111799D02*
X-21245Y124301D01*
X-51248Y111799D02*
X-33746D01*
X-48861Y126418D02*
X-41993D01*
X-52107Y69832D02*
X-48392Y73547D01*
X-127994Y133628D02*
X-123072Y138550D01*
X-127994Y117623D02*
Y133628D01*
X-164868Y80749D02*
X-127994Y117623D01*
X-176896Y54034D02*
X-164868Y66062D01*
X-194272Y54034D02*
X-176896D01*
X-195999Y52307D02*
X-194272Y54034D01*
X-195999Y50277D02*
Y52307D01*
X-164868Y66062D02*
Y80749D01*
X-32749Y108794D02*
X-20993Y120550D01*
X-41960Y108794D02*
X-32749D01*
X-24994Y133050D02*
X-18612Y126669D01*
X-32807Y133050D02*
X-24994D01*
X-36731Y129125D02*
X-32807Y133050D01*
X-35493Y101550D02*
X-18612Y118431D01*
Y126669D01*
X-54493Y141550D02*
X-52994Y143050D01*
X-54493Y134359D02*
Y141550D01*
Y134359D02*
X-49260Y129125D01*
X-123072Y138550D02*
X-106993D01*
X-62493Y-5450D02*
X-38993D01*
X-52994Y147050D02*
X-51158Y148885D01*
X-58994Y77550D02*
X-58897Y77453D01*
X-39444D01*
X-55971Y81572D02*
X-38959D01*
X-48392Y73547D02*
X-35019D01*
X-53493Y86550D02*
X-38903D01*
X-51158Y148885D02*
X-46382D01*
X-52494Y158050D02*
X-51658Y158885D01*
X-46382D01*
X-106993Y138550D02*
X-100494Y145050D01*
X-49260Y129125D02*
X-36731D01*
X-100494Y145050D02*
X-67493D01*
X-48861Y126418D01*
D14*
X-501688Y379993D02*
X-502069Y379612D01*
X-502450Y379041D01*
X-502831Y378279D01*
X-503021Y377327D01*
Y376565D01*
X-502831Y375613D01*
X-502450Y374851D01*
X-502069Y374280D01*
X-501688Y373899D01*
X-502069Y379612D02*
X-502450Y378851D01*
X-502640Y378279D01*
X-502831Y377327D01*
Y376565D01*
X-502640Y375613D01*
X-502450Y375042D01*
X-502069Y374280D01*
X-500736Y375613D02*
X-500926Y375423D01*
X-500736Y375232D01*
X-500546Y375423D01*
X-500736Y375613D01*
X-496813Y378279D02*
X-497003Y378660D01*
X-497384Y379041D01*
X-497765Y379231D01*
X-498527D01*
X-498908Y379041D01*
X-499289Y378660D01*
X-499479Y378279D01*
X-499670Y377708D01*
Y376756D01*
X-499479Y376184D01*
X-499289Y375803D01*
X-498908Y375423D01*
X-498527Y375232D01*
X-497765D01*
X-497384Y375423D01*
X-497003Y375803D01*
X-496813Y376184D01*
Y376756D01*
X-497765D02*
X-496813D01*
X-495899Y379231D02*
Y375232D01*
Y379231D02*
X-494185D01*
X-493614Y379041D01*
X-493423Y378851D01*
X-493233Y378470D01*
Y378089D01*
X-493423Y377708D01*
X-493614Y377518D01*
X-494185Y377327D01*
X-495899D02*
X-494185D01*
X-493614Y377137D01*
X-493423Y376946D01*
X-493233Y376565D01*
Y375994D01*
X-493423Y375613D01*
X-493614Y375423D01*
X-494185Y375232D01*
X-495899D01*
X-492338Y379231D02*
Y375232D01*
X-490053D01*
X-489614Y379993D02*
X-489234Y379612D01*
X-488853Y379041D01*
X-488472Y378279D01*
X-488281Y377327D01*
Y376565D01*
X-488472Y375613D01*
X-488853Y374851D01*
X-489234Y374280D01*
X-489614Y373899D01*
X-489234Y379612D02*
X-488853Y378851D01*
X-488662Y378279D01*
X-488472Y377327D01*
Y376565D01*
X-488662Y375613D01*
X-488853Y375042D01*
X-489234Y374280D01*
X-551346Y379127D02*
Y375128D01*
Y379127D02*
X-549632D01*
X-549061Y378937D01*
X-548870Y378747D01*
X-548680Y378366D01*
Y377985D01*
X-548870Y377604D01*
X-549061Y377414D01*
X-549632Y377223D01*
X-551346D02*
X-549632D01*
X-549061Y377033D01*
X-548870Y376842D01*
X-548680Y376461D01*
Y375890D01*
X-548870Y375509D01*
X-549061Y375319D01*
X-549632Y375128D01*
X-551346D01*
X-546833Y377794D02*
X-547214Y377604D01*
X-547594Y377223D01*
X-547785Y376652D01*
Y376271D01*
X-547594Y375700D01*
X-547214Y375319D01*
X-546833Y375128D01*
X-546261D01*
X-545880Y375319D01*
X-545500Y375700D01*
X-545309Y376271D01*
Y376652D01*
X-545500Y377223D01*
X-545880Y377604D01*
X-546261Y377794D01*
X-546833D01*
X-543862Y379127D02*
Y375890D01*
X-543671Y375319D01*
X-543291Y375128D01*
X-542910D01*
X-544433Y377794D02*
X-543100D01*
X-539196Y379127D02*
Y375128D01*
X-536911D01*
X-534188Y377794D02*
Y375128D01*
Y377223D02*
X-534569Y377604D01*
X-534949Y377794D01*
X-535521D01*
X-535902Y377604D01*
X-536282Y377223D01*
X-536473Y376652D01*
Y376271D01*
X-536282Y375700D01*
X-535902Y375319D01*
X-535521Y375128D01*
X-534949D01*
X-534569Y375319D01*
X-534188Y375700D01*
X-532931Y377794D02*
X-531788Y375128D01*
X-530646Y377794D02*
X-531788Y375128D01*
X-532169Y374367D01*
X-532550Y373986D01*
X-532931Y373795D01*
X-533121D01*
X-529979Y376652D02*
X-527694D01*
Y377033D01*
X-527884Y377414D01*
X-528075Y377604D01*
X-528456Y377794D01*
X-529027D01*
X-529408Y377604D01*
X-529789Y377223D01*
X-529979Y376652D01*
Y376271D01*
X-529789Y375700D01*
X-529408Y375319D01*
X-529027Y375128D01*
X-528456D01*
X-528075Y375319D01*
X-527694Y375700D01*
X-526837Y377794D02*
Y375128D01*
Y376652D02*
X-526646Y377223D01*
X-526266Y377604D01*
X-525885Y377794D01*
X-525313D01*
X-551346Y297527D02*
Y293528D01*
Y297527D02*
X-549822Y293528D01*
X-548299Y297527D02*
X-549822Y293528D01*
X-548299Y297527D02*
Y293528D01*
X-547156Y297527D02*
Y294671D01*
X-546966Y294100D01*
X-546585Y293719D01*
X-546014Y293528D01*
X-545633D01*
X-545061Y293719D01*
X-544681Y294100D01*
X-544490Y294671D01*
Y297527D01*
X-543386D02*
Y293528D01*
X-541101D01*
X-539329Y297527D02*
Y293528D01*
X-540662Y297527D02*
X-537996D01*
X-537520D02*
Y293528D01*
X-536682Y297527D02*
Y293528D01*
X-534397D01*
X-530912D02*
X-532436Y297527D01*
X-533959Y293528D01*
X-533388Y294861D02*
X-531484D01*
X-529979Y297527D02*
X-528456Y295623D01*
Y293528D01*
X-526932Y297527D02*
X-528456Y295623D01*
X-523942Y297527D02*
X-526418D01*
Y293528D01*
X-523942D01*
X-526418Y295623D02*
X-524894D01*
X-523276Y297527D02*
Y293528D01*
Y297527D02*
X-521562D01*
X-520991Y297337D01*
X-520800Y297147D01*
X-520610Y296766D01*
Y296385D01*
X-520800Y296004D01*
X-520991Y295813D01*
X-521562Y295623D01*
X-523276D01*
X-521943D02*
X-520610Y293528D01*
D17*
X-28522Y126304D02*
X-25751Y129076D01*
X-122635Y131271D02*
X-120356Y133550D01*
X-106493D01*
X-98493Y141550D01*
X-32226Y122600D02*
X-28522Y126304D01*
X-98493Y141550D02*
X-68493D01*
X-49544Y122600D01*
X-32226D01*
D18*
X-567846Y377178D02*
D03*
Y295578D02*
D03*
D114*
X13903Y113597D02*
Y133861D01*
D115*
X-41382Y153885D02*
X-28493D01*
X-58994Y31550D02*
Y65281D01*
X-117735Y-88664D02*
X-111209Y-82138D01*
X-136525Y-88664D02*
X-117735D01*
X-141120Y-84069D02*
X-136525Y-88664D01*
X-111209Y-82138D02*
Y-20680D01*
X8856Y64000D02*
X14006Y69150D01*
X-149606Y17717D02*
X-111209Y-20680D01*
X-62579Y68866D02*
X-58994Y65281D01*
X-65993Y68866D02*
X-62579D01*
X-65993Y63487D02*
Y68866D01*
X-69462Y60018D02*
X-65993Y63487D01*
Y68866D02*
Y72293D01*
X-70079Y76378D02*
X-65993Y72293D01*
X-81890Y76378D02*
X-70079D01*
X-19291Y97518D02*
X8021D01*
X-21773D02*
X-19291D01*
X-19025Y97785D02*
Y104081D01*
X-19291Y97518D02*
X-19025Y97785D01*
X-22994Y96298D02*
X-21773Y97518D01*
X-22994Y93550D02*
Y96298D01*
X-13191Y32272D02*
Y50094D01*
X-10435Y52850D01*
X-13191Y29622D02*
Y32272D01*
X-29429D02*
X-13191D01*
Y29622D02*
X-12079Y28509D01*
X4185Y51923D02*
X4291D01*
X3258Y52850D02*
X4185Y51923D01*
X-10435Y52850D02*
X3258D01*
X-16774Y68169D02*
X-15569Y69374D01*
Y73275D01*
Y64925D02*
Y69374D01*
X7755Y75401D02*
Y91714D01*
X-15627Y94492D02*
X4977D01*
X7755Y91714D01*
X-17849Y92269D02*
X-15627Y94492D01*
X-17849Y75556D02*
Y92269D01*
Y75556D02*
X-15569Y73275D01*
X11252Y86607D02*
Y94391D01*
X8073Y97570D02*
X11252Y94391D01*
X4291Y42623D02*
Y51923D01*
Y42623D02*
X7778Y39136D01*
X8021Y97518D02*
X8073Y97570D01*
X-15569Y64925D02*
X-15494Y64850D01*
X-22994Y74550D02*
X-21494Y73050D01*
X-191869Y50232D02*
X-174245D01*
X-161672Y62805D01*
Y80104D01*
X-115227Y126550D01*
X-107493D01*
X-44243Y-1700D02*
X-36744D01*
X-34993Y-3450D01*
X-57525Y107550D02*
Y111018D01*
Y107550D02*
X-55493Y105518D01*
X-107493Y126550D02*
X-96993Y137050D01*
X-34993Y-8950D02*
Y-3450D01*
Y-8950D02*
X-26493D01*
X-62493D02*
X-34993D01*
X-22994Y74550D02*
Y93550D01*
X-55493Y105518D02*
X-35962D01*
X-96993Y137050D02*
X-87994D01*
X-110994Y42550D02*
Y57050D01*
X-116493Y37050D02*
X-110994Y42550D01*
X-24574Y68169D02*
X-16774D01*
X7755Y75401D02*
X14006Y69150D01*
X-27193Y65550D02*
X-24574Y68169D01*
D116*
X-139494Y82550D02*
Y92050D01*
Y79050D02*
Y82550D01*
Y92050D02*
X-117493Y114050D01*
X-78493D01*
X-102994Y103050D02*
X-94494D01*
X-146778Y59266D02*
X-102994Y103050D01*
X-78493Y114050D02*
X-71553Y120991D01*
X-94494Y103050D02*
X-91993D01*
X-71553Y120991D02*
Y128996D01*
X-78993Y-72950D02*
X-39994D01*
X-92493D02*
X-78993D01*
X-106493Y-58950D02*
X-92493Y-72950D01*
X-146778Y22334D02*
Y59266D01*
Y22334D02*
X-106493Y-17950D01*
Y-58950D02*
Y-17950D01*
D119*
X-17594Y36950D02*
Y45187D01*
D121*
X-577346Y381928D02*
X-485346D01*
X-577346Y372428D02*
X-485346D01*
Y381928D01*
X-577346Y372428D02*
Y381928D01*
Y300328D02*
X-485346D01*
X-577346Y290828D02*
X-485346D01*
Y300328D01*
X-577346Y290828D02*
Y300328D01*
D125*
X-43882Y163885D02*
D03*
X-39882Y133885D02*
D03*
X-47882D02*
D03*
D126*
X-206875Y23046D02*
D03*
X-206875Y50605D02*
D03*
D127*
X-216915Y27968D02*
D03*
X-216915Y45684D02*
D03*
X-71553Y128996D02*
D03*
X-91238D02*
D03*
X-81395Y163444D02*
D03*
X-71553D02*
D03*
X-91238D02*
D03*
X-71553Y153602D02*
D03*
X-81395D02*
D03*
X-91238D02*
D03*
D128*
X-9057Y42811D02*
D03*
X-3152D02*
D03*
Y48716D02*
D03*
X-9057D02*
D03*
X-6105Y45763D02*
D03*
X-150157Y-62206D02*
D03*
X-169507Y-55131D02*
D03*
X-147588Y-77571D02*
D03*
X-143069Y-77410D02*
D03*
X-141120Y-84069D02*
D03*
X-130922Y-80628D02*
D03*
X-138110Y-68025D02*
D03*
X-84993Y44243D02*
D03*
X-79186Y50050D02*
D03*
X-90801D02*
D03*
X-84993Y55857D02*
D03*
Y50050D02*
D03*
X-149606Y17717D02*
D03*
X-153543D02*
D03*
X-100394Y-104331D02*
D03*
X-64961D02*
D03*
X-74803Y-106299D02*
D03*
X-90551D02*
D03*
X-129921Y-11811D02*
D03*
X-169291Y-31496D02*
D03*
X-121841Y-91827D02*
D03*
X-129921Y-70866D02*
D03*
X-137795Y-43307D02*
D03*
X-141732Y-35433D02*
D03*
X-62598Y64173D02*
D03*
X-70079Y76378D02*
D03*
X-81890D02*
D03*
X-83403Y-17480D02*
D03*
X-96877Y-81753D02*
D03*
X-163716Y100390D02*
D03*
X-12678Y58065D02*
D03*
X439Y32131D02*
D03*
X17517Y-496D02*
D03*
X6691Y4425D02*
D03*
X2754Y6393D02*
D03*
X-12994Y5409D02*
D03*
X-29248Y27747D02*
D03*
X-17594Y36950D02*
D03*
X20896Y27653D02*
D03*
X16828D02*
D03*
X-33664Y16236D02*
D03*
X12618Y27653D02*
D03*
X8462Y27653D02*
D03*
X15943Y44582D02*
D03*
X12793Y39070D02*
D03*
X-8926Y22522D02*
D03*
X-15878Y27921D02*
D03*
X-12079Y28509D02*
D03*
X-70911Y54661D02*
D03*
X-69462Y60018D02*
D03*
X-50994Y65050D02*
D03*
X-63264Y60108D02*
D03*
X-50994Y56550D02*
D03*
X-52107Y69832D02*
D03*
X-22999Y104339D02*
D03*
X-19025Y104081D02*
D03*
X-89663Y21420D02*
D03*
Y25357D02*
D03*
X-85726Y21420D02*
D03*
Y25357D02*
D03*
X-80501Y-8916D02*
D03*
X-29427Y36380D02*
D03*
X-26774Y12299D02*
D03*
X-33664Y11315D02*
D03*
X7778Y39136D02*
D03*
X11252Y86607D02*
D03*
X8073Y97570D02*
D03*
X-29429Y32272D02*
D03*
X4291Y51923D02*
D03*
X-15494Y64850D02*
D03*
X-21494Y73050D02*
D03*
X-15157Y52495D02*
D03*
X21545Y95990D02*
D03*
X21544Y87250D02*
D03*
X21664Y82412D02*
D03*
X23007Y72550D02*
D03*
X21542Y92340D02*
D03*
X24400Y52661D02*
D03*
X-139494Y79050D02*
D03*
Y82550D02*
D03*
X-195999Y50277D02*
D03*
X-197994Y20550D02*
D03*
X-191869Y50232D02*
D03*
X-139494Y134050D02*
D03*
X30507Y96550D02*
D03*
X-6994Y116050D02*
D03*
X-26994Y137550D02*
D03*
X-29495Y148049D02*
D03*
X-53331Y154045D02*
D03*
X-50994Y138885D02*
D03*
X-94494Y103050D02*
D03*
X-90993D02*
D03*
X-44243Y-1700D02*
D03*
X-28522Y126304D02*
D03*
X-58909Y35550D02*
D03*
X-26493Y-8950D02*
D03*
X-34993D02*
D03*
X-62493D02*
D03*
X-34507Y63010D02*
D03*
X-34604Y70089D02*
D03*
X-54493Y150550D02*
D03*
X-37494Y163050D02*
D03*
X-113994Y176550D02*
D03*
X-103993Y178550D02*
D03*
X-76994Y172050D02*
D03*
X-109994Y171050D02*
D03*
Y159050D02*
D03*
X-39444Y77453D02*
D03*
X-35019Y73547D02*
D03*
X-35493Y101550D02*
D03*
X-45994Y50050D02*
D03*
X31007Y67050D02*
D03*
X4507Y123550D02*
D03*
X6591Y108098D02*
D03*
X-51248Y111463D02*
D03*
X-48493Y114550D02*
D03*
X-21494Y124550D02*
D03*
X-26493Y122550D02*
D03*
X-41993Y126550D02*
D03*
X-33994Y45550D02*
D03*
X-29493D02*
D03*
X-33994Y51050D02*
D03*
X-21394Y63250D02*
D03*
X-41960Y108794D02*
D03*
X-20993Y120550D02*
D03*
X-34881Y96664D02*
D03*
X-27193Y65550D02*
D03*
X9007Y63850D02*
D03*
X3572Y57319D02*
D03*
X24006Y61550D02*
D03*
X14006Y69150D02*
D03*
X13903Y113597D02*
D03*
X-22994Y93550D02*
D03*
X-52994Y143050D02*
D03*
X-28493Y154050D02*
D03*
X-52994Y147050D02*
D03*
X-52494Y158050D02*
D03*
X-105493Y123050D02*
D03*
Y144050D02*
D03*
X-35962Y105518D02*
D03*
X-87994Y137050D02*
D03*
X-57494Y111050D02*
D03*
X-34993Y144050D02*
D03*
X-55493Y36550D02*
D03*
X-87994Y75050D02*
D03*
X-94944Y82671D02*
D03*
X-94976Y94639D02*
D03*
X-112994Y60050D02*
D03*
X-105993Y65050D02*
D03*
X-125578Y55636D02*
D03*
X-135494Y51050D02*
D03*
X-121659Y51995D02*
D03*
X-115993Y57050D02*
D03*
X-116493Y43050D02*
D03*
X-120993D02*
D03*
X-53493Y86550D02*
D03*
X-55993Y81550D02*
D03*
X-58994Y77550D02*
D03*
X-50994Y91550D02*
D03*
X-39220Y91823D02*
D03*
X-38959Y81572D02*
D03*
X-38903Y86550D02*
D03*
X53900Y87598D02*
D03*
X55920Y82512D02*
D03*
X55247Y76939D02*
D03*
X52779Y71778D02*
D03*
X50385Y66878D02*
D03*
X-173994Y78518D02*
D03*
X-169962Y86518D02*
D03*
X-79993Y-59450D02*
D03*
X-39494Y-72450D02*
D03*
X-61493Y-77950D02*
D03*
X-33525Y-81482D02*
D03*
X-40494Y-59450D02*
D03*
X-38493Y-65950D02*
D03*
X-77994D02*
D03*
X-78993Y-72950D02*
D03*
X-110994Y57050D02*
D03*
X-104993Y33050D02*
D03*
X-72993Y30050D02*
D03*
X-69994Y65050D02*
D03*
X-85493Y68550D02*
D03*
X-43929Y-17491D02*
D03*
X-44993Y-12950D02*
D03*
X-57962Y-12919D02*
D03*
X-38993Y-5450D02*
D03*
X-62493D02*
D03*
X13903Y133861D02*
D03*
X-120542Y133444D02*
D03*
X-122456Y130413D02*
D03*
X-25709Y128820D02*
D03*
X-84993Y120722D02*
D03*
X-79081Y94542D02*
D03*
X-85348Y108659D02*
D03*
X-121305Y64116D02*
D03*
X-97462Y-4455D02*
D03*
X-100494Y33050D02*
D03*
X-116493Y37050D02*
D03*
X-100494Y61050D02*
D03*
X-53817Y114373D02*
D03*
X-2716Y89716D02*
D03*
X1784Y85216D02*
D03*
X2129Y89359D02*
D03*
X2284Y79716D02*
D03*
X-2216D02*
D03*
X-2716Y85216D02*
D03*
X-7716Y89716D02*
D03*
Y85216D02*
D03*
Y79716D02*
D03*
X-12216D02*
D03*
Y85216D02*
D03*
Y89716D02*
D03*
X-120796Y38796D02*
D03*
X-121651Y29620D02*
D03*
X-112400Y21199D02*
D03*
X-68810Y22204D02*
D03*
X-66654Y40413D02*
D03*
X-73666Y38089D02*
D03*
X-92477Y12814D02*
D03*
X-104268Y13957D02*
D03*
X-42052Y4543D02*
D03*
Y14173D02*
D03*
X-54957Y30820D02*
D03*
X-55541Y21931D02*
D03*
X-52110Y11366D02*
D03*
X-176414Y67088D02*
D03*
X-147994Y83550D02*
D03*
X-137457Y-94339D02*
D03*
X-142338Y-92056D02*
D03*
X-148448Y-89036D02*
D03*
X-157016Y-84471D02*
D03*
X-164039Y-79801D02*
D03*
X-169131Y-76009D02*
D03*
X-174468Y-71268D02*
D03*
X-180157Y-66598D02*
D03*
X-184652Y-61927D02*
D03*
X-189954Y-56098D02*
D03*
X-194414Y-50620D02*
D03*
X-199365Y-43808D02*
D03*
X-203368Y-37417D02*
D03*
X-207582Y-30253D02*
D03*
X-210778Y-23686D02*
D03*
X-213517Y-17260D02*
D03*
X-216361Y-9394D02*
D03*
X-218679Y-1810D02*
D03*
X-220399Y5073D02*
D03*
X-222120Y13395D02*
D03*
X-223138Y20770D02*
D03*
X-223805Y28495D02*
D03*
X-224051Y36536D02*
D03*
X-222857Y54551D02*
D03*
X-221699Y61960D02*
D03*
X-219834Y71208D02*
D03*
X-217775Y78479D02*
D03*
X-215569Y85415D02*
D03*
X-212290Y93860D02*
D03*
X-207966Y103001D02*
D03*
X-203584Y110315D02*
D03*
X-198563Y117367D02*
D03*
X-192411Y114320D02*
D03*
X-186055Y108022D02*
D03*
X-205121Y89837D02*
D03*
X-195052Y84059D02*
D03*
X50528Y94898D02*
D03*
X47962Y100862D02*
D03*
X37609Y118407D02*
D03*
X33361Y124417D02*
D03*
X28409Y130628D02*
D03*
X23185Y135707D02*
D03*
X17439Y141540D02*
D03*
X10387Y147460D02*
D03*
X-11294Y126975D02*
D03*
X-2420Y127032D02*
D03*
X-33494Y118550D02*
D03*
X-15647Y152298D02*
D03*
X-11123Y160898D02*
D03*
X-17735Y165323D02*
D03*
X-25491Y168654D02*
D03*
X-33793Y171985D02*
D03*
X-44084Y175167D02*
D03*
X-54823Y177702D02*
D03*
X-63473Y179243D02*
D03*
X-75704Y180296D02*
D03*
X-89986Y179753D02*
D03*
X-100516Y172793D02*
D03*
X-102106Y150543D02*
D03*
X-122888Y170629D02*
D03*
X-141789Y164976D02*
D03*
X-135489Y153436D02*
D03*
X-159042Y154142D02*
D03*
X-149915Y135594D02*
D03*
X-134665Y117694D02*
D03*
X-165337Y93797D02*
D03*
X-171215Y93743D02*
D03*
X-168468Y112092D02*
D03*
X-168935Y106159D02*
D03*
X-161586Y51570D02*
D03*
X-160932Y41206D02*
D03*
X-161804Y32479D02*
D03*
X-159449Y13780D02*
D03*
X-169993Y13050D02*
D03*
X-130823Y15788D02*
D03*
X-136823Y22006D02*
D03*
X-121877Y6624D02*
D03*
X-112277Y-2321D02*
D03*
X-69994Y-24450D02*
D03*
X-73493Y-30950D02*
D03*
X-63994Y-16950D02*
D03*
X-58994Y-23950D02*
D03*
Y-34950D02*
D03*
X-72993Y-42450D02*
D03*
X-84993D02*
D03*
X-93493Y-42950D02*
D03*
X-53993Y-42450D02*
D03*
X-47493D02*
D03*
X-40494Y-42950D02*
D03*
X-33994Y-31950D02*
D03*
X-32493Y3550D02*
D03*
X-26994Y4550D02*
D03*
X-43494Y30050D02*
D03*
X-50994Y41050D02*
D03*
X-60993Y82550D02*
D03*
X-84993Y63550D02*
D03*
X-96993Y65550D02*
D03*
Y75550D02*
D03*
X-84993Y83550D02*
D03*
X-78993Y89050D02*
D03*
Y102050D02*
D03*
X-69494Y91050D02*
D03*
X-33994Y-51450D02*
D03*
X-63494Y-44450D02*
D03*
X-65494Y-52950D02*
D03*
X-66493Y-81950D02*
D03*
X-58494Y-87950D02*
D03*
X-73493Y-87450D02*
D03*
X-101805Y-87013D02*
D03*
X-109994Y-86950D02*
D03*
X-135827Y-7874D02*
D03*
X-98993Y-15950D02*
D03*
X-99493Y-29950D02*
D03*
Y-47450D02*
D03*
X-104993Y-70450D02*
D03*
X-143993Y-48950D02*
D03*
X-157493Y-51450D02*
D03*
X-163994Y-66450D02*
D03*
X-180493Y-48950D02*
D03*
X-168993Y-42450D02*
D03*
X-189994Y-38950D02*
D03*
X-159494Y-33950D02*
D03*
X-177994Y-28450D02*
D03*
X-170493Y-16950D02*
D03*
X-183993Y-1450D02*
D03*
X-199588Y62070D02*
D03*
X-193993Y69050D02*
D03*
X-208994Y64050D02*
D03*
X-209185Y33081D02*
D03*
X-206493Y12550D02*
D03*
X-202494Y550D02*
D03*
X-152494Y-450D02*
D03*
D129*
X-157413Y112624D02*
D03*
D130*
X-150342Y119695D02*
D03*
D131*
X-120533Y-80667D02*
D03*
X-125454D02*
D03*
X-82533Y-87450D02*
D03*
X-87454D02*
D03*
X-47954D02*
D03*
X-43033D02*
D03*
D132*
X-3246Y-76899D02*
D03*
X-193993Y-17950D02*
D03*
Y96223D02*
D03*
X-3246Y151251D02*
D03*
D133*
X-568346Y493627D02*
Y485628D01*
X-563775D01*
X-556806D02*
X-559853Y493627D01*
X-562899Y485628D01*
X-561757Y488294D02*
X-557948D01*
X-554939Y493627D02*
X-551892Y489818D01*
Y485628D01*
X-548845Y493627D02*
X-551892Y489818D01*
X-542866Y493627D02*
X-547817D01*
Y485628D01*
X-542866D01*
X-547817Y489818D02*
X-544770D01*
X-541533Y493627D02*
Y485628D01*
Y493627D02*
X-538105D01*
X-536962Y493246D01*
X-536581Y492865D01*
X-536200Y492103D01*
Y491341D01*
X-536581Y490580D01*
X-536962Y490199D01*
X-538105Y489818D01*
X-541533D01*
X-538867D02*
X-536200Y485628D01*
X-528126Y493627D02*
Y487914D01*
X-527745Y486771D01*
X-526983Y486009D01*
X-525841Y485628D01*
X-525079D01*
X-523936Y486009D01*
X-523175Y486771D01*
X-522794Y487914D01*
Y493627D01*
X-515252Y492484D02*
X-516014Y493246D01*
X-517157Y493627D01*
X-518680D01*
X-519823Y493246D01*
X-520585Y492484D01*
Y491722D01*
X-520204Y490961D01*
X-519823Y490580D01*
X-519061Y490199D01*
X-516776Y489437D01*
X-516014Y489056D01*
X-515633Y488675D01*
X-515252Y487914D01*
Y486771D01*
X-516014Y486009D01*
X-517157Y485628D01*
X-518680D01*
X-519823Y486009D01*
X-520585Y486771D01*
X-507369Y485628D02*
X-510416Y493627D01*
X-513462Y485628D01*
X-512320Y488294D02*
X-508511D01*
X-499789Y491722D02*
X-500170Y492484D01*
X-500932Y493246D01*
X-501693Y493627D01*
X-503217D01*
X-503979Y493246D01*
X-504740Y492484D01*
X-505121Y491722D01*
X-505502Y490580D01*
Y488675D01*
X-505121Y487533D01*
X-504740Y486771D01*
X-503979Y486009D01*
X-503217Y485628D01*
X-501693D01*
X-500932Y486009D01*
X-500170Y486771D01*
X-499789Y487533D01*
Y488675D01*
X-501693D02*
X-499789D01*
X-493010Y493627D02*
X-497961D01*
Y485628D01*
X-493010D01*
X-497961Y489818D02*
X-494914D01*
D134*
X-41382Y158885D02*
D03*
Y153885D02*
D03*
Y148885D02*
D03*
Y143885D02*
D03*
Y138885D02*
D03*
X-46382D02*
D03*
Y143885D02*
D03*
Y148885D02*
D03*
Y153885D02*
D03*
Y158885D02*
D03*
D135*
X-6102Y43504D02*
D03*
M02*
