G04*
G04 #@! TF.GenerationSoftware,Altium Limited,Altium Designer,20.0.2 (26)*
G04*
G04 Layer_Color=16776960*
%FSLAX25Y25*%
%MOIN*%
G70*
G01*
G75*
%ADD10C,0.00787*%
%ADD14C,0.00500*%
%ADD15C,0.00600*%
%ADD18R,0.19000X0.09500*%
%ADD137C,0.00598*%
D10*
X-577346Y358028D02*
X-485346D01*
X-577346Y348528D02*
X-485346D01*
Y358028D01*
X-577346Y348528D02*
Y358028D01*
X67089Y36880D02*
G03*
X67089Y36880I-147500J0D01*
G01*
D14*
X-501688Y356289D02*
X-502069Y355908D01*
X-502450Y355337D01*
X-502831Y354575D01*
X-503021Y353623D01*
Y352861D01*
X-502831Y351909D01*
X-502450Y351147D01*
X-502069Y350576D01*
X-501688Y350195D01*
X-502069Y355908D02*
X-502450Y355147D01*
X-502640Y354575D01*
X-502831Y353623D01*
Y352861D01*
X-502640Y351909D01*
X-502450Y351338D01*
X-502069Y350576D01*
X-500736Y351909D02*
X-500926Y351719D01*
X-500736Y351528D01*
X-500546Y351719D01*
X-500736Y351909D01*
X-496813Y354575D02*
X-497003Y354956D01*
X-497384Y355337D01*
X-497765Y355527D01*
X-498527D01*
X-498908Y355337D01*
X-499289Y354956D01*
X-499479Y354575D01*
X-499670Y354004D01*
Y353052D01*
X-499479Y352481D01*
X-499289Y352100D01*
X-498908Y351719D01*
X-498527Y351528D01*
X-497765D01*
X-497384Y351719D01*
X-497003Y352100D01*
X-496813Y352481D01*
Y353052D01*
X-497765D02*
X-496813D01*
X-495899Y355527D02*
Y351528D01*
Y355527D02*
X-494185D01*
X-493614Y355337D01*
X-493423Y355147D01*
X-493233Y354766D01*
Y354385D01*
X-493423Y354004D01*
X-493614Y353814D01*
X-494185Y353623D01*
X-495899D02*
X-494185D01*
X-493614Y353433D01*
X-493423Y353242D01*
X-493233Y352861D01*
Y352290D01*
X-493423Y351909D01*
X-493614Y351719D01*
X-494185Y351528D01*
X-495899D01*
X-491195Y355527D02*
X-491576Y355337D01*
X-491957Y354956D01*
X-492147Y354575D01*
X-492338Y354004D01*
Y353052D01*
X-492147Y352481D01*
X-491957Y352100D01*
X-491576Y351719D01*
X-491195Y351528D01*
X-490433D01*
X-490053Y351719D01*
X-489672Y352100D01*
X-489481Y352481D01*
X-489291Y353052D01*
Y354004D01*
X-489481Y354575D01*
X-489672Y354956D01*
X-490053Y355337D01*
X-490433Y355527D01*
X-491195D01*
X-488358Y356289D02*
X-487977Y355908D01*
X-487596Y355337D01*
X-487215Y354575D01*
X-487025Y353623D01*
Y352861D01*
X-487215Y351909D01*
X-487596Y351147D01*
X-487977Y350576D01*
X-488358Y350195D01*
X-487977Y355908D02*
X-487596Y355147D01*
X-487405Y354575D01*
X-487215Y353623D01*
Y352861D01*
X-487405Y351909D01*
X-487596Y351338D01*
X-487977Y350576D01*
X-551346Y355227D02*
Y351228D01*
Y355227D02*
X-549632D01*
X-549061Y355037D01*
X-548870Y354847D01*
X-548680Y354466D01*
Y354085D01*
X-548870Y353704D01*
X-549061Y353514D01*
X-549632Y353323D01*
X-551346D02*
X-549632D01*
X-549061Y353133D01*
X-548870Y352942D01*
X-548680Y352561D01*
Y351990D01*
X-548870Y351609D01*
X-549061Y351419D01*
X-549632Y351228D01*
X-551346D01*
X-546833Y353894D02*
X-547214Y353704D01*
X-547594Y353323D01*
X-547785Y352752D01*
Y352371D01*
X-547594Y351800D01*
X-547214Y351419D01*
X-546833Y351228D01*
X-546261D01*
X-545880Y351419D01*
X-545500Y351800D01*
X-545309Y352371D01*
Y352752D01*
X-545500Y353323D01*
X-545880Y353704D01*
X-546261Y353894D01*
X-546833D01*
X-543862Y355227D02*
Y351990D01*
X-543671Y351419D01*
X-543291Y351228D01*
X-542910D01*
X-544433Y353894D02*
X-543100D01*
X-541767Y355227D02*
Y351990D01*
X-541577Y351419D01*
X-541196Y351228D01*
X-540815D01*
X-542338Y353894D02*
X-541005D01*
X-539291D02*
X-539672Y353704D01*
X-540053Y353323D01*
X-540243Y352752D01*
Y352371D01*
X-540053Y351800D01*
X-539672Y351419D01*
X-539291Y351228D01*
X-538720D01*
X-538339Y351419D01*
X-537958Y351800D01*
X-537768Y352371D01*
Y352752D01*
X-537958Y353323D01*
X-538339Y353704D01*
X-538720Y353894D01*
X-539291D01*
X-536892D02*
Y351228D01*
Y353133D02*
X-536321Y353704D01*
X-535940Y353894D01*
X-535368D01*
X-534987Y353704D01*
X-534797Y353133D01*
Y351228D01*
Y353133D02*
X-534226Y353704D01*
X-533845Y353894D01*
X-533274D01*
X-532893Y353704D01*
X-532702Y353133D01*
Y351228D01*
X-527161Y355227D02*
X-527541Y355037D01*
X-527922Y354656D01*
X-528113Y354275D01*
X-528303Y353704D01*
Y352752D01*
X-528113Y352181D01*
X-527922Y351800D01*
X-527541Y351419D01*
X-527161Y351228D01*
X-526399D01*
X-526018Y351419D01*
X-525637Y351800D01*
X-525447Y352181D01*
X-525256Y352752D01*
Y353704D01*
X-525447Y354275D01*
X-525637Y354656D01*
X-526018Y355037D01*
X-526399Y355227D01*
X-527161D01*
X-524323Y353894D02*
X-523180Y351228D01*
X-522038Y353894D02*
X-523180Y351228D01*
X-521390Y352752D02*
X-519105D01*
Y353133D01*
X-519296Y353514D01*
X-519486Y353704D01*
X-519867Y353894D01*
X-520438D01*
X-520819Y353704D01*
X-521200Y353323D01*
X-521390Y352752D01*
Y352371D01*
X-521200Y351800D01*
X-520819Y351419D01*
X-520438Y351228D01*
X-519867D01*
X-519486Y351419D01*
X-519105Y351800D01*
X-518248Y353894D02*
Y351228D01*
Y352752D02*
X-518058Y353323D01*
X-517677Y353704D01*
X-517296Y353894D01*
X-516725D01*
X-516363Y355227D02*
Y351228D01*
X-513240Y353894D02*
Y351228D01*
Y353323D02*
X-513621Y353704D01*
X-514002Y353894D01*
X-514573D01*
X-514954Y353704D01*
X-515335Y353323D01*
X-515525Y352752D01*
Y352371D01*
X-515335Y351800D01*
X-514954Y351419D01*
X-514573Y351228D01*
X-514002D01*
X-513621Y351419D01*
X-513240Y351800D01*
X-511983Y353894D02*
X-510840Y351228D01*
X-509698Y353894D02*
X-510840Y351228D01*
X-511221Y350467D01*
X-511602Y350086D01*
X-511983Y349895D01*
X-512173D01*
X-23993Y145550D02*
Y148549D01*
X-25493D01*
X-25993Y148049D01*
Y147049D01*
X-25493Y146549D01*
X-23993D01*
X-26992Y145550D02*
X-27992D01*
X-27492D01*
Y148549D01*
X-26992Y148049D01*
D15*
X-57130Y128885D02*
X-43882D01*
X-57130Y168885D02*
X-30752D01*
X-43882Y128885D02*
X-30752D01*
X-52882Y124385D02*
X-34882D01*
X-52882D02*
Y128885D01*
X-34882Y124385D02*
Y128885D01*
Y168885D02*
Y173385D01*
X-52882D02*
X-34882D01*
X-52882Y168885D02*
Y173385D01*
X-51382Y131385D02*
Y158885D01*
X-36382Y131385D02*
Y158885D01*
X-50882Y160385D02*
X-45882Y167885D01*
X-41882D02*
X-36882Y160385D01*
X-57130Y128885D02*
X-57130Y168885D01*
X-30752Y128885D02*
Y168885D01*
X-41882Y167885D02*
X-36882Y160385D01*
X-50882D02*
X-45882Y167885D01*
X-36382Y131385D02*
Y158885D01*
X-51382Y131385D02*
Y158885D01*
X-52882Y128885D02*
X-34882D01*
X-52882Y168885D02*
X-34382D01*
X-57130Y128885D02*
X-52882D01*
Y124385D02*
Y128885D01*
Y124385D02*
X-34882D01*
Y124885D01*
Y128885D01*
X-30752D01*
X-34882Y168885D02*
X-30752D01*
X-34882D02*
Y173385D01*
X-52882D02*
X-34882D01*
X-52882Y168885D02*
Y173385D01*
X-57130Y168885D02*
X-52882D01*
X-57130Y128885D02*
X-57130Y168885D01*
X-30752Y128885D02*
Y168885D01*
D18*
X-567846Y353278D02*
D03*
D137*
X-51382Y131385D02*
G03*
X-48882Y128885I2500J0D01*
G01*
X-38882D02*
G03*
X-36382Y131385I0J2500D01*
G01*
X-41882Y167885D02*
G03*
X-45882Y167885I-2000J-1500D01*
G01*
X-50882Y160385D02*
G03*
X-51382Y158885I2000J-1500D01*
G01*
X-36382D02*
G03*
X-36882Y160385I-2500J0D01*
G01*
X-38882Y128885D02*
G03*
X-36382Y131385I0J2500D01*
G01*
X-51382D02*
G03*
X-48882Y128885I2500J0D01*
G01*
X-41882Y167885D02*
G03*
X-45882Y167885I-2000J-1500D01*
G01*
X-36382Y158885D02*
G03*
X-36882Y160385I-2500J0D01*
G01*
X-50882D02*
G03*
X-51382Y158885I2000J-1500D01*
G01*
M02*
