G04*
G04 #@! TF.GenerationSoftware,Altium Limited,Altium Designer,20.0.2 (26)*
G04*
G04 Layer_Color=32896*
%FSLAX25Y25*%
%MOIN*%
G70*
G01*
G75*
%ADD10C,0.00787*%
%ADD14C,0.00500*%
%ADD15C,0.00600*%
%ADD18R,0.19000X0.09500*%
%ADD137C,0.00598*%
%ADD138C,0.00394*%
D10*
X-577346Y254428D02*
Y263928D01*
X-485346Y254428D02*
Y263928D01*
X-577346Y254428D02*
X-485346D01*
X-577346Y263928D02*
X-485346D01*
X67089Y36880D02*
G03*
X67089Y36880I-147500J0D01*
G01*
D14*
X-551346Y261127D02*
Y257128D01*
Y261127D02*
X-549632D01*
X-549061Y260937D01*
X-548870Y260747D01*
X-548680Y260366D01*
Y259985D01*
X-548870Y259604D01*
X-549061Y259414D01*
X-549632Y259223D01*
X-551346D02*
X-549632D01*
X-549061Y259033D01*
X-548870Y258842D01*
X-548680Y258461D01*
Y257890D01*
X-548870Y257509D01*
X-549061Y257319D01*
X-549632Y257128D01*
X-551346D01*
X-546642Y261127D02*
X-547023Y260937D01*
X-547404Y260556D01*
X-547594Y260175D01*
X-547785Y259604D01*
Y258652D01*
X-547594Y258081D01*
X-547404Y257700D01*
X-547023Y257319D01*
X-546642Y257128D01*
X-545881D01*
X-545500Y257319D01*
X-545119Y257700D01*
X-544928Y258081D01*
X-544738Y258652D01*
Y259604D01*
X-544928Y260175D01*
X-545119Y260556D01*
X-545500Y260937D01*
X-545881Y261127D01*
X-546642D01*
X-542472D02*
Y257128D01*
X-543805Y261127D02*
X-541139D01*
X-540662Y255795D02*
X-537615D01*
X-534054Y257128D02*
X-535578Y261127D01*
X-537101Y257128D01*
X-536530Y258461D02*
X-534626D01*
X-530455Y260556D02*
X-530836Y260937D01*
X-531407Y261127D01*
X-532169D01*
X-532740Y260937D01*
X-533121Y260556D01*
Y260175D01*
X-532931Y259794D01*
X-532740Y259604D01*
X-532360Y259414D01*
X-531217Y259033D01*
X-530836Y258842D01*
X-530646Y258652D01*
X-530455Y258271D01*
Y257700D01*
X-530836Y257319D01*
X-531407Y257128D01*
X-532169D01*
X-532740Y257319D01*
X-533121Y257700D01*
X-526894Y260556D02*
X-527275Y260937D01*
X-527846Y261127D01*
X-528608D01*
X-529179Y260937D01*
X-529560Y260556D01*
Y260175D01*
X-529370Y259794D01*
X-529179Y259604D01*
X-528798Y259414D01*
X-527656Y259033D01*
X-527275Y258842D01*
X-527084Y258652D01*
X-526894Y258271D01*
Y257700D01*
X-527275Y257319D01*
X-527846Y257128D01*
X-528608D01*
X-529179Y257319D01*
X-529560Y257700D01*
X-523523Y261127D02*
X-525999D01*
Y257128D01*
X-523523D01*
X-525999Y259223D02*
X-524475D01*
X-522857Y261127D02*
Y257128D01*
Y261127D02*
X-521333Y257128D01*
X-519810Y261127D02*
X-521333Y257128D01*
X-519810Y261127D02*
Y257128D01*
X-518667Y261127D02*
Y257128D01*
Y261127D02*
X-516953D01*
X-516382Y260937D01*
X-516192Y260747D01*
X-516001Y260366D01*
Y259985D01*
X-516192Y259604D01*
X-516382Y259414D01*
X-516953Y259223D01*
X-518667D02*
X-516953D01*
X-516382Y259033D01*
X-516192Y258842D01*
X-516001Y258461D01*
Y257890D01*
X-516192Y257509D01*
X-516382Y257319D01*
X-516953Y257128D01*
X-518667D01*
X-515106Y261127D02*
Y257128D01*
X-512821D01*
X-512383Y261127D02*
X-510859Y259223D01*
Y257128D01*
X-509336Y261127D02*
X-510859Y259223D01*
X-501688Y262250D02*
X-502069Y261869D01*
X-502450Y261298D01*
X-502831Y260536D01*
X-503021Y259584D01*
Y258822D01*
X-502831Y257870D01*
X-502450Y257108D01*
X-502069Y256537D01*
X-501688Y256156D01*
X-502069Y261869D02*
X-502450Y261107D01*
X-502640Y260536D01*
X-502831Y259584D01*
Y258822D01*
X-502640Y257870D01*
X-502450Y257299D01*
X-502069Y256537D01*
X-500736Y257870D02*
X-500926Y257680D01*
X-500736Y257489D01*
X-500546Y257680D01*
X-500736Y257870D01*
X-496813Y260536D02*
X-497003Y260917D01*
X-497384Y261298D01*
X-497765Y261488D01*
X-498527D01*
X-498908Y261298D01*
X-499289Y260917D01*
X-499479Y260536D01*
X-499670Y259965D01*
Y259013D01*
X-499479Y258441D01*
X-499289Y258060D01*
X-498908Y257680D01*
X-498527Y257489D01*
X-497765D01*
X-497384Y257680D01*
X-497003Y258060D01*
X-496813Y258441D01*
Y259013D01*
X-497765D02*
X-496813D01*
X-495899Y261488D02*
Y257489D01*
Y261488D02*
X-494375Y257489D01*
X-492852Y261488D02*
X-494375Y257489D01*
X-492852Y261488D02*
Y257489D01*
X-490757Y261488D02*
X-491328Y261298D01*
X-491519Y260917D01*
Y260536D01*
X-491328Y260155D01*
X-490947Y259965D01*
X-490186Y259774D01*
X-489614Y259584D01*
X-489234Y259203D01*
X-489043Y258822D01*
Y258251D01*
X-489234Y257870D01*
X-489424Y257680D01*
X-489995Y257489D01*
X-490757D01*
X-491328Y257680D01*
X-491519Y257870D01*
X-491709Y258251D01*
Y258822D01*
X-491519Y259203D01*
X-491138Y259584D01*
X-490567Y259774D01*
X-489805Y259965D01*
X-489424Y260155D01*
X-489234Y260536D01*
Y260917D01*
X-489424Y261298D01*
X-489995Y261488D01*
X-490757D01*
X-488148Y262250D02*
X-487767Y261869D01*
X-487386Y261298D01*
X-487006Y260536D01*
X-486815Y259584D01*
Y258822D01*
X-487006Y257870D01*
X-487386Y257108D01*
X-487767Y256537D01*
X-488148Y256156D01*
X-487767Y261869D02*
X-487386Y261107D01*
X-487196Y260536D01*
X-487006Y259584D01*
Y258822D01*
X-487196Y257870D01*
X-487386Y257299D01*
X-487767Y256537D01*
D15*
X-30752Y128885D02*
Y168885D01*
X-57130Y128885D02*
X-57130Y168885D01*
X-52882D01*
Y173385D01*
X-34882D01*
Y168885D02*
Y173385D01*
Y168885D02*
X-30752D01*
X-34882Y128885D02*
X-30752D01*
X-34882Y124885D02*
Y128885D01*
Y124385D02*
Y124885D01*
X-52882Y124385D02*
X-34882D01*
X-52882D02*
Y128885D01*
X-57130D02*
X-52882D01*
Y168885D02*
X-34382D01*
X-52882Y128885D02*
X-34882D01*
X-51382Y131385D02*
Y158885D01*
X-36382Y131385D02*
Y158885D01*
X-50882Y160385D02*
X-45882Y167885D01*
X-41882D02*
X-36882Y160385D01*
X-30752Y128885D02*
Y168885D01*
X-57130Y128885D02*
X-57130Y168885D01*
X-41882Y167885D02*
X-36882Y160385D01*
X-50882D02*
X-45882Y167885D01*
X-36382Y131385D02*
Y158885D01*
X-51382Y131385D02*
Y158885D01*
X-52882Y168885D02*
Y173385D01*
X-34882D01*
Y168885D02*
Y173385D01*
Y124385D02*
Y128885D01*
X-52882Y124385D02*
Y128885D01*
Y124385D02*
X-34882D01*
X-43882Y128885D02*
X-30752D01*
X-57130Y168885D02*
X-30752D01*
X-57130Y128885D02*
X-43882D01*
D18*
X-567846Y259178D02*
D03*
D137*
X-50882Y160385D02*
G03*
X-51382Y158885I2000J-1500D01*
G01*
X-36382D02*
G03*
X-36882Y160385I-2500J0D01*
G01*
X-41882Y167885D02*
G03*
X-45882Y167885I-2000J-1500D01*
G01*
X-51382Y131385D02*
G03*
X-48882Y128885I2500J0D01*
G01*
X-38882D02*
G03*
X-36382Y131385I0J2500D01*
G01*
Y158885D02*
G03*
X-36882Y160385I-2500J0D01*
G01*
X-50882D02*
G03*
X-51382Y158885I2000J-1500D01*
G01*
X-41882Y167885D02*
G03*
X-45882Y167885I-2000J-1500D01*
G01*
X-38882Y128885D02*
G03*
X-36382Y131385I0J2500D01*
G01*
X-51382D02*
G03*
X-48882Y128885I2500J0D01*
G01*
D138*
X-24494Y151050D02*
Y153018D01*
X-25477D01*
X-25805Y152690D01*
Y152034D01*
X-25477Y151706D01*
X-24494D01*
X-26461Y151050D02*
X-27117D01*
X-26789D01*
Y153018D01*
X-26461Y152690D01*
M02*
