G04*
G04 #@! TF.GenerationSoftware,Altium Limited,Altium Designer,20.0.2 (26)*
G04*
G04 Layer_Color=65535*
%FSLAX25Y25*%
%MOIN*%
G70*
G01*
G75*
%ADD10C,0.00787*%
%ADD11C,0.01000*%
%ADD12C,0.00800*%
%ADD13C,0.00197*%
%ADD14C,0.00500*%
%ADD15C,0.00600*%
%ADD16C,0.00650*%
%ADD17C,0.03937*%
%ADD18R,0.19000X0.09500*%
G36*
X342Y54571D02*
Y54698D01*
X439Y54934D01*
X619Y55114D01*
X854Y55211D01*
X1109D01*
X1344Y55114D01*
X1524Y54934D01*
X1621Y54698D01*
Y54571D01*
Y54444D01*
X1524Y54209D01*
X1344Y54029D01*
X1109Y53931D01*
X854D01*
X619Y54029D01*
X439Y54209D01*
X342Y54444D01*
Y54571D01*
D01*
D02*
G37*
G36*
X4007Y97050D02*
X5506Y98550D01*
X2506D01*
X4007Y97050D01*
D02*
G37*
D10*
X-71494Y43050D02*
G03*
X-71494Y43050I-500J0D01*
G01*
X-81769Y101639D02*
G03*
X-81769Y101639I-707J0D01*
G01*
X-175928Y84258D02*
G03*
X-174058Y84258I935J0D01*
G01*
X-75994Y-39950D02*
G03*
X-75994Y-44950I0J-2500D01*
G01*
X-36494Y-39950D02*
G03*
X-36494Y-44950I0J-2500D01*
G01*
X6597Y-76899D02*
G03*
X6597Y-76899I-9843J0D01*
G01*
Y151251D02*
G03*
X6597Y151251I-9843J0D01*
G01*
X-184151Y96223D02*
G03*
X-184151Y96223I-9843J0D01*
G01*
X-74954Y40010D02*
Y41388D01*
X-76332Y40010D02*
X-74954D01*
X-95033D02*
X-93655D01*
X-95033D02*
Y41388D01*
Y58711D02*
Y60089D01*
X-93655D01*
X-74954Y58711D02*
Y60089D01*
X-76332D02*
X-74954D01*
X6818Y93050D02*
Y94361D01*
Y70739D02*
Y72050D01*
X5506Y94361D02*
X6818D01*
X-16804D02*
X-15494D01*
X5506Y70739D02*
X6818D01*
X-16804D02*
X-15494D01*
X-16804Y93050D02*
Y94361D01*
Y70739D02*
Y72050D01*
X-77476Y88340D02*
Y100938D01*
X-80976Y88340D02*
Y100938D01*
X-77476D01*
X-80976Y88340D02*
X-77476D01*
X-172631Y72841D02*
Y84258D01*
X-177356Y72841D02*
X-172631D01*
X-177356D02*
Y84258D01*
X-172631Y84258D01*
X-95994Y-35950D02*
X-76994D01*
X-95994Y-48950D02*
Y-35950D01*
Y-48950D02*
X-75994D01*
Y-44950D01*
X-76994Y-35950D02*
X-75994D01*
Y-39950D02*
Y-35950D01*
X-189793Y31650D02*
Y38650D01*
X-193793D02*
X-189793D01*
X-193793Y31650D02*
Y38650D01*
Y31650D02*
X-189793D01*
X-190793Y38650D02*
X-189793Y37650D01*
X-193793D02*
X-192793Y38650D01*
X-42994Y53550D02*
Y72550D01*
X-43993Y73550D02*
X-42994Y72550D01*
X-43993Y52550D02*
X-42994Y53550D01*
X-47993Y52550D02*
X-43993D01*
X-48994Y53550D02*
X-47993Y52550D01*
X-48994Y53550D02*
Y72550D01*
X-47993Y73550D01*
X-43993D01*
X-100096Y183130D02*
X-62694D01*
Y126043D02*
Y183130D01*
X-100096Y126043D02*
Y183130D01*
Y126043D02*
X-62694D01*
X-150342Y126767D02*
X-143271Y119695D01*
X-164484Y112624D02*
X-157413Y105553D01*
X-143271Y119695D01*
X-164484Y112624D02*
X-150342Y126767D01*
X-30202Y49046D02*
Y62046D01*
Y49046D02*
X-19202D01*
Y62046D01*
X-30202D02*
X-19202D01*
X-117126Y-67716D02*
X-111984D01*
Y-56693D01*
X-117126D02*
X-111984D01*
X-139984Y-67716D02*
X-134843D01*
X-139984D02*
Y-56693D01*
X-134843D01*
Y-67716D02*
X-117126D01*
X-134843Y-56693D02*
X-117126D01*
X-136698Y108756D02*
X-133062Y112392D01*
X-140857Y120187D02*
X-133062Y112392D01*
X-144493Y116551D02*
X-140857Y120187D01*
X-152861Y92593D02*
X-149225Y96228D01*
X-160656Y100388D02*
X-152861Y92593D01*
X-160656Y100388D02*
X-157020Y104023D01*
X-149225Y96228D02*
X-136698Y108756D01*
X-157020Y104023D02*
X-144493Y116551D01*
X-32493Y152703D02*
X-31493Y153703D01*
X-35493D02*
X-34493Y152703D01*
X-35493Y159703D02*
X-31493D01*
Y152703D02*
Y159703D01*
X-35493Y152703D02*
X-31493D01*
X-35493D02*
Y159703D01*
X28007Y70050D02*
Y89050D01*
Y70050D02*
X29006Y69050D01*
X28007Y89050D02*
X29006Y90050D01*
X33007D01*
X34007Y89050D01*
Y70050D02*
Y89050D01*
X33007Y69050D02*
X34007Y70050D01*
X29006Y69050D02*
X33007D01*
X-17993Y126550D02*
X1006D01*
X-18993Y125550D02*
X-17993Y126550D01*
X1006D02*
X2007Y125550D01*
Y121550D02*
Y125550D01*
X1006Y120550D02*
X2007Y121550D01*
X-17993Y120550D02*
X1006D01*
X-18993Y121550D02*
X-17993Y120550D01*
X-18993Y121550D02*
Y125550D01*
X-36494Y-39950D02*
Y-35950D01*
X-37494D02*
X-36494D01*
Y-48950D02*
Y-44950D01*
X-56494Y-48950D02*
X-36494D01*
X-56494D02*
Y-35950D01*
X-37494D01*
X-169663Y115052D02*
X-164713Y120002D01*
X-167541Y122830D02*
X-164713Y120002D01*
X-172491Y117880D02*
X-167541Y122830D01*
X-172491Y117880D02*
X-169663Y115052D01*
X-165420Y119295D02*
Y120709D01*
X-168248Y122123D02*
X-166834D01*
X-577346Y466528D02*
X-485346D01*
X-577346Y457028D02*
X-485346D01*
Y466528D01*
X-577346Y457028D02*
Y466528D01*
X67089Y36880D02*
G03*
X67089Y36880I-147500J0D01*
G01*
D11*
X-50494Y153550D02*
G03*
X-50494Y153550I-500J0D01*
G01*
X-169862Y160171D02*
X-169862Y154604D01*
X-16439Y56098D02*
X1946D01*
X4230Y53814D01*
Y35429D02*
Y53814D01*
X-16439Y35429D02*
Y56098D01*
Y35429D02*
X4230D01*
X-179493Y-12450D02*
Y-5452D01*
X-175995D01*
X-174828Y-6619D01*
Y-8951D01*
X-175995Y-10118D01*
X-179493D01*
X-177161D02*
X-174828Y-12450D01*
X-171329D02*
X-168997D01*
X-167831Y-11284D01*
Y-8951D01*
X-168997Y-7785D01*
X-171329D01*
X-172496Y-8951D01*
Y-11284D01*
X-171329Y-12450D01*
X-165498Y-5452D02*
Y-12450D01*
Y-8951D01*
X-160833D01*
Y-5452D01*
Y-12450D01*
X-153835Y-6619D02*
X-155001Y-5452D01*
X-157334D01*
X-158500Y-6619D01*
Y-7785D01*
X-157334Y-8951D01*
X-155001D01*
X-153835Y-10118D01*
Y-11284D01*
X-155001Y-12450D01*
X-157334D01*
X-158500Y-11284D01*
D12*
X-160195Y-68845D02*
G03*
X-160195Y-68845I-1082J0D01*
G01*
X-160288Y-75357D02*
G03*
X-160288Y-75357I-1082J0D01*
G01*
X-197284Y126347D02*
X-169445Y154186D01*
X-169862Y154604D02*
X-154969Y139710D01*
X-197701Y126765D02*
X-182807Y111871D01*
X-203269Y126765D02*
X-197701D01*
X-232663Y51590D02*
X-212651D01*
X-232663Y22062D02*
X-212651Y22062D01*
X-232663Y22062D02*
Y51590D01*
X-200379Y51590D02*
X-200379Y22062D01*
X-226789Y51590D02*
X-226789Y22062D01*
X-126994Y92550D02*
Y95174D01*
X-125682Y96486D01*
X-124370Y95174D01*
Y92550D01*
Y94518D01*
X-126994D01*
X-145993Y95986D02*
Y92050D01*
Y93362D01*
X-143370Y95986D01*
X-145338Y94018D01*
X-143370Y92050D01*
X-167782Y58600D02*
Y62536D01*
Y61224D01*
X-170406Y58600D01*
X-168438Y60568D01*
X-170406Y62536D01*
X-186782Y62036D02*
Y59412D01*
X-188094Y58100D01*
X-189406Y59412D01*
Y62036D01*
Y60068D01*
X-186782D01*
X-146088Y89534D02*
Y85598D01*
Y86910D01*
X-143464Y89534D01*
X-145432Y87566D01*
X-143464Y85598D01*
X-127088Y86098D02*
Y88722D01*
X-125776Y90034D01*
X-124464Y88722D01*
Y86098D01*
Y88066D01*
X-127088D01*
X-178993Y-3450D02*
Y485D01*
X-177026D01*
X-176370Y-170D01*
Y-1482D01*
X-177026Y-2138D01*
X-178993D01*
X-177682D02*
X-176370Y-3450D01*
X-172434Y485D02*
X-175058D01*
Y-3450D01*
X-172434D01*
X-175058Y-1482D02*
X-173746D01*
X-171122Y485D02*
Y-2138D01*
X-169810Y-3450D01*
X-168498Y-2138D01*
Y485D01*
X-167186Y-3450D02*
X-165874D01*
X-166530D01*
Y485D01*
X-167186Y-170D01*
X-163907Y-1482D02*
X-161283D01*
X-159971Y-3450D02*
X-158659D01*
X-159315D01*
Y485D01*
X-159971Y-170D01*
X-216370Y8330D02*
X-217026Y8986D01*
X-218338D01*
X-218993Y8330D01*
Y5706D01*
X-218338Y5050D01*
X-217026D01*
X-216370Y5706D01*
X-215058Y8986D02*
Y5050D01*
Y7018D01*
X-212434D01*
Y8986D01*
Y5050D01*
X-211122D02*
Y7674D01*
X-209810Y8986D01*
X-208498Y7674D01*
Y5050D01*
Y7018D01*
X-211122D01*
X-207186Y8986D02*
X-205874D01*
X-206530D01*
Y5050D01*
X-207186D01*
X-205874D01*
X-203906D02*
Y8986D01*
X-201939D01*
X-201283Y8330D01*
Y7018D01*
X-201939Y6362D01*
X-203906D01*
X-202595D02*
X-201283Y5050D01*
X-193411Y8330D02*
X-194067Y8986D01*
X-195379D01*
X-196035Y8330D01*
Y7674D01*
X-195379Y7018D01*
X-194067D01*
X-193411Y6362D01*
Y5706D01*
X-194067Y5050D01*
X-195379D01*
X-196035Y5706D01*
X-192099Y5050D02*
Y8986D01*
X-190131D01*
X-189476Y8330D01*
Y7018D01*
X-190131Y6362D01*
X-192099D01*
X-185540Y8986D02*
X-188164D01*
Y5050D01*
X-185540D01*
X-188164Y7018D02*
X-186852D01*
X-184228Y5050D02*
Y7674D01*
X-182916Y8986D01*
X-181604Y7674D01*
Y5050D01*
Y7018D01*
X-184228D01*
X-180292Y8986D02*
Y5050D01*
Y6362D01*
X-177668Y8986D01*
X-179636Y7018D01*
X-177668Y5050D01*
X-173732Y8986D02*
X-176356D01*
Y5050D01*
X-173732D01*
X-176356Y7018D02*
X-175044D01*
X-172421Y5050D02*
Y8986D01*
X-170453D01*
X-169797Y8330D01*
Y7018D01*
X-170453Y6362D01*
X-172421D01*
X-171109D02*
X-169797Y5050D01*
X-164549Y8986D02*
X-161925D01*
X-163237D01*
Y5050D01*
X-160613Y8986D02*
X-159301D01*
X-159957D01*
Y5050D01*
X-160613D01*
X-159301D01*
X-153398D02*
Y8986D01*
X-151430D01*
X-150774Y8330D01*
Y7018D01*
X-151430Y6362D01*
X-153398D01*
X-152086D02*
X-150774Y5050D01*
X-146838Y8986D02*
X-149462D01*
Y5050D01*
X-146838D01*
X-149462Y7018D02*
X-148150D01*
X-142903Y8330D02*
X-143559Y8986D01*
X-144870D01*
X-145526Y8330D01*
Y5706D01*
X-144870Y5050D01*
X-143559D01*
X-142903Y5706D01*
X-138967Y8986D02*
X-141591D01*
Y5050D01*
X-138967D01*
X-141591Y7018D02*
X-140279D01*
X-137655Y8986D02*
X-136343D01*
X-136999D01*
Y5050D01*
X-137655D01*
X-136343D01*
X-134375Y8986D02*
Y6362D01*
X-133063Y5050D01*
X-131751Y6362D01*
Y8986D01*
X-127816D02*
X-130439D01*
Y5050D01*
X-127816D01*
X-130439Y7018D02*
X-129128D01*
X-126504Y5050D02*
Y8986D01*
X-124536D01*
X-123880Y8330D01*
Y7018D01*
X-124536Y6362D01*
X-126504D01*
X-125192D02*
X-123880Y5050D01*
D13*
X-184151Y-17950D02*
G03*
X-184151Y-17950I-9843J0D01*
G01*
D14*
X-111994Y165050D02*
Y169050D01*
Y165050D02*
X-103993D01*
Y169050D01*
X-111994D02*
X-103993D01*
X-178993Y55050D02*
X-144993D01*
X-178993Y39050D02*
Y55050D01*
Y39050D02*
X-144993Y39050D01*
X-144993Y55050D02*
X-144993Y39050D01*
X-87257Y28524D02*
Y36524D01*
X-83257D01*
Y28524D02*
Y36524D01*
X-87257Y28524D02*
X-83257D01*
X-51594Y-69950D02*
X-41394D01*
X-51594Y-74950D02*
Y-69950D01*
Y-74950D02*
X-41394D01*
Y-69950D01*
X-10844Y3379D02*
X-2844Y3379D01*
X-10844Y3379D02*
Y7379D01*
X-2844Y7379D01*
X-2844Y3379D02*
X-2844Y7379D01*
X-132122Y-38669D02*
X-115122D01*
X-132122Y-52669D02*
Y-38669D01*
Y-52669D02*
X-115122D01*
Y-38669D01*
X-181993Y104550D02*
X-165993D01*
X-181993Y95550D02*
Y104550D01*
Y95550D02*
X-165993D01*
Y104550D01*
X-107993Y30050D02*
Y43050D01*
X-114994D02*
X-107993D01*
X-114994Y30050D02*
Y43050D01*
Y30050D02*
X-107993D01*
X-6856Y7460D02*
X-2856D01*
Y15460D01*
X-6856D02*
X-2856D01*
X-6856Y7460D02*
Y15460D01*
X-131360Y-88738D02*
Y-76139D01*
Y-88738D02*
X-114627D01*
Y-76139D01*
X-131360D02*
X-114627D01*
X-178993Y37050D02*
X-144993D01*
X-178993Y21050D02*
Y37050D01*
Y21050D02*
X-144993D01*
Y37050D01*
X-83494Y113550D02*
Y117550D01*
X-91493D02*
X-83494D01*
X-91493Y113550D02*
Y117550D01*
Y113550D02*
X-83494D01*
X-106993Y18450D02*
X-106993Y28650D01*
X-106993Y18450D02*
X-101994D01*
X-101994Y28650D02*
X-101994Y18450D01*
X-106993Y28650D02*
X-101994D01*
X15025Y50535D02*
Y54535D01*
Y50535D02*
X23025D01*
Y54535D01*
X15025D02*
X23025D01*
X16676Y109948D02*
X20676D01*
X16676D02*
X16676Y101948D01*
X20676D01*
X20676Y109948D02*
X20676Y101948D01*
X-93360Y-95521D02*
Y-82923D01*
Y-95521D02*
X-76627D01*
Y-82923D01*
X-93360D02*
X-76627D01*
X-32994Y-18950D02*
X-32994Y-22950D01*
X-40993Y-18950D02*
X-32994D01*
X-40993D02*
X-40993Y-22950D01*
X-32994D01*
X-58494Y-69450D02*
X-54493D01*
Y-61450D01*
X-58494D02*
X-54493D01*
X-58494Y-69450D02*
Y-61450D01*
X-178493Y107050D02*
Y111050D01*
Y107050D02*
X-170493D01*
Y111050D01*
X-178493D02*
X-170493D01*
X-40993Y-26950D02*
Y-22950D01*
Y-26950D02*
X-32994D01*
Y-22950D01*
X-40993D02*
X-32994D01*
X-40993Y-18950D02*
X-36994D01*
X-36994Y-10950D02*
X-36994Y-18950D01*
X-40993Y-10950D02*
X-36994D01*
X-40993Y-18950D02*
Y-10950D01*
X-55993Y-18950D02*
X-51994D01*
X-55993D02*
X-55993Y-26950D01*
X-51994D01*
X-51994Y-18950D02*
X-51994Y-26950D01*
X-36994Y-69450D02*
X-32994D01*
X-32994Y-61450D02*
X-32994Y-69450D01*
X-36994Y-61450D02*
X-32994D01*
X-36994Y-69450D02*
X-36994Y-61450D01*
X-50994Y-18950D02*
X-46993D01*
X-50994Y-26950D02*
X-50994Y-18950D01*
X-50994Y-26950D02*
X-46993Y-26950D01*
X-46993Y-18950D01*
X-92993Y105550D02*
X-88994D01*
Y113550D01*
X-92993Y113550D02*
X-88994Y113550D01*
X-92993Y105550D02*
Y113550D01*
X-67993Y70550D02*
Y74550D01*
X-75994Y74550D02*
X-67993Y74550D01*
X-75994Y74550D02*
X-75994Y70550D01*
X-67993Y70550D01*
X-83994D02*
Y74550D01*
Y70550D02*
X-75994Y70550D01*
X-75994Y74550D02*
X-75994Y70550D01*
X-83994Y74550D02*
X-75994D01*
X-80493Y-22950D02*
X-80493Y-26950D01*
X-72493D01*
Y-22950D01*
X-80493D02*
X-72493D01*
X-80493Y-18950D02*
Y-14950D01*
Y-18950D02*
X-72493Y-18950D01*
Y-14950D01*
X-80493Y-14950D02*
X-72493Y-14950D01*
X-72493Y-22950D02*
Y-18950D01*
X-80493D02*
X-72493D01*
X-80493Y-22950D02*
Y-18950D01*
Y-22950D02*
X-72493D01*
X-97993Y-69450D02*
X-93994D01*
X-93994Y-61450D01*
X-97993D02*
X-93994D01*
X-97993Y-69450D02*
Y-61450D01*
X-95494Y-18950D02*
X-91493D01*
X-95494Y-26950D02*
Y-18950D01*
Y-26950D02*
X-91493Y-26950D01*
X-91493Y-18950D01*
X-76494Y-69450D02*
X-72493D01*
Y-61450D01*
X-76494D02*
X-72493D01*
X-76494Y-69450D02*
Y-61450D01*
X-78993Y20550D02*
Y24550D01*
Y20550D02*
X-70994Y20550D01*
X-70994Y24550D02*
X-70994Y20550D01*
X-78993Y24550D02*
X-70994D01*
X-90494Y-18950D02*
X-86493D01*
X-90494Y-26950D02*
Y-18950D01*
Y-26950D02*
X-86493D01*
Y-18950D01*
X-82972Y28615D02*
X-78972D01*
X-82972Y20615D02*
Y28615D01*
Y20615D02*
X-78972D01*
X-78972Y28615D02*
X-78972Y20615D01*
X-146843Y-76187D02*
X-138843D01*
X-146843D02*
Y-72187D01*
X-138843D01*
Y-76187D02*
Y-72187D01*
X-139097Y-82637D02*
Y-78637D01*
X-147097Y-78637D02*
X-139097Y-78637D01*
X-147097Y-78637D02*
X-147097Y-82637D01*
X-139097D01*
X-193844Y40047D02*
X-189845Y40047D01*
X-189845Y48046D01*
X-193845D02*
X-189845D01*
X-193845D02*
X-193844Y40047D01*
X22506Y55550D02*
Y59550D01*
X14506D02*
X22506D01*
X14506Y55550D02*
Y59550D01*
Y55550D02*
X22506D01*
X-32962Y99550D02*
X-28962D01*
Y107550D01*
X-32962D02*
X-28962D01*
X-32962Y99550D02*
Y107550D01*
X22506Y59550D02*
Y63550D01*
X14506D02*
X22506D01*
X14506Y59550D02*
Y63550D01*
Y59550D02*
X22506D01*
X-167493Y80550D02*
X-163494D01*
Y88550D01*
X-167493D02*
X-163494D01*
X-167493Y80550D02*
Y88550D01*
X-179993Y87050D02*
Y91050D01*
Y87050D02*
X-171994Y87050D01*
X-171994Y91050D01*
X-179993D02*
X-171994D01*
X-96976Y88639D02*
X-88976Y88639D01*
X-96976Y88639D02*
Y92639D01*
X-88976D01*
Y88639D02*
Y92639D01*
X-133464Y107666D02*
X-128464D01*
X-128464Y97466D01*
X-133464D02*
X-128464D01*
X-133464D02*
X-133464Y107666D01*
X11954Y-7878D02*
X13644Y-4253D01*
X6394Y-872D02*
X13644Y-4253D01*
X4703Y-4497D02*
X6394Y-872D01*
X4703Y-4497D02*
X11954Y-7878D01*
X-6918Y27421D02*
X-2918D01*
Y35421D01*
X-6918D02*
X-2918D01*
X-6918Y27421D02*
Y35421D01*
X12711Y81351D02*
X20711D01*
X12711D02*
Y85351D01*
X20711D01*
Y81351D02*
Y85351D01*
Y89433D02*
Y93433D01*
X12711D02*
X20711D01*
X12711Y89433D02*
Y93433D01*
Y89433D02*
X20711D01*
X-53860Y-82923D02*
X-37127D01*
Y-95521D02*
Y-82923D01*
X-53860Y-95521D02*
X-37127D01*
X-53860D02*
Y-82923D01*
X7006Y50550D02*
X15007Y50550D01*
X7006Y50550D02*
Y54550D01*
X15007Y54550D01*
Y50550D02*
Y54550D01*
X12676Y101948D02*
X12676Y109948D01*
X16676Y109948D01*
X16676Y101948D01*
X12676D02*
X16676D01*
X-187494Y72550D02*
X-183493D01*
Y80550D01*
X-187494D02*
X-183493D01*
X-187494D02*
X-187494Y72550D01*
X-167493Y72550D02*
Y80550D01*
X-163494D01*
Y72550D02*
Y80550D01*
X-167493Y72550D02*
X-163494D01*
X-126835Y-33827D02*
X-118835Y-33827D01*
Y-37827D02*
Y-33827D01*
X-126835Y-37827D02*
X-118835Y-37827D01*
X-126835Y-37827D02*
Y-33827D01*
X-126441Y-74441D02*
Y-70441D01*
Y-74441D02*
X-118441D01*
Y-70441D01*
X-126441Y-70441D02*
X-118441Y-70441D01*
X-45994Y-26950D02*
X-45994Y-18950D01*
X-41993Y-18950D01*
Y-26950D02*
Y-18950D01*
X-45994Y-26950D02*
X-41993D01*
X-51994Y-10950D02*
Y-6950D01*
X-59993D02*
X-51994D01*
X-59993Y-10950D02*
Y-6950D01*
Y-10950D02*
X-51994D01*
X-49494Y-79950D02*
X-41493D01*
X-49494D02*
Y-75950D01*
X-41493D01*
Y-79950D02*
Y-75950D01*
X-59993D02*
X-51994D01*
Y-79950D02*
Y-75950D01*
X-59993Y-79950D02*
X-51994D01*
X-59993D02*
Y-75950D01*
X-39494D02*
X-31493D01*
Y-79950D02*
Y-75950D01*
X-39494Y-79950D02*
X-31493D01*
X-39494D02*
Y-75950D01*
X-50994Y-6950D02*
X-42994D01*
Y-10950D02*
Y-6950D01*
X-50994Y-10950D02*
X-42994D01*
X-50994D02*
Y-6950D01*
Y-57450D02*
X-42994D01*
Y-61450D02*
Y-57450D01*
X-50994Y-61450D02*
X-42994D01*
X-50994D02*
Y-57450D01*
X-39494Y-68950D02*
Y-61950D01*
X-52494Y-68950D02*
X-39494D01*
X-52494D02*
Y-61950D01*
X-39494D01*
X-111994Y161050D02*
X-103993D01*
X-111994D02*
Y165050D01*
X-103993D01*
Y161050D02*
Y165050D01*
X-67993Y66550D02*
Y70550D01*
X-75994Y70550D02*
X-67993Y70550D01*
X-75994Y66550D02*
Y70550D01*
Y66550D02*
X-67993Y66550D01*
X-83994Y70550D02*
X-75994Y70550D01*
X-75994Y66550D02*
X-75994Y70550D01*
X-83994Y66550D02*
X-75994D01*
X-83994D02*
Y70550D01*
X-69194Y57682D02*
X-69194Y53682D01*
X-61194Y53682D01*
Y57682D01*
X-69194Y57682D02*
X-61194Y57682D01*
X-50994Y-18950D02*
Y-10950D01*
X-46993D01*
X-46993Y-18950D02*
X-46993Y-10950D01*
X-50994Y-18950D02*
X-46993D01*
X-85493Y-26950D02*
X-81494D01*
X-81494Y-18950D01*
X-85493D02*
X-81494D01*
X-85493Y-26950D02*
Y-18950D01*
X-91493Y-10950D02*
Y-6950D01*
X-99493D02*
X-91493D01*
X-99493Y-10950D02*
Y-6950D01*
Y-10950D02*
X-91493D01*
X-102994Y34550D02*
X-102994Y42550D01*
X-106993Y34550D02*
X-102994D01*
X-106993Y42550D02*
X-106993Y34550D01*
X-106993Y42550D02*
X-102994D01*
X-78993Y36550D02*
X-74993D01*
X-78993D02*
X-78993Y28550D01*
X-74993Y28550D01*
X-74993Y36550D01*
X-109494Y55050D02*
Y63050D01*
X-105493D01*
Y55050D02*
Y63050D01*
X-109494Y55050D02*
X-105493D01*
X-99493Y-75950D02*
X-91493D01*
Y-79950D02*
Y-75950D01*
X-99493Y-79950D02*
X-91493D01*
X-99493D02*
Y-75950D01*
X-95494Y-18950D02*
X-91493D01*
X-91493Y-10950D01*
X-95494D02*
X-91493D01*
X-95494D02*
X-95494Y-18950D01*
X-96494Y32550D02*
X-88494D01*
Y28550D02*
Y32550D01*
X-96494Y28550D02*
X-88494D01*
X-96494D02*
Y32550D01*
X-105493Y55050D02*
Y63050D01*
X-101494D01*
X-101494Y55050D02*
X-101494Y63050D01*
X-105493Y55050D02*
X-101494Y55050D01*
X-78993Y-79950D02*
Y-75950D01*
Y-79950D02*
X-70994Y-79950D01*
X-70994Y-75950D02*
X-70994Y-79950D01*
X-78993Y-75950D02*
X-70994D01*
X-90494Y-6950D02*
X-82494Y-6950D01*
Y-10950D02*
Y-6950D01*
X-90494Y-10950D02*
X-82494Y-10950D01*
X-90494Y-10950D02*
Y-6950D01*
X-78993Y28550D02*
X-70994Y28550D01*
Y24550D02*
Y28550D01*
X-78993Y24550D02*
X-70994D01*
X-78993D02*
Y28550D01*
X-90494Y-57450D02*
X-82494Y-57450D01*
Y-61450D02*
Y-57450D01*
X-90494Y-61450D02*
X-82494D01*
X-90494D02*
Y-57450D01*
X-78993Y-68950D02*
Y-61950D01*
X-91993Y-68950D02*
X-78993D01*
X-91993D02*
Y-61950D01*
X-78993D01*
X-98993Y42550D02*
X-98993Y34550D01*
X-102994D02*
X-98993D01*
X-102994Y42550D02*
X-102994Y34550D01*
X-102994Y42550D02*
X-98993D01*
X-96494Y36550D02*
X-88494Y36550D01*
Y32550D02*
Y36550D01*
X-96494Y32550D02*
X-88494Y32550D01*
X-96494Y32550D02*
Y36550D01*
X-28618Y43660D02*
Y47660D01*
Y43660D02*
X-20618D01*
Y47660D01*
X-28618D02*
X-20618D01*
X-35993Y53050D02*
X-31993D01*
Y61050D01*
X-35993D02*
X-31993D01*
X-35993Y53050D02*
Y61050D01*
X-28962Y99550D02*
Y107550D01*
X-24962D01*
Y99550D02*
Y107550D01*
X-28962Y99550D02*
X-24962D01*
X12711Y93564D02*
Y97564D01*
Y93564D02*
X20711D01*
X20711Y97564D01*
X12711D02*
X20711D01*
X15557Y-9584D02*
X18938Y-2333D01*
X11932Y-7893D02*
X15557Y-9584D01*
X11932Y-7893D02*
X15313Y-643D01*
X18938Y-2333D01*
X4450Y4511D02*
X8075Y2821D01*
X1069Y-2739D02*
X4450Y4511D01*
X1069Y-2739D02*
X4694Y-4430D01*
X8075Y2821D01*
X-18067Y29836D02*
X-10067D01*
X-18067D02*
Y33836D01*
X-10067D01*
Y29836D02*
Y33836D01*
X10580Y37566D02*
X14580D01*
X10580Y29566D02*
Y37566D01*
Y29566D02*
X14580D01*
X14580Y37566D01*
X18859D02*
X22859D01*
X18859Y29566D02*
Y37566D01*
Y29566D02*
X22859D01*
Y37566D01*
X6935Y46586D02*
Y50586D01*
Y46586D02*
X14935D01*
Y50586D01*
X6935D02*
X14935D01*
X12007Y70550D02*
Y74550D01*
Y70550D02*
X20007D01*
Y74550D01*
X12007D02*
X20007D01*
X3506Y58953D02*
Y66953D01*
X-494Y58953D02*
X3506D01*
X-494D02*
Y66953D01*
X3506D01*
X3506Y66953D02*
X7507D01*
X3506Y58953D02*
X3506Y66953D01*
X3506Y58953D02*
X7507D01*
Y66953D01*
X-18048Y64006D02*
X-14048D01*
X-18048Y56006D02*
Y64006D01*
Y56006D02*
X-14048D01*
Y64006D01*
X-32994Y66550D02*
X-24994D01*
X-32994D02*
Y70550D01*
X-24994D01*
Y66550D02*
Y70550D01*
Y74550D01*
X-32994D02*
X-24994D01*
X-32994Y70550D02*
Y74550D01*
Y70550D02*
X-24994D01*
X-32994Y91550D02*
X-24994D01*
X-32994D02*
Y95550D01*
X-24994D01*
Y91550D02*
Y95550D01*
X-16994Y98550D02*
Y102550D01*
X-24994D02*
X-16994D01*
X-24994Y98550D02*
Y102550D01*
Y98550D02*
X-16994D01*
X12711Y89362D02*
X20711D01*
Y85361D02*
Y89362D01*
X12711Y85361D02*
X20711D01*
X12711D02*
Y89362D01*
Y97564D02*
Y101564D01*
Y97564D02*
X20711D01*
Y101564D01*
X12711D02*
X20711D01*
X-96976Y84639D02*
X-96976Y88639D01*
X-96976Y84639D02*
X-88976D01*
Y88639D01*
X-96976Y88639D02*
X-88976Y88639D01*
X-71476Y100139D02*
X-67476D01*
X-71476D02*
X-71476Y92139D01*
X-67476D01*
Y100139D01*
X-92976Y100639D02*
X-88976D01*
X-92976D02*
X-92976Y92639D01*
X-88976D01*
X-88976Y100639D01*
X8676Y101948D02*
Y109948D01*
X12676D01*
X12676Y101948D02*
X12676Y109948D01*
X8676Y101948D02*
X12676D01*
X10425Y29566D02*
Y37566D01*
X6425Y29566D02*
X10425D01*
X6425D02*
Y37566D01*
X10425D01*
X-69221Y53738D02*
X-61221D01*
Y49738D02*
Y53738D01*
X-69221Y49738D02*
X-61221Y49738D01*
X-69221Y49738D02*
Y53738D01*
X-89494Y-79950D02*
X-81494D01*
X-89494D02*
Y-75950D01*
X-81494D01*
Y-79950D02*
Y-75950D01*
X-103512Y134189D02*
Y142189D01*
X-107512Y134189D02*
X-103512D01*
X-107512D02*
Y142189D01*
X-103512D01*
X-80893Y-74950D02*
Y-69950D01*
X-91093Y-74950D02*
X-80893D01*
X-91093D02*
Y-69950D01*
X-80893D01*
X-82994Y36550D02*
X-78993D01*
X-82994D02*
X-82994Y28550D01*
X-78993D01*
Y36550D01*
X-90494Y-18950D02*
Y-10950D01*
X-86493D01*
Y-18950D02*
Y-10950D01*
X-90494Y-18950D02*
X-86493D01*
X-198994Y31050D02*
Y39050D01*
X-194993D01*
Y31050D02*
Y39050D01*
X-198994Y31050D02*
X-194993D01*
X-55993Y-18950D02*
Y-10950D01*
X-51994D01*
Y-18950D02*
Y-10950D01*
X-55993Y-18950D02*
X-51994D01*
X-33994Y135050D02*
X-29994D01*
Y143050D01*
X-33994D02*
X-29994D01*
X-33994Y135050D02*
Y143050D01*
X20711Y77441D02*
Y81441D01*
X12711D02*
X20711D01*
X12711Y77441D02*
Y81441D01*
Y77441D02*
X20711D01*
X-44993Y20050D02*
Y24050D01*
Y20050D02*
X-36994D01*
Y24050D01*
X-44993D02*
X-36994D01*
X-107512Y132740D02*
X-103512D01*
X-107512Y124740D02*
Y132740D01*
Y124740D02*
X-103512D01*
Y132740D01*
X18790Y29566D02*
Y37566D01*
X14790Y29566D02*
X18790D01*
X14790D02*
Y37566D01*
X18790D01*
X-10849Y27389D02*
X-2849D01*
Y23390D02*
Y27389D01*
X-10849Y23390D02*
X-2849D01*
X-10849D02*
Y27389D01*
X-2671Y-996D02*
X710Y6255D01*
X4335Y4564D01*
X954Y-2686D02*
X4335Y4564D01*
X-2671Y-996D02*
X954Y-2686D01*
X18882Y42460D02*
X22882D01*
X22882Y50460D02*
X22882Y42460D01*
X18882Y50460D02*
X22882D01*
X18882Y42460D02*
Y50460D01*
X-11146Y58240D02*
X-3146D01*
X-11146D02*
Y62239D01*
X-3146D01*
Y58240D02*
Y62239D01*
X-28137Y34315D02*
Y38315D01*
Y34315D02*
X-20137D01*
Y38315D01*
X-28137D02*
X-20137D01*
X6951Y42630D02*
Y46630D01*
Y42630D02*
X14951D01*
Y46630D01*
X6951D02*
X14951D01*
X-20137Y26257D02*
Y30257D01*
X-28137D02*
X-20137D01*
X-28137Y26257D02*
Y30257D01*
Y26257D02*
X-20137D01*
X-28137Y30269D02*
Y34269D01*
Y30269D02*
X-20137D01*
Y34269D01*
X-28137D02*
X-20137D01*
X-501688Y464489D02*
X-502069Y464108D01*
X-502450Y463537D01*
X-502831Y462775D01*
X-503021Y461823D01*
Y461061D01*
X-502831Y460109D01*
X-502450Y459347D01*
X-502069Y458776D01*
X-501688Y458395D01*
X-502069Y464108D02*
X-502450Y463347D01*
X-502640Y462775D01*
X-502831Y461823D01*
Y461061D01*
X-502640Y460109D01*
X-502450Y459538D01*
X-502069Y458776D01*
X-500736Y460109D02*
X-500926Y459919D01*
X-500736Y459728D01*
X-500546Y459919D01*
X-500736Y460109D01*
X-496813Y462775D02*
X-497003Y463156D01*
X-497384Y463537D01*
X-497765Y463728D01*
X-498527D01*
X-498908Y463537D01*
X-499289Y463156D01*
X-499479Y462775D01*
X-499670Y462204D01*
Y461252D01*
X-499479Y460680D01*
X-499289Y460300D01*
X-498908Y459919D01*
X-498527Y459728D01*
X-497765D01*
X-497384Y459919D01*
X-497003Y460300D01*
X-496813Y460680D01*
Y461252D01*
X-497765D02*
X-496813D01*
X-494566Y463728D02*
Y459728D01*
X-495899Y463728D02*
X-493233D01*
X-491614D02*
X-491995Y463537D01*
X-492376Y463156D01*
X-492566Y462775D01*
X-492757Y462204D01*
Y461252D01*
X-492566Y460680D01*
X-492376Y460300D01*
X-491995Y459919D01*
X-491614Y459728D01*
X-490852D01*
X-490472Y459919D01*
X-490091Y460300D01*
X-489900Y460680D01*
X-489710Y461252D01*
Y462204D01*
X-489900Y462775D01*
X-490091Y463156D01*
X-490472Y463537D01*
X-490852Y463728D01*
X-491614D01*
X-488777Y464489D02*
X-488396Y464108D01*
X-488015Y463537D01*
X-487634Y462775D01*
X-487443Y461823D01*
Y461061D01*
X-487634Y460109D01*
X-488015Y459347D01*
X-488396Y458776D01*
X-488777Y458395D01*
X-488396Y464108D02*
X-488015Y463347D01*
X-487824Y462775D01*
X-487634Y461823D01*
Y461061D01*
X-487824Y460109D01*
X-488015Y459538D01*
X-488396Y458776D01*
X-550013Y463728D02*
Y459728D01*
X-551346Y463728D02*
X-548680D01*
X-547252Y462394D02*
X-547632Y462204D01*
X-548013Y461823D01*
X-548204Y461252D01*
Y460871D01*
X-548013Y460300D01*
X-547632Y459919D01*
X-547252Y459728D01*
X-546680D01*
X-546299Y459919D01*
X-545919Y460300D01*
X-545728Y460871D01*
Y461252D01*
X-545919Y461823D01*
X-546299Y462204D01*
X-546680Y462394D01*
X-547252D01*
X-544852D02*
Y458395D01*
Y461823D02*
X-544471Y462204D01*
X-544090Y462394D01*
X-543519D01*
X-543138Y462204D01*
X-542757Y461823D01*
X-542567Y461252D01*
Y460871D01*
X-542757Y460300D01*
X-543138Y459919D01*
X-543519Y459728D01*
X-544090D01*
X-544471Y459919D01*
X-544852Y460300D01*
X-537425Y463728D02*
X-537806Y463537D01*
X-538187Y463156D01*
X-538377Y462775D01*
X-538568Y462204D01*
Y461252D01*
X-538377Y460680D01*
X-538187Y460300D01*
X-537806Y459919D01*
X-537425Y459728D01*
X-536663D01*
X-536282Y459919D01*
X-535902Y460300D01*
X-535711Y460680D01*
X-535521Y461252D01*
Y462204D01*
X-535711Y462775D01*
X-535902Y463156D01*
X-536282Y463537D01*
X-536663Y463728D01*
X-537425D01*
X-534588Y462394D02*
X-533445Y459728D01*
X-532302Y462394D02*
X-533445Y459728D01*
X-531655Y461252D02*
X-529370D01*
Y461633D01*
X-529560Y462014D01*
X-529751Y462204D01*
X-530131Y462394D01*
X-530703D01*
X-531084Y462204D01*
X-531464Y461823D01*
X-531655Y461252D01*
Y460871D01*
X-531464Y460300D01*
X-531084Y459919D01*
X-530703Y459728D01*
X-530131D01*
X-529751Y459919D01*
X-529370Y460300D01*
X-528513Y462394D02*
Y459728D01*
Y461252D02*
X-528322Y461823D01*
X-527941Y462204D01*
X-527561Y462394D01*
X-526989D01*
X-526627Y463728D02*
Y459728D01*
X-523504Y462394D02*
Y459728D01*
Y461823D02*
X-523885Y462204D01*
X-524266Y462394D01*
X-524837D01*
X-525218Y462204D01*
X-525599Y461823D01*
X-525789Y461252D01*
Y460871D01*
X-525599Y460300D01*
X-525218Y459919D01*
X-524837Y459728D01*
X-524266D01*
X-523885Y459919D01*
X-523504Y460300D01*
X-522247Y462394D02*
X-521105Y459728D01*
X-519962Y462394D02*
X-521105Y459728D01*
X-521486Y458967D01*
X-521867Y458586D01*
X-522247Y458395D01*
X-522438D01*
X-84750Y13076D02*
X-87112D01*
Y14257D01*
X-86718Y14650D01*
X-85931D01*
X-85537Y14257D01*
Y13076D01*
Y13863D02*
X-84750Y14650D01*
Y15437D02*
Y16225D01*
Y15831D01*
X-87112D01*
X-86718Y15437D01*
X-87112Y18980D02*
Y17405D01*
X-85931D01*
X-86325Y18192D01*
Y18586D01*
X-85931Y18980D01*
X-85144D01*
X-84750Y18586D01*
Y17799D01*
X-85144Y17405D01*
X5097Y58221D02*
Y55722D01*
X5597Y55222D01*
X6597D01*
X7097Y55722D01*
Y58221D01*
X8096Y57721D02*
X8596Y58221D01*
X9596D01*
X10096Y57721D01*
Y57221D01*
X9596Y56721D01*
X10096Y56222D01*
Y55722D01*
X9596Y55222D01*
X8596D01*
X8096Y55722D01*
Y56222D01*
X8596Y56721D01*
X8096Y57221D01*
Y57721D01*
X8596Y56721D02*
X9596D01*
X-10509Y10506D02*
X-11009Y10006D01*
Y9006D01*
X-10509Y8506D01*
X-8510D01*
X-8010Y9006D01*
Y10006D01*
X-8510Y10506D01*
X-11009Y13505D02*
Y11506D01*
X-9510D01*
X-10009Y12505D01*
Y13005D01*
X-9510Y13505D01*
X-8510D01*
X-8010Y13005D01*
Y12005D01*
X-8510Y11506D01*
X-8010Y16004D02*
X-11009D01*
X-9510Y14505D01*
Y16504D01*
X-39553Y30544D02*
Y33543D01*
X-38053D01*
X-37553Y33043D01*
Y32043D01*
X-38053Y31543D01*
X-39553D01*
X-38553D02*
X-37553Y30544D01*
X-36554D02*
X-35554D01*
X-36054D01*
Y33543D01*
X-36554Y33043D01*
X-34054D02*
X-33555Y33543D01*
X-32555D01*
X-32055Y33043D01*
Y32543D01*
X-32555Y32043D01*
X-33055D01*
X-32555D01*
X-32055Y31543D01*
Y31043D01*
X-32555Y30544D01*
X-33555D01*
X-34054Y31043D01*
X-39340Y25924D02*
Y28923D01*
X-37841D01*
X-37341Y28423D01*
Y27423D01*
X-37841Y26923D01*
X-39340D01*
X-38341D02*
X-37341Y25924D01*
X-36341D02*
X-35342D01*
X-35841D01*
Y28923D01*
X-36341Y28423D01*
X-31843Y25924D02*
X-33842D01*
X-31843Y27923D01*
Y28423D01*
X-32343Y28923D01*
X-33342D01*
X-33842Y28423D01*
X34146Y40160D02*
Y43159D01*
X35645D01*
X36145Y42659D01*
Y41659D01*
X35645Y41159D01*
X34146D01*
X35146D02*
X36145Y40160D01*
X37145D02*
X38145D01*
X37645D01*
Y43159D01*
X37145Y42659D01*
X39644Y40160D02*
X40644D01*
X40144D01*
Y43159D01*
X39644Y42659D01*
X-38969Y34579D02*
Y37578D01*
X-37469D01*
X-36969Y37078D01*
Y36079D01*
X-37469Y35579D01*
X-38969D01*
X-37969D02*
X-36969Y34579D01*
X-35970D02*
X-34970D01*
X-35470D01*
Y37578D01*
X-35970Y37078D01*
X-33470D02*
X-32971Y37578D01*
X-31971D01*
X-31471Y37078D01*
Y35079D01*
X-31971Y34579D01*
X-32971D01*
X-33470Y35079D01*
Y37078D01*
X-10846Y65039D02*
Y68038D01*
X-9347D01*
X-8847Y67539D01*
Y66539D01*
X-9347Y66039D01*
X-10846D01*
X-9847D02*
X-8847Y65039D01*
X-7847Y65539D02*
X-7347Y65039D01*
X-6348D01*
X-5848Y65539D01*
Y67539D01*
X-6348Y68038D01*
X-7347D01*
X-7847Y67539D01*
Y67039D01*
X-7347Y66539D01*
X-5848D01*
X-21179Y6036D02*
Y3037D01*
X-19180D01*
X-18180D02*
X-17181D01*
X-17681D01*
Y6036D01*
X-18180Y5536D01*
X-15681Y6036D02*
X-13682D01*
Y5536D01*
X-15681Y3537D01*
Y3037D01*
X45910Y41980D02*
Y39980D01*
X47410D01*
Y40980D01*
Y39980D01*
X48909D01*
X45910Y42979D02*
X48909D01*
Y44479D01*
X48409Y44979D01*
X47910D01*
X47410Y44479D01*
Y42979D01*
Y44479D01*
X46910Y44979D01*
X46410D01*
X45910Y44479D01*
Y42979D01*
X46410Y45978D02*
X45910Y46478D01*
Y47478D01*
X46410Y47978D01*
X46910D01*
X47410Y47478D01*
Y46978D01*
Y47478D01*
X47910Y47978D01*
X48409D01*
X48909Y47478D01*
Y46478D01*
X48409Y45978D01*
X-4704Y-7530D02*
X-5368Y-7771D01*
X-5791Y-8677D01*
X-5549Y-9341D01*
X-3737Y-10187D01*
X-3073Y-9945D01*
X-2650Y-9039D01*
X-2892Y-8375D01*
X-3890Y-4600D02*
X-3859Y-5717D01*
X-3376Y-7046D01*
X-2470Y-7468D01*
X-1805Y-7227D01*
X-1383Y-6321D01*
X-1625Y-5656D01*
X-2078Y-5445D01*
X-2742Y-5687D01*
X-3376Y-7046D01*
X-2622Y-1882D02*
X-3467Y-3694D01*
X-2108Y-4328D01*
X-2139Y-3211D01*
X-1928Y-2758D01*
X-1263Y-2516D01*
X-357Y-2938D01*
X-115Y-3603D01*
X-538Y-4509D01*
X-1202Y-4750D01*
X627Y25555D02*
X127Y26055D01*
X-872D01*
X-1372Y25555D01*
Y23556D01*
X-872Y23056D01*
X127D01*
X627Y23556D01*
X3626Y26055D02*
X2626Y25555D01*
X1627Y24556D01*
Y23556D01*
X2127Y23056D01*
X3126D01*
X3626Y23556D01*
Y24056D01*
X3126Y24556D01*
X1627D01*
X4626Y25555D02*
X5126Y26055D01*
X6125D01*
X6625Y25555D01*
Y23556D01*
X6125Y23056D01*
X5126D01*
X4626Y23556D01*
Y25555D01*
X15950Y22834D02*
X15450Y22334D01*
Y21335D01*
X15950Y20835D01*
X17950D01*
X18450Y21335D01*
Y22334D01*
X17950Y22834D01*
Y23834D02*
X18450Y24333D01*
Y25333D01*
X17950Y25833D01*
X15950D01*
X15450Y25333D01*
Y24333D01*
X15950Y23834D01*
X16450D01*
X16950Y24333D01*
Y25833D01*
X-144700Y126584D02*
X-145407Y125877D01*
X-145054Y126231D01*
X-143287Y124463D01*
Y123757D01*
X-143640Y123403D01*
X-144347D01*
X-142580Y128705D02*
X-143993Y127291D01*
X-142933Y126231D01*
X-142580Y127291D01*
X-142226Y127645D01*
X-141519D01*
X-140813Y126938D01*
X-140813Y126231D01*
X-141519Y125524D01*
X-142226D01*
X-151994Y68843D02*
X-149994D01*
X-150994D01*
Y65844D01*
X-148995D02*
Y68843D01*
X-147495D01*
X-146995Y68343D01*
Y67343D01*
X-147495Y66843D01*
X-148995D01*
X-143996Y68843D02*
X-144996Y68343D01*
X-145995Y67343D01*
Y66343D01*
X-145496Y65844D01*
X-144496D01*
X-143996Y66343D01*
Y66843D01*
X-144496Y67343D01*
X-145995D01*
X-184994Y45550D02*
Y48549D01*
X-183494D01*
X-182994Y48049D01*
Y47049D01*
X-183494Y46549D01*
X-184994D01*
X-183994D02*
X-182994Y45550D01*
X-181994Y48549D02*
X-179995D01*
Y48049D01*
X-181994Y46050D01*
Y45550D01*
X-110099Y130284D02*
X-109599Y130784D01*
Y131784D01*
X-110099Y132283D01*
X-112099D01*
X-112598Y131784D01*
Y130784D01*
X-112099Y130284D01*
X-109599Y129284D02*
Y127285D01*
X-110099D01*
X-112099Y129284D01*
X-112598D01*
X-110099Y126285D02*
X-109599Y125786D01*
Y124786D01*
X-110099Y124286D01*
X-110599D01*
X-111099Y124786D01*
X-111599Y124286D01*
X-112099D01*
X-112598Y124786D01*
Y125786D01*
X-112099Y126285D01*
X-111599D01*
X-111099Y125786D01*
X-110599Y126285D01*
X-110099D01*
X-111099Y125786D02*
Y124786D01*
X-42863Y16017D02*
Y19016D01*
X-41364D01*
X-40864Y18516D01*
Y17516D01*
X-41364Y17017D01*
X-42863D01*
X-41863D02*
X-40864Y16017D01*
X-39864Y18516D02*
X-39364Y19016D01*
X-38365D01*
X-37865Y18516D01*
Y18016D01*
X-38365Y17516D01*
X-37865Y17017D01*
Y16517D01*
X-38365Y16017D01*
X-39364D01*
X-39864Y16517D01*
Y17017D01*
X-39364Y17516D01*
X-39864Y18016D01*
Y18516D01*
X-39364Y17516D02*
X-38365D01*
X38712Y75941D02*
Y78940D01*
X40211D01*
X40711Y78440D01*
Y77441D01*
X40211Y76941D01*
X38712D01*
X39711D02*
X40711Y75941D01*
X43710Y78940D02*
X42710Y78440D01*
X41710Y77441D01*
Y76441D01*
X42210Y75941D01*
X43210D01*
X43710Y76441D01*
Y76941D01*
X43210Y77441D01*
X41710D01*
X-34747Y136176D02*
X-37746D01*
Y137676D01*
X-37246Y138176D01*
X-36246D01*
X-35746Y137676D01*
Y136176D01*
Y137176D02*
X-34747Y138176D01*
X-37246Y139175D02*
X-37746Y139675D01*
Y140675D01*
X-37246Y141175D01*
X-36746D01*
X-36246Y140675D01*
Y140175D01*
Y140675D01*
X-35746Y141175D01*
X-35247D01*
X-34747Y140675D01*
Y139675D01*
X-35247Y139175D01*
X-25993Y-14451D02*
X-26493Y-14951D01*
Y-15950D01*
X-25993Y-16450D01*
X-23993D01*
X-23494Y-15950D01*
Y-14951D01*
X-23993Y-14451D01*
X-26493Y-11452D02*
Y-13451D01*
X-24993D01*
X-25493Y-12451D01*
Y-11952D01*
X-24993Y-11452D01*
X-23993D01*
X-23494Y-11952D01*
Y-12951D01*
X-23993Y-13451D01*
X-25993Y-10452D02*
X-26493Y-9952D01*
Y-8953D01*
X-25993Y-8453D01*
X-25493D01*
X-24993Y-8953D01*
X-24493Y-8453D01*
X-23993D01*
X-23494Y-8953D01*
Y-9952D01*
X-23993Y-10452D01*
X-24493D01*
X-24993Y-9952D01*
X-25493Y-10452D01*
X-25993D01*
X-24993Y-9952D02*
Y-8953D01*
X-197493Y24049D02*
X-197993Y23549D01*
Y22550D01*
X-197493Y22050D01*
X-195493D01*
X-194993Y22550D01*
Y23549D01*
X-195493Y24049D01*
X-197993Y25049D02*
Y27048D01*
X-197493D01*
X-195493Y25049D01*
X-194993D01*
X-197993Y28048D02*
Y30047D01*
X-197493D01*
X-195493Y28048D01*
X-194993D01*
X-106493Y-13951D02*
X-106992Y-14451D01*
Y-15450D01*
X-106493Y-15950D01*
X-104493D01*
X-103993Y-15450D01*
Y-14451D01*
X-104493Y-13951D01*
X-103993Y-12951D02*
Y-11952D01*
Y-12451D01*
X-106992D01*
X-106493Y-12951D01*
Y-10452D02*
X-106992Y-9952D01*
Y-8952D01*
X-106493Y-8453D01*
X-104493D01*
X-103993Y-8952D01*
Y-9952D01*
X-104493Y-10452D01*
X-106493D01*
X-160114Y123670D02*
X-158700Y125084D01*
X-159407Y124377D01*
X-157287Y122257D01*
X-155873Y123670D02*
X-157993Y125791D01*
X-156933Y126851D01*
X-156226Y126851D01*
X-155519Y126145D01*
Y125438D01*
X-156580Y124377D01*
X-153752Y125791D02*
X-153045Y126498D01*
X-153399Y126145D01*
X-155519Y128265D01*
Y127558D01*
X-153752Y129325D02*
Y130032D01*
X-153045Y130739D01*
X-152339Y130739D01*
X-151985Y130386D01*
Y129679D01*
X-151278D01*
X-150925Y129325D01*
Y128619D01*
X-151632Y127912D01*
X-152339D01*
X-152692Y128265D01*
Y128972D01*
X-153399D01*
X-153752Y129325D01*
X-152692Y128972D02*
X-151985Y129679D01*
X-158979Y-65995D02*
Y-68994D01*
X-156980D01*
X-153981Y-65995D02*
X-155980D01*
Y-68994D01*
X-153981D01*
X-155980Y-67495D02*
X-154980D01*
X-152981Y-65995D02*
Y-68994D01*
X-151481D01*
X-150981Y-68495D01*
Y-66495D01*
X-151481Y-65995D01*
X-152981D01*
X-147982Y-68994D02*
X-149982D01*
X-147982Y-66995D01*
Y-66495D01*
X-148482Y-65995D01*
X-149482D01*
X-149982Y-66495D01*
X-57494Y174049D02*
X-57994Y174549D01*
X-58994D01*
X-59493Y174049D01*
Y173549D01*
X-58994Y173049D01*
X-57994D01*
X-57494Y172549D01*
Y172050D01*
X-57994Y171550D01*
X-58994D01*
X-59493Y172050D01*
X-56494Y171550D02*
X-55495D01*
X-55995D01*
Y174549D01*
X-56494Y174049D01*
X-198494Y115049D02*
X-199494D01*
X-198994D01*
Y112550D01*
X-199494Y112050D01*
X-199994D01*
X-200494Y112550D01*
X-197494Y112050D02*
X-196495D01*
X-196995D01*
Y115049D01*
X-197494Y114549D01*
X-102994Y-41951D02*
Y-44450D01*
X-102494Y-44950D01*
X-101494D01*
X-100994Y-44450D01*
Y-41951D01*
X-97995D02*
X-99994D01*
Y-43451D01*
X-98995Y-42951D01*
X-98495D01*
X-97995Y-43451D01*
Y-44450D01*
X-98495Y-44950D01*
X-99495D01*
X-99994Y-44450D01*
X-178993Y115549D02*
X-176994D01*
X-177994D01*
Y112550D01*
X-175995D02*
Y115549D01*
X-174495D01*
X-173995Y115049D01*
Y114049D01*
X-174495Y113549D01*
X-175995D01*
X-170996Y115549D02*
X-172995D01*
Y114049D01*
X-171996Y114549D01*
X-171496D01*
X-170996Y114049D01*
Y113050D01*
X-171496Y112550D01*
X-172496D01*
X-172995Y113050D01*
X-220033Y60898D02*
X-220697Y60656D01*
X-221119Y59750D01*
X-220878Y59086D01*
X-220425Y58875D01*
X-219760Y59117D01*
X-219338Y60023D01*
X-218674Y60264D01*
X-218221Y60053D01*
X-217979Y59389D01*
X-218401Y58483D01*
X-219066Y58241D01*
X-220063Y62015D02*
X-217345Y60748D01*
X-217829Y62076D01*
X-216500Y62560D01*
X-219218Y63827D01*
X-216078Y63466D02*
X-215655Y64372D01*
X-215866Y63919D01*
X-218584Y65187D01*
X-218343Y64522D01*
X-23494Y-48451D02*
Y-51450D01*
X-21494D01*
X-20494D02*
X-19495D01*
X-19995D01*
Y-48451D01*
X-20494Y-48951D01*
X-15996Y-48451D02*
X-17995D01*
Y-49951D01*
X-16996Y-49451D01*
X-16496D01*
X-15996Y-49951D01*
Y-50950D01*
X-16496Y-51450D01*
X-17495D01*
X-17995Y-50950D01*
X-71070Y30780D02*
X-68071D01*
Y32779D01*
Y33779D02*
Y34778D01*
Y34279D01*
X-71070D01*
X-70570Y33779D01*
X-68071Y37777D02*
X-71070D01*
X-69570Y36278D01*
Y38277D01*
X-88494Y-100451D02*
Y-103450D01*
X-86494D01*
X-85495D02*
X-84495D01*
X-84995D01*
Y-100451D01*
X-85495Y-100951D01*
X-82995D02*
X-82495Y-100451D01*
X-81496D01*
X-80996Y-100951D01*
Y-101451D01*
X-81496Y-101951D01*
X-81996D01*
X-81496D01*
X-80996Y-102451D01*
Y-102950D01*
X-81496Y-103450D01*
X-82495D01*
X-82995Y-102950D01*
X-109494Y175049D02*
Y172050D01*
X-107994D01*
X-107494Y172550D01*
Y174549D01*
X-107994Y175049D01*
X-109494D01*
X-106494D02*
X-104495D01*
Y174549D01*
X-106494Y172550D01*
Y172050D01*
X-99513Y141657D02*
X-102512D01*
Y140158D01*
X-102012Y139658D01*
X-100013D01*
X-99513Y140158D01*
Y141657D01*
Y136659D02*
X-100013Y137659D01*
X-101012Y138658D01*
X-102012D01*
X-102512Y138159D01*
Y137159D01*
X-102012Y136659D01*
X-101512D01*
X-101012Y137159D01*
Y138658D01*
X-192992Y24550D02*
X-189994D01*
Y26049D01*
X-190493Y26549D01*
X-192493D01*
X-192992Y26049D01*
Y24550D01*
Y29548D02*
Y27549D01*
X-191493D01*
X-191993Y28548D01*
Y29048D01*
X-191493Y29548D01*
X-190493D01*
X-189994Y29048D01*
Y28049D01*
X-190493Y27549D01*
X-182492Y108050D02*
X-179493D01*
Y109549D01*
X-179993Y110049D01*
X-181993D01*
X-182492Y109549D01*
Y108050D01*
X-179493Y112548D02*
X-182492D01*
X-180993Y111049D01*
Y113048D01*
X-121282Y96035D02*
Y93036D01*
X-119782D01*
X-119283Y93536D01*
Y95535D01*
X-119782Y96035D01*
X-121282D01*
X-116284Y93036D02*
X-118283D01*
X-116284Y95035D01*
Y95535D01*
X-116783Y96035D01*
X-117783D01*
X-118283Y95535D01*
X-86583Y-105769D02*
X-87083Y-105269D01*
X-88083D01*
X-88583Y-105769D01*
Y-107768D01*
X-88083Y-108268D01*
X-87083D01*
X-86583Y-107768D01*
X-83584Y-105269D02*
X-85584D01*
Y-106768D01*
X-84584Y-106268D01*
X-84084D01*
X-83584Y-106768D01*
Y-107768D01*
X-84084Y-108268D01*
X-85084D01*
X-85584Y-107768D01*
X-82585Y-105769D02*
X-82085Y-105269D01*
X-81085D01*
X-80585Y-105769D01*
Y-107768D01*
X-81085Y-108268D01*
X-82085D01*
X-82585Y-107768D01*
Y-105769D01*
X-112993Y47049D02*
X-113493Y46549D01*
Y45550D01*
X-112993Y45050D01*
X-110993D01*
X-110494Y45550D01*
Y46549D01*
X-110993Y47049D01*
X-110494Y49548D02*
X-113493D01*
X-111993Y48049D01*
Y50048D01*
X-110993Y51048D02*
X-110494Y51548D01*
Y52547D01*
X-110993Y53047D01*
X-112993D01*
X-113493Y52547D01*
Y51548D01*
X-112993Y51048D01*
X-112493D01*
X-111993Y51548D01*
Y53047D01*
X-57722Y51737D02*
X-58222Y52237D01*
X-59221D01*
X-59721Y51737D01*
Y49738D01*
X-59221Y49238D01*
X-58222D01*
X-57722Y49738D01*
X-55223Y49238D02*
Y52237D01*
X-56722Y50738D01*
X-54723D01*
X-51724Y52237D02*
X-53723D01*
Y50738D01*
X-52723Y51237D01*
X-52224D01*
X-51724Y50738D01*
Y49738D01*
X-52224Y49238D01*
X-53223D01*
X-53723Y49738D01*
X7619Y20044D02*
X7119Y19544D01*
Y18544D01*
X7619Y18045D01*
X9618D01*
X10118Y18544D01*
Y19544D01*
X9618Y20044D01*
X10118Y23043D02*
Y21044D01*
X8119Y23043D01*
X7619D01*
X7119Y22543D01*
Y21543D01*
X7619Y21044D01*
X7119Y26042D02*
Y24043D01*
X8619D01*
X8119Y25042D01*
Y25542D01*
X8619Y26042D01*
X9618D01*
X10118Y25542D01*
Y24543D01*
X9618Y24043D01*
X8677Y113479D02*
X8177Y112979D01*
Y111979D01*
X8677Y111479D01*
X10676D01*
X11176Y111979D01*
Y112979D01*
X10676Y113479D01*
X11176Y114479D02*
Y115478D01*
Y114978D01*
X8177D01*
X8677Y114479D01*
X11176Y118977D02*
Y116978D01*
X9177Y118977D01*
X8677D01*
X8177Y118477D01*
Y117478D01*
X8677Y116978D01*
X-126494Y-90951D02*
Y-93950D01*
X-124994D01*
X-124494Y-93450D01*
Y-92951D01*
X-124994Y-92451D01*
X-126494D01*
X-124994D01*
X-124494Y-91951D01*
Y-91451D01*
X-124994Y-90951D01*
X-126494D01*
X-123495D02*
X-121495D01*
X-122495D01*
Y-93950D01*
X-120495D02*
X-119496D01*
X-119996D01*
Y-90951D01*
X-120495Y-91451D01*
X-48494Y48049D02*
X-48994Y48549D01*
X-49994D01*
X-50494Y48049D01*
Y46050D01*
X-49994Y45550D01*
X-48994D01*
X-48494Y46050D01*
X-47495Y48549D02*
Y45550D01*
X-45495D01*
X-44495D02*
Y48549D01*
X-42996D01*
X-42496Y48049D01*
Y47049D01*
X-42996Y46549D01*
X-44495D01*
X-41496Y48049D02*
X-40997Y48549D01*
X-39997D01*
X-39497Y48049D01*
Y47549D01*
X-39997Y47049D01*
X-40497D01*
X-39997D01*
X-39497Y46549D01*
Y46050D01*
X-39997Y45550D01*
X-40997D01*
X-41496Y46050D01*
X-96494Y99549D02*
X-96994Y100049D01*
X-97994D01*
X-98493Y99549D01*
Y97550D01*
X-97994Y97050D01*
X-96994D01*
X-96494Y97550D01*
X-95495Y97050D02*
X-94495D01*
X-94995D01*
Y100049D01*
X-95495Y99549D01*
X-70493Y103549D02*
X-70992Y103049D01*
Y102050D01*
X-70493Y101550D01*
X-68493D01*
X-67993Y102050D01*
Y103049D01*
X-68493Y103549D01*
X-67993Y106548D02*
Y104549D01*
X-69993Y106548D01*
X-70493D01*
X-70992Y106048D01*
Y105049D01*
X-70493Y104549D01*
X-101994Y87049D02*
X-102494Y87549D01*
X-103494D01*
X-103993Y87049D01*
Y85050D01*
X-103494Y84550D01*
X-102494D01*
X-101994Y85050D01*
X-98995Y87549D02*
X-99995Y87049D01*
X-100995Y86049D01*
Y85050D01*
X-100495Y84550D01*
X-99495D01*
X-98995Y85050D01*
Y85549D01*
X-99495Y86049D01*
X-100995D01*
X-179994Y94049D02*
X-180494Y94549D01*
X-181494D01*
X-181993Y94049D01*
Y92050D01*
X-181494Y91550D01*
X-180494D01*
X-179994Y92050D01*
X-178995Y91550D02*
X-177995D01*
X-178495D01*
Y94549D01*
X-178995Y94049D01*
X-176495Y91550D02*
X-175496D01*
X-175996D01*
Y94549D01*
X-176495Y94049D01*
X40211Y99063D02*
X39711Y99563D01*
X38711D01*
X38212Y99063D01*
Y97064D01*
X38711Y96564D01*
X39711D01*
X40211Y97064D01*
X41210Y96564D02*
X42210D01*
X41710D01*
Y99563D01*
X41210Y99063D01*
X43710D02*
X44210Y99563D01*
X45209D01*
X45709Y99063D01*
Y98563D01*
X45209Y98063D01*
X44709D01*
X45209D01*
X45709Y97563D01*
Y97064D01*
X45209Y96564D01*
X44210D01*
X43710Y97064D01*
X40211Y85861D02*
X39711Y86361D01*
X38711D01*
X38212Y85861D01*
Y83861D01*
X38711Y83362D01*
X39711D01*
X40211Y83861D01*
X41210Y83362D02*
X42210D01*
X41710D01*
Y86361D01*
X41210Y85861D01*
X45209Y83362D02*
Y86361D01*
X43710Y84861D01*
X45709D01*
X-15493Y101049D02*
X-15992Y100549D01*
Y99550D01*
X-15493Y99050D01*
X-13493D01*
X-12993Y99550D01*
Y100549D01*
X-13493Y101049D01*
X-12993Y102049D02*
Y103049D01*
Y102549D01*
X-15992D01*
X-15493Y102049D01*
X-15992Y106547D02*
Y104548D01*
X-14493D01*
X-14993Y105548D01*
Y106047D01*
X-14493Y106547D01*
X-13493D01*
X-12993Y106047D01*
Y105048D01*
X-13493Y104548D01*
X-56494Y94549D02*
X-56994Y95049D01*
X-57994D01*
X-58494Y94549D01*
Y92550D01*
X-57994Y92050D01*
X-56994D01*
X-56494Y92550D01*
X-55494Y92050D02*
X-54495D01*
X-54995D01*
Y95049D01*
X-55494Y94549D01*
X-50996Y95049D02*
X-51996Y94549D01*
X-52995Y93549D01*
Y92550D01*
X-52495Y92050D01*
X-51496D01*
X-50996Y92550D01*
Y93049D01*
X-51496Y93549D01*
X-52995D01*
X-56494Y74049D02*
X-56994Y74549D01*
X-57994D01*
X-58494Y74049D01*
Y72050D01*
X-57994Y71550D01*
X-56994D01*
X-56494Y72050D01*
X-55494Y71550D02*
X-54495D01*
X-54995D01*
Y74549D01*
X-55494Y74049D01*
X-52995Y74549D02*
X-50996D01*
Y74049D01*
X-52995Y72050D01*
Y71550D01*
X-56994Y70549D02*
X-57494Y71049D01*
X-58494D01*
X-58994Y70549D01*
Y68550D01*
X-58494Y68050D01*
X-57494D01*
X-56994Y68550D01*
X-55994Y68050D02*
X-54995D01*
X-55495D01*
Y71049D01*
X-55994Y70549D01*
X-53495D02*
X-52996Y71049D01*
X-51996D01*
X-51496Y70549D01*
Y70049D01*
X-51996Y69549D01*
X-51496Y69049D01*
Y68550D01*
X-51996Y68050D01*
X-52996D01*
X-53495Y68550D01*
Y69049D01*
X-52996Y69549D01*
X-53495Y70049D01*
Y70549D01*
X-52996Y69549D02*
X-51996D01*
X-13645Y62239D02*
X-14145Y61739D01*
Y60739D01*
X-13645Y60239D01*
X-11646D01*
X-11146Y60739D01*
Y61739D01*
X-11646Y62239D01*
X-11146Y63239D02*
Y64238D01*
Y63738D01*
X-14145D01*
X-13645Y63239D01*
X-11646Y65738D02*
X-11146Y66237D01*
Y67237D01*
X-11646Y67737D01*
X-13645D01*
X-14145Y67237D01*
Y66237D01*
X-13645Y65738D01*
X-13146D01*
X-12646Y66237D01*
Y67737D01*
X39237Y59672D02*
X38738Y59172D01*
Y58172D01*
X39237Y57673D01*
X41237D01*
X41737Y58172D01*
Y59172D01*
X41237Y59672D01*
X41737Y62671D02*
Y60672D01*
X39737Y62671D01*
X39237D01*
X38738Y62171D01*
Y61171D01*
X39237Y60672D01*
Y63671D02*
X38738Y64170D01*
Y65170D01*
X39237Y65670D01*
X41237D01*
X41737Y65170D01*
Y64170D01*
X41237Y63671D01*
X39237D01*
X34695Y60210D02*
X34195Y59710D01*
Y58710D01*
X34695Y58210D01*
X36694D01*
X37194Y58710D01*
Y59710D01*
X36694Y60210D01*
X37194Y63209D02*
Y61209D01*
X35195Y63209D01*
X34695D01*
X34195Y62709D01*
Y61709D01*
X34695Y61209D01*
X37194Y64209D02*
Y65208D01*
Y64708D01*
X34195D01*
X34695Y64209D01*
X40006Y74549D02*
X39506Y75049D01*
X38506D01*
X38006Y74549D01*
Y72550D01*
X38506Y72050D01*
X39506D01*
X40006Y72550D01*
X43005Y72050D02*
X41006D01*
X43005Y74049D01*
Y74549D01*
X42505Y75049D01*
X41505D01*
X41006Y74549D01*
X46004Y72050D02*
X44005D01*
X46004Y74049D01*
Y74549D01*
X45504Y75049D01*
X44504D01*
X44005Y74549D01*
X35428Y47500D02*
X34928Y48000D01*
X33928D01*
X33429Y47500D01*
Y45501D01*
X33928Y45001D01*
X34928D01*
X35428Y45501D01*
X38427Y45001D02*
X36428D01*
X38427Y47001D01*
Y47500D01*
X37927Y48000D01*
X36927D01*
X36428Y47500D01*
X39427D02*
X39926Y48000D01*
X40926D01*
X41426Y47500D01*
Y47001D01*
X40926Y46501D01*
X40426D01*
X40926D01*
X41426Y46001D01*
Y45501D01*
X40926Y45001D01*
X39926D01*
X39427Y45501D01*
X19992Y20642D02*
X19492Y20142D01*
Y19142D01*
X19992Y18642D01*
X21991D01*
X22491Y19142D01*
Y20142D01*
X21991Y20642D01*
X22491Y23641D02*
Y21641D01*
X20491Y23641D01*
X19992D01*
X19492Y23141D01*
Y22141D01*
X19992Y21641D01*
X22491Y26140D02*
X19492D01*
X20991Y24640D01*
Y26640D01*
X11385Y19865D02*
X10885Y19365D01*
Y18365D01*
X11385Y17865D01*
X13384D01*
X13884Y18365D01*
Y19365D01*
X13384Y19865D01*
X13884Y22864D02*
Y20864D01*
X11884Y22864D01*
X11385D01*
X10885Y22364D01*
Y21364D01*
X11385Y20864D01*
X10885Y25863D02*
X11385Y24863D01*
X12384Y23863D01*
X13384D01*
X13884Y24363D01*
Y25363D01*
X13384Y25863D01*
X12884D01*
X12384Y25363D01*
Y23863D01*
X-17613Y26269D02*
X-18113Y26769D01*
X-19113D01*
X-19612Y26269D01*
Y24270D01*
X-19113Y23770D01*
X-18113D01*
X-17613Y24270D01*
X-14614Y23770D02*
X-16613D01*
X-14614Y25770D01*
Y26269D01*
X-15114Y26769D01*
X-16114D01*
X-16613Y26269D01*
X-13614Y26769D02*
X-11615D01*
Y26269D01*
X-13614Y24270D01*
Y23770D01*
X-403Y-9123D02*
X-1067Y-9364D01*
X-1490Y-10270D01*
X-1248Y-10935D01*
X564Y-11780D01*
X1228Y-11538D01*
X1651Y-10632D01*
X1409Y-9967D01*
X3130Y-7461D02*
X2285Y-9273D01*
X1318Y-6616D01*
X864Y-6404D01*
X200Y-6646D01*
X-222Y-7552D01*
X20Y-8217D01*
X1287Y-5499D02*
X1045Y-4834D01*
X1468Y-3928D01*
X2132Y-3686D01*
X2585Y-3898D01*
X2827Y-4562D01*
X3491Y-4320D01*
X3944Y-4532D01*
X4186Y-5196D01*
X3763Y-6102D01*
X3099Y-6344D01*
X2646Y-6132D01*
X2404Y-5468D01*
X1740Y-5710D01*
X1287Y-5499D01*
X2404Y-5468D02*
X2827Y-4562D01*
X8837Y-15017D02*
X8173Y-15259D01*
X7750Y-16165D01*
X7992Y-16829D01*
X9804Y-17674D01*
X10468Y-17432D01*
X10891Y-16526D01*
X10649Y-15862D01*
X12369Y-13355D02*
X11524Y-15167D01*
X10557Y-12510D01*
X10104Y-12299D01*
X9440Y-12541D01*
X9017Y-13447D01*
X9259Y-14111D01*
X12339Y-12238D02*
X13003Y-11996D01*
X13425Y-11090D01*
X13184Y-10426D01*
X11372Y-9581D01*
X10707Y-9823D01*
X10285Y-10729D01*
X10527Y-11393D01*
X10980Y-11604D01*
X11644Y-11362D01*
X12278Y-10003D01*
X40211Y94563D02*
X39711Y95063D01*
X38711D01*
X38212Y94563D01*
Y92564D01*
X38711Y92064D01*
X39711D01*
X40211Y92564D01*
X41210Y94563D02*
X41710Y95063D01*
X42710D01*
X43210Y94563D01*
Y94063D01*
X42710Y93563D01*
X42210D01*
X42710D01*
X43210Y93063D01*
Y92564D01*
X42710Y92064D01*
X41710D01*
X41210Y92564D01*
X44210Y94563D02*
X44709Y95063D01*
X45709D01*
X46209Y94563D01*
Y92564D01*
X45709Y92064D01*
X44709D01*
X44210Y92564D01*
Y94563D01*
X-27993Y111549D02*
X-28493Y111049D01*
Y110050D01*
X-27993Y109550D01*
X-25993D01*
X-25493Y110050D01*
Y111049D01*
X-25993Y111549D01*
X-27993Y112549D02*
X-28493Y113049D01*
Y114048D01*
X-27993Y114548D01*
X-27493D01*
X-26993Y114048D01*
Y113549D01*
Y114048D01*
X-26493Y114548D01*
X-25993D01*
X-25493Y114048D01*
Y113049D01*
X-25993Y112549D01*
X-25493Y115548D02*
Y116548D01*
Y116048D01*
X-28493D01*
X-27993Y115548D01*
X-39493Y54549D02*
X-39992Y54049D01*
Y53050D01*
X-39493Y52550D01*
X-37493D01*
X-36994Y53050D01*
Y54049D01*
X-37493Y54549D01*
X-39493Y55549D02*
X-39992Y56049D01*
Y57048D01*
X-39493Y57548D01*
X-38993D01*
X-38493Y57048D01*
Y56549D01*
Y57048D01*
X-37993Y57548D01*
X-37493D01*
X-36994Y57048D01*
Y56049D01*
X-37493Y55549D01*
X-36994Y60547D02*
Y58548D01*
X-38993Y60547D01*
X-39493D01*
X-39992Y60047D01*
Y59048D01*
X-39493Y58548D01*
X-36934Y49253D02*
X-37434Y49753D01*
X-38433D01*
X-38933Y49253D01*
Y47254D01*
X-38433Y46754D01*
X-37434D01*
X-36934Y47254D01*
X-35934Y49253D02*
X-35434Y49753D01*
X-34435D01*
X-33935Y49253D01*
Y48754D01*
X-34435Y48254D01*
X-34935D01*
X-34435D01*
X-33935Y47754D01*
Y47254D01*
X-34435Y46754D01*
X-35434D01*
X-35934Y47254D01*
X-32935Y49253D02*
X-32435Y49753D01*
X-31436D01*
X-30936Y49253D01*
Y48754D01*
X-31436Y48254D01*
X-31936D01*
X-31436D01*
X-30936Y47754D01*
Y47254D01*
X-31436Y46754D01*
X-32435D01*
X-32935Y47254D01*
X-96494Y20549D02*
X-96994Y21049D01*
X-97994D01*
X-98493Y20549D01*
Y18550D01*
X-97994Y18050D01*
X-96994D01*
X-96494Y18550D01*
X-95495Y20549D02*
X-94995Y21049D01*
X-93995D01*
X-93495Y20549D01*
Y20049D01*
X-93995Y19549D01*
X-94495D01*
X-93995D01*
X-93495Y19049D01*
Y18550D01*
X-93995Y18050D01*
X-94995D01*
X-95495Y18550D01*
X-90996Y18050D02*
Y21049D01*
X-92496Y19549D01*
X-90496D01*
X-101493Y46049D02*
X-101992Y45549D01*
Y44550D01*
X-101493Y44050D01*
X-99493D01*
X-98993Y44550D01*
Y45549D01*
X-99493Y46049D01*
X-101493Y47049D02*
X-101992Y47549D01*
Y48548D01*
X-101493Y49048D01*
X-100993D01*
X-100493Y48548D01*
Y48048D01*
Y48548D01*
X-99993Y49048D01*
X-99493D01*
X-98993Y48548D01*
Y47549D01*
X-99493Y47049D01*
X-101992Y52047D02*
Y50048D01*
X-100493D01*
X-100993Y51047D01*
Y51547D01*
X-100493Y52047D01*
X-99493D01*
X-98993Y51547D01*
Y50548D01*
X-99493Y50048D01*
X-86494Y-96951D02*
X-86994Y-96451D01*
X-87994D01*
X-88494Y-96951D01*
Y-98950D01*
X-87994Y-99450D01*
X-86994D01*
X-86494Y-98950D01*
X-85495Y-96951D02*
X-84995Y-96451D01*
X-83995D01*
X-83495Y-96951D01*
Y-97451D01*
X-83995Y-97951D01*
X-84495D01*
X-83995D01*
X-83495Y-98451D01*
Y-98950D01*
X-83995Y-99450D01*
X-84995D01*
X-85495Y-98950D01*
X-80496Y-96451D02*
X-81496Y-96951D01*
X-82495Y-97951D01*
Y-98950D01*
X-81996Y-99450D01*
X-80996D01*
X-80496Y-98950D01*
Y-98451D01*
X-80996Y-97951D01*
X-82495D01*
X-78994Y-58451D02*
X-79494Y-57951D01*
X-80494D01*
X-80993Y-58451D01*
Y-60450D01*
X-80494Y-60950D01*
X-79494D01*
X-78994Y-60450D01*
X-77995Y-58451D02*
X-77495Y-57951D01*
X-76495D01*
X-75995Y-58451D01*
Y-58951D01*
X-76495Y-59451D01*
X-76995D01*
X-76495D01*
X-75995Y-59951D01*
Y-60450D01*
X-76495Y-60950D01*
X-77495D01*
X-77995Y-60450D01*
X-74995Y-57951D02*
X-72996D01*
Y-58451D01*
X-74995Y-60450D01*
Y-60950D01*
X-67494Y27549D02*
X-67994Y28049D01*
X-68994D01*
X-69494Y27549D01*
Y25550D01*
X-68994Y25050D01*
X-67994D01*
X-67494Y25550D01*
X-66495Y27549D02*
X-65995Y28049D01*
X-64995D01*
X-64495Y27549D01*
Y27049D01*
X-64995Y26549D01*
X-65495D01*
X-64995D01*
X-64495Y26049D01*
Y25550D01*
X-64995Y25050D01*
X-65995D01*
X-66495Y25550D01*
X-63495Y27549D02*
X-62996Y28049D01*
X-61996D01*
X-61496Y27549D01*
Y27049D01*
X-61996Y26549D01*
X-61496Y26049D01*
Y25550D01*
X-61996Y25050D01*
X-62996D01*
X-63495Y25550D01*
Y26049D01*
X-62996Y26549D01*
X-63495Y27049D01*
Y27549D01*
X-62996Y26549D02*
X-61996D01*
X-88494Y-3451D02*
X-88994Y-2951D01*
X-89994D01*
X-90494Y-3451D01*
Y-5450D01*
X-89994Y-5950D01*
X-88994D01*
X-88494Y-5450D01*
X-87494Y-3451D02*
X-86995Y-2951D01*
X-85995D01*
X-85495Y-3451D01*
Y-3951D01*
X-85995Y-4451D01*
X-86495D01*
X-85995D01*
X-85495Y-4951D01*
Y-5450D01*
X-85995Y-5950D01*
X-86995D01*
X-87494Y-5450D01*
X-84496D02*
X-83996Y-5950D01*
X-82996D01*
X-82496Y-5450D01*
Y-3451D01*
X-82996Y-2951D01*
X-83996D01*
X-84496Y-3451D01*
Y-3951D01*
X-83996Y-4451D01*
X-82496D01*
X-66898Y-78210D02*
X-67398Y-77710D01*
X-68398D01*
X-68898Y-78210D01*
Y-80209D01*
X-68398Y-80709D01*
X-67398D01*
X-66898Y-80209D01*
X-64399Y-80709D02*
Y-77710D01*
X-65899Y-79209D01*
X-63899D01*
X-62900Y-78210D02*
X-62400Y-77710D01*
X-61400D01*
X-60900Y-78210D01*
Y-80209D01*
X-61400Y-80709D01*
X-62400D01*
X-62900Y-80209D01*
Y-78210D01*
X-103493Y67049D02*
X-103992Y66549D01*
Y65550D01*
X-103493Y65050D01*
X-101493D01*
X-100994Y65550D01*
Y66549D01*
X-101493Y67049D01*
X-100994Y69548D02*
X-103992D01*
X-102493Y68049D01*
Y70048D01*
X-100994Y71048D02*
Y72048D01*
Y71548D01*
X-103992D01*
X-103493Y71048D01*
X-96494Y16549D02*
X-96994Y17049D01*
X-97994D01*
X-98493Y16549D01*
Y14550D01*
X-97994Y14050D01*
X-96994D01*
X-96494Y14550D01*
X-93995Y14050D02*
Y17049D01*
X-95495Y15549D01*
X-93495D01*
X-90496Y14050D02*
X-92496D01*
X-90496Y16049D01*
Y16549D01*
X-90996Y17049D01*
X-91996D01*
X-92496Y16549D01*
X-110993Y-13951D02*
X-111493Y-14451D01*
Y-15450D01*
X-110993Y-15950D01*
X-108993D01*
X-108493Y-15450D01*
Y-14451D01*
X-108993Y-13951D01*
X-108493Y-11452D02*
X-111493D01*
X-109993Y-12951D01*
Y-10952D01*
X-110993Y-9952D02*
X-111493Y-9452D01*
Y-8453D01*
X-110993Y-7953D01*
X-110493D01*
X-109993Y-8453D01*
Y-8952D01*
Y-8453D01*
X-109493Y-7953D01*
X-108993D01*
X-108493Y-8453D01*
Y-9452D01*
X-108993Y-9952D01*
X-106268Y-76241D02*
X-106768Y-75741D01*
X-107768D01*
X-108268Y-76241D01*
Y-78240D01*
X-107768Y-78740D01*
X-106768D01*
X-106268Y-78240D01*
X-103769Y-78740D02*
Y-75741D01*
X-105269Y-77241D01*
X-103269D01*
X-100770Y-78740D02*
Y-75741D01*
X-102270Y-77241D01*
X-100270D01*
X-110493Y66549D02*
X-110993Y66049D01*
Y65050D01*
X-110493Y64550D01*
X-108493D01*
X-107993Y65050D01*
Y66049D01*
X-108493Y66549D01*
X-107993Y69048D02*
X-110993D01*
X-109493Y67549D01*
Y69548D01*
X-110993Y72547D02*
X-110493Y71548D01*
X-109493Y70548D01*
X-108493D01*
X-107993Y71048D01*
Y72047D01*
X-108493Y72547D01*
X-108993D01*
X-109493Y72047D01*
Y70548D01*
X-65536Y31712D02*
X-66036Y31213D01*
Y30213D01*
X-65536Y29713D01*
X-63537D01*
X-63037Y30213D01*
Y31213D01*
X-63537Y31712D01*
X-63037Y34212D02*
X-66036D01*
X-64536Y32712D01*
Y34712D01*
X-66036Y35711D02*
Y37710D01*
X-65536D01*
X-63537Y35711D01*
X-63037D01*
X-106493Y46549D02*
X-106992Y46049D01*
Y45050D01*
X-106493Y44550D01*
X-104493D01*
X-103993Y45050D01*
Y46049D01*
X-104493Y46549D01*
X-103993Y49048D02*
X-106992D01*
X-105493Y47549D01*
Y49548D01*
X-106493Y50548D02*
X-106992Y51048D01*
Y52047D01*
X-106493Y52547D01*
X-105993D01*
X-105493Y52047D01*
X-104993Y52547D01*
X-104493D01*
X-103993Y52047D01*
Y51048D01*
X-104493Y50548D01*
X-104993D01*
X-105493Y51048D01*
X-105993Y50548D01*
X-106493D01*
X-105493Y51048D02*
Y52047D01*
X-96994Y-3451D02*
X-97494Y-2951D01*
X-98494D01*
X-98993Y-3451D01*
Y-5450D01*
X-98494Y-5950D01*
X-97494D01*
X-96994Y-5450D01*
X-93995Y-2951D02*
X-95995D01*
Y-4451D01*
X-94995Y-3951D01*
X-94495D01*
X-93995Y-4451D01*
Y-5450D01*
X-94495Y-5950D01*
X-95495D01*
X-95995Y-5450D01*
X-92996Y-5950D02*
X-91996D01*
X-92496D01*
Y-2951D01*
X-92996Y-3451D01*
X-101993Y-23451D02*
X-102492Y-23951D01*
Y-24950D01*
X-101993Y-25450D01*
X-99993D01*
X-99493Y-24950D01*
Y-23951D01*
X-99993Y-23451D01*
X-102492Y-20452D02*
Y-22451D01*
X-100993D01*
X-101493Y-21452D01*
Y-20952D01*
X-100993Y-20452D01*
X-99993D01*
X-99493Y-20952D01*
Y-21951D01*
X-99993Y-22451D01*
X-99493Y-17453D02*
Y-19452D01*
X-101493Y-17453D01*
X-101993D01*
X-102492Y-17953D01*
Y-18952D01*
X-101993Y-19452D01*
X-20993Y-14451D02*
X-21493Y-14951D01*
Y-15950D01*
X-20993Y-16450D01*
X-18993D01*
X-18494Y-15950D01*
Y-14951D01*
X-18993Y-14451D01*
X-21493Y-11452D02*
Y-13451D01*
X-19993D01*
X-20493Y-12451D01*
Y-11952D01*
X-19993Y-11452D01*
X-18993D01*
X-18494Y-11952D01*
Y-12951D01*
X-18993Y-13451D01*
X-20993Y-10452D02*
X-21493Y-9952D01*
Y-8953D01*
X-20993Y-8453D01*
X-20493D01*
X-19993Y-8953D01*
Y-9453D01*
Y-8953D01*
X-19493Y-8453D01*
X-18993D01*
X-18494Y-8953D01*
Y-9952D01*
X-18993Y-10452D01*
X-57195Y58181D02*
X-57695Y58681D01*
X-58694D01*
X-59194Y58181D01*
Y56182D01*
X-58694Y55682D01*
X-57695D01*
X-57195Y56182D01*
X-54196Y58681D02*
X-56195D01*
Y57182D01*
X-55195Y57681D01*
X-54696D01*
X-54196Y57182D01*
Y56182D01*
X-54696Y55682D01*
X-55695D01*
X-56195Y56182D01*
X-51197Y58681D02*
X-53196D01*
Y57182D01*
X-52196Y57681D01*
X-51697D01*
X-51197Y57182D01*
Y56182D01*
X-51697Y55682D01*
X-52696D01*
X-53196Y56182D01*
X-92494Y69049D02*
X-92994Y69549D01*
X-93994D01*
X-94494Y69049D01*
Y67050D01*
X-93994Y66550D01*
X-92994D01*
X-92494Y67050D01*
X-89495Y69549D02*
X-91495D01*
Y68049D01*
X-90495Y68549D01*
X-89995D01*
X-89495Y68049D01*
Y67050D01*
X-89995Y66550D01*
X-90995D01*
X-91495Y67050D01*
X-86496Y69549D02*
X-87496Y69049D01*
X-88495Y68049D01*
Y67050D01*
X-87996Y66550D01*
X-86996D01*
X-86496Y67050D01*
Y67549D01*
X-86996Y68049D01*
X-88495D01*
X-65993Y63549D02*
X-66492Y63049D01*
Y62050D01*
X-65993Y61550D01*
X-63993D01*
X-63494Y62050D01*
Y63049D01*
X-63993Y63549D01*
X-66492Y66548D02*
Y64549D01*
X-64993D01*
X-65493Y65548D01*
Y66048D01*
X-64993Y66548D01*
X-63993D01*
X-63494Y66048D01*
Y65049D01*
X-63993Y64549D01*
X-66492Y67548D02*
Y69547D01*
X-65993D01*
X-63993Y67548D01*
X-63494D01*
X-109994Y157049D02*
X-110494Y157549D01*
X-111494D01*
X-111994Y157049D01*
Y155050D01*
X-111494Y154550D01*
X-110494D01*
X-109994Y155050D01*
X-106995Y157549D02*
X-108994D01*
Y156049D01*
X-107995Y156549D01*
X-107495D01*
X-106995Y156049D01*
Y155050D01*
X-107495Y154550D01*
X-108495D01*
X-108994Y155050D01*
X-105996D02*
X-105496Y154550D01*
X-104496D01*
X-103996Y155050D01*
Y157049D01*
X-104496Y157549D01*
X-105496D01*
X-105996Y157049D01*
Y156549D01*
X-105496Y156049D01*
X-103996D01*
X-21994Y-41951D02*
X-22494Y-41451D01*
X-23494D01*
X-23993Y-41951D01*
Y-43950D01*
X-23494Y-44450D01*
X-22494D01*
X-21994Y-43950D01*
X-18995Y-41451D02*
X-19995Y-41951D01*
X-20994Y-42951D01*
Y-43950D01*
X-20495Y-44450D01*
X-19495D01*
X-18995Y-43950D01*
Y-43451D01*
X-19495Y-42951D01*
X-20994D01*
X-17995Y-44450D02*
X-16996D01*
X-17496D01*
Y-41451D01*
X-17995Y-41951D01*
X-21994Y-36451D02*
X-22494Y-35951D01*
X-23494D01*
X-23993Y-36451D01*
Y-38450D01*
X-23494Y-38950D01*
X-22494D01*
X-21994Y-38450D01*
X-18995Y-35951D02*
X-19995Y-36451D01*
X-20994Y-37451D01*
Y-38450D01*
X-20495Y-38950D01*
X-19495D01*
X-18995Y-38450D01*
Y-37951D01*
X-19495Y-37451D01*
X-20994D01*
X-15996Y-38950D02*
X-17995D01*
X-15996Y-36951D01*
Y-36451D01*
X-16496Y-35951D01*
X-17496D01*
X-17995Y-36451D01*
X-47494Y-2951D02*
X-47994Y-2451D01*
X-48994D01*
X-49494Y-2951D01*
Y-4950D01*
X-48994Y-5450D01*
X-47994D01*
X-47494Y-4950D01*
X-44495Y-2451D02*
X-45495Y-2951D01*
X-46494Y-3951D01*
Y-4950D01*
X-45995Y-5450D01*
X-44995D01*
X-44495Y-4950D01*
Y-4451D01*
X-44995Y-3951D01*
X-46494D01*
X-43495Y-2951D02*
X-42996Y-2451D01*
X-41996D01*
X-41496Y-2951D01*
Y-3451D01*
X-41996Y-3951D01*
X-42496D01*
X-41996D01*
X-41496Y-4451D01*
Y-4950D01*
X-41996Y-5450D01*
X-42996D01*
X-43495Y-4950D01*
X-12494Y-53951D02*
X-12994Y-53451D01*
X-13994D01*
X-14493Y-53951D01*
Y-55950D01*
X-13994Y-56450D01*
X-12994D01*
X-12494Y-55950D01*
X-9495Y-53451D02*
X-10495Y-53951D01*
X-11495Y-54951D01*
Y-55950D01*
X-10995Y-56450D01*
X-9995D01*
X-9495Y-55950D01*
Y-55451D01*
X-9995Y-54951D01*
X-11495D01*
X-6996Y-56450D02*
Y-53451D01*
X-8495Y-54951D01*
X-6496D01*
X-32494Y-53951D02*
X-32994Y-53451D01*
X-33994D01*
X-34493Y-53951D01*
Y-55950D01*
X-33994Y-56450D01*
X-32994D01*
X-32494Y-55950D01*
X-29495Y-53451D02*
X-30495Y-53951D01*
X-31495Y-54951D01*
Y-55950D01*
X-30995Y-56450D01*
X-29995D01*
X-29495Y-55950D01*
Y-55451D01*
X-29995Y-54951D01*
X-31495D01*
X-26496Y-53451D02*
X-27496Y-53951D01*
X-28495Y-54951D01*
Y-55950D01*
X-27996Y-56450D01*
X-26996D01*
X-26496Y-55950D01*
Y-55451D01*
X-26996Y-54951D01*
X-28495D01*
X-21994Y-53951D02*
X-22494Y-53451D01*
X-23494D01*
X-23993Y-53951D01*
Y-55950D01*
X-23494Y-56450D01*
X-22494D01*
X-21994Y-55950D01*
X-18995Y-53451D02*
X-19995Y-53951D01*
X-20994Y-54951D01*
Y-55950D01*
X-20495Y-56450D01*
X-19495D01*
X-18995Y-55950D01*
Y-55451D01*
X-19495Y-54951D01*
X-20994D01*
X-17995Y-53451D02*
X-15996D01*
Y-53951D01*
X-17995Y-55950D01*
Y-56450D01*
X-57494Y-2951D02*
X-57994Y-2451D01*
X-58994D01*
X-59493Y-2951D01*
Y-4950D01*
X-58994Y-5450D01*
X-57994D01*
X-57494Y-4950D01*
X-54495Y-2451D02*
X-55495Y-2951D01*
X-56494Y-3951D01*
Y-4950D01*
X-55995Y-5450D01*
X-54995D01*
X-54495Y-4950D01*
Y-4451D01*
X-54995Y-3951D01*
X-56494D01*
X-53496Y-2951D02*
X-52996Y-2451D01*
X-51996D01*
X-51496Y-2951D01*
Y-3451D01*
X-51996Y-3951D01*
X-51496Y-4451D01*
Y-4950D01*
X-51996Y-5450D01*
X-52996D01*
X-53496Y-4950D01*
Y-4451D01*
X-52996Y-3951D01*
X-53496Y-3451D01*
Y-2951D01*
X-52996Y-3951D02*
X-51996D01*
X-15493Y-24451D02*
X-15992Y-24951D01*
Y-25950D01*
X-15493Y-26450D01*
X-13493D01*
X-12993Y-25950D01*
Y-24951D01*
X-13493Y-24451D01*
X-15992Y-21452D02*
X-15493Y-22452D01*
X-14493Y-23451D01*
X-13493D01*
X-12993Y-22951D01*
Y-21952D01*
X-13493Y-21452D01*
X-13993D01*
X-14493Y-21952D01*
Y-23451D01*
X-13493Y-20452D02*
X-12993Y-19952D01*
Y-18953D01*
X-13493Y-18453D01*
X-15493D01*
X-15992Y-18953D01*
Y-19952D01*
X-15493Y-20452D01*
X-14993D01*
X-14493Y-19952D01*
Y-18453D01*
X-114142Y-70336D02*
X-114642Y-69836D01*
X-115642D01*
X-116142Y-70336D01*
Y-72335D01*
X-115642Y-72835D01*
X-114642D01*
X-114142Y-72335D01*
X-113143Y-70336D02*
X-112643Y-69836D01*
X-111643D01*
X-111143Y-70336D01*
Y-70835D01*
X-111643Y-71335D01*
X-112143D01*
X-111643D01*
X-111143Y-71835D01*
Y-72335D01*
X-111643Y-72835D01*
X-112643D01*
X-113143Y-72335D01*
X-135796Y-36871D02*
X-136296Y-36371D01*
X-137295D01*
X-137795Y-36871D01*
Y-38870D01*
X-137295Y-39370D01*
X-136296D01*
X-135796Y-38870D01*
X-132797Y-36371D02*
X-134796D01*
Y-37871D01*
X-133797Y-37371D01*
X-133297D01*
X-132797Y-37871D01*
Y-38870D01*
X-133297Y-39370D01*
X-134296D01*
X-134796Y-38870D01*
X-114930Y-34115D02*
X-115430Y-33615D01*
X-116429D01*
X-116929Y-34115D01*
Y-36114D01*
X-116429Y-36614D01*
X-115430D01*
X-114930Y-36114D01*
X-112431Y-36614D02*
Y-33615D01*
X-113930Y-35115D01*
X-111931D01*
X-161493Y76049D02*
X-161993Y75549D01*
Y74550D01*
X-161493Y74050D01*
X-159493D01*
X-158993Y74550D01*
Y75549D01*
X-159493Y76049D01*
X-161493Y77049D02*
X-161993Y77549D01*
Y78548D01*
X-161493Y79048D01*
X-160993D01*
X-160493Y78548D01*
X-159993Y79048D01*
X-159493D01*
X-158993Y78548D01*
Y77549D01*
X-159493Y77049D01*
X-159993D01*
X-160493Y77549D01*
X-160993Y77049D01*
X-161493D01*
X-160493Y77549D02*
Y78548D01*
X-191494Y77049D02*
X-191994Y77549D01*
X-192994D01*
X-193493Y77049D01*
Y75050D01*
X-192994Y74550D01*
X-191994D01*
X-191494Y75050D01*
X-190495Y77549D02*
X-188495D01*
Y77049D01*
X-190495Y75050D01*
Y74550D01*
X12425Y116871D02*
Y114871D01*
X13925D01*
Y115871D01*
Y114871D01*
X15424D01*
X12425Y117870D02*
X15424D01*
Y119370D01*
X14924Y119870D01*
X14424D01*
X13925Y119370D01*
Y117870D01*
Y119370D01*
X13425Y119870D01*
X12925D01*
X12425Y119370D01*
Y117870D01*
X15424Y120869D02*
Y121869D01*
Y121369D01*
X12425D01*
X12925Y120869D01*
X35667Y53021D02*
X33668D01*
Y51521D01*
X34667D01*
X33668D01*
Y50022D01*
X36667Y53021D02*
Y50022D01*
X38166D01*
X38666Y50522D01*
Y51021D01*
X38166Y51521D01*
X36667D01*
X38166D01*
X38666Y52021D01*
Y52521D01*
X38166Y53021D01*
X36667D01*
X41665Y50022D02*
X39666D01*
X41665Y52021D01*
Y52521D01*
X41165Y53021D01*
X40166D01*
X39666Y52521D01*
X-31994Y-87951D02*
X-32994D01*
X-32494D01*
Y-90450D01*
X-32994Y-90950D01*
X-33494D01*
X-33994Y-90450D01*
X-30994Y-88451D02*
X-30495Y-87951D01*
X-29495D01*
X-28995Y-88451D01*
Y-88951D01*
X-29495Y-89451D01*
X-29995D01*
X-29495D01*
X-28995Y-89951D01*
Y-90450D01*
X-29495Y-90950D01*
X-30495D01*
X-30994Y-90450D01*
X38851Y91278D02*
Y88279D01*
X40850D01*
X43849D02*
X41850D01*
X43849Y90278D01*
Y90778D01*
X43349Y91278D01*
X42350D01*
X41850Y90778D01*
X38960Y82960D02*
Y79961D01*
X40960D01*
X41959Y82461D02*
X42459Y82960D01*
X43459D01*
X43959Y82461D01*
Y81961D01*
X43459Y81461D01*
X42959D01*
X43459D01*
X43959Y80961D01*
Y80461D01*
X43459Y79961D01*
X42459D01*
X41959Y80461D01*
X-7459Y32882D02*
Y29883D01*
X-5459D01*
X-2960D02*
Y32882D01*
X-4460Y31382D01*
X-2460D01*
X8565Y-11151D02*
X9832Y-8433D01*
X8020Y-7588D01*
X4034Y-9039D02*
X5847Y-9884D01*
X6480Y-8525D01*
X5363Y-8555D01*
X4910Y-8344D01*
X4668Y-7680D01*
X5091Y-6774D01*
X5755Y-6532D01*
X6661Y-6954D01*
X6903Y-7619D01*
X-1929Y16100D02*
X1070D01*
Y18099D01*
X-1929Y21098D02*
X-1429Y20099D01*
X-429Y19099D01*
X571D01*
X1070Y19599D01*
Y20599D01*
X571Y21098D01*
X71D01*
X-429Y20599D01*
Y19099D01*
X-125964Y104065D02*
Y101066D01*
X-123965D01*
X-122965D02*
X-121966D01*
X-122465D01*
Y104065D01*
X-122965Y103566D01*
X-155039Y-85667D02*
Y-88666D01*
X-153039D01*
X-150040Y-85667D02*
X-152040D01*
Y-88666D01*
X-150040D01*
X-152040Y-87167D02*
X-151040D01*
X-149041Y-85667D02*
Y-88666D01*
X-147541D01*
X-147041Y-88166D01*
Y-86167D01*
X-147541Y-85667D01*
X-149041D01*
X-146042Y-88666D02*
X-145042D01*
X-145542D01*
Y-85667D01*
X-146042Y-86167D01*
X-102994Y89050D02*
Y92049D01*
X-101494D01*
X-100994Y91549D01*
Y90549D01*
X-101494Y90049D01*
X-102994D01*
X-101994D02*
X-100994Y89050D01*
X-99994D02*
X-98995D01*
X-99495D01*
Y92049D01*
X-99994Y91549D01*
X-185994Y85550D02*
Y88549D01*
X-184494D01*
X-183994Y88049D01*
Y87049D01*
X-184494Y86549D01*
X-185994D01*
X-184994D02*
X-183994Y85550D01*
X-181495D02*
Y88549D01*
X-182994Y87049D01*
X-180995D01*
X-159494Y82550D02*
X-162493D01*
Y84049D01*
X-161993Y84549D01*
X-160993D01*
X-160493Y84049D01*
Y82550D01*
Y83549D02*
X-159494Y84549D01*
X-162493Y87548D02*
Y85549D01*
X-160993D01*
X-161493Y86549D01*
Y87048D01*
X-160993Y87548D01*
X-159993D01*
X-159494Y87048D01*
Y86049D01*
X-159993Y85549D01*
X16006Y64550D02*
Y67549D01*
X17506D01*
X18006Y67049D01*
Y66049D01*
X17506Y65549D01*
X16006D01*
X17006D02*
X18006Y64550D01*
X19005D02*
X20005D01*
X19505D01*
Y67549D01*
X19005Y67049D01*
X21505Y67549D02*
X23504D01*
Y67049D01*
X21505Y65050D01*
Y64550D01*
X-29493Y109550D02*
X-32493D01*
Y111049D01*
X-31993Y111549D01*
X-30993D01*
X-30493Y111049D01*
Y109550D01*
Y110549D02*
X-29493Y111549D01*
Y112549D02*
Y113549D01*
Y113049D01*
X-32493D01*
X-31993Y112549D01*
Y115048D02*
X-32493Y115548D01*
Y116548D01*
X-31993Y117047D01*
X-31493D01*
X-30993Y116548D01*
X-30493Y117047D01*
X-29993D01*
X-29493Y116548D01*
Y115548D01*
X-29993Y115048D01*
X-30493D01*
X-30993Y115548D01*
X-31493Y115048D01*
X-31993D01*
X-30993Y115548D02*
Y116548D01*
X27007Y55550D02*
X24008D01*
Y57049D01*
X24507Y57549D01*
X25507D01*
X26007Y57049D01*
Y55550D01*
Y56549D02*
X27007Y57549D01*
Y58549D02*
Y59548D01*
Y59049D01*
X24008D01*
X24507Y58549D01*
X26507Y61048D02*
X27007Y61548D01*
Y62547D01*
X26507Y63047D01*
X24507D01*
X24008Y62547D01*
Y61548D01*
X24507Y61048D01*
X25007D01*
X25507Y61548D01*
Y63047D01*
X-190993Y53550D02*
X-193992D01*
Y55049D01*
X-193493Y55549D01*
X-192493D01*
X-191993Y55049D01*
Y53550D01*
Y54549D02*
X-190993Y55549D01*
Y58548D02*
Y56549D01*
X-192993Y58548D01*
X-193493D01*
X-193992Y58048D01*
Y57049D01*
X-193493Y56549D01*
Y59548D02*
X-193992Y60048D01*
Y61047D01*
X-193493Y61547D01*
X-191493D01*
X-190993Y61047D01*
Y60048D01*
X-191493Y59548D01*
X-193493D01*
X-143597Y-88578D02*
Y-85579D01*
X-142097D01*
X-141598Y-86079D01*
Y-87079D01*
X-142097Y-87579D01*
X-143597D01*
X-142597D02*
X-141598Y-88578D01*
X-138599D02*
X-140598D01*
X-138599Y-86579D01*
Y-86079D01*
X-139099Y-85579D01*
X-140098D01*
X-140598Y-86079D01*
X-137599Y-88578D02*
X-136599D01*
X-137099D01*
Y-85579D01*
X-137599Y-86079D01*
X-137048Y-75327D02*
Y-72328D01*
X-135548D01*
X-135049Y-72828D01*
Y-73828D01*
X-135548Y-74328D01*
X-137048D01*
X-136048D02*
X-135049Y-75327D01*
X-132050D02*
X-134049D01*
X-132050Y-73328D01*
Y-72828D01*
X-132550Y-72328D01*
X-133549D01*
X-134049Y-72828D01*
X-129051Y-75327D02*
X-131050D01*
X-129051Y-73328D01*
Y-72828D01*
X-129551Y-72328D01*
X-130550D01*
X-131050Y-72828D01*
X-77541Y9109D02*
X-80540D01*
Y10608D01*
X-80040Y11108D01*
X-79040D01*
X-78540Y10608D01*
Y9109D01*
Y10108D02*
X-77541Y11108D01*
Y14107D02*
Y12108D01*
X-79540Y14107D01*
X-80040D01*
X-80540Y13607D01*
Y12607D01*
X-80040Y12108D01*
X-80540Y15107D02*
Y17106D01*
X-80040D01*
X-78041Y15107D01*
X-77541D01*
X-103993Y-25450D02*
X-106992D01*
Y-23951D01*
X-106493Y-23451D01*
X-105493D01*
X-104993Y-23951D01*
Y-25450D01*
Y-24451D02*
X-103993Y-23451D01*
Y-20452D02*
Y-22451D01*
X-105993Y-20452D01*
X-106493D01*
X-106992Y-20952D01*
Y-21951D01*
X-106493Y-22451D01*
Y-19452D02*
X-106992Y-18952D01*
Y-17953D01*
X-106493Y-17453D01*
X-105993D01*
X-105493Y-17953D01*
X-104993Y-17453D01*
X-104493D01*
X-103993Y-17953D01*
Y-18952D01*
X-104493Y-19452D01*
X-104993D01*
X-105493Y-18952D01*
X-105993Y-19452D01*
X-106493D01*
X-105493Y-18952D02*
Y-17953D01*
X-67054Y20090D02*
Y23089D01*
X-65555D01*
X-65055Y22590D01*
Y21590D01*
X-65555Y21090D01*
X-67054D01*
X-66054D02*
X-65055Y20090D01*
X-62056D02*
X-64055D01*
X-62056Y22090D01*
Y22590D01*
X-62556Y23089D01*
X-63555D01*
X-64055Y22590D01*
X-61056Y20590D02*
X-60556Y20090D01*
X-59557D01*
X-59057Y20590D01*
Y22590D01*
X-59557Y23089D01*
X-60556D01*
X-61056Y22590D01*
Y22090D01*
X-60556Y21590D01*
X-59057D01*
X-68493Y-69450D02*
X-71492D01*
Y-67951D01*
X-70993Y-67451D01*
X-69993D01*
X-69493Y-67951D01*
Y-69450D01*
Y-68451D02*
X-68493Y-67451D01*
X-70993Y-66451D02*
X-71492Y-65951D01*
Y-64952D01*
X-70993Y-64452D01*
X-70493D01*
X-69993Y-64952D01*
Y-65452D01*
Y-64952D01*
X-69493Y-64452D01*
X-68993D01*
X-68493Y-64952D01*
Y-65951D01*
X-68993Y-66451D01*
X-70993Y-63452D02*
X-71492Y-62952D01*
Y-61953D01*
X-70993Y-61453D01*
X-68993D01*
X-68493Y-61953D01*
Y-62952D01*
X-68993Y-63452D01*
X-70993D01*
X-108493Y-25450D02*
X-111493D01*
Y-23951D01*
X-110993Y-23451D01*
X-109993D01*
X-109493Y-23951D01*
Y-25450D01*
Y-24451D02*
X-108493Y-23451D01*
X-110993Y-22451D02*
X-111493Y-21951D01*
Y-20952D01*
X-110993Y-20452D01*
X-110493D01*
X-109993Y-20952D01*
Y-21452D01*
Y-20952D01*
X-109493Y-20452D01*
X-108993D01*
X-108493Y-20952D01*
Y-21951D01*
X-108993Y-22451D01*
X-108493Y-19452D02*
Y-18452D01*
Y-18952D01*
X-111493D01*
X-110993Y-19452D01*
X-99493Y-69450D02*
X-102492D01*
Y-67951D01*
X-101993Y-67451D01*
X-100993D01*
X-100493Y-67951D01*
Y-69450D01*
Y-68451D02*
X-99493Y-67451D01*
X-101993Y-66451D02*
X-102492Y-65951D01*
Y-64952D01*
X-101993Y-64452D01*
X-101493D01*
X-100993Y-64952D01*
Y-65452D01*
Y-64952D01*
X-100493Y-64452D01*
X-99993D01*
X-99493Y-64952D01*
Y-65951D01*
X-99993Y-66451D01*
X-99493Y-61453D02*
Y-63452D01*
X-101493Y-61453D01*
X-101993D01*
X-102492Y-61953D01*
Y-62952D01*
X-101993Y-63452D01*
X-70994Y-22450D02*
Y-19451D01*
X-69494D01*
X-68994Y-19951D01*
Y-20951D01*
X-69494Y-21451D01*
X-70994D01*
X-69994D02*
X-68994Y-22450D01*
X-67994Y-19951D02*
X-67495Y-19451D01*
X-66495D01*
X-65995Y-19951D01*
Y-20451D01*
X-66495Y-20951D01*
X-66995D01*
X-66495D01*
X-65995Y-21451D01*
Y-21950D01*
X-66495Y-22450D01*
X-67495D01*
X-67994Y-21950D01*
X-64995Y-19951D02*
X-64496Y-19451D01*
X-63496D01*
X-62996Y-19951D01*
Y-20451D01*
X-63496Y-20951D01*
X-63996D01*
X-63496D01*
X-62996Y-21451D01*
Y-21950D01*
X-63496Y-22450D01*
X-64496D01*
X-64995Y-21950D01*
X-71494Y-17950D02*
Y-14951D01*
X-69994D01*
X-69494Y-15451D01*
Y-16451D01*
X-69994Y-16951D01*
X-71494D01*
X-70494D02*
X-69494Y-17950D01*
X-68494Y-15451D02*
X-67995Y-14951D01*
X-66995D01*
X-66495Y-15451D01*
Y-15951D01*
X-66995Y-16451D01*
X-67495D01*
X-66995D01*
X-66495Y-16951D01*
Y-17450D01*
X-66995Y-17950D01*
X-67995D01*
X-68494Y-17450D01*
X-63996Y-17950D02*
Y-14951D01*
X-65496Y-16451D01*
X-63496D01*
X-70494Y-26450D02*
Y-23451D01*
X-68994D01*
X-68494Y-23951D01*
Y-24951D01*
X-68994Y-25451D01*
X-70494D01*
X-69494D02*
X-68494Y-26450D01*
X-67494Y-23951D02*
X-66995Y-23451D01*
X-65995D01*
X-65495Y-23951D01*
Y-24451D01*
X-65995Y-24951D01*
X-66495D01*
X-65995D01*
X-65495Y-25451D01*
Y-25950D01*
X-65995Y-26450D01*
X-66995D01*
X-67494Y-25950D01*
X-62496Y-23451D02*
X-64495D01*
Y-24951D01*
X-63496Y-24451D01*
X-62996D01*
X-62496Y-24951D01*
Y-25950D01*
X-62996Y-26450D01*
X-63996D01*
X-64495Y-25950D01*
X-92493Y70550D02*
Y73549D01*
X-90994D01*
X-90494Y73049D01*
Y72049D01*
X-90994Y71549D01*
X-92493D01*
X-91494D02*
X-90494Y70550D01*
X-89495Y73049D02*
X-88995Y73549D01*
X-87995D01*
X-87495Y73049D01*
Y72549D01*
X-87995Y72049D01*
X-88495D01*
X-87995D01*
X-87495Y71549D01*
Y71050D01*
X-87995Y70550D01*
X-88995D01*
X-89495Y71050D01*
X-84496Y73549D02*
X-85496Y73049D01*
X-86496Y72049D01*
Y71050D01*
X-85996Y70550D01*
X-84996D01*
X-84496Y71050D01*
Y71549D01*
X-84996Y72049D01*
X-86496D01*
X-63994Y72550D02*
X-66992D01*
Y74049D01*
X-66493Y74549D01*
X-65493D01*
X-64993Y74049D01*
Y72550D01*
Y73549D02*
X-63994Y74549D01*
X-66493Y75549D02*
X-66992Y76049D01*
Y77048D01*
X-66493Y77548D01*
X-65993D01*
X-65493Y77048D01*
Y76548D01*
Y77048D01*
X-64993Y77548D01*
X-64493D01*
X-63994Y77048D01*
Y76049D01*
X-64493Y75549D01*
X-66992Y78548D02*
Y80547D01*
X-66493D01*
X-64493Y78548D01*
X-63994D01*
X-101494Y108050D02*
Y111049D01*
X-99994D01*
X-99494Y110549D01*
Y109549D01*
X-99994Y109049D01*
X-101494D01*
X-100494D02*
X-99494Y108050D01*
X-98494Y110549D02*
X-97995Y111049D01*
X-96995D01*
X-96495Y110549D01*
Y110049D01*
X-96995Y109549D01*
X-97495D01*
X-96995D01*
X-96495Y109049D01*
Y108550D01*
X-96995Y108050D01*
X-97995D01*
X-98494Y108550D01*
X-95495Y110549D02*
X-94996Y111049D01*
X-93996D01*
X-93496Y110549D01*
Y110049D01*
X-93996Y109549D01*
X-93496Y109049D01*
Y108550D01*
X-93996Y108050D01*
X-94996D01*
X-95495Y108550D01*
Y109049D01*
X-94996Y109549D01*
X-95495Y110049D01*
Y110549D01*
X-94996Y109549D02*
X-93996D01*
X-17993Y-26450D02*
X-20992D01*
Y-24951D01*
X-20493Y-24451D01*
X-19493D01*
X-18993Y-24951D01*
Y-26450D01*
Y-25451D02*
X-17993Y-24451D01*
X-20493Y-23451D02*
X-20992Y-22951D01*
Y-21952D01*
X-20493Y-21452D01*
X-19993D01*
X-19493Y-21952D01*
Y-22452D01*
Y-21952D01*
X-18993Y-21452D01*
X-18493D01*
X-17993Y-21952D01*
Y-22951D01*
X-18493Y-23451D01*
Y-20452D02*
X-17993Y-19952D01*
Y-18953D01*
X-18493Y-18453D01*
X-20493D01*
X-20992Y-18953D01*
Y-19952D01*
X-20493Y-20452D01*
X-19993D01*
X-19493Y-19952D01*
Y-18453D01*
X-10994Y-45950D02*
X-13993D01*
Y-44451D01*
X-13493Y-43951D01*
X-12493D01*
X-11993Y-44451D01*
Y-45950D01*
Y-44951D02*
X-10994Y-43951D01*
Y-41452D02*
X-13993D01*
X-12493Y-42951D01*
Y-40952D01*
X-13493Y-39952D02*
X-13993Y-39452D01*
Y-38453D01*
X-13493Y-37953D01*
X-11493D01*
X-10994Y-38453D01*
Y-39452D01*
X-11493Y-39952D01*
X-13493D01*
X-23494Y-25950D02*
X-26493D01*
Y-24451D01*
X-25993Y-23951D01*
X-24993D01*
X-24493Y-24451D01*
Y-25950D01*
Y-24951D02*
X-23494Y-23951D01*
Y-21452D02*
X-26493D01*
X-24993Y-22951D01*
Y-20952D01*
X-23494Y-19952D02*
Y-18952D01*
Y-19452D01*
X-26493D01*
X-25993Y-19952D01*
X-7993Y-16950D02*
X-10993D01*
Y-15451D01*
X-10493Y-14951D01*
X-9493D01*
X-8993Y-15451D01*
Y-16950D01*
Y-15951D02*
X-7993Y-14951D01*
Y-12452D02*
X-10993D01*
X-9493Y-13951D01*
Y-11952D01*
X-7993Y-9453D02*
X-10993D01*
X-9493Y-10952D01*
Y-8953D01*
X-10493Y-25950D02*
Y-22951D01*
X-8994D01*
X-8494Y-23451D01*
Y-24451D01*
X-8994Y-24951D01*
X-10493D01*
X-9494D02*
X-8494Y-25950D01*
X-5995D02*
Y-22951D01*
X-7495Y-24451D01*
X-5495D01*
X-2496Y-22951D02*
X-4496D01*
Y-24451D01*
X-3496Y-23951D01*
X-2996D01*
X-2496Y-24451D01*
Y-25450D01*
X-2996Y-25950D01*
X-3996D01*
X-4496Y-25450D01*
X-63493Y98550D02*
Y100549D01*
Y99549D01*
X-60493D01*
Y101549D02*
X-63493D01*
Y103048D01*
X-62993Y103548D01*
X-61993D01*
X-61493Y103048D01*
Y101549D01*
X-60493Y104548D02*
Y105547D01*
Y105048D01*
X-63493D01*
X-62993Y104548D01*
X-111024Y-39521D02*
X-109024D01*
X-110024D01*
Y-42520D01*
X-108025D02*
Y-39521D01*
X-106525D01*
X-106025Y-40020D01*
Y-41020D01*
X-106525Y-41520D01*
X-108025D01*
X-103026Y-42520D02*
X-105026D01*
X-103026Y-40520D01*
Y-40020D01*
X-103526Y-39521D01*
X-104526D01*
X-105026Y-40020D01*
X-164614Y127170D02*
X-163200Y128584D01*
X-163907Y127877D01*
X-161787Y125757D01*
X-160373Y127170D02*
X-162494Y129291D01*
X-161433Y130351D01*
X-160726Y130351D01*
X-160019Y129645D01*
Y128938D01*
X-161080Y127877D01*
X-157192Y130351D02*
X-159313Y132472D01*
X-159313Y130351D01*
X-157899Y131765D01*
X-208994Y71549D02*
X-206994D01*
X-207994D01*
Y68550D01*
X-205995D02*
Y71549D01*
X-204495D01*
X-203995Y71049D01*
Y70049D01*
X-204495Y69549D01*
X-205995D01*
X-202995Y71049D02*
X-202496Y71549D01*
X-201496D01*
X-200996Y71049D01*
Y70549D01*
X-201496Y70049D01*
X-201996D01*
X-201496D01*
X-200996Y69549D01*
Y69050D01*
X-201496Y68550D01*
X-202496D01*
X-202995Y69050D01*
X-156493Y89549D02*
X-154494D01*
X-155494D01*
Y86550D01*
X-153495D02*
Y89549D01*
X-151995D01*
X-151495Y89049D01*
Y88049D01*
X-151995Y87549D01*
X-153495D01*
X-150496Y89549D02*
X-148496D01*
Y89049D01*
X-150496Y87050D01*
Y86550D01*
X-76494Y83549D02*
X-74494D01*
X-75494D01*
Y80550D01*
X-73494D02*
Y83549D01*
X-71995D01*
X-71495Y83049D01*
Y82049D01*
X-71995Y81549D01*
X-73494D01*
X-70495Y83049D02*
X-69996Y83549D01*
X-68996D01*
X-68496Y83049D01*
Y82549D01*
X-68996Y82049D01*
X-68496Y81549D01*
Y81050D01*
X-68996Y80550D01*
X-69996D01*
X-70495Y81050D01*
Y81549D01*
X-69996Y82049D01*
X-70495Y82549D01*
Y83049D01*
X-69996Y82049D02*
X-68996D01*
X-39992Y62550D02*
Y64549D01*
Y63549D01*
X-36994D01*
Y65549D02*
X-39992D01*
Y67048D01*
X-39493Y67548D01*
X-38493D01*
X-37993Y67048D01*
Y65549D01*
X-36994Y68548D02*
Y69547D01*
Y69048D01*
X-39992D01*
X-39493Y68548D01*
Y71047D02*
X-39992Y71547D01*
Y72546D01*
X-39493Y73046D01*
X-38993D01*
X-38493Y72546D01*
Y72047D01*
Y72546D01*
X-37993Y73046D01*
X-37493D01*
X-36994Y72546D01*
Y71547D01*
X-37493Y71047D01*
X-68615Y-56455D02*
X-66615D01*
X-67615D01*
Y-59455D01*
X-65615D02*
Y-56455D01*
X-64116D01*
X-63616Y-56955D01*
Y-57955D01*
X-64116Y-58455D01*
X-65615D01*
X-62616Y-59455D02*
X-61617D01*
X-62117D01*
Y-56455D01*
X-62616Y-56955D01*
X-60117Y-56455D02*
X-58118D01*
Y-56955D01*
X-60117Y-58955D01*
Y-59455D01*
X-80993Y107549D02*
Y105050D01*
X-80494Y104550D01*
X-79494D01*
X-78994Y105050D01*
Y107549D01*
X-77995Y104550D02*
X-76995D01*
X-77495D01*
Y107549D01*
X-77995Y107049D01*
X-993Y102549D02*
Y100050D01*
X-494Y99550D01*
X506D01*
X1006Y100050D01*
Y102549D01*
X2005Y102049D02*
X2505Y102549D01*
X3505D01*
X4005Y102049D01*
Y101549D01*
X3505Y101049D01*
X3005D01*
X3505D01*
X4005Y100549D01*
Y100050D01*
X3505Y99550D01*
X2505D01*
X2005Y100050D01*
X-46993Y158049D02*
Y155550D01*
X-46494Y155050D01*
X-45494D01*
X-44994Y155550D01*
Y158049D01*
X-42495Y155050D02*
Y158049D01*
X-43995Y156549D01*
X-41995D01*
X-174494Y71549D02*
Y69050D01*
X-173994Y68550D01*
X-172994D01*
X-172494Y69050D01*
Y71549D01*
X-169495Y68550D02*
X-171494D01*
X-169495Y70549D01*
Y71049D01*
X-169995Y71549D01*
X-170995D01*
X-171494Y71049D01*
X-79993Y65049D02*
Y62550D01*
X-79494Y62050D01*
X-78494D01*
X-77994Y62550D01*
Y65049D01*
X-74995D02*
X-75995Y64549D01*
X-76995Y63549D01*
Y62550D01*
X-76495Y62050D01*
X-75495D01*
X-74995Y62550D01*
Y63049D01*
X-75495Y63549D01*
X-76995D01*
X-63494Y-40951D02*
Y-43450D01*
X-62994Y-43950D01*
X-61994D01*
X-61494Y-43450D01*
Y-40951D01*
X-60495D02*
X-58495D01*
Y-41451D01*
X-60495Y-43450D01*
Y-43950D01*
X-22493Y69049D02*
X-20494Y66050D01*
Y69049D02*
X-22493Y66050D01*
X-19494D02*
X-18495D01*
X-18995D01*
Y69049D01*
X-19494Y68549D01*
X-192993Y109550D02*
Y112549D01*
X-191494D01*
X-190994Y112049D01*
Y111049D01*
X-191494Y110549D01*
X-192993D01*
X-191994D02*
X-190994Y109550D01*
X-189995D02*
X-188995D01*
X-189495D01*
Y112549D01*
X-189995Y112049D01*
X-185996Y109550D02*
Y112549D01*
X-187495Y111049D01*
X-185496D01*
X-26994Y-47450D02*
X-29992D01*
Y-45951D01*
X-29493Y-45451D01*
X-28493D01*
X-27993Y-45951D01*
Y-47450D01*
Y-46451D02*
X-26994Y-45451D01*
Y-42952D02*
X-29992D01*
X-28493Y-44451D01*
Y-42452D01*
X-26994Y-39453D02*
Y-41452D01*
X-28993Y-39453D01*
X-29493D01*
X-29992Y-39953D01*
Y-40952D01*
X-29493Y-41452D01*
X-10493Y-21450D02*
Y-18451D01*
X-8994D01*
X-8494Y-18951D01*
Y-19951D01*
X-8994Y-20451D01*
X-10493D01*
X-9494D02*
X-8494Y-21450D01*
X-5995D02*
Y-18451D01*
X-7495Y-19951D01*
X-5495D01*
X-4496Y-18951D02*
X-3996Y-18451D01*
X-2996D01*
X-2496Y-18951D01*
Y-19451D01*
X-2996Y-19951D01*
X-3496D01*
X-2996D01*
X-2496Y-20451D01*
Y-20950D01*
X-2996Y-21450D01*
X-3996D01*
X-4496Y-20950D01*
X-12994Y131049D02*
X-13494Y131549D01*
X-14494D01*
X-14994Y131049D01*
Y129050D01*
X-14494Y128550D01*
X-13494D01*
X-12994Y129050D01*
X-11994Y131549D02*
Y128550D01*
X-9995D01*
X-8995D02*
Y131549D01*
X-7496D01*
X-6996Y131049D01*
Y130049D01*
X-7496Y129549D01*
X-8995D01*
X-3997Y128550D02*
X-5996D01*
X-3997Y130549D01*
Y131049D01*
X-4497Y131549D01*
X-5497D01*
X-5996Y131049D01*
X20076Y-24535D02*
X18077D01*
X17077Y-23535D01*
X18077Y-22535D01*
X20076D01*
X18577D01*
Y-24535D01*
X20076Y-21536D02*
X17077D01*
X20076Y-19536D01*
X17077D01*
Y-18537D02*
Y-16537D01*
Y-17537D01*
X20076D01*
Y-15538D02*
Y-14538D01*
Y-15038D01*
X17077D01*
X17577Y-15538D01*
X-131493Y115049D02*
Y112050D01*
X-129994D01*
X-129494Y112550D01*
Y114549D01*
X-129994Y115049D01*
X-131493D01*
X-128495Y114549D02*
X-127995Y115049D01*
X-126995D01*
X-126495Y114549D01*
Y114049D01*
X-126995Y113549D01*
X-127495D01*
X-126995D01*
X-126495Y113049D01*
Y112550D01*
X-126995Y112050D01*
X-127995D01*
X-128495Y112550D01*
X34984Y78021D02*
X34484Y77521D01*
Y76521D01*
X34984Y76022D01*
X36983D01*
X37483Y76521D01*
Y77521D01*
X36983Y78021D01*
X34484Y79021D02*
X37483D01*
Y81020D01*
Y82020D02*
X34484D01*
Y83519D01*
X34984Y84019D01*
X35983D01*
X36483Y83519D01*
Y82020D01*
X37483Y85019D02*
Y86018D01*
Y85519D01*
X34484D01*
X34984Y85019D01*
X-110236Y-58025D02*
Y-61024D01*
X-108737D01*
X-108237Y-60524D01*
Y-58524D01*
X-108737Y-58025D01*
X-110236D01*
X-107237Y-61024D02*
X-106237D01*
X-106737D01*
Y-58025D01*
X-107237Y-58524D01*
X-56994Y90549D02*
Y87550D01*
X-54994D01*
X-53995Y90549D02*
X-51995D01*
Y90049D01*
X-53995Y88050D01*
Y87550D01*
X-57494Y86049D02*
Y83050D01*
X-55494D01*
X-54495Y85549D02*
X-53995Y86049D01*
X-52995D01*
X-52495Y85549D01*
Y85049D01*
X-52995Y84549D01*
X-52495Y84049D01*
Y83550D01*
X-52995Y83050D01*
X-53995D01*
X-54495Y83550D01*
Y84049D01*
X-53995Y84549D01*
X-54495Y85049D01*
Y85549D01*
X-53995Y84549D02*
X-52995D01*
X-56994Y82049D02*
Y79050D01*
X-54994D01*
X-53995Y79550D02*
X-53495Y79050D01*
X-52495D01*
X-51995Y79550D01*
Y81549D01*
X-52495Y82049D01*
X-53495D01*
X-53995Y81549D01*
Y81049D01*
X-53495Y80549D01*
X-51995D01*
X-58494Y78549D02*
Y75550D01*
X-56494D01*
X-55494D02*
X-54495D01*
X-54995D01*
Y78549D01*
X-55494Y78049D01*
X-52995D02*
X-52495Y78549D01*
X-51496D01*
X-50996Y78049D01*
Y76050D01*
X-51496Y75550D01*
X-52495D01*
X-52995Y76050D01*
Y78049D01*
X9092Y65682D02*
X12091D01*
Y67681D01*
Y68681D02*
Y69681D01*
Y69181D01*
X9092D01*
X9591Y68681D01*
X12091Y71180D02*
Y72180D01*
Y71680D01*
X9092D01*
X9591Y71180D01*
X-56994Y99549D02*
Y96550D01*
X-54994D01*
X-53995D02*
X-52995D01*
X-53495D01*
Y99549D01*
X-53995Y99049D01*
X-49496Y96550D02*
X-51495D01*
X-49496Y98549D01*
Y99049D01*
X-49996Y99549D01*
X-50995D01*
X-51495Y99049D01*
X-68494Y-88451D02*
X-69494D01*
X-68994D01*
Y-90950D01*
X-69494Y-91450D01*
X-69994D01*
X-70494Y-90950D01*
X-65995Y-91450D02*
Y-88451D01*
X-67494Y-89951D01*
X-65495D01*
X-42492Y97050D02*
Y99049D01*
Y98049D01*
X-39494D01*
Y100049D02*
X-42492D01*
Y101548D01*
X-41993Y102048D01*
X-40993D01*
X-40493Y101548D01*
Y100049D01*
X-39494Y103048D02*
Y104048D01*
Y103548D01*
X-42492D01*
X-41993Y103048D01*
X-39494Y107046D02*
X-42492D01*
X-40993Y105547D01*
Y107546D01*
X-42492Y85050D02*
Y87049D01*
Y86049D01*
X-39494D01*
Y88049D02*
X-42492D01*
Y89548D01*
X-41993Y90048D01*
X-40993D01*
X-40493Y89548D01*
Y88049D01*
X-39494Y91048D02*
Y92048D01*
Y91548D01*
X-42492D01*
X-41993Y91048D01*
X-39494Y93547D02*
Y94547D01*
Y94047D01*
X-42492D01*
X-41993Y93547D01*
X-41993Y73050D02*
Y75049D01*
Y74049D01*
X-38993D01*
Y76049D02*
X-41993D01*
Y77548D01*
X-41493Y78048D01*
X-40493D01*
X-39993Y77548D01*
Y76049D01*
X-38993Y79048D02*
Y80048D01*
Y79548D01*
X-41993D01*
X-41493Y79048D01*
X-38993Y83546D02*
Y81547D01*
X-40993Y83546D01*
X-41493D01*
X-41993Y83047D01*
Y82047D01*
X-41493Y81547D01*
X-5993Y100050D02*
Y102049D01*
Y101049D01*
X-2994D01*
Y103049D02*
X-5993D01*
Y104548D01*
X-5493Y105048D01*
X-4493D01*
X-3993Y104548D01*
Y103049D01*
X-2994Y106048D02*
Y107047D01*
Y106548D01*
X-5993D01*
X-5493Y106048D01*
X-5993Y110546D02*
Y108547D01*
X-4493D01*
X-4993Y109547D01*
Y110047D01*
X-4493Y110546D01*
X-3493D01*
X-2994Y110047D01*
Y109047D01*
X-3493Y108547D01*
X17677Y113479D02*
X17177Y112979D01*
Y111979D01*
X17677Y111479D01*
X19676D01*
X20176Y111979D01*
Y112979D01*
X19676Y113479D01*
X17177Y114479D02*
Y116478D01*
X17677D01*
X19676Y114479D01*
X20176D01*
X17677Y117478D02*
X17177Y117977D01*
Y118977D01*
X17677Y119477D01*
X19676D01*
X20176Y118977D01*
Y117977D01*
X19676Y117478D01*
X17677D01*
X47203Y52402D02*
X46703Y52901D01*
X45703D01*
X45203Y52402D01*
Y50402D01*
X45703Y49902D01*
X46703D01*
X47203Y50402D01*
X48202Y52901D02*
X50202D01*
Y52402D01*
X48202Y50402D01*
Y49902D01*
X51201D02*
X52201D01*
X51701D01*
Y52901D01*
X51201Y52402D01*
X-121994Y88549D02*
Y85550D01*
X-120494D01*
X-119994Y86050D01*
Y88049D01*
X-120494Y88549D01*
X-121994D01*
X-118994Y88049D02*
X-118495Y88549D01*
X-117495D01*
X-116995Y88049D01*
Y87549D01*
X-117495Y87049D01*
X-116995Y86549D01*
Y86050D01*
X-117495Y85550D01*
X-118495D01*
X-118994Y86050D01*
Y86549D01*
X-118495Y87049D01*
X-118994Y87549D01*
Y88049D01*
X-118495Y87049D02*
X-117495D01*
X-165993Y62549D02*
Y59550D01*
X-164494D01*
X-163994Y60050D01*
Y62049D01*
X-164494Y62549D01*
X-165993D01*
X-162995Y60050D02*
X-162495Y59550D01*
X-161495D01*
X-160995Y60050D01*
Y62049D01*
X-161495Y62549D01*
X-162495D01*
X-162995Y62049D01*
Y61549D01*
X-162495Y61049D01*
X-160995D01*
X-28993Y160549D02*
Y157550D01*
X-27494D01*
X-26994Y158050D01*
Y160049D01*
X-27494Y160549D01*
X-28993D01*
X-25995Y157550D02*
X-24995D01*
X-25495D01*
Y160549D01*
X-25995Y160049D01*
X-23495D02*
X-22995Y160549D01*
X-21996D01*
X-21496Y160049D01*
Y158050D01*
X-21996Y157550D01*
X-22995D01*
X-23495Y158050D01*
Y160049D01*
X-110993Y19050D02*
X-107993D01*
Y21049D01*
Y22049D02*
Y23049D01*
Y22549D01*
X-110993D01*
X-110493Y22049D01*
X-110993Y26547D02*
X-110493Y25548D01*
X-109493Y24548D01*
X-108493D01*
X-107993Y25048D01*
Y26048D01*
X-108493Y26547D01*
X-108993D01*
X-109493Y26048D01*
Y24548D01*
X-100494Y117549D02*
Y114550D01*
X-98994D01*
X-98494Y115050D01*
Y117049D01*
X-98994Y117549D01*
X-100494D01*
X-97495Y114550D02*
X-96495D01*
X-96995D01*
Y117549D01*
X-97495Y117049D01*
X-94995Y114550D02*
X-93996D01*
X-94495D01*
Y117549D01*
X-94995Y117049D01*
X-186994Y26050D02*
Y29049D01*
X-185494D01*
X-184994Y28549D01*
Y27549D01*
X-185494Y27049D01*
X-186994D01*
X-185994D02*
X-184994Y26050D01*
X-181995D02*
X-183994D01*
X-181995Y28049D01*
Y28549D01*
X-182495Y29049D01*
X-183495D01*
X-183994Y28549D01*
X-88994Y80549D02*
X-86994D01*
X-87994D01*
Y77550D01*
X-85994D02*
Y80549D01*
X-84495D01*
X-83995Y80049D01*
Y79049D01*
X-84495Y78549D01*
X-85994D01*
X-82995Y78050D02*
X-82496Y77550D01*
X-81496D01*
X-80996Y78050D01*
Y80049D01*
X-81496Y80549D01*
X-82496D01*
X-82995Y80049D01*
Y79549D01*
X-82496Y79049D01*
X-80996D01*
D15*
X-50686Y144050D02*
Y153050D01*
Y144050D02*
X-37301D01*
Y153050D01*
X-50686D02*
X-37301D01*
X-141782Y96693D02*
X-128782D01*
X-128782Y91378D02*
X-128782Y96693D01*
X-141782Y91378D02*
X-128782D01*
X-141782Y96693D02*
X-141782Y91378D01*
X-147040Y-77698D02*
Y-70698D01*
X-161740Y-77698D02*
Y-70698D01*
X-152040Y-70698D02*
X-147040Y-70698D01*
X-152040Y-77698D02*
X-147040D01*
X-161740D02*
X-157240D01*
X-161740Y-70698D02*
X-157240Y-70698D01*
X-171994Y63207D02*
X-171994Y57892D01*
X-184994Y63207D02*
X-171994D01*
X-184994Y57892D02*
X-184994Y63207D01*
X-184994Y57892D02*
X-171994D01*
X-141876Y90242D02*
X-141876Y84927D01*
X-128876D01*
X-128876Y90242D01*
X-141876D02*
X-128876D01*
X-161833Y-77210D02*
X-157333D01*
X-161833Y-84210D02*
X-157333D01*
X-152133D02*
X-147133D01*
X-152133Y-77210D02*
X-147133D01*
X-161833Y-84210D02*
Y-77210D01*
X-147133Y-84210D02*
Y-77210D01*
D16*
X-32962Y95550D02*
X-24962D01*
X-32962D02*
Y99550D01*
X-24962D01*
Y95550D02*
Y99550D01*
X14506Y55550D02*
Y63550D01*
X10507Y55550D02*
X14506D01*
X10507D02*
Y63550D01*
X14506D01*
X-32994Y75550D02*
X-24994D01*
X-32994D02*
Y79550D01*
X-24994D01*
Y75550D02*
Y79550D01*
X-32994D02*
X-24994D01*
X-32994D02*
Y83550D01*
X-24994D01*
Y79550D02*
Y83550D01*
X-32994D02*
X-24994D01*
X-32994D02*
Y87550D01*
X-24994D01*
Y83550D02*
Y87550D01*
X-32994D02*
X-24994D01*
X-32994D02*
Y91550D01*
X-24994D01*
Y87550D02*
Y91550D01*
X-6843Y15420D02*
X-2843D01*
Y23420D01*
X-6843D02*
X-2843D01*
X-6843Y15420D02*
Y23420D01*
D17*
X5906Y40050D02*
X31007D01*
X-45994Y86918D02*
Y124050D01*
X31007Y40050D02*
Y56359D01*
Y101889D02*
Y124050D01*
X15692D02*
X31007D01*
X-45994D02*
X-32439D01*
D18*
X-567846Y461778D02*
D03*
M02*
